<?xml version="1.0" standalone="no"?>
<!DOCTYPE svg PUBLIC "-//W3C//DTD SVG 20010904//EN"
 "http://www.w3.org/TR/2001/REC-SVG-20010904/DTD/svg10.dtd">
<svg version="1.0" xmlns="http://www.w3.org/2000/svg"
 width="700.000000pt" height="700.000000pt" viewBox="0 0 700.000000 700.000000"
 preserveAspectRatio="xMidYMid meet">
<metadata>
Created by potrace 1.11, written by Peter Selinger 2001-2013
</metadata>
<g transform="translate(0.000000,700.000000) scale(0.100000,-0.100000)"
fill="#000000" stroke="none">
<path d="M4775 6863 c-12 -2 -33 -14 -47 -26 -21 -17 -169 -217 -260 -350 -7
-10 -39 -55 -71 -99 -58 -79 -85 -131 -81 -155 1 -7 2 -22 3 -33 0 -10 15 -35
32 -54 23 -27 41 -37 77 -42 86 -13 116 14 292 269 8 12 54 77 102 144 47 66
94 136 103 154 21 40 15 111 -11 140 -33 37 -96 60 -139 52z"/>
<path d="M2777 5914 c-1 -1 -38 -5 -82 -8 -114 -10 -155 -14 -195 -22 -19 -3
-46 -8 -60 -10 -14 -2 -47 -10 -75 -16 -27 -7 -52 -13 -55 -13 -31 -7 -171
-54 -230 -77 -324 -129 -648 -368 -855 -631 -17 -21 -40 -50 -51 -65 -89 -112
-205 -325 -268 -489 -33 -87 -92 -304 -100 -368 -2 -16 -6 -50 -10 -75 -22
-148 -22 -408 0 -560 4 -25 8 -54 9 -65 16 -110 70 -303 118 -420 64 -157 190
-367 305 -510 133 -164 413 -413 602 -536 23 -15 24 -20 25 -140 1 -161 18
-196 135 -291 83 -67 307 -157 428 -173 18 -2 36 -6 40 -8 4 -3 34 -7 67 -11
33 -3 78 -9 100 -12 72 -9 358 -11 450 -2 318 30 562 114 699 239 79 73 88 98
92 259 1 63 3 120 3 127 1 10 130 103 144 103 12 0 155 100 192 135 257 239
394 416 523 680 106 214 170 434 200 680 9 78 9 401 0 486 -41 357 -197 714
-440 1004 -133 160 -316 330 -458 426 -36 24 -67 46 -70 49 -12 13 -150 89
-215 120 -38 17 -79 36 -89 42 -64 34 -320 105 -443 124 -21 3 -45 7 -53 9
-38 10 -375 26 -383 19z m312 -619 c3 -1 24 -6 46 -9 121 -19 328 -99 470
-183 124 -73 309 -241 402 -363 261 -345 349 -699 288 -1159 -7 -54 -43 -185
-70 -258 -62 -163 -150 -303 -276 -437 -128 -135 -235 -217 -404 -306 -170
-89 -231 -144 -276 -244 -27 -62 -32 -92 -33 -193 -1 -48 -5 -83 -11 -84 -5 0
-19 -2 -30 -5 -11 -2 -43 -7 -72 -10 l-51 -6 -2 505 -1 505 288 288 c255 255
292 297 322 357 29 61 33 76 29 132 -3 49 -10 70 -32 99 -70 92 -172 118 -265
68 -91 -49 -276 -222 -382 -356 -12 -15 -40 -46 -63 -69 -22 -23 -51 -56 -64
-72 -22 -29 -22 -30 -37 -10 -9 11 -57 63 -108 115 -51 53 -126 132 -168 175
-131 138 -218 206 -294 232 -57 19 -162 6 -198 -26 -24 -20 -54 -87 -60 -131
-8 -70 36 -156 127 -252 14 -15 26 -31 26 -36 0 -5 110 -117 245 -250 135
-134 247 -253 250 -265 20 -86 25 -292 11 -432 -3 -27 -8 -167 -11 -310 -4
-153 -10 -262 -16 -266 -6 -3 -33 -2 -62 2 -29 4 -73 10 -100 14 l-47 6 1 112
c4 209 -21 254 -196 353 -38 22 -77 43 -87 46 -9 4 -54 31 -100 61 -238 156
-376 298 -520 537 -43 73 -117 288 -133 390 -4 25 -9 54 -12 65 -2 11 -5 85
-7 165 -7 345 69 605 262 895 54 81 220 252 307 317 242 180 513 275 832 293
47 3 89 8 92 11 6 5 180 -4 190 -11z"/>
<path d="M5970 5164 c-69 -25 -147 -53 -175 -64 -27 -10 -124 -45 -215 -77
-90 -32 -177 -68 -192 -82 -86 -72 -80 -204 12 -251 68 -34 107 -27 366 66
132 47 277 99 323 114 154 54 198 103 192 217 -1 28 -56 92 -90 105 -57 22
-95 17 -221 -28z"/>
<path d="M5460 3149 c-86 -53 -101 -176 -30 -244 26 -25 83 -44 402 -136 325
-93 377 -105 408 -97 116 32 141 174 46 269 -27 27 -35 30 -226 85 -106 30
-191 55 -235 68 -5 2 -23 6 -40 10 -16 4 -41 11 -55 16 -160 52 -221 58 -270
29z"/>
<path d="M2189 1257 c-111 -37 -146 -145 -71 -219 55 -55 48 -55 765 -54 l662
1 42 28 c51 35 77 86 68 133 -8 47 -62 98 -118 113 -65 16 -1298 14 -1348 -2z"/>
<path d="M2222 861 c-45 -33 -63 -74 -61 -141 2 -54 12 -76 53 -113 41 -37 66
-42 201 -41 63 0 115 -2 116 -5 1 -3 3 -35 5 -69 11 -208 156 -353 354 -354
197 0 335 134 349 341 l6 86 115 1 c144 1 170 7 214 50 76 74 65 189 -25 248
l-39 26 -623 0 -624 0 -41 -29z"/>
</g>
</svg>
