<svg xmlns="http://www.w3.org/2000/svg" width="110" height="110" viewBox="0 0 110 110">
  <g id="Group_32" data-name="Group 32" transform="translate(-727 -1228)">
    <g id="Ellipse_2" data-name="Ellipse 2" transform="translate(727 1228)" fill="rgba(255,255,255,0.36)" stroke="#b7b7b7" stroke-width="5">
      <circle cx="55" cy="55" r="55" stroke="none"/>
      <circle cx="55" cy="55" r="52.5" fill="none"/>
    </g>
    <g id="connection-social-distance-realtion-network" transform="translate(753 1254)">
      <path id="Path_23" data-name="Path 23" d="M55.583,46.489H53.772V44.3a4.54,4.54,0,0,0,2.717-4.147V36.528A4.528,4.528,0,0,0,51.961,32H50.15a4.528,4.528,0,0,0-4.528,4.528V40.15A4.54,4.54,0,0,0,48.339,44.3v2.191H46.528A4.528,4.528,0,0,0,42,51.017v7.244a.906.906,0,0,0,.906.906h16.3a.906.906,0,0,0,.906-.906V51.017a4.528,4.528,0,0,0-4.528-4.528ZM50.15,33.811h1.811a2.725,2.725,0,0,1,2.717,2.717h-1.44l-.634-.643a.912.912,0,0,0-.933-.217l-2.572.86H47.433A2.725,2.725,0,0,1,50.15,33.811ZM47.433,40.15V38.339h1.811a1.073,1.073,0,0,0,.29-.045l2.182-.733.507.516a.935.935,0,0,0,.643.263h1.811V40.15a2.725,2.725,0,0,1-2.717,2.717H50.15A2.725,2.725,0,0,1,47.433,40.15Zm4.528,4.528v1.811H50.15V44.678ZM54.325,48.3l-1.2,3.622H48.991l-1.2-3.622ZM58.3,57.356H43.811V51.017A2.709,2.709,0,0,1,45.9,48.382l1.576,4.736a.918.918,0,0,0,.86.616h5.433a.918.918,0,0,0,.86-.616l1.576-4.736A2.709,2.709,0,0,1,58.3,51.017Z" transform="translate(-3.778 -2.833)" fill="#b7b7b7"/>
      <path id="Path_24" data-name="Path 24" d="M15.583,16.489H13.772V14.3a4.54,4.54,0,0,0,2.717-4.147V6.528A4.528,4.528,0,0,0,11.961,2H10.15A4.528,4.528,0,0,0,5.622,6.528V10.15A4.54,4.54,0,0,0,8.339,14.3v2.191H6.528A4.528,4.528,0,0,0,2,21.017v7.244a.906.906,0,0,0,.906.906h16.3a.906.906,0,0,0,.906-.906V21.017A4.528,4.528,0,0,0,15.583,16.489ZM10.15,3.811h1.811a2.725,2.725,0,0,1,2.717,2.717h-1.44L12.6,5.885a.912.912,0,0,0-.933-.217L9.1,6.528H7.433A2.725,2.725,0,0,1,10.15,3.811ZM7.433,10.15V8.339H9.244a1.073,1.073,0,0,0,.29-.045l2.182-.734.507.516a.935.935,0,0,0,.643.263h1.811V10.15a2.725,2.725,0,0,1-2.717,2.717H10.15A2.725,2.725,0,0,1,7.433,10.15Zm4.528,4.528v1.811H10.15V14.678ZM14.325,18.3l-1.2,3.622H8.991L7.786,18.3ZM18.3,27.356H3.811V21.017A2.709,2.709,0,0,1,5.9,18.381l1.576,4.736a.918.918,0,0,0,.86.616h5.433a.918.918,0,0,0,.86-.616l1.576-4.736A2.709,2.709,0,0,1,18.3,21.017Z" transform="translate(0 0)" fill="#b7b7b7"/>
      <path id="Path_25" data-name="Path 25" d="M23.735,55.03V46.717A2.725,2.725,0,0,0,21.019,44H6.53a2.725,2.725,0,0,0-2.717,2.717V55.03a2.717,2.717,0,0,0,.906,5.27H22.83a2.717,2.717,0,0,0,.906-5.27ZM5.624,46.717a.906.906,0,0,1,.906-.906H21.019a.906.906,0,0,1,.906.906v8.15H15.586a.906.906,0,0,0-.906.906H12.869a.906.906,0,0,0-.906-.906H5.624ZM22.83,58.489H4.719a.906.906,0,1,1,0-1.811h6.339a.906.906,0,0,0,.906.906h3.622a.906.906,0,0,0,.906-.906H22.83a.906.906,0,1,1,0,1.811Z" transform="translate(-0.002 -3.967)" fill="#b7b7b7"/>
      <path id="Path_26" data-name="Path 26" d="M14,50h1.811v1.811H14Z" transform="translate(-1.133 -4.533)" fill="#b7b7b7"/>
      <path id="Path_27" data-name="Path 27" d="M18,50h1.811v1.811H18Z" transform="translate(-1.511 -4.533)" fill="#b7b7b7"/>
      <path id="Path_28" data-name="Path 28" d="M10,50h1.811v1.811H10Z" transform="translate(-0.756 -4.533)" fill="#b7b7b7"/>
      <path id="Path_29" data-name="Path 29" d="M57.735,13.03V4.717A2.725,2.725,0,0,0,55.019,2H40.53a2.725,2.725,0,0,0-2.717,2.717V13.03a2.717,2.717,0,0,0,.906,5.27H56.83a2.717,2.717,0,0,0,.906-5.27ZM39.624,4.717a.906.906,0,0,1,.906-.906H55.019a.906.906,0,0,1,.906.906v8.15H49.586a.906.906,0,0,0-.906.906H46.869a.906.906,0,0,0-.906-.906H39.624ZM56.83,16.489H38.719a.906.906,0,0,1,0-1.811h6.339a.906.906,0,0,0,.906.906h3.622a.906.906,0,0,0,.906-.906H56.83a.906.906,0,0,1,0,1.811Z" transform="translate(-3.213)" fill="#b7b7b7"/>
      <path id="Path_30" data-name="Path 30" d="M48,8h1.811V9.811H48Z" transform="translate(-4.344 -0.567)" fill="#b7b7b7"/>
      <path id="Path_31" data-name="Path 31" d="M52,8h1.811V9.811H52Z" transform="translate(-4.722 -0.567)" fill="#b7b7b7"/>
      <path id="Path_32" data-name="Path 32" d="M44,8h1.811V9.811H44Z" transform="translate(-3.967 -0.567)" fill="#b7b7b7"/>
      <path id="Path_33" data-name="Path 33" d="M11.28,41.648l1.613-.824A18.825,18.825,0,0,1,10.9,33.91l-1.8.163a20.647,20.647,0,0,0,2.183,7.575Z" transform="translate(-0.67 -3.014)" fill="#b7b7b7"/>
      <path id="Path_34" data-name="Path 34" d="M28.147,52.551l-.328,1.781a20.977,20.977,0,0,0,3.786.343,20.737,20.737,0,0,0,7.574-1.42l-.659-1.688a19.185,19.185,0,0,1-10.373.983Z" transform="translate(-2.438 -4.681)" fill="#b7b7b7"/>
      <path id="Path_35" data-name="Path 35" d="M52.706,29.283l1.8-.163a20.619,20.619,0,0,0-2.187-7.575l-1.613.824a18.8,18.8,0,0,1,2,6.914Z" transform="translate(-4.6 -1.846)" fill="#b7b7b7"/>
      <path id="Path_36" data-name="Path 36" d="M30.815,10.811a19.254,19.254,0,0,1,3.457.313L34.6,9.343A20.977,20.977,0,0,0,30.815,9a20.744,20.744,0,0,0-11.361,3.37l.989,1.52a18.938,18.938,0,0,1,10.372-3.079Z" transform="translate(-1.648 -0.661)" fill="#b7b7b7"/>
    </g>
  </g>
</svg>
