<svg xmlns="http://www.w3.org/2000/svg" width="110" height="110" viewBox="0 0 110 110">
  <g id="Group_33" data-name="Group 33" transform="translate(-727 -1368)">
    <g id="Ellipse_3" data-name="Ellipse 3" transform="translate(727 1368)" fill="rgba(255,255,255,0.36)" stroke="#b7b7b7" stroke-width="5">
      <circle cx="55" cy="55" r="55" stroke="none"/>
      <circle cx="55" cy="55" r="52.5" fill="none"/>
    </g>
    <g id="Outline" transform="translate(739 1381)">
      <path id="Path_37" data-name="Path 37" d="M69.5,42.3V18.675A2.678,2.678,0,0,0,66.825,16H56.864a2.659,2.659,0,0,0-1.892.784L52.451,19.3a.886.886,0,0,1-.631.262H34.725a2.678,2.678,0,0,0-2.675,2.675v1.783H29.375a.892.892,0,0,0-.892.892v5.35h-4.5A2.674,2.674,0,0,0,21.5,33.935l.448,1.121,1.656-.662-.449-1.122a.891.891,0,0,1,.827-1.222H55.205a1.781,1.781,0,0,1,1.655,1.121l7.756,19.387h-18.3v1.783H66.825A2.678,2.678,0,0,0,69.5,51.667V44.422H67.717v7.245a.893.893,0,0,1-.892.892.425.425,0,0,1-.394-.267L65.7,50.478a.887.887,0,0,0,.228-.595V24.917a.892.892,0,0,0-.892-.892H33.833V22.242a.893.893,0,0,1,.892-.892H51.819a2.659,2.659,0,0,0,1.892-.784l2.521-2.521a.886.886,0,0,1,.631-.262h9.961a.893.893,0,0,1,.892.892V42.3Zm-5.35,4.287L61.475,39.9V28.483H59.692v6.963l-1.175-2.937a3.572,3.572,0,0,0-1.5-1.747V28.483H55.233v1.783H52.558V28.483H50.775v1.783H48.1V28.483H46.317v1.783H43.642V28.483H41.858v1.783H39.183V28.483H37.4v1.783H34.725V28.483H32.942v1.783H30.267V25.808H64.15Zm0-25.241V19.567h1.783V21.35Zm-3.567,0V19.567h1.783V21.35Zm-3.567,0V19.567H58.8V21.35ZM42.75,65.042h1.783v1.783A2.678,2.678,0,0,1,41.858,69.5H18.675A2.678,2.678,0,0,1,16,66.825v-10.7h1.783v10.7a.893.893,0,0,0,.892.892H41.858a.893.893,0,0,0,.892-.892Zm1.783-12.483v10.7H42.75v-10.7a.893.893,0,0,0-.892-.892H18.675a.893.893,0,0,0-.892.892v1.783H16V52.558a2.678,2.678,0,0,1,2.675-2.675h16.05v-5.35a4.458,4.458,0,1,0-8.917,0v2.675a.892.892,0,0,1-.892.892H20.458a.892.892,0,0,1-.892-.892V44.533a10.692,10.692,0,0,1,1.489-5.448l1.534.909a8.906,8.906,0,0,0-1.24,4.538v1.783h2.675V44.533a6.242,6.242,0,0,1,12.483,0v5.35h2.675v-5.35a8.917,8.917,0,0,0-15.8-5.674l-1.375-1.136a10.7,10.7,0,0,1,18.954,6.809v5.35h.892A2.678,2.678,0,0,1,44.533,52.558Zm-13.375,10.7V61.322a2.675,2.675,0,1,0-1.783,0v1.937Zm-.892-5.35a.892.892,0,1,1-.892.892A.892.892,0,0,1,30.267,57.908Z" fill="#b7b7b7"/>
    </g>
  </g>
</svg>
