<svg xmlns="http://www.w3.org/2000/svg" width="110" height="110" viewBox="0 0 110 110">
  <g id="Group_31" data-name="Group 31" transform="translate(-727 -1088)">
    <g id="Ellipse_1" data-name="Ellipse 1" transform="translate(727 1088)" fill="rgba(255,255,255,0.36)" stroke="#b7b7b7" stroke-width="5">
      <circle cx="55" cy="55" r="55" stroke="none"/>
      <circle cx="55" cy="55" r="52.5" fill="none"/>
    </g>
    <g id="key" transform="translate(758 1119)">
      <g id="Group_15" data-name="Group 15" transform="translate(0 19.752)">
        <g id="Group_14" data-name="Group 14">
          <path id="Path_20" data-name="Path 20" d="M22.746,220.55a1.1,1.1,0,0,0-1.553,0l-4.072,4.075H14.28a1.1,1.1,0,0,0-1.1,1.1v2.2h-2.2a1.1,1.1,0,0,0-1.1,1.1v2.2h-2.2a1.1,1.1,0,0,0-1.1,1.1v2.843l-.455.455H2.2v-3.941l18.351-18.367a1.1,1.1,0,0,0,0-1.554l-.322-.323a1.534,1.534,0,0,1-.454-1.1v0a1.1,1.1,0,1,0-2.2,0,3.718,3.718,0,0,0,.681,2.156L.322,230.441a1.1,1.1,0,0,0-.322.778v5.5a1.1,1.1,0,0,0,1.1,1.1H6.591a1.1,1.1,0,0,0,.777-.322l1.1-1.1a1.1,1.1,0,0,0,.322-.777v-2.2h2.2a1.1,1.1,0,0,0,1.1-1.1v-2.2h2.2a1.1,1.1,0,0,0,1.1-1.1v-2.2h2.2a1.1,1.1,0,0,0,.777-.322l4.394-4.4A1.1,1.1,0,0,0,22.746,220.55Z" transform="translate(0 -209.233)" fill="#b7b7b7"/>
        </g>
      </g>
      <g id="Group_17" data-name="Group 17" transform="translate(29.528 7.559)">
        <g id="Group_16" data-name="Group 16">
          <path id="Path_21" data-name="Path 21" d="M323.034,85.442l-4.394-4.4a3.507,3.507,0,0,0-4.849,0,3.436,3.436,0,0,0,0,4.852l4.394,4.4a3.43,3.43,0,0,0,4.849-4.852Zm-1.553,3.3a1.261,1.261,0,0,1-1.742,0l-4.394-4.4a1.237,1.237,0,0,1,0-1.743,1.231,1.231,0,0,1,1.742,0l4.394,4.4A1.235,1.235,0,0,1,321.481,88.739Z" transform="translate(-312.789 -80.072)" fill="#b7b7b7"/>
        </g>
      </g>
      <g id="Group_19" data-name="Group 19" transform="translate(15.378 0)">
        <g id="Group_18" data-name="Group 18">
          <path id="Path_22" data-name="Path 22" d="M194.761,13.8,182.034,1.063a3.838,3.838,0,0,0-5.3,0L166.2,11.6a3.755,3.755,0,0,0,0,5.308l10.53,10.538-.646.647a1.538,1.538,0,0,1-1.094.454h0a1.543,1.543,0,0,1-1.1-.455l-3.07-3.072a1.1,1.1,0,0,0-1.553,0l-6.042,6.046a1.1,1.1,0,1,0,1.553,1.554l5.265-5.268,2.294,2.295a3.723,3.723,0,0,0,2.652,1.1h0a3.719,3.719,0,0,0,2.644-1.1l1.423-1.424a1.1,1.1,0,0,0,0-1.554L167.754,15.354a1.555,1.555,0,0,1,0-2.2l10.53-10.537a1.588,1.588,0,0,1,2.2,0l12.727,12.737a1.555,1.555,0,0,1,0,2.2l-10.53,10.537a1.541,1.541,0,0,1-1.1.456,1.1,1.1,0,0,0,0,2.2,3.723,3.723,0,0,0,2.652-1.1l10.53-10.538a3.755,3.755,0,0,0,0-5.308Z" transform="translate(-162.904 0)" fill="#b7b7b7"/>
        </g>
      </g>
    </g>
  </g>
</svg>
