<svg xmlns="http://www.w3.org/2000/svg" width="63" height="63" viewBox="0 0 63 63">
  <g id="icon-2" transform="translate(-707 -1115)">
    <g id="Ellipse_15" data-name="Ellipse 15" transform="translate(707 1115)" fill="none" stroke="#1f8fbb" stroke-width="1">
      <circle cx="31.5" cy="31.5" r="31.5" stroke="none"/>
      <circle cx="31.5" cy="31.5" r="31" fill="none"/>
    </g>
    <path id="Icon_awesome-graduation-cap" data-name="Icon awesome-graduation-cap" d="M42.122,10.677,23.242,4.742a5.29,5.29,0,0,0-3.167,0L1.2,10.677a1.64,1.64,0,0,0,0,3.157l3.291,1.035a5.53,5.53,0,0,0-1.21,3.248A2.162,2.162,0,0,0,3.1,21.787L1.376,29.742A1.1,1.1,0,0,0,2.433,31.09h3.8a1.1,1.1,0,0,0,1.057-1.348L5.56,21.787a2.157,2.157,0,0,0-.122-3.637,3.284,3.284,0,0,1,1.4-2.543l13.237,4.161a5.3,5.3,0,0,0,3.167,0l18.88-5.934a1.64,1.64,0,0,0,0-3.158ZM23.878,21.887a7.414,7.414,0,0,1-4.439,0L9.623,18.8l-.96,7.857c0,2.448,5.818,4.432,13,4.432s13-1.984,13-4.432l-.96-7.857-9.816,3.086Z" transform="translate(717.263 1128.888)" fill="#1f8fbb"/>
  </g>
</svg>
