<svg xmlns="http://www.w3.org/2000/svg" width="174.883" height="127.995" viewBox="0 0 174.883 127.995">
  <g id="monthly-icon" transform="translate(-19.059 -140.471)">
    <g id="Floor" transform="translate(22.172 257.761)">
      <g id="Group_184" data-name="Group 184" transform="translate(0 0)">
        <g id="Group_183" data-name="Group 183">
          <path id="Path_238" data-name="Path 238" d="M198.907,444.928c0,.055-38.455.1-85.88.1-47.442,0-85.889-.045-85.889-.1s38.447-.1,85.889-.1C160.452,444.828,198.907,444.873,198.907,444.928Z" transform="translate(-27.138 -444.828)" fill="#263238"/>
        </g>
      </g>
    </g>
    <g id="Character" transform="translate(68.516 140.471)">
      <g id="Group_455" data-name="Group 455" transform="translate(0 0)">
        <g id="Group_199" data-name="Group 199" transform="translate(0 44.9)">
          <g id="Group_196" data-name="Group 196">
            <g id="Group_187" data-name="Group 187">
              <g id="Group_186" data-name="Group 186">
                <g id="Group_185" data-name="Group 185">
                  <path id="Path_239" data-name="Path 239" d="M147.583,262.751l10.068,33.983a3.554,3.554,0,0,0,3.407,2.544l40.848.113a3.776,3.776,0,0,0,3.781-3.976h0a3.776,3.776,0,0,0-3.771-3.576H186.3l-12.51-34.855h-21.9A4.492,4.492,0,0,0,147.583,262.751Z" transform="translate(-147.395 -256.983)" fill="#455a64"/>
                </g>
              </g>
            </g>
            <g id="Group_191" data-name="Group 191" transform="translate(16.143 37.502)">
              <g id="Group_190" data-name="Group 190">
                <g id="Group_189" data-name="Group 189">
                  <g id="Group_188" data-name="Group 188">
                    <path id="Path_240" data-name="Path 240" d="M207.89,354.441c0,.079-4.165.144-9.3.144s-9.3-.064-9.3-.144,4.164-.144,9.3-.144S207.89,354.362,207.89,354.441Z" transform="translate(-189.286 -354.297)" fill="#263238"/>
                  </g>
                </g>
              </g>
            </g>
            <g id="Group_195" data-name="Group 195" transform="translate(3.19 1.079)">
              <g id="Group_194" data-name="Group 194">
                <g id="Group_193" data-name="Group 193">
                  <g id="Group_192" data-name="Group 192">
                    <path id="Path_241" data-name="Path 241" d="M155.675,259.784c.076-.025,2.857,8.111,6.212,18.171s6.014,18.239,5.939,18.264-2.856-8.11-6.213-18.173S155.6,259.809,155.675,259.784Z" transform="translate(-155.674 -259.784)" fill="#263238"/>
                  </g>
                </g>
              </g>
            </g>
          </g>
          <g id="Group_197" data-name="Group 197" transform="translate(30.559 42.295)">
            <path id="Path_242" data-name="Path 242" d="M229.182,396.93l-2.489-.059V366.735h2.489Z" transform="translate(-226.693 -366.735)" fill="#455a64"/>
          </g>
          <g id="Group_198" data-name="Group 198" transform="translate(20.217 68.704)">
            <path id="Path_243" data-name="Path 243" d="M199.856,438.912H223.03l-10.5-3.648h-2.489Z" transform="translate(-199.856 -435.264)" fill="#455a64"/>
          </g>
        </g>
        <g id="Group_248" data-name="Group 248" transform="translate(12.375 25.198)">
          <g id="Group_209" data-name="Group 209" transform="translate(0.016 0.063)">
            <g id="Group_208" data-name="Group 208">
              <g id="Group_204" data-name="Group 204" transform="translate(1.965)">
                <g id="Group_203" data-name="Group 203">
                  <g id="Group_202" data-name="Group 202">
                    <g id="Group_201" data-name="Group 201">
                      <g id="Group_200" data-name="Group 200">
                        <path id="Path_244" data-name="Path 244" d="M184.648,217.868l3.834,19.156L187.8,251.38l25.773-4.286-1.012-12.571-.019-10.4,6.32,12.247,4.921-9.5-9.01-16.32v0a15.206,15.206,0,0,0-5.894-3.816,12.163,12.163,0,0,0-3.694-.708h0a14.806,14.806,0,0,1-8.922.005c-.362.045-.865.093-1.5.168l-.116.014a11.4,11.4,0,0,0-9.946,10.715Z" transform="translate(-184.648 -206.021)" fill="#e8505b"/>
                      </g>
                    </g>
                  </g>
                </g>
              </g>
              <g id="Group_207" data-name="Group 207" transform="translate(0 0.173)">
                <g id="Group_206" data-name="Group 206">
                  <g id="Group_205" data-name="Group 205">
                    <path id="Path_245" data-name="Path 245" d="M191.627,206.471s-10.59.08-11.9,11.265l-.178,8.2,9.12-.079Z" transform="translate(-179.548 -206.471)" fill="#e8505b"/>
                  </g>
                </g>
              </g>
            </g>
          </g>
          <g id="Group_213" data-name="Group 213" transform="translate(0.173 14.48)">
            <g id="Group_212" data-name="Group 212">
              <g id="Group_211" data-name="Group 211">
                <g id="Group_210" data-name="Group 210">
                  <path id="Path_246" data-name="Path 246" d="M217.177,243.576c0,.079-8.333.144-18.61.144s-18.612-.064-18.612-.144,8.331-.144,18.612-.144S217.177,243.5,217.177,243.576Z" transform="translate(-179.956 -243.432)" fill="#fafafa"/>
                </g>
              </g>
            </g>
          </g>
          <g id="Group_217" data-name="Group 217" transform="translate(0.173 16.253)">
            <g id="Group_216" data-name="Group 216">
              <g id="Group_215" data-name="Group 215">
                <g id="Group_214" data-name="Group 214">
                  <path id="Path_247" data-name="Path 247" d="M217.177,248.177c0,.079-8.333.144-18.61.144s-18.612-.064-18.612-.144,8.331-.144,18.612-.144S217.177,248.1,217.177,248.177Z" transform="translate(-179.956 -248.033)" fill="#fafafa"/>
                </g>
              </g>
            </g>
          </g>
          <g id="Group_221" data-name="Group 221" transform="translate(0.173 13.01)">
            <g id="Group_220" data-name="Group 220">
              <g id="Group_219" data-name="Group 219">
                <g id="Group_218" data-name="Group 218">
                  <path id="Path_248" data-name="Path 248" d="M216.581,239.763c0,.08-8.2.144-18.312.144s-18.314-.064-18.314-.144,8.2-.144,18.314-.144S216.581,239.683,216.581,239.763Z" transform="translate(-179.956 -239.619)" fill="#fafafa"/>
                </g>
              </g>
            </g>
          </g>
          <g id="Group_225" data-name="Group 225" transform="translate(29.693 10.168)">
            <g id="Group_224" data-name="Group 224">
              <g id="Group_223" data-name="Group 223">
                <g id="Group_222" data-name="Group 222">
                  <path id="Path_249" data-name="Path 249" d="M256.6,252.484c-.079,0-.044-4.535.079-10.123s.287-10.119.366-10.118.044,4.534-.079,10.124S256.68,252.486,256.6,252.484Z" transform="translate(-256.558 -232.243)" fill="#263238"/>
                </g>
              </g>
            </g>
          </g>
          <g id="Group_228" data-name="Group 228" transform="translate(26.021 23.057)">
            <g id="Group_227" data-name="Group 227">
              <g id="Group_226" data-name="Group 226">
                <path id="Path_250" data-name="Path 250" d="M247.123,265.69s5.009.358,5.911,1.683,2.276,5.1,1.755,5.129a1.422,1.422,0,0,1-.9-.284l-1.373-2.433s.22,2.35-.6,2.4-4.888.861-4.888.861Z" transform="translate(-247.029 -265.69)" fill="#ffbe9d"/>
              </g>
            </g>
          </g>
          <g id="Group_231" data-name="Group 231" transform="translate(0 17.097)">
            <g id="Group_230" data-name="Group 230">
              <g id="Group_229" data-name="Group 229">
                <path id="Path_251" data-name="Path 251" d="M179.526,250.646l-.019,12.913a4.906,4.906,0,0,0,5.944,4.529l20.2-4.161-.043-8.281-17.426,3.344-.232-8.766Z" transform="translate(-179.507 -250.224)" fill="#e8505b"/>
              </g>
            </g>
          </g>
          <g id="Group_235" data-name="Group 235" transform="translate(8.544 13.03)">
            <g id="Group_234" data-name="Group 234">
              <g id="Group_233" data-name="Group 233">
                <g id="Group_232" data-name="Group 232">
                  <path id="Path_252" data-name="Path 252" d="M204.675,260.566a1.421,1.421,0,0,1,.267-.074l.783-.176,2.968-.629,10.513-2.148-.1.126c0-2.6-.009-5.473-.014-8.506l.17.14-3.55.682-13.88,2.642-.151.029.005-.151c.132-3.844.242-7.045.319-9.312.046-1.1.082-1.977.109-2.6.016-.283.028-.509.038-.684a1.06,1.06,0,0,1,.026-.234,1.133,1.133,0,0,1,.012.235c0,.175,0,.4,0,.686-.01.624-.024,1.5-.041,2.6-.053,2.267-.127,5.468-.217,9.311l-.146-.123,13.871-2.684,3.551-.68.17-.032v.173c-.005,3.033-.01,5.906-.014,8.506v.106l-.1.02-10.533,2.047-2.982.558-.791.137A1.418,1.418,0,0,1,204.675,260.566Z" transform="translate(-201.677 -239.67)" fill="#263238"/>
                </g>
              </g>
            </g>
          </g>
          <g id="Group_239" data-name="Group 239" transform="translate(12.826)">
            <g id="Group_238" data-name="Group 238">
              <g id="Group_237" data-name="Group 237">
                <g id="Group_236" data-name="Group 236">
                  <path id="Path_253" data-name="Path 253" d="M223.09,206.094c.009,0,.037.062.083.189a3.806,3.806,0,0,1,.156.571,4.68,4.68,0,0,1-.094,2.173,5.716,5.716,0,0,1-1.753,2.7,5.44,5.44,0,0,1-3.676,1.388,4.989,4.989,0,0,1-3.634-1.476,5.119,5.119,0,0,1-1.352-2.924,4.607,4.607,0,0,1,.254-2.161,3.063,3.063,0,0,1,.259-.533c.07-.116.11-.174.119-.169.029.015-.123.257-.272.739a4.825,4.825,0,0,0-.158,2.1,5.014,5.014,0,0,0,1.341,2.765,4.781,4.781,0,0,0,3.444,1.373,5.243,5.243,0,0,0,3.5-1.3,5.638,5.638,0,0,0,1.733-2.564,4.9,4.9,0,0,0,.179-2.1C223.152,206.372,223.061,206.1,223.09,206.094Z" transform="translate(-212.788 -205.858)" fill="#263238"/>
                </g>
              </g>
            </g>
          </g>
          <g id="Group_243" data-name="Group 243" transform="translate(24.077 22.812)">
            <g id="Group_242" data-name="Group 242">
              <g id="Group_241" data-name="Group 241">
                <g id="Group_240" data-name="Group 240">
                  <path id="Path_254" data-name="Path 254" d="M242.009,273.726a6.273,6.273,0,0,1,0-1.274c.03-.784.068-1.866.075-3.061s-.018-2.278-.039-3.062a6.256,6.256,0,0,1,.011-1.274,5.123,5.123,0,0,1,.192,1.262c.073.784.13,1.873.124,3.076s-.078,2.29-.16,3.074A5.115,5.115,0,0,1,242.009,273.726Z" transform="translate(-241.984 -265.054)" fill="#fafafa"/>
                </g>
              </g>
            </g>
          </g>
          <g id="Group_247" data-name="Group 247" transform="translate(23.019 23.08)">
            <g id="Group_246" data-name="Group 246">
              <g id="Group_245" data-name="Group 245">
                <g id="Group_244" data-name="Group 244">
                  <path id="Path_255" data-name="Path 255" d="M239.28,274.364a5.911,5.911,0,0,1-.036-1.265c.01-.89.02-1.913.033-3.042s0-2.153,0-3.043a5.9,5.9,0,0,1,.049-1.264,5.243,5.243,0,0,1,.155,1.257c.053.78.093,1.859.087,3.052s-.056,2.271-.117,3.05A5.2,5.2,0,0,1,239.28,274.364Z" transform="translate(-239.24 -265.749)" fill="#fafafa"/>
                </g>
              </g>
            </g>
          </g>
        </g>
        <g id="Group_275" data-name="Group 275" transform="translate(47.642 108.203)">
          <g id="Group_274" data-name="Group 274">
            <g id="Group_250" data-name="Group 250">
              <g id="Group_249" data-name="Group 249">
                <path id="Path_256" data-name="Path 256" d="M279.039,421.248l3.817,10.512,5.417,7.444a1.146,1.146,0,0,1-.317,1.644h0a1.138,1.138,0,0,1-1.045.089c-2.184-.906-10.2-4.28-10.439-5.065-.274-.909-5.45-12.214-5.45-12.214Z" transform="translate(-271.023 -421.248)" fill="#e8505b"/>
              </g>
            </g>
            <g id="Group_252" data-name="Group 252" transform="translate(5.176 13.922)" opacity="0.6">
              <g id="Group_251" data-name="Group 251">
                <path id="Path_257" data-name="Path 257" d="M296.211,463.052l-11.757-5.679.172.442a1.725,1.725,0,0,0,.787.894c.965.52,3.659,1.9,9.723,4.446a1.145,1.145,0,0,0,1.076-.1Z" transform="translate(-284.454 -457.373)" fill="#fff"/>
              </g>
            </g>
            <g id="Group_255" data-name="Group 255" transform="translate(5.196 9.703)" opacity="0.6">
              <g id="Group_254" data-name="Group 254">
                <g id="Group_253" data-name="Group 253">
                  <path id="Path_258" data-name="Path 258" d="M285.317,446.45a.693.693,0,0,1,.505.775.667.667,0,0,1-.763.508.732.732,0,0,1-.531-.824.691.691,0,0,1,.853-.44" transform="translate(-284.507 -446.426)" fill="#fff"/>
                </g>
              </g>
            </g>
            <g id="Group_258" data-name="Group 258" transform="translate(12.729 14.077)">
              <g id="Group_257" data-name="Group 257">
                <g id="Group_256" data-name="Group 256">
                  <path id="Path_259" data-name="Path 259" d="M304.1,459.674a2.472,2.472,0,0,1,1.709-1.863c0-.029-.164-.059-.422,0a1.828,1.828,0,0,0-1.322,1.441C304.031,459.515,304.075,459.675,304.1,459.674Z" transform="translate(-304.054 -457.778)" fill="#263238"/>
                </g>
              </g>
            </g>
            <g id="Group_261" data-name="Group 261" transform="translate(14.048 15.709)">
              <g id="Group_260" data-name="Group 260">
                <g id="Group_259" data-name="Group 259">
                  <path id="Path_260" data-name="Path 260" d="M307.492,463.382c.067.026.27-.443.749-.807s.975-.456.967-.528a1.272,1.272,0,0,0-1.118.334C307.547,462.8,307.427,463.375,307.492,463.382Z" transform="translate(-307.476 -462.011)" fill="#263238"/>
                </g>
              </g>
            </g>
            <g id="Group_264" data-name="Group 264" transform="translate(10.691 12.424)">
              <g id="Group_263" data-name="Group 263">
                <g id="Group_262" data-name="Group 262">
                  <path id="Path_261" data-name="Path 261" d="M298.775,455.786a5.884,5.884,0,0,1,2.477-2.286,3.133,3.133,0,0,0-2.477,2.286Z" transform="translate(-298.765 -453.488)" fill="#263238"/>
                </g>
              </g>
            </g>
            <g id="Group_267" data-name="Group 267" transform="translate(9.269 10.398)">
              <g id="Group_266" data-name="Group 266">
                <g id="Group_265" data-name="Group 265">
                  <path id="Path_262" data-name="Path 262" d="M295.079,449.456c.052.052.534-.413,1.273-.732s1.4-.37,1.4-.443a2.845,2.845,0,0,0-2.673,1.175Z" transform="translate(-295.075 -448.23)" fill="#263238"/>
                </g>
              </g>
            </g>
            <g id="Group_270" data-name="Group 270" transform="translate(8.07 7.396)">
              <g id="Group_269" data-name="Group 269">
                <g id="Group_268" data-name="Group 268">
                  <path id="Path_263" data-name="Path 263" d="M291.969,441.61a3.64,3.64,0,0,1,2.822-.988c.008-.029-.156-.115-.451-.16a2.5,2.5,0,0,0-2.119.742C292.019,441.423,291.945,441.593,291.969,441.61Z" transform="translate(-291.965 -440.439)" fill="#263238"/>
                </g>
              </g>
            </g>
            <g id="Group_273" data-name="Group 273" transform="translate(7.046 4.993)">
              <g id="Group_272" data-name="Group 272">
                <g id="Group_271" data-name="Group 271">
                  <path id="Path_264" data-name="Path 264" d="M291.395,436.407a.965.965,0,0,0-.139-.4,2.938,2.938,0,0,0-.715-.911,1.3,1.3,0,0,0-.746-.377.461.461,0,0,0-.447.284.751.751,0,0,0,.018.535,1.62,1.62,0,0,0,1.866.881,1.878,1.878,0,0,0,1.363-1.585.651.651,0,0,0-.168-.516.451.451,0,0,0-.527-.051,1.6,1.6,0,0,0-.548.624,3.285,3.285,0,0,0-.4,1.086,1.008,1.008,0,0,0-.02.423,5.231,5.231,0,0,1,.565-1.419,1.5,1.5,0,0,1,.491-.532.24.24,0,0,1,.287.026.446.446,0,0,1,.091.346,1.677,1.677,0,0,1-1.2,1.361,1.407,1.407,0,0,1-1.6-.726.544.544,0,0,1-.029-.373.249.249,0,0,1,.244-.16,1.178,1.178,0,0,1,.638.307A4.345,4.345,0,0,1,291.395,436.407Z" transform="translate(-289.306 -434.206)" fill="#263238"/>
                </g>
              </g>
            </g>
          </g>
        </g>
        <g id="Group_294" data-name="Group 294" transform="translate(63.49 105.409)">
          <g id="Group_288" data-name="Group 288">
            <g id="Group_276" data-name="Group 276">
              <path id="Path_265" data-name="Path 265" d="M320.43,414.042l-.33,8.543s8.573,3.2,8.666,4.789l-16.588-.045L312.146,414Z" transform="translate(-312.146 -413.997)" fill="#e8505b"/>
            </g>
            <g id="Group_278" data-name="Group 278" transform="translate(2.342 7.828)" opacity="0.6">
              <g id="Group_277" data-name="Group 277">
                <path id="Path_266" data-name="Path 266" d="M318.709,434.337a.677.677,0,0,0-.47.772.651.651,0,0,0,.761.473.715.715,0,0,0,.494-.82.676.676,0,0,0-.846-.4" transform="translate(-318.224 -434.309)" fill="#fff"/>
              </g>
            </g>
            <g id="Group_279" data-name="Group 279" transform="translate(0.029 12.003)" opacity="0.6">
              <path id="Path_267" data-name="Path 267" d="M312.224,446.473l0-1.33,15.938.531s.738.323.653.843Z" transform="translate(-312.221 -445.143)" fill="#fff"/>
            </g>
            <g id="Group_281" data-name="Group 281" transform="translate(6.709 8.429)">
              <g id="Group_280" data-name="Group 280">
                <path id="Path_268" data-name="Path 268" d="M331.069,435.944c0,.081-.408.116-.807.376s-.613.6-.687.567c-.074-.016.048-.5.536-.805S331.087,435.87,331.069,435.944Z" transform="translate(-329.555 -435.869)" fill="#263238"/>
              </g>
            </g>
            <g id="Group_283" data-name="Group 283" transform="translate(8.859 9.195)">
              <g id="Group_282" data-name="Group 282">
                <path id="Path_269" data-name="Path 269" d="M336.236,437.891c.019.079-.333.215-.609.557s-.356.7-.437.7c-.076.012-.131-.462.22-.881S336.234,437.814,336.236,437.891Z" transform="translate(-335.133 -437.858)" fill="#263238"/>
              </g>
            </g>
            <g id="Group_285" data-name="Group 285" transform="translate(10.847 9.918)">
              <g id="Group_284" data-name="Group 284">
                <path id="Path_270" data-name="Path 270" d="M340.389,441.128c-.074.017-.185-.388.024-.831s.588-.619.622-.551-.2.3-.367.67S340.47,441.12,340.389,441.128Z" transform="translate(-340.293 -439.732)" fill="#263238"/>
              </g>
            </g>
            <g id="Group_287" data-name="Group 287" transform="translate(6.358 6.256)">
              <g id="Group_286" data-name="Group 286">
                <path id="Path_271" data-name="Path 271" d="M330.368,430.523c-.034.074-.405-.039-.863-.009s-.815.173-.857.1.3-.358.842-.385S330.408,430.46,330.368,430.523Z" transform="translate(-328.643 -430.23)" fill="#263238"/>
              </g>
            </g>
          </g>
          <g id="Group_289" data-name="Group 289" transform="translate(0.001 1.737)" opacity="0.3">
            <path id="Path_272" data-name="Path 272" d="M320.364,418.5l-.057,1.523-8.152-.1-.007-1.372Z" transform="translate(-312.148 -418.504)"/>
          </g>
          <g id="Group_291" data-name="Group 291" transform="translate(5.597 3.482)">
            <g id="Group_290" data-name="Group 290">
              <path id="Path_273" data-name="Path 273" d="M329.19,424.375a1.554,1.554,0,0,1-.83-.007,3.717,3.717,0,0,1-.869-.269,3.845,3.845,0,0,1-.476-.254,1.019,1.019,0,0,1-.25-.2.353.353,0,0,1-.036-.431.444.444,0,0,1,.355-.184,1.069,1.069,0,0,1,.311.044,2.976,2.976,0,0,1,.516.178,2.933,2.933,0,0,1,.765.5c.384.358.514.661.487.676s-.224-.227-.614-.523a3.32,3.32,0,0,0-.74-.42,3.12,3.12,0,0,0-.476-.148c-.176-.046-.325-.048-.37.03-.017.03-.019.042.018.093a.829.829,0,0,0,.184.143,4.4,4.4,0,0,0,.438.252,4.624,4.624,0,0,0,.8.31A5.745,5.745,0,0,1,329.19,424.375Z" transform="translate(-326.67 -423.033)" fill="#263238"/>
            </g>
          </g>
          <g id="Group_293" data-name="Group 293" transform="translate(7.791 2.306)">
            <g id="Group_292" data-name="Group 292">
              <path id="Path_274" data-name="Path 274" d="M332.584,422.615a1.321,1.321,0,0,1-.217-.8,2.682,2.682,0,0,1,.329-1.413.686.686,0,0,1,.531-.418.389.389,0,0,1,.346.232,1.138,1.138,0,0,1,.084.3,1.84,1.84,0,0,1,0,.56,1.912,1.912,0,0,1-.357.857c-.326.429-.664.525-.671.5-.027-.04.256-.2.505-.609a1.919,1.919,0,0,0,.265-.78,1.724,1.724,0,0,0-.014-.48c-.025-.177-.091-.319-.157-.3-.082,0-.223.131-.291.271a2.8,2.8,0,0,0-.207.45,3,3,0,0,0-.163.829C332.543,422.3,332.628,422.6,332.584,422.615Z" transform="translate(-332.364 -419.981)" fill="#263238"/>
            </g>
          </g>
        </g>
        <g id="Group_318" data-name="Group 318" transform="translate(17.268 61.717)">
          <g id="Group_317" data-name="Group 317">
            <g id="Group_297" data-name="Group 297" transform="translate(23.448 2.731)">
              <g id="Group_296" data-name="Group 296">
                <g id="Group_295" data-name="Group 295">
                  <path id="Path_275" data-name="Path 275" d="M275.841,307.76c-9.8,1.014-22.79,2.345-22.79,2.345l1.772,15.95s19.086-5.044,18.949-4.635.884,33.937.884,33.937H286.15l.216-37.97A9.544,9.544,0,0,0,275.841,307.76Z" transform="translate(-253.051 -307.709)" fill="#263238"/>
                </g>
              </g>
            </g>
            <g id="Group_300" data-name="Group 300">
              <g id="Group_299" data-name="Group 299">
                <g id="Group_298" data-name="Group 298">
                  <path id="Path_276" data-name="Path 276" d="M192.205,309.839v4.946c0,3.367,3.835,6.937,7.2,6.937h2.6c2.052,0,5.266-1.493,6.922-2.7l1-.727,11.967,37.076s13.695-2.455,13.695-2.887-9.274-30.367-13.555-44.261a10.6,10.6,0,0,0-13.441-7.046q-.287.1-.575.214C201.884,303.84,192.205,309.839,192.205,309.839Z" transform="translate(-192.205 -300.621)" fill="#263238"/>
                </g>
              </g>
            </g>
            <g id="Group_304" data-name="Group 304" transform="translate(23.448 0.717)">
              <g id="Group_303" data-name="Group 303">
                <g id="Group_302" data-name="Group 302">
                  <g id="Group_301" data-name="Group 301">
                    <path id="Path_277" data-name="Path 277" d="M272.987,353.624a.565.565,0,0,1-.061-.132l-.151-.4c-.13-.35-.319-.867-.543-1.539-.46-1.341-1.088-3.293-1.853-5.708-1.528-4.831-3.574-11.524-5.8-18.925l-3.125-10.441-1.355-4.558-.615-2.065a18.537,18.537,0,0,0-.623-1.876,7.68,7.68,0,0,0-1.933-2.737,16.283,16.283,0,0,0-2.025-1.577c-.586-.395-1.053-.684-1.372-.877l-.36-.225a.537.537,0,0,1-.118-.085.549.549,0,0,1,.132.06l.375.2c.329.177.806.452,1.4.834a15.517,15.517,0,0,1,2.073,1.552,7.783,7.783,0,0,1,2.012,2.777,18.541,18.541,0,0,1,.648,1.889l.631,2.061,1.38,4.55,3.146,10.434,5.721,18.948,1.765,5.733.491,1.555.124.406A.55.55,0,0,1,272.987,353.624Z" transform="translate(-253.051 -302.482)" fill="#455a64"/>
                  </g>
                </g>
              </g>
            </g>
            <g id="Group_308" data-name="Group 308" transform="translate(44.254 11.658)">
              <g id="Group_307" data-name="Group 307">
                <g id="Group_306" data-name="Group 306">
                  <g id="Group_305" data-name="Group 305">
                    <path id="Path_278" data-name="Path 278" d="M309.059,330.873c.071.049-.58,1.028-1.126,2.356s-.788,2.477-.872,2.462a8.218,8.218,0,0,1,2-4.818Z" transform="translate(-307.041 -330.872)" fill="#455a64"/>
                  </g>
                </g>
              </g>
            </g>
            <g id="Group_312" data-name="Group 312" transform="translate(44.72 13.192)">
              <g id="Group_311" data-name="Group 311">
                <g id="Group_310" data-name="Group 310">
                  <g id="Group_309" data-name="Group 309">
                    <path id="Path_279" data-name="Path 279" d="M312,334.862c.034.08-.955.513-1.984,1.328s-1.69,1.665-1.76,1.613A6.281,6.281,0,0,1,312,334.862Z" transform="translate(-308.25 -334.853)" fill="#455a64"/>
                  </g>
                </g>
              </g>
            </g>
            <g id="Group_316" data-name="Group 316" transform="translate(15.649 10.339)">
              <g id="Group_315" data-name="Group 315">
                <g id="Group_314" data-name="Group 314">
                  <g id="Group_313" data-name="Group 313">
                    <path id="Path_280" data-name="Path 280" d="M246.983,371.857c-.076.024-3.309-9.9-7.221-22.158s-7.023-22.224-6.947-22.248,3.308,9.9,7.221,22.16S247.059,371.833,246.983,371.857Z" transform="translate(-232.814 -327.451)" fill="#455a64"/>
                  </g>
                </g>
              </g>
            </g>
          </g>
        </g>
        <g id="Group_322" data-name="Group 322" transform="translate(32.4 38.353)">
          <g id="Group_320" data-name="Group 320">
            <g id="Group_319" data-name="Group 319">
              <path id="Path_281" data-name="Path 281" d="M231.47,260.263l39.174.377,7.3-20.648-28.493.193-6.613,18.567-11.373.17Z" transform="translate(-231.47 -239.992)" fill="#455a64"/>
            </g>
          </g>
          <g id="Group_321" data-name="Group 321" transform="translate(28.336 8.945)">
            <path id="Path_282" data-name="Path 282" d="M306.363,266.361a1.587,1.587,0,1,1,1.793-1.349A1.586,1.586,0,0,1,306.363,266.361Z" transform="translate(-304.998 -263.203)" fill="#fff"/>
          </g>
        </g>
        <g id="Group_454" data-name="Group 454" transform="translate(23.707)">
          <g id="Group_324" data-name="Group 324" transform="translate(0.657)">
            <g id="Group_323" data-name="Group 323">
              <path id="Path_283" data-name="Path 283" d="M215.458,143.205a3.712,3.712,0,0,1,2.75-2.509,4.438,4.438,0,0,1,4.046.657,9.111,9.111,0,0,0,2.249,1.726c1.48.514,3.214-.593,4.633.071a2.021,2.021,0,0,1-.956,3.849,1.793,1.793,0,0,1,.7,2.59,2.693,2.693,0,0,1-2.734,1,5.671,5.671,0,0,1-2.657-1.489c-.765-.687-1.45-1.465-2.267-2.089a4.412,4.412,0,0,0-2.835-1.041,4.04,4.04,0,0,0-3.2,2.37,10.342,10.342,0,0,0-.84,4.06,17.1,17.1,0,0,1-.514,4.132c-.049.156-.122.331-.278.379-.225.069-.417-.17-.53-.378a20.43,20.43,0,0,1-2.334-7.6,6.331,6.331,0,0,1,.73-4.295c.847-1.3,2.987-2.251,4.036-1.432" transform="translate(-210.619 -140.471)" fill="#263238"/>
            </g>
          </g>
          <g id="Group_431" data-name="Group 431" transform="translate(2.079 1.887)">
            <g id="Group_430" data-name="Group 430">
              <g id="Group_429" data-name="Group 429">
                <g id="Group_345" data-name="Group 345">
                  <g id="Group_344" data-name="Group 344">
                    <g id="Group_343" data-name="Group 343">
                      <g id="Group_333" data-name="Group 333">
                        <g id="Group_332" data-name="Group 332">
                          <g id="Group_331" data-name="Group 331">
                            <g id="Group_330" data-name="Group 330">
                              <g id="Group_329" data-name="Group 329">
                                <g id="Group_328" data-name="Group 328">
                                  <g id="Group_327" data-name="Group 327">
                                    <g id="Group_326" data-name="Group 326">
                                      <g id="Group_325" data-name="Group 325">
                                        <path id="Path_284" data-name="Path 284" d="M215.037,152.664l-.711,15.593c-.121,2.652.243,6.571,4.444,6.571h0c3.645-.275,4.722-3.681,4.833-6.156.052-1.174.1-2.153.111-2.273,0,0,3.987-.192,4.452-4.108.225-1.892.372-5.827.462-9.389a7.345,7.345,0,0,0-6.567-7.487l-.378-.04C217.578,145.179,215.119,148.556,215.037,152.664Z" transform="translate(-214.307 -145.367)" fill="#ffbe9d"/>
                                      </g>
                                    </g>
                                  </g>
                                </g>
                              </g>
                            </g>
                          </g>
                        </g>
                      </g>
                      <g id="Group_342" data-name="Group 342" transform="translate(4.463 18.98)">
                        <g id="Group_341" data-name="Group 341">
                          <g id="Group_340" data-name="Group 340">
                            <g id="Group_339" data-name="Group 339">
                              <g id="Group_338" data-name="Group 338">
                                <g id="Group_337" data-name="Group 337">
                                  <g id="Group_336" data-name="Group 336">
                                    <g id="Group_335" data-name="Group 335">
                                      <g id="Group_334" data-name="Group 334">
                                        <path id="Path_285" data-name="Path 285" d="M230.844,196.616a9.168,9.168,0,0,1-4.957-2s.908,2.95,4.858,3.014Z" transform="translate(-225.887 -194.619)" fill="#eb996e"/>
                                      </g>
                                    </g>
                                  </g>
                                </g>
                              </g>
                            </g>
                          </g>
                        </g>
                      </g>
                    </g>
                  </g>
                </g>
                <g id="Group_428" data-name="Group 428" transform="translate(4.968 5.918)">
                  <g id="Group_427" data-name="Group 427">
                    <g id="Group_408" data-name="Group 408" transform="translate(0.161 2.221)">
                      <g id="Group_407" data-name="Group 407">
                        <g id="Group_406" data-name="Group 406">
                          <g id="Group_365" data-name="Group 365" transform="translate(5.935 0.518)">
                            <g id="Group_354" data-name="Group 354" transform="translate(0.711 0.816)">
                              <g id="Group_353" data-name="Group 353">
                                <g id="Group_352" data-name="Group 352">
                                  <g id="Group_351" data-name="Group 351">
                                    <g id="Group_350" data-name="Group 350">
                                      <g id="Group_349" data-name="Group 349">
                                        <g id="Group_348" data-name="Group 348">
                                          <g id="Group_347" data-name="Group 347">
                                            <g id="Group_346" data-name="Group 346">
                                              <path id="Path_286" data-name="Path 286" d="M245.987,170.516a.563.563,0,0,1-.6.507.538.538,0,0,1-.523-.566.563.563,0,0,1,.6-.508A.539.539,0,0,1,245.987,170.516Z" transform="translate(-244.863 -169.948)" fill="#263238"/>
                                            </g>
                                          </g>
                                        </g>
                                      </g>
                                    </g>
                                  </g>
                                </g>
                              </g>
                            </g>
                            <g id="Group_364" data-name="Group 364">
                              <g id="Group_363" data-name="Group 363">
                                <g id="Group_362" data-name="Group 362">
                                  <g id="Group_361" data-name="Group 361">
                                    <g id="Group_360" data-name="Group 360">
                                      <g id="Group_359" data-name="Group 359">
                                        <g id="Group_358" data-name="Group 358">
                                          <g id="Group_357" data-name="Group 357">
                                            <g id="Group_356" data-name="Group 356">
                                              <g id="Group_355" data-name="Group 355">
                                                <path id="Path_287" data-name="Path 287" d="M245.229,168.544c-.077.066-.468-.293-1.071-.356s-1.076.192-1.133.111c-.029-.036.056-.161.263-.28a1.545,1.545,0,0,1,.918-.179,1.484,1.484,0,0,1,.842.375C245.217,168.376,245.266,168.515,245.229,168.544Z" transform="translate(-243.019 -167.83)" fill="#263238"/>
                                              </g>
                                            </g>
                                          </g>
                                        </g>
                                      </g>
                                    </g>
                                  </g>
                                </g>
                              </g>
                            </g>
                          </g>
                          <g id="Group_385" data-name="Group 385">
                            <g id="Group_374" data-name="Group 374" transform="translate(0.714 0.91)">
                              <g id="Group_373" data-name="Group 373">
                                <g id="Group_372" data-name="Group 372">
                                  <g id="Group_371" data-name="Group 371">
                                    <g id="Group_370" data-name="Group 370">
                                      <g id="Group_369" data-name="Group 369">
                                        <g id="Group_368" data-name="Group 368">
                                          <g id="Group_367" data-name="Group 367">
                                            <g id="Group_366" data-name="Group 366">
                                              <path id="Path_288" data-name="Path 288" d="M230.6,169.415a.563.563,0,0,1-.6.507.538.538,0,0,1-.523-.566.563.563,0,0,1,.6-.508A.539.539,0,0,1,230.6,169.415Z" transform="translate(-229.472 -168.847)" fill="#263238"/>
                                            </g>
                                          </g>
                                        </g>
                                      </g>
                                    </g>
                                  </g>
                                </g>
                              </g>
                            </g>
                            <g id="Group_384" data-name="Group 384">
                              <g id="Group_383" data-name="Group 383">
                                <g id="Group_382" data-name="Group 382">
                                  <g id="Group_381" data-name="Group 381">
                                    <g id="Group_380" data-name="Group 380">
                                      <g id="Group_379" data-name="Group 379">
                                        <g id="Group_378" data-name="Group 378">
                                          <g id="Group_377" data-name="Group 377">
                                            <g id="Group_376" data-name="Group 376">
                                              <g id="Group_375" data-name="Group 375">
                                                <path id="Path_289" data-name="Path 289" d="M229.828,167.2c-.077.066-.469-.293-1.071-.356s-1.076.192-1.134.111c-.029-.036.055-.16.264-.28a1.543,1.543,0,0,1,.917-.179,1.482,1.482,0,0,1,.842.375C229.817,167.032,229.866,167.171,229.828,167.2Z" transform="translate(-227.618 -166.486)" fill="#263238"/>
                                              </g>
                                            </g>
                                          </g>
                                        </g>
                                      </g>
                                    </g>
                                  </g>
                                </g>
                              </g>
                            </g>
                          </g>
                          <g id="Group_395" data-name="Group 395" transform="translate(3.921 0.365)">
                            <g id="Group_394" data-name="Group 394">
                              <g id="Group_393" data-name="Group 393">
                                <g id="Group_392" data-name="Group 392">
                                  <g id="Group_391" data-name="Group 391">
                                    <g id="Group_390" data-name="Group 390">
                                      <g id="Group_389" data-name="Group 389">
                                        <g id="Group_388" data-name="Group 388">
                                          <g id="Group_387" data-name="Group 387">
                                            <g id="Group_386" data-name="Group 386">
                                              <path id="Path_290" data-name="Path 290" d="M237.793,172.483a4.012,4.012,0,0,1,1-.072c.155,0,.3-.015.341-.117a.788.788,0,0,0-.054-.467l-.33-1.22a20.211,20.211,0,0,1-.7-3.173,20.281,20.281,0,0,1,.95,3.11q.162.641.31,1.225a.9.9,0,0,1,.015.613.388.388,0,0,1-.277.2,1.033,1.033,0,0,1-.265.008A3.932,3.932,0,0,1,237.793,172.483Z" transform="translate(-237.793 -167.434)" fill="#263238"/>
                                            </g>
                                          </g>
                                        </g>
                                      </g>
                                    </g>
                                  </g>
                                </g>
                              </g>
                            </g>
                          </g>
                          <g id="Group_405" data-name="Group 405" transform="translate(1.965 5.643)">
                            <g id="Group_404" data-name="Group 404">
                              <g id="Group_403" data-name="Group 403">
                                <g id="Group_402" data-name="Group 402">
                                  <g id="Group_401" data-name="Group 401">
                                    <g id="Group_400" data-name="Group 400">
                                      <g id="Group_399" data-name="Group 399">
                                        <g id="Group_398" data-name="Group 398">
                                          <g id="Group_397" data-name="Group 397">
                                            <g id="Group_396" data-name="Group 396">
                                              <path id="Path_291" data-name="Path 291" d="M232.855,181.128c.1,0,.03.659.541,1.183s1.214.526,1.21.618c0,.042-.169.111-.464.087a1.637,1.637,0,0,1-1.014-.479,1.426,1.426,0,0,1-.412-.987C232.721,181.274,232.811,181.12,232.855,181.128Z" transform="translate(-232.716 -181.128)" fill="#263238"/>
                                            </g>
                                          </g>
                                        </g>
                                      </g>
                                    </g>
                                  </g>
                                </g>
                              </g>
                            </g>
                          </g>
                        </g>
                      </g>
                    </g>
                    <g id="Group_417" data-name="Group 417">
                      <g id="Group_416" data-name="Group 416">
                        <g id="Group_415" data-name="Group 415">
                          <g id="Group_414" data-name="Group 414">
                            <g id="Group_413" data-name="Group 413">
                              <g id="Group_412" data-name="Group 412">
                                <g id="Group_411" data-name="Group 411">
                                  <g id="Group_410" data-name="Group 410">
                                    <g id="Group_409" data-name="Group 409">
                                      <path id="Path_292" data-name="Path 292" d="M229.978,161.314c-.077.157-.67.016-1.386.026s-1.308.142-1.386-.015c-.034-.075.081-.219.329-.353a2.41,2.41,0,0,1,2.112-.008C229.9,161.1,230.012,161.238,229.978,161.314Z" transform="translate(-227.2 -160.724)" fill="#263238"/>
                                    </g>
                                  </g>
                                </g>
                              </g>
                            </g>
                          </g>
                        </g>
                      </g>
                    </g>
                    <g id="Group_426" data-name="Group 426" transform="translate(6.23 0.94)">
                      <g id="Group_425" data-name="Group 425">
                        <g id="Group_424" data-name="Group 424">
                          <g id="Group_423" data-name="Group 423">
                            <g id="Group_422" data-name="Group 422">
                              <g id="Group_421" data-name="Group 421">
                                <g id="Group_420" data-name="Group 420">
                                  <g id="Group_419" data-name="Group 419">
                                    <g id="Group_418" data-name="Group 418">
                                      <path id="Path_293" data-name="Path 293" d="M245.406,163.909c-.121.126-.521-.061-1.019-.121-.5-.077-.931-.006-1.014-.16-.035-.074.046-.2.244-.314a1.485,1.485,0,0,1,1.637.225C245.416,163.7,245.459,163.847,245.406,163.909Z" transform="translate(-243.365 -163.164)" fill="#263238"/>
                                    </g>
                                  </g>
                                </g>
                              </g>
                            </g>
                          </g>
                        </g>
                      </g>
                    </g>
                  </g>
                </g>
              </g>
            </g>
          </g>
          <g id="Group_451" data-name="Group 451" transform="translate(0 11.891)">
            <g id="Group_440" data-name="Group 440">
              <g id="Group_439" data-name="Group 439">
                <g id="Group_438" data-name="Group 438">
                  <g id="Group_437" data-name="Group 437">
                    <g id="Group_436" data-name="Group 436">
                      <g id="Group_435" data-name="Group 435">
                        <g id="Group_434" data-name="Group 434">
                          <g id="Group_433" data-name="Group 433">
                            <g id="Group_432" data-name="Group 432">
                              <path id="Path_294" data-name="Path 294" d="M211.732,171.557c-.064-.036-2.609-1.084-2.809,1.606a2.027,2.027,0,0,0,2.552,2.259C211.486,175.345,211.732,171.557,211.732,171.557Z" transform="translate(-208.913 -171.326)" fill="#ffbe9d"/>
                            </g>
                          </g>
                        </g>
                      </g>
                    </g>
                  </g>
                </g>
              </g>
            </g>
            <g id="Group_450" data-name="Group 450" transform="translate(0.686 0.849)">
              <g id="Group_449" data-name="Group 449">
                <g id="Group_448" data-name="Group 448">
                  <g id="Group_447" data-name="Group 447">
                    <g id="Group_446" data-name="Group 446">
                      <g id="Group_445" data-name="Group 445">
                        <g id="Group_444" data-name="Group 444">
                          <g id="Group_443" data-name="Group 443">
                            <g id="Group_442" data-name="Group 442">
                              <g id="Group_441" data-name="Group 441">
                                <path id="Path_295" data-name="Path 295" d="M211.824,175.7c-.011-.01-.049.029-.131.06a.473.473,0,0,1-.351-.019,1.163,1.163,0,0,1-.459-1.08,1.55,1.55,0,0,1,.181-.661.542.542,0,0,1,.379-.333.239.239,0,0,1,.267.149c.03.078.009.13.023.136s.061-.041.048-.153a.3.3,0,0,0-.093-.176.355.355,0,0,0-.254-.088.662.662,0,0,0-.521.381,1.6,1.6,0,0,0-.218.738,1.221,1.221,0,0,0,.6,1.212.5.5,0,0,0,.434-.039C211.814,175.76,211.833,175.7,211.824,175.7Z" transform="translate(-210.693 -173.529)" fill="#eb996e"/>
                              </g>
                            </g>
                          </g>
                        </g>
                      </g>
                    </g>
                  </g>
                </g>
              </g>
            </g>
          </g>
          <g id="Group_453" data-name="Group 453" transform="translate(2.34 1.3)">
            <g id="Group_452" data-name="Group 452">
              <path id="Path_296" data-name="Path 296" d="M229.963,151.241a5.7,5.7,0,0,1-4.91-1.669c-.867-.91-1.48-2.151-2.636-2.646a3.2,3.2,0,0,0-2.471.074,6.185,6.185,0,0,0-2.027,1.5c.546,2.073-.2,4.243-.936,6.257a1.073,1.073,0,0,1-.378.585.856.856,0,0,1-1.043-.35,3.327,3.327,0,0,1-.541-1.825,11.1,11.1,0,0,1,.489-4.345,7.552,7.552,0,0,1,2.466-3.569,7.152,7.152,0,0,1,5.189-1.354,8.783,8.783,0,0,1,4.873,2.35,5.146,5.146,0,0,1,1.444,2.072" transform="translate(-214.986 -143.844)" fill="#263238"/>
            </g>
          </g>
        </g>
      </g>
    </g>
    <g id="Plant" transform="translate(19.059 213.501)">
      <g id="Group_489" data-name="Group 489" transform="translate(0 0)">
        <g id="Group_471" data-name="Group 471">
          <g id="Group_457" data-name="Group 457" transform="translate(13.482 17.86)">
            <g id="Group_456" data-name="Group 456">
              <path id="Path_297" data-name="Path 297" d="M55.69,377a7.278,7.278,0,0,1,4.517-.549,3.752,3.752,0,0,1,2.231,1,1.605,1.605,0,0,1,.023,2.227,2.138,2.138,0,0,1-1.407.357c-1.194-.014-2.519-.224-3.473.494-.545.41-.906,1.091-1.557,1.293a1.538,1.538,0,0,1-1.693-.753,2.628,2.628,0,0,1-.191-1.94A2.961,2.961,0,0,1,55.69,377Z" transform="translate(-54.043 -376.322)" fill="#e8505b"/>
            </g>
          </g>
          <g id="Group_459" data-name="Group 459" transform="translate(11.188)">
            <g id="Group_458" data-name="Group 458">
              <path id="Path_298" data-name="Path 298" d="M48.885,342.437a2.163,2.163,0,0,0,3.23.071,6.1,6.1,0,0,0,1.368-2.806c.666-2.313,1.336-4.738.842-7.094a3.943,3.943,0,0,0-.906-1.929,2.059,2.059,0,0,0-1.951-.649,3.013,3.013,0,0,0-1.7,1.791,16.913,16.913,0,0,0-1.671,7.257,5.867,5.867,0,0,0,.793,3.36" transform="translate(-48.092 -329.976)" fill="#e8505b"/>
            </g>
          </g>
          <g id="Group_461" data-name="Group 461" transform="translate(0 3.861)">
            <g id="Group_460" data-name="Group 460">
              <path id="Path_299" data-name="Path 299" d="M28.734,350.316a4.366,4.366,0,0,0,.679-4.017,7.744,7.744,0,0,0-2.38-3.452,12.809,12.809,0,0,0-4.261-2.514,4.542,4.542,0,0,0-1.916-.326,2.012,2.012,0,0,0-1.608.973,3.008,3.008,0,0,0,.447,2.739,32.409,32.409,0,0,0,2.8,4.262,7.578,7.578,0,0,0,3.078,2.637c1.279.489,2.607.431,3.284-.456" transform="translate(-19.059 -339.994)" fill="#e8505b"/>
            </g>
          </g>
          <g id="Group_464" data-name="Group 464" transform="translate(11.909 19.527)">
            <g id="Group_463" data-name="Group 463">
              <g id="Group_462" data-name="Group 462">
                <path id="Path_300" data-name="Path 300" d="M49.978,391.678a2.643,2.643,0,0,0,.076-.545l.145-1.488a21.441,21.441,0,0,1,.335-2.182,16.859,16.859,0,0,1,.793-2.575,9.5,9.5,0,0,1,1.316-2.331,4.915,4.915,0,0,1,1.662-1.383,4.658,4.658,0,0,1,1.4-.436,2.632,2.632,0,0,0,.543-.079,2.567,2.567,0,0,0-.553-.008,4.242,4.242,0,0,0-1.46.38,4.9,4.9,0,0,0-1.754,1.394,9.272,9.272,0,0,0-1.363,2.378,15.76,15.76,0,0,0-.788,2.618,18.544,18.544,0,0,0-.29,2.21c-.047.632-.065,1.143-.074,1.5A2.528,2.528,0,0,0,49.978,391.678Z" transform="translate(-49.963 -380.645)" fill="#263238"/>
              </g>
            </g>
          </g>
          <g id="Group_467" data-name="Group 467" transform="translate(11.909 4.821)">
            <g id="Group_466" data-name="Group 466">
              <g id="Group_465" data-name="Group 465">
                <path id="Path_301" data-name="Path 301" d="M50.081,367.08a1.1,1.1,0,0,0,.015-.253c0-.19,0-.43,0-.724,0-.628,0-1.536.032-2.658.056-2.244.249-4.659.622-8.063.353-3.2.828-6.927,1.328-9.349.108-.551.215-1.047.317-1.481s.18-.81.26-1.114l.169-.7a1.094,1.094,0,0,0,.044-.249,1.076,1.076,0,0,0-.088.237l-.21.693c-.093.3-.188.673-.3,1.107s-.233.927-.35,1.477a82.133,82.133,0,0,0-1.4,8.675c-.374,3.412-.542,6.518-.557,8.767-.013,1.125.011,2.035.039,2.663.018.294.033.533.044.723A1.046,1.046,0,0,0,50.081,367.08Z" transform="translate(-49.962 -342.486)" fill="#263238"/>
              </g>
            </g>
          </g>
          <g id="Group_470" data-name="Group 470" transform="translate(4.028 6.653)">
            <g id="Group_469" data-name="Group 469">
              <g id="Group_468" data-name="Group 468">
                <path id="Path_302" data-name="Path 302" d="M37.525,364.01a4.867,4.867,0,0,0-.005-.756c-.028-.486-.095-1.188-.232-2.047a27.027,27.027,0,0,0-.666-2.983,24.478,24.478,0,0,0-1.247-3.53,18.81,18.81,0,0,0-3.663-5.7,9.281,9.281,0,0,0-.862-.8c-.132-.112-.249-.223-.368-.312l-.335-.23a4.806,4.806,0,0,0-.636-.407A22.568,22.568,0,0,1,31.6,349.1a19.813,19.813,0,0,1,3.572,5.684,27.913,27.913,0,0,1,1.254,3.5,30.216,30.216,0,0,1,.708,2.953c.156.851.247,1.546.3,2.027A4.889,4.889,0,0,0,37.525,364.01Z" transform="translate(-29.51 -347.239)" fill="#263238"/>
              </g>
            </g>
          </g>
        </g>
        <g id="Group_473" data-name="Group 473" transform="translate(6.252 33.992)">
          <g id="Group_472" data-name="Group 472">
            <path id="Path_303" data-name="Path 303" d="M35.281,418.182l.6,8.225H46.447l.6-8.225Z" transform="translate(-35.281 -418.182)" fill="#263238"/>
          </g>
        </g>
        <g id="Group_475" data-name="Group 475" transform="translate(5.231 30.75)">
          <g id="Group_474" data-name="Group 474">
            <rect id="Rectangle_101" data-name="Rectangle 101" width="14.048" height="3.242" fill="#263238"/>
          </g>
        </g>
        <g id="Group_477" data-name="Group 477" transform="translate(5.231 41.902)">
          <g id="Group_476" data-name="Group 476">
            <path id="Path_304" data-name="Path 304" d="M32.633,438.707v.9H46.449v-.9Z" transform="translate(-32.633 -438.707)" fill="#455a64"/>
          </g>
        </g>
        <g id="Group_479" data-name="Group 479" transform="translate(5.891 42.801)">
          <g id="Group_478" data-name="Group 478">
            <path id="Path_305" data-name="Path 305" d="M34.993,442.621l-.647-1.582H47l-.755,1.582Z" transform="translate(-34.346 -441.039)" fill="#455a64"/>
          </g>
        </g>
        <g id="Group_482" data-name="Group 482" transform="translate(6.43 35.525)">
          <g id="Group_481" data-name="Group 481">
            <g id="Group_480" data-name="Group 480">
              <path id="Path_306" data-name="Path 306" d="M47.135,423.314a.332.332,0,0,1-.049.076l-.158.21-.615.788-.027.035-.027-.037-1.512-2.091h.087L43.345,424.4l-.047.066-.052-.062-1.766-2.1h.1l-.1.122-1.579,1.979-.053.066L39.8,424.4,38.315,422.3l.087,0-1.834,2.09-.033.037-.025-.042-.575-.965-.147-.257a.412.412,0,0,1-.045-.092.44.44,0,0,1,.062.082l.163.247.6.948-.057,0,1.8-2.116.046-.053.041.057,1.5,2.1-.1,0,1.575-1.982.1-.122.05-.063.052.062,1.761,2.1-.1,0,1.5-2.1.044-.062.043.062,1.48,2.114-.054,0,.64-.768.171-.2A.351.351,0,0,1,47.135,423.314Z" transform="translate(-35.743 -422.159)" fill="#e0e0e0"/>
            </g>
          </g>
        </g>
        <g id="Group_485" data-name="Group 485" transform="translate(6.339 33.872)">
          <g id="Group_484" data-name="Group 484">
            <g id="Group_483" data-name="Group 483">
              <path id="Path_307" data-name="Path 307" d="M47.335,417.936c0,.036-2.647.066-5.913.066s-5.913-.03-5.913-.066,2.647-.066,5.913-.066S47.335,417.9,47.335,417.936Z" transform="translate(-35.509 -417.87)" fill="#455a64"/>
            </g>
          </g>
        </g>
        <g id="Group_488" data-name="Group 488" transform="translate(5.847 42.824)">
          <g id="Group_487" data-name="Group 487">
            <g id="Group_486" data-name="Group 486">
              <path id="Path_308" data-name="Path 308" d="M47.083,441.165c0,.036-2.877.066-6.426.066s-6.426-.03-6.426-.066,2.876-.066,6.426-.066S47.083,441.128,47.083,441.165Z" transform="translate(-34.231 -441.099)" fill="#263238"/>
            </g>
          </g>
        </g>
      </g>
    </g>
    <g id="Devices" transform="translate(43.652 161.702)">
      <g id="Group_492" data-name="Group 492" transform="translate(111.675 0)">
        <g id="Group_490" data-name="Group 490">
          <path id="Path_309" data-name="Path 309" d="M380,195.564l-7.34,30.7h2.053l7.231-30.7Z" transform="translate(-372.661 -195.564)" fill="#263238"/>
        </g>
        <g id="Group_491" data-name="Group 491" transform="translate(3.57 20.22)">
          <path id="Path_310" data-name="Path 310" d="M382.877,248.033c-.133.563,3.324,17.3,3.324,17.3h-1.664l-2.611-13.261Z" transform="translate(-381.926 -248.033)" fill="#263238"/>
        </g>
      </g>
      <g id="Group_550" data-name="Group 550" transform="translate(106.255 40.274)">
        <g id="Group_509" data-name="Group 509">
          <g id="Group_506" data-name="Group 506">
            <g id="Group_493" data-name="Group 493" transform="translate(0 19.367)">
              <rect id="Rectangle_102" data-name="Rectangle 102" width="34.385" height="36.453" fill="#e8505b"/>
            </g>
            <g id="Group_494" data-name="Group 494" transform="translate(34.385 24.694)">
              <rect id="Rectangle_103" data-name="Rectangle 103" width="1.688" height="1.688" fill="#263238"/>
            </g>
            <g id="Group_495" data-name="Group 495" transform="translate(34.385 30.055)">
              <rect id="Rectangle_104" data-name="Rectangle 104" width="1.688" height="1.688" fill="#263238"/>
            </g>
            <g id="Group_496" data-name="Group 496" transform="translate(34.385 35.415)">
              <rect id="Rectangle_105" data-name="Rectangle 105" width="1.688" height="1.688" fill="#263238"/>
            </g>
            <g id="Group_497" data-name="Group 497" transform="translate(34.385 40.776)">
              <rect id="Rectangle_106" data-name="Rectangle 106" width="1.688" height="1.688" fill="#263238"/>
            </g>
            <g id="Group_499" data-name="Group 499" transform="translate(36.033 35.658)">
              <g id="Group_498" data-name="Group 498">
                <path id="Path_311" data-name="Path 311" d="M452.2,392.85a2.553,2.553,0,0,1,.519-.114,8.659,8.659,0,0,1,1.447-.137,3.9,3.9,0,0,1,2.09.55,2.416,2.416,0,0,1,1.161,2.314,2.907,2.907,0,0,1-.439,1.322,3.471,3.471,0,0,1-.889.94,4.549,4.549,0,0,1-2.011.794,6.609,6.609,0,0,1-1.453.049,2.157,2.157,0,0,1-.527-.074,3.631,3.631,0,0,1,.53,0,7.8,7.8,0,0,0,1.427-.111,4.538,4.538,0,0,0,1.924-.8,2.958,2.958,0,0,0,1.238-2.129,2.247,2.247,0,0,0-1.061-2.143,3.852,3.852,0,0,0-1.992-.564,10.971,10.971,0,0,0-1.434.072A2.847,2.847,0,0,1,452.2,392.85Z" transform="translate(-452.099 -392.6)" fill="#263238"/>
              </g>
            </g>
            <g id="Group_501" data-name="Group 501" transform="translate(35.715 30.094)">
              <g id="Group_500" data-name="Group 500">
                <path id="Path_312" data-name="Path 312" d="M451.275,378.649a.626.626,0,0,1,.161-.1,3.377,3.377,0,0,1,.5-.2,3.955,3.955,0,0,1,1.975-.11,1.8,1.8,0,0,1,.629.25,1.094,1.094,0,0,1,.445.6,1.733,1.733,0,0,1-.386,1.537,1.707,1.707,0,0,1-.712.524,1.111,1.111,0,0,1-.931-.05.95.95,0,0,1-.535-.81.972.972,0,0,1,.546-.836,1.5,1.5,0,0,1,.983-.1,2.027,2.027,0,0,1,.858.409,2.318,2.318,0,0,1,.857,1.532,2.166,2.166,0,0,1-.44,1.527,3.114,3.114,0,0,1-1.057.892,5.077,5.077,0,0,1-1.916.5c-.233.019-.414.025-.536.026a.647.647,0,0,1-.188-.01c0-.016.256-.034.716-.094a5.339,5.339,0,0,0,1.857-.547,3.012,3.012,0,0,0,.99-.866,2,2,0,0,0,.391-1.407,2.138,2.138,0,0,0-.8-1.4,1.835,1.835,0,0,0-.775-.368,1.3,1.3,0,0,0-.851.086.777.777,0,0,0-.439.657.755.755,0,0,0,.428.637.916.916,0,0,0,.772.043,1.532,1.532,0,0,0,.635-.462,1.571,1.571,0,0,0,.368-1.372,1.162,1.162,0,0,0-.945-.758,4.07,4.07,0,0,0-1.922.046C451.512,378.544,451.283,378.666,451.275,378.649Z" transform="translate(-451.275 -378.162)" fill="#263238"/>
              </g>
            </g>
            <g id="Group_503" data-name="Group 503" transform="translate(35.733 25.274)">
              <g id="Group_502" data-name="Group 502">
                <path id="Path_313" data-name="Path 313" d="M451.32,365.729a.983.983,0,0,1,.375-.069,2.755,2.755,0,0,1,1.032.145,2.946,2.946,0,0,1,1.285.866,2.93,2.93,0,0,1,.11,3.584,2.947,2.947,0,0,1-1.229.943,2.76,2.76,0,0,1-1.021.208.979.979,0,0,1-.378-.046,3.851,3.851,0,0,0,1.343-.292,2.915,2.915,0,0,0,1.137-.922,2.808,2.808,0,0,0-.1-3.356,2.916,2.916,0,0,0-1.191-.851A3.852,3.852,0,0,0,451.32,365.729Z" transform="translate(-451.32 -365.655)" fill="#263238"/>
              </g>
            </g>
            <g id="Group_505" data-name="Group 505" transform="translate(10.21)">
              <g id="Group_504" data-name="Group 504">
                <path id="Path_314" data-name="Path 314" d="M385.091,300.071a3.437,3.437,0,0,1,.289.68,13.058,13.058,0,0,1,.456,2.071c.142.91.262,2.03.382,3.332s.23,2.786.439,4.413c.054.407.118.822.2,1.241a5.537,5.537,0,0,0,.371,1.241,4.512,4.512,0,0,0,.843,1.042,6.632,6.632,0,0,0,3.888,1.8,5.47,5.47,0,0,0,3.037-.525,3.677,3.677,0,0,0,1.962-2.464,2.815,2.815,0,0,0-.116-1.639,2.89,2.89,0,0,0-1.068-1.29,3.224,3.224,0,0,0-1.626-.542,2.577,2.577,0,0,0-1.647.484,1.813,1.813,0,0,0-.558.658,1.356,1.356,0,0,0-.108.841,2.039,2.039,0,0,0,1.066,1.356,4.944,4.944,0,0,0,1.757.486,16.077,16.077,0,0,0,1.829.127,28.566,28.566,0,0,0,3.589-.2c2.346-.262,4.61-.639,6.8-.662a13.33,13.33,0,0,1,6.051,1.143,7.085,7.085,0,0,1,2.253,1.682,5.193,5.193,0,0,1,1.169,2.311,6.236,6.236,0,0,1-.668,4.337,7.328,7.328,0,0,1-2.286,2.44,8.563,8.563,0,0,1-1.888.963,5.855,5.855,0,0,1-.708.214s.059-.025.176-.065.292-.1.518-.187a8.926,8.926,0,0,0,1.858-.99,7.305,7.305,0,0,0,2.232-2.43,6.132,6.132,0,0,0,.628-4.251,5.058,5.058,0,0,0-1.148-2.24,6.942,6.942,0,0,0-2.209-1.634,13.2,13.2,0,0,0-5.976-1.108c-2.169.029-4.424.407-6.778.673a28.72,28.72,0,0,1-3.614.207,16.245,16.245,0,0,1-1.852-.128,5.125,5.125,0,0,1-1.827-.508,2.236,2.236,0,0,1-1.167-1.495,1.561,1.561,0,0,1,.124-.964,2.013,2.013,0,0,1,.619-.732,2.773,2.773,0,0,1,1.775-.523,3.421,3.421,0,0,1,1.728.577,3.085,3.085,0,0,1,1.138,1.381,3.006,3.006,0,0,1,.122,1.751,3.864,3.864,0,0,1-2.065,2.588,5.645,5.645,0,0,1-3.139.536,6.792,6.792,0,0,1-3.982-1.862,4.614,4.614,0,0,1-.871-1.089,5.675,5.675,0,0,1-.378-1.28c-.082-.425-.145-.843-.2-1.252-.2-1.636-.3-3.121-.41-4.422s-.217-2.421-.347-3.33a14.16,14.16,0,0,0-.418-2.07,4.712,4.712,0,0,0-.182-.518C385.111,300.132,385.091,300.071,385.091,300.071Z" transform="translate(-385.091 -300.071)" fill="#263238"/>
              </g>
            </g>
          </g>
          <g id="Group_508" data-name="Group 508" transform="translate(1.244 20.699)">
            <g id="Group_507" data-name="Group 507">
              <path id="Path_315" data-name="Path 315" d="M393.011,387.38s0-.056-.005-.161,0-.264-.005-.466c0-.415-.006-1.02-.01-1.807-.005-1.583-.013-3.893-.023-6.828-.011-5.868-.026-14.23-.045-24.234l.088.088-31.082.013h0l.1-.1c-.005,12.314-.01,23.822-.015,33.5l-.086-.086,22.524.044,6.314.022,1.668.01c.378,0,.578.009.578.009s-.187.007-.56.01l-1.652.01-6.3.022-22.579.044h-.086v-.086c0-9.674-.009-21.182-.015-33.5v-.1h.1l31.082.012h.088v.088c-.018,10.027-.034,18.409-.045,24.29-.01,2.927-.018,5.23-.023,6.808,0,.78-.008,1.38-.01,1.79,0,.2,0,.349-.005.456S393.011,387.38,393.011,387.38Z" transform="translate(-361.826 -353.784)" fill="#263238"/>
            </g>
          </g>
        </g>
        <g id="Group_549" data-name="Group 549" transform="translate(23.356 24.76)">
          <g id="Group_510" data-name="Group 510">
            <path id="Path_316" data-name="Path 316" d="M419.523,364.48a.16.16,0,1,1-.16-.16A.16.16,0,0,1,419.523,364.48Z" transform="translate(-419.203 -364.32)" fill="#263238"/>
          </g>
          <g id="Group_511" data-name="Group 511" transform="translate(0.878)">
            <path id="Path_317" data-name="Path 317" d="M421.8,364.48a.16.16,0,1,1-.16-.16A.16.16,0,0,1,421.8,364.48Z" transform="translate(-421.482 -364.32)" fill="#263238"/>
          </g>
          <g id="Group_512" data-name="Group 512" transform="translate(1.757)">
            <path id="Path_318" data-name="Path 318" d="M424.081,364.48a.16.16,0,1,1-.16-.16A.16.16,0,0,1,424.081,364.48Z" transform="translate(-423.761 -364.32)" fill="#263238"/>
          </g>
          <g id="Group_513" data-name="Group 513" transform="translate(2.635)">
            <path id="Path_319" data-name="Path 319" d="M426.36,364.48a.16.16,0,1,1-.16-.16A.16.16,0,0,1,426.36,364.48Z" transform="translate(-426.04 -364.32)" fill="#263238"/>
          </g>
          <g id="Group_514" data-name="Group 514" transform="translate(3.513)">
            <path id="Path_320" data-name="Path 320" d="M428.639,364.48a.16.16,0,1,1-.16-.16A.16.16,0,0,1,428.639,364.48Z" transform="translate(-428.319 -364.32)" fill="#263238"/>
          </g>
          <g id="Group_515" data-name="Group 515" transform="translate(4.391)">
            <path id="Path_321" data-name="Path 321" d="M430.918,364.48a.16.16,0,1,1-.16-.16A.16.16,0,0,1,430.918,364.48Z" transform="translate(-430.598 -364.32)" fill="#263238"/>
          </g>
          <g id="Group_516" data-name="Group 516" transform="translate(5.27)">
            <path id="Path_322" data-name="Path 322" d="M433.2,364.48a.16.16,0,1,1-.16-.16A.16.16,0,0,1,433.2,364.48Z" transform="translate(-432.877 -364.32)" fill="#263238"/>
          </g>
          <g id="Group_517" data-name="Group 517" transform="translate(4.865 0.59)">
            <circle id="Ellipse_22" data-name="Ellipse 22" cx="0.16" cy="0.16" r="0.16" fill="#263238"/>
          </g>
          <g id="Group_518" data-name="Group 518" transform="translate(3.966 0.59)">
            <circle id="Ellipse_23" data-name="Ellipse 23" cx="0.16" cy="0.16" r="0.16" fill="#263238"/>
          </g>
          <g id="Group_519" data-name="Group 519" transform="translate(3.068 0.59)">
            <path id="Path_323" data-name="Path 323" d="M427.483,366.011a.16.16,0,1,1-.16-.16A.16.16,0,0,1,427.483,366.011Z" transform="translate(-427.163 -365.851)" fill="#263238"/>
          </g>
          <g id="Group_520" data-name="Group 520" transform="translate(2.169 0.59)">
            <circle id="Ellipse_24" data-name="Ellipse 24" cx="0.16" cy="0.16" r="0.16" fill="#263238"/>
          </g>
          <g id="Group_521" data-name="Group 521" transform="translate(1.27 0.59)">
            <circle id="Ellipse_25" data-name="Ellipse 25" cx="0.16" cy="0.16" r="0.16" fill="#263238"/>
          </g>
          <g id="Group_522" data-name="Group 522" transform="translate(0.372 0.59)">
            <path id="Path_324" data-name="Path 324" d="M420.488,366.011a.16.16,0,1,1-.16-.16A.16.16,0,0,1,420.488,366.011Z" transform="translate(-420.168 -365.851)" fill="#263238"/>
          </g>
          <g id="Group_523" data-name="Group 523" transform="translate(0 1.258)">
            <path id="Path_325" data-name="Path 325" d="M419.523,367.744a.16.16,0,1,1-.16-.16A.16.16,0,0,1,419.523,367.744Z" transform="translate(-419.203 -367.584)" fill="#263238"/>
          </g>
          <g id="Group_524" data-name="Group 524" transform="translate(0.878 1.258)">
            <path id="Path_326" data-name="Path 326" d="M421.8,367.744a.16.16,0,1,1-.16-.16A.16.16,0,0,1,421.8,367.744Z" transform="translate(-421.482 -367.584)" fill="#263238"/>
          </g>
          <g id="Group_525" data-name="Group 525" transform="translate(1.757 1.258)">
            <path id="Path_327" data-name="Path 327" d="M424.081,367.744a.16.16,0,1,1-.16-.16A.16.16,0,0,1,424.081,367.744Z" transform="translate(-423.761 -367.584)" fill="#263238"/>
          </g>
          <g id="Group_526" data-name="Group 526" transform="translate(2.635 1.258)">
            <path id="Path_328" data-name="Path 328" d="M426.36,367.744a.16.16,0,1,1-.16-.16A.16.16,0,0,1,426.36,367.744Z" transform="translate(-426.04 -367.584)" fill="#263238"/>
          </g>
          <g id="Group_527" data-name="Group 527" transform="translate(3.513 1.258)">
            <path id="Path_329" data-name="Path 329" d="M428.639,367.744a.16.16,0,1,1-.16-.16A.16.16,0,0,1,428.639,367.744Z" transform="translate(-428.319 -367.584)" fill="#263238"/>
          </g>
          <g id="Group_528" data-name="Group 528" transform="translate(4.391 1.258)">
            <path id="Path_330" data-name="Path 330" d="M430.918,367.744a.16.16,0,1,1-.16-.16A.16.16,0,0,1,430.918,367.744Z" transform="translate(-430.598 -367.584)" fill="#263238"/>
          </g>
          <g id="Group_529" data-name="Group 529" transform="translate(5.27 1.258)">
            <path id="Path_331" data-name="Path 331" d="M433.2,367.744a.16.16,0,1,1-.16-.16A.16.16,0,0,1,433.2,367.744Z" transform="translate(-432.877 -367.584)" fill="#263238"/>
          </g>
          <g id="Group_530" data-name="Group 530" transform="translate(4.865 1.848)">
            <path id="Path_332" data-name="Path 332" d="M432.146,369.276a.16.16,0,1,1-.16-.16A.16.16,0,0,1,432.146,369.276Z" transform="translate(-431.826 -369.116)" fill="#263238"/>
          </g>
          <g id="Group_531" data-name="Group 531" transform="translate(3.966 1.848)">
            <path id="Path_333" data-name="Path 333" d="M429.815,369.276a.16.16,0,1,1-.16-.16A.16.16,0,0,1,429.815,369.276Z" transform="translate(-429.495 -369.116)" fill="#263238"/>
          </g>
          <g id="Group_532" data-name="Group 532" transform="translate(3.068 1.848)">
            <path id="Path_334" data-name="Path 334" d="M427.483,369.276a.16.16,0,1,1-.16-.16A.16.16,0,0,1,427.483,369.276Z" transform="translate(-427.163 -369.116)" fill="#263238"/>
          </g>
          <g id="Group_533" data-name="Group 533" transform="translate(2.169 1.848)">
            <path id="Path_335" data-name="Path 335" d="M425.151,369.276a.16.16,0,1,1-.16-.16A.16.16,0,0,1,425.151,369.276Z" transform="translate(-424.831 -369.116)" fill="#263238"/>
          </g>
          <g id="Group_534" data-name="Group 534" transform="translate(1.271 1.848)">
            <path id="Path_336" data-name="Path 336" d="M422.819,369.276a.16.16,0,1,1-.16-.16A.16.16,0,0,1,422.819,369.276Z" transform="translate(-422.5 -369.116)" fill="#263238"/>
          </g>
          <g id="Group_535" data-name="Group 535" transform="translate(0.372 1.848)">
            <path id="Path_337" data-name="Path 337" d="M420.488,369.276a.16.16,0,1,1-.16-.16A.16.16,0,0,1,420.488,369.276Z" transform="translate(-420.168 -369.116)" fill="#263238"/>
          </g>
          <g id="Group_536" data-name="Group 536" transform="translate(0 2.516)">
            <path id="Path_338" data-name="Path 338" d="M419.523,371.009a.16.16,0,1,1-.16-.16A.16.16,0,0,1,419.523,371.009Z" transform="translate(-419.203 -370.849)" fill="#263238"/>
          </g>
          <g id="Group_537" data-name="Group 537" transform="translate(0.878 2.516)">
            <path id="Path_339" data-name="Path 339" d="M421.8,371.009a.16.16,0,1,1-.16-.16A.16.16,0,0,1,421.8,371.009Z" transform="translate(-421.482 -370.849)" fill="#263238"/>
          </g>
          <g id="Group_538" data-name="Group 538" transform="translate(1.757 2.516)">
            <path id="Path_340" data-name="Path 340" d="M424.081,371.009a.16.16,0,1,1-.16-.16A.16.16,0,0,1,424.081,371.009Z" transform="translate(-423.761 -370.849)" fill="#263238"/>
          </g>
          <g id="Group_539" data-name="Group 539" transform="translate(2.635 2.516)">
            <path id="Path_341" data-name="Path 341" d="M426.36,371.009a.16.16,0,1,1-.16-.16A.16.16,0,0,1,426.36,371.009Z" transform="translate(-426.04 -370.849)" fill="#263238"/>
          </g>
          <g id="Group_540" data-name="Group 540" transform="translate(3.513 2.516)">
            <path id="Path_342" data-name="Path 342" d="M428.639,371.009a.16.16,0,1,1-.16-.16A.16.16,0,0,1,428.639,371.009Z" transform="translate(-428.319 -370.849)" fill="#263238"/>
          </g>
          <g id="Group_541" data-name="Group 541" transform="translate(4.391 2.516)">
            <path id="Path_343" data-name="Path 343" d="M430.918,371.009a.16.16,0,1,1-.16-.16A.16.16,0,0,1,430.918,371.009Z" transform="translate(-430.598 -370.849)" fill="#263238"/>
          </g>
          <g id="Group_542" data-name="Group 542" transform="translate(5.27 2.516)">
            <path id="Path_344" data-name="Path 344" d="M433.2,371.009a.16.16,0,1,1-.16-.16A.16.16,0,0,1,433.2,371.009Z" transform="translate(-432.877 -370.849)" fill="#263238"/>
          </g>
          <g id="Group_543" data-name="Group 543" transform="translate(4.865 3.106)">
            <circle id="Ellipse_26" data-name="Ellipse 26" cx="0.16" cy="0.16" r="0.16" fill="#263238"/>
          </g>
          <g id="Group_544" data-name="Group 544" transform="translate(3.966 3.106)">
            <circle id="Ellipse_27" data-name="Ellipse 27" cx="0.16" cy="0.16" r="0.16" fill="#263238"/>
          </g>
          <g id="Group_545" data-name="Group 545" transform="translate(3.068 3.106)">
            <path id="Path_345" data-name="Path 345" d="M427.483,372.541a.16.16,0,1,1-.16-.16A.16.16,0,0,1,427.483,372.541Z" transform="translate(-427.163 -372.381)" fill="#263238"/>
          </g>
          <g id="Group_546" data-name="Group 546" transform="translate(2.169 3.106)">
            <circle id="Ellipse_28" data-name="Ellipse 28" cx="0.16" cy="0.16" r="0.16" fill="#263238"/>
          </g>
          <g id="Group_547" data-name="Group 547" transform="translate(1.27 3.106)">
            <circle id="Ellipse_29" data-name="Ellipse 29" cx="0.16" cy="0.16" r="0.16" fill="#263238"/>
          </g>
          <g id="Group_548" data-name="Group 548" transform="translate(0.372 3.106)">
            <path id="Path_346" data-name="Path 346" d="M420.488,372.541a.16.16,0,1,1-.16-.16A.16.16,0,0,1,420.488,372.541Z" transform="translate(-420.168 -372.381)" fill="#263238"/>
          </g>
        </g>
      </g>
      <g id="Group_554" data-name="Group 554" transform="translate(101.95 29.184)">
        <g id="Group_552" data-name="Group 552" transform="translate(2.245)">
          <g id="Group_551" data-name="Group 551">
            <path id="Path_347" data-name="Path 347" d="M366.835,271.293a1.937,1.937,0,0,1,.626.109,3.516,3.516,0,0,1,1.519.993,6.574,6.574,0,0,1,1.343,2.543,24.948,24.948,0,0,1,.846,3.724,47.011,47.011,0,0,1,.245,9.924,5.829,5.829,0,0,1-.863,2.752,3.5,3.5,0,0,1-1.086,1.052,2.43,2.43,0,0,1-1.5.357,2.327,2.327,0,0,1-1.428-.664,1.766,1.766,0,0,1-.422-.7,1.5,1.5,0,0,1-.011-.829,1.773,1.773,0,0,1,1.076-1.212,1.275,1.275,0,0,1,.852,0,1.548,1.548,0,0,1,.679.513,2.1,2.1,0,0,1,.374,1.6,4.385,4.385,0,0,1-.555,1.516,5.963,5.963,0,0,1-2.195,2.212,5.89,5.89,0,0,1-5.706.08,6.712,6.712,0,0,1-2.081-1.793,8.719,8.719,0,0,1-1.263-2.262,14.775,14.775,0,0,1-.844-4.549c-.077-1.415,0-2.7-.138-3.8a6.336,6.336,0,0,0-.358-1.505,4.243,4.243,0,0,0-.644-1.125,3.2,3.2,0,0,0-1.43-1.058,4.3,4.3,0,0,0-.613-.147,1.979,1.979,0,0,1,.626.109,3.181,3.181,0,0,1,1.478,1.047,4.285,4.285,0,0,1,.673,1.139,6.4,6.4,0,0,1,.381,1.526c.153,1.123.082,2.406.168,3.812a14.706,14.706,0,0,0,.857,4.5,8.571,8.571,0,0,0,1.247,2.212,6.536,6.536,0,0,0,2.029,1.74,5.706,5.706,0,0,0,5.52-.087,5.773,5.773,0,0,0,2.12-2.141,4.2,4.2,0,0,0,.531-1.445,1.9,1.9,0,0,0-.335-1.449,1.348,1.348,0,0,0-.589-.447,1.073,1.073,0,0,0-.716,0,1.577,1.577,0,0,0-.949,1.074,1.384,1.384,0,0,0,.382,1.34,2.132,2.132,0,0,0,1.3.607,2.235,2.235,0,0,0,1.385-.328,3.315,3.315,0,0,0,1.027-.992,5.656,5.656,0,0,0,.837-2.663,47.65,47.65,0,0,0-.2-9.884,25.31,25.31,0,0,0-.813-3.711,6.563,6.563,0,0,0-1.293-2.524,3.562,3.562,0,0,0-1.474-1.007A4.1,4.1,0,0,0,366.835,271.293Z" transform="translate(-353.253 -271.293)" fill="#e0e0e0"/>
          </g>
        </g>
        <g id="Group_553" data-name="Group 553" transform="translate(0 5.576)">
          <rect id="Rectangle_107" data-name="Rectangle 107" width="12.803" height="2.439" fill="#e0e0e0"/>
        </g>
      </g>
      <g id="Group_574" data-name="Group 574" transform="translate(0 40.679)">
        <g id="Group_571" data-name="Group 571" transform="translate(5.645 19.298)">
          <g id="Group_555" data-name="Group 555">
            <rect id="Rectangle_108" data-name="Rectangle 108" width="16.699" height="35.945" fill="#263238"/>
          </g>
          <g id="Group_557" data-name="Group 557" transform="translate(1.19 1.144)">
            <g id="Group_556" data-name="Group 556">
              <path id="Path_348" data-name="Path 348" d="M114.685,385.181s0-.054-.006-.155,0-.255-.006-.446c0-.4-.007-.975-.012-1.72-.006-1.5-.015-3.683-.026-6.421-.011-5.479-.027-13.194-.045-22.172l.1.1-13.969.005h0l.1-.1c-.011,12.009-.02,22.914-.028,30.914l-.072-.072,10.2.039,2.788.018.729.008c.165,0,.254.007.254.007s-.078.005-.239.008l-.716.008-2.772.018-10.244.039h-.072v-.073c-.007-8-.017-18.906-.028-30.914v-.1h.1l13.969.005h.1v.1c-.019,9-.034,16.741-.045,22.236-.011,2.73-.02,4.9-.026,6.4-.005.736-.009,1.306-.012,1.7,0,.186,0,.331-.006.435S114.685,385.181,114.685,385.181Z" transform="translate(-100.613 -354.166)" fill="#455a64"/>
            </g>
          </g>
          <g id="Group_559" data-name="Group 559" transform="translate(2.151 2.335)">
            <g id="Group_558" data-name="Group 558">
              <path id="Path_349" data-name="Path 349" d="M115.354,358.782c-.005-.005-.011-.134-.019-.375-.006-.257-.015-.6-.025-1.042l.044.044c-2.161.033-6.793.056-12.148.056h0c.045-.045-.1.1.1-.1h0v.72c0,.237,0,.47,0,.7l-.1-.1c3.4,0,6.418.023,8.6.043l2.585.03.706.014a1.948,1.948,0,0,1,.255.013,1.359,1.359,0,0,1-.228.014l-.684.014-2.562.029c-2.18.02-5.235.041-8.675.043h-.1v-.1c0-.226,0-.459,0-.7v-.72h0l.1-.1h0c5.355,0,9.987.023,12.148.056h.045v.043c-.011.45-.019.8-.025,1.067A2.7,2.7,0,0,1,115.354,358.782Z" transform="translate(-103.105 -357.256)" fill="#455a64"/>
            </g>
          </g>
          <g id="Group_561" data-name="Group 561" transform="translate(2.354 4.778)">
            <g id="Group_560" data-name="Group 560">
              <path id="Path_350" data-name="Path 350" d="M104.752,363.7c0,.055-.251.1-.56.1s-.56-.045-.56-.1.25-.1.56-.1S104.752,363.641,104.752,363.7Z" transform="translate(-103.632 -363.596)" fill="#455a64"/>
            </g>
          </g>
          <g id="Group_563" data-name="Group 563" transform="translate(2.525 6.633)">
            <g id="Group_562" data-name="Group 562">
              <path id="Path_351" data-name="Path 351" d="M115.626,368.509c0,.055-2.586.1-5.775.1s-5.776-.045-5.776-.1,2.585-.1,5.776-.1S115.626,368.454,115.626,368.509Z" transform="translate(-104.076 -368.409)" fill="#455a64"/>
            </g>
          </g>
          <g id="Group_565" data-name="Group 565" transform="translate(2.774 8.873)">
            <g id="Group_564" data-name="Group 564">
              <path id="Path_352" data-name="Path 352" d="M116.073,374.323c0,.056-2.541.1-5.675.1s-5.676-.045-5.676-.1,2.541-.1,5.676-.1S116.073,374.267,116.073,374.323Z" transform="translate(-104.722 -374.222)" fill="#455a64"/>
            </g>
          </g>
          <g id="Group_566" data-name="Group 566" transform="translate(7.381 13.289)">
            <circle id="Ellipse_30" data-name="Ellipse 30" cx="0.919" cy="0.919" r="0.919" fill="#e8505b"/>
          </g>
          <g id="Group_568" data-name="Group 568" transform="translate(3.253 14.065)">
            <g id="Group_567" data-name="Group 567">
              <path id="Path_353" data-name="Path 353" d="M108.423,387.8a7.549,7.549,0,0,1-2.457,0,7.58,7.58,0,0,1,2.457,0Z" transform="translate(-105.966 -387.696)" fill="#455a64"/>
            </g>
          </g>
          <g id="Group_570" data-name="Group 570" transform="translate(10.831 13.828)">
            <g id="Group_569" data-name="Group 569">
              <path id="Path_354" data-name="Path 354" d="M127.969,387.182a6.873,6.873,0,0,1-2.339,0,6.85,6.85,0,0,1,2.339,0Z" transform="translate(-125.63 -387.081)" fill="#455a64"/>
            </g>
          </g>
        </g>
        <g id="Group_573" data-name="Group 573">
          <g id="Group_572" data-name="Group 572">
            <path id="Path_355" data-name="Path 355" d="M89.094,338.457a3.465,3.465,0,0,1-.625-.115,5.433,5.433,0,0,1-1.653-.765,7.061,7.061,0,0,1-1.993-2.078,12,12,0,0,1-1.454-3.531,14.412,14.412,0,0,1-.461-4.6,9.454,9.454,0,0,1,1.753-4.984,7.9,7.9,0,0,1,2.094-1.989,7.174,7.174,0,0,1,1.344-.668,7.331,7.331,0,0,1,1.487-.355c1.019-.142,2.06-.122,3.1-.183a7.7,7.7,0,0,0,3.05-.7,3.417,3.417,0,0,0,1.893-2.327,3.248,3.248,0,0,0-3.244-3.969,2.3,2.3,0,0,0-1.286.477,1.394,1.394,0,0,0-.538,1.163,1.864,1.864,0,0,0,1.719,1.661,2.824,2.824,0,0,0,2.2-.99,5.29,5.29,0,0,0,1.066-2.092A18.174,18.174,0,0,0,98,310.242a35.625,35.625,0,0,0,.2-6.67c-.04-.781-.071-1.391-.092-1.817-.009-.2-.017-.357-.022-.473a.966.966,0,0,1,0-.161.924.924,0,0,1,.021.16c.01.116.024.272.042.472.034.415.082,1.027.129,1.816a34.214,34.214,0,0,1-.141,6.694,18.169,18.169,0,0,1-.436,2.184,5.44,5.44,0,0,1-1.091,2.161,2.991,2.991,0,0,1-2.339,1.054,2.042,2.042,0,0,1-1.891-1.826,1.582,1.582,0,0,1,.6-1.319,2.492,2.492,0,0,1,1.393-.522,3.441,3.441,0,0,1,3.453,4.2,3.355,3.355,0,0,1-.707,1.455,3.972,3.972,0,0,1-1.29,1.007,7.871,7.871,0,0,1-3.129.723c-1.053.061-2.089.041-3.087.179a7.171,7.171,0,0,0-1.448.343,7.011,7.011,0,0,0-1.307.647,7.719,7.719,0,0,0-2.048,1.937,9.306,9.306,0,0,0-1.736,4.887,14.361,14.361,0,0,0,.433,4.558,11.976,11.976,0,0,0,1.411,3.505,7.065,7.065,0,0,0,1.943,2.074,5.622,5.622,0,0,0,1.62.791c.2.058.353.1.457.116A.983.983,0,0,1,89.094,338.457Z" transform="translate(-82.876 -301.121)" fill="#263238"/>
          </g>
        </g>
      </g>
      <g id="Group_577" data-name="Group 577" transform="translate(0.528 4.218)">
        <g id="Group_575" data-name="Group 575">
          <rect id="Rectangle_109" data-name="Rectangle 109" width="39.541" height="27.152" fill="#263238"/>
        </g>
        <g id="Group_576" data-name="Group 576" transform="translate(16.713 23.45)">
          <rect id="Rectangle_110" data-name="Rectangle 110" width="5.384" height="10.242" fill="#263238"/>
        </g>
      </g>
    </g>
    <g id="Desk" transform="translate(48.116 197.862)">
      <g id="Group_582" data-name="Group 582" transform="translate(0 0)">
        <g id="Group_578" data-name="Group 578" transform="translate(0 1.039)">
          <path id="Path_356" data-name="Path 356" d="M94.46,292.409V296.1h20.4v54.9h1.877V296.1l85.2.42v54.477h1.84v-54.58l13.149.106v-4.428Z" transform="translate(-94.46 -292.091)" fill="#263238"/>
        </g>
        <g id="Group_579" data-name="Group 579" transform="translate(12.29 4.327)">
          <path id="Path_357" data-name="Path 357" d="M127.115,300.622l8.044,5.793-.7.671-8.11-6.111Z" transform="translate(-126.35 -300.622)" fill="#263238"/>
        </g>
        <g id="Group_580" data-name="Group 580" transform="translate(107.57 4.867)">
          <path id="Path_358" data-name="Path 358" d="M382.927,302.024l-9.334,6.647.7.671,9.4-6.965Z" transform="translate(-373.593 -302.024)" fill="#263238"/>
        </g>
        <g id="Group_581" data-name="Group 581" transform="translate(29.667)">
          <rect id="Rectangle_111" data-name="Rectangle 111" width="21.086" height="1.552" fill="#263238"/>
        </g>
      </g>
    </g>
  </g>
</svg>
