<svg width="126" height="153" viewBox="0 0 126 153" fill="none" xmlns="http://www.w3.org/2000/svg">
<g clip-path="url(#clip0_98_37)">
<path d="M78.6131 25.3199C76.5696 22.9394 72.9769 22.5538 70.1721 23.7108C65.1236 25.6922 62.9199 30.3467 56.883 27.328C56.1618 27.0221 55.4405 26.5965 54.6659 26.3971C51.6474 25.7587 51.1666 27.9796 51.9012 30.3467C52.5824 33.0331 54.0649 35.4135 54.8529 38.0599C56.4823 43.1666 57.0967 48.752 56.2552 54.098C56.0148 55.3746 55.8412 56.771 55.0666 57.8482C54.4121 58.7126 53.1032 59.1248 52.155 58.4865C50.9262 57.7019 50.0447 56.4119 48.6958 55.8002C46.265 54.7496 45.5972 58.1673 45.477 59.8829C45.0229 66.2396 46.6924 72.5564 49.0564 78.4078C52.1149 85.8417 56.883 92.85 63.7479 97.2518C64.4959 97.7173 65.3106 98.196 66.2321 98.196C66.2589 98.196 66.2856 98.196 66.3123 98.196C67.3808 98.196 68.0886 97.2917 67.9417 96.2411C67.7814 94.5788 66.9266 93.0628 66.2856 91.5334C65.3239 89.4323 64.5359 87.4109 63.9483 85.1102C62.4658 78.9929 62.8531 72.5298 64.6027 66.4922C66.3924 60.2552 70.1321 54.7762 73.9252 49.5632C76.9703 45.2411 80.336 40.8127 81.2709 35.48C82.0055 31.9027 80.9771 28.0594 78.6131 25.28V25.3199Z" fill="#CC6666"/>
<path d="M57.8045 23.299C58.2453 23.3522 58.6994 23.3788 59.1401 23.3788C61.9716 23.3788 64.7897 22.2883 66.94 20.4797C70.8399 17.1816 71.7481 11.3569 69.9317 6.72896C66.4058 -1.87521 55.7344 -2.27417 51.2735 5.78476C49.7509 8.43117 49.0831 11.6494 49.7375 14.6549C50.6324 18.8705 53.2368 22.6872 57.8045 23.299Z" fill="#CC6666"/>
<path d="M78.3326 52.1172C77.2107 52.3034 76.396 53.221 75.5947 53.9657C73.3509 56.2397 71.7081 58.8596 70.3591 61.7852C69.1838 64.3785 68.289 67.2909 67.8883 70.1367C67.0869 74.0465 66.9534 78.1558 67.9684 82.039C68.4759 84.0071 69.6246 87.0924 71.7615 87.7041C71.9351 87.7573 72.1088 87.7706 72.2824 87.7706C73.1238 87.7706 73.8985 87.252 74.4461 86.627C75.9686 84.712 75.9419 82.0922 75.8217 79.7516C75.5546 76.0014 74.9536 72.2778 75.0604 68.5143C75.1005 66.2403 75.4344 64.1258 75.8885 61.8783C76.4094 59.2319 77.371 56.6786 78.7199 54.2982C79.1473 53.5534 79.6148 52.2236 78.3326 52.1172Z" fill="#CC6666"/>
<path d="M50.6992 52.1972C50.7927 52.5164 50.806 52.9419 51.18 53.0749C51.2334 53.0882 51.2735 53.0882 51.3269 53.0882C52.2084 53.035 52.5156 49.9764 52.6091 49.2848C52.7827 46.6783 52.6892 44.0718 52.1817 41.5052C51.9012 39.7232 51.3536 37.9944 50.4588 36.4384C46.8794 29.2572 41.537 34.0979 44.4352 40.2285C45.9044 43.4335 48.1615 46.1996 49.6574 49.3912C50.0848 50.2822 50.4721 51.2131 50.7125 52.1972H50.6992Z" fill="#CC6666"/>
<path d="M0 115.405V110.032H6.3975V115.405H0ZM0 134.528V116.881H6.3975V134.528H0Z" fill="#23313B"/>
<path d="M27.4598 134.528H21.0623V124.594C21.0623 123.716 20.862 123.091 20.4747 122.692C20.0873 122.307 19.6199 122.107 19.1124 122.107C18.6048 122.107 18.0038 122.347 17.3894 122.812C16.7884 123.278 16.3343 123.889 16.0405 124.621V134.515H9.64299V116.868H15.3994V119.487C16.0271 118.53 16.9086 117.799 18.0439 117.293C19.1791 116.788 20.5147 116.535 22.0774 116.535C23.2928 116.535 24.2544 116.748 24.9623 117.187C25.6701 117.626 26.2044 118.171 26.5783 118.809C26.9523 119.461 27.1927 120.152 27.2996 120.884C27.4064 121.629 27.4732 122.293 27.4732 122.892V134.502L27.4598 134.528Z" fill="#23313B"/>
<path d="M42.2582 134.528L38.2514 128.092L36.9693 129.501V134.528H30.5718V110.032H36.9693V123.424L41.6839 116.881H48.4287L42.325 124.594L49.0297 134.528H42.2582Z" fill="#23313B"/>
<path d="M56.8162 134.861C55.6008 134.861 54.4789 134.635 53.4639 134.196C52.4354 133.744 51.554 133.119 50.8194 132.294C50.0714 131.483 49.4971 130.499 49.0831 129.369C48.6691 128.238 48.4554 127.001 48.4554 125.658C48.4554 124.315 48.6424 123.158 49.0297 122.028C49.417 120.911 49.9512 119.94 50.6324 119.129C51.3135 118.317 52.1283 117.679 53.0765 117.214C54.0248 116.748 55.0666 116.522 56.2152 116.522C57.3638 116.522 58.4056 116.775 59.3672 117.293C60.3155 117.812 61.0634 118.53 61.5709 119.474V110.006H67.9684V127.454C67.9684 128.052 68.0619 128.478 68.2355 128.717C68.4092 128.956 68.7297 129.089 69.1838 129.142V134.515C68.0886 134.741 67.1804 134.848 66.4859 134.848C64.3089 134.848 63.0534 134.036 62.7062 132.401L62.5726 131.762C61.9716 132.839 61.1435 133.624 60.1151 134.116C59.0867 134.608 57.9782 134.861 56.8162 134.861ZM58.5658 129.502C59.7278 129.502 60.7428 128.903 61.5976 127.693V124.541C61.2771 123.757 60.823 123.132 60.222 122.639C59.6209 122.161 58.9799 121.921 58.2987 121.921C57.8313 121.921 57.3905 122.028 57.0032 122.227C56.6159 122.427 56.2686 122.706 55.9881 123.065C55.7077 123.424 55.4806 123.836 55.3203 124.302C55.1467 124.767 55.0666 125.273 55.0666 125.818C55.0666 126.935 55.3871 127.826 56.0282 128.504C56.6693 129.169 57.5107 129.515 58.5792 129.515L58.5658 129.502Z" fill="#23313B"/>
<path d="M83.8486 122.32C82.6065 122.32 81.4846 122.453 80.4829 122.719C79.4679 122.985 78.72 123.437 78.2258 124.062V134.528H71.8283V116.881H77.6915V120.232C78.3193 119.049 79.1073 118.131 80.0288 117.493C80.9638 116.854 81.9655 116.535 83.0473 116.535C83.4747 116.535 83.7418 116.535 83.862 116.575V122.307L83.8486 122.32Z" fill="#23313B"/>
<path d="M94.5601 134.861C92.9707 134.861 91.5684 134.608 90.3663 134.103C89.1643 133.598 88.1492 132.933 87.3345 132.095C86.5198 131.257 85.8921 130.286 85.4781 129.169C85.064 128.065 84.8503 126.908 84.8503 125.698C84.8503 124.488 85.064 123.331 85.4781 122.227C85.8921 121.124 86.5065 120.153 87.3345 119.315C88.1492 118.477 89.1643 117.799 90.3663 117.307C91.5684 116.802 92.9707 116.549 94.5601 116.549C96.1495 116.549 97.5251 116.802 98.7405 117.307C99.9559 117.812 100.971 118.477 101.786 119.315C102.6 120.153 103.228 121.124 103.642 122.227C104.056 123.331 104.27 124.488 104.27 125.698C104.27 126.908 104.056 128.065 103.642 129.169C103.228 130.273 102.614 131.244 101.786 132.095C100.971 132.933 99.9425 133.611 98.7405 134.103C97.5251 134.608 96.1361 134.861 94.5601 134.861ZM91.4214 125.712C91.4214 126.895 91.7153 127.826 92.3029 128.491C92.8906 129.156 93.6385 129.502 94.5601 129.502C95.4817 129.502 96.2296 129.169 96.8173 128.491C97.4049 127.826 97.6988 126.895 97.6988 125.712C97.6988 124.528 97.4049 123.597 96.8173 122.932C96.2296 122.267 95.4817 121.921 94.5601 121.921C93.6385 121.921 92.8906 122.254 92.3029 122.932C91.7153 123.597 91.4214 124.528 91.4214 125.712Z" fill="#23313B"/>
<path d="M118.454 134.861C117.172 134.861 116.063 134.609 115.115 134.103C114.167 133.598 113.445 132.866 112.925 131.909V141.67H106.527V116.868H112.083V119.515C112.711 118.557 113.485 117.812 114.407 117.294C115.329 116.775 116.464 116.522 117.813 116.522C118.975 116.522 120.07 116.749 121.085 117.214C122.1 117.679 122.955 118.304 123.676 119.116C124.397 119.927 124.958 120.884 125.372 122.001C125.786 123.119 126 124.329 126 125.632C126 126.935 125.813 128.172 125.426 129.302C125.038 130.433 124.517 131.417 123.836 132.241C123.169 133.066 122.367 133.718 121.446 134.17C120.524 134.622 119.522 134.861 118.441 134.861H118.454ZM116.223 129.502C116.691 129.502 117.132 129.395 117.519 129.196C117.906 128.997 118.254 128.717 118.534 128.358C118.815 127.999 119.042 127.587 119.202 127.121C119.375 126.656 119.456 126.151 119.456 125.605C119.456 124.488 119.135 123.597 118.494 122.919C117.853 122.254 117.011 121.908 115.943 121.908C114.754 121.908 113.739 122.507 112.911 123.717V126.776C113.232 127.56 113.686 128.212 114.287 128.717C114.888 129.236 115.529 129.489 116.21 129.489L116.223 129.502Z" fill="#23313B"/>
<path d="M4.90164 152.933V151.031L3.47255 148.451H4.14035L4.78143 149.688C4.95506 150.034 5.08862 150.3 5.22218 150.619H5.23553C5.36909 150.326 5.51601 150.034 5.68964 149.688L6.34408 148.451H7.01188L5.50265 151.031V152.946H4.91499L4.90164 152.933Z" fill="#23313B"/>
<path d="M13.1289 150.646C13.1289 152.188 12.1806 153.013 11.032 153.013C9.8834 153.013 9.00191 152.095 9.00191 150.739C9.00191 149.382 9.89676 148.385 11.0988 148.385C12.3008 148.385 13.1289 149.329 13.1289 150.659V150.646ZM9.62964 150.712C9.62964 151.67 10.1505 152.534 11.0721 152.534C11.9936 152.534 12.5145 151.683 12.5145 150.672C12.5145 149.781 12.0471 148.85 11.0721 148.85C10.0971 148.85 9.62964 149.741 9.62964 150.725V150.712Z" fill="#23313B"/>
<path d="M16.4679 148.438V151.098C16.4679 152.109 16.922 152.534 17.523 152.534C18.1908 152.534 18.6182 152.096 18.6182 151.098V148.438H19.2058V151.058C19.2058 152.441 18.4713 153 17.4963 153C16.5747 153 15.8802 152.468 15.8802 151.085V148.438H16.4679Z" fill="#23313B"/>
<path d="M22.2109 148.504C22.5048 148.451 22.9322 148.411 23.3328 148.411C23.9606 148.411 24.3612 148.518 24.6417 148.783C24.8688 148.983 25.0023 149.289 25.0023 149.635C25.0023 150.233 24.6284 150.619 24.1476 150.778V150.805C24.4948 150.925 24.7085 151.244 24.8153 151.709C24.9623 152.334 25.0691 152.773 25.1626 152.946H24.5616C24.4948 152.813 24.388 152.427 24.2544 151.869C24.1208 151.244 23.8804 151.018 23.3462 150.991H22.7986V152.933H22.2109V148.504ZM22.7852 150.539H23.3863C24.014 150.539 24.4013 150.206 24.4013 149.688C24.4013 149.103 23.9739 148.85 23.3595 148.85C23.0791 148.85 22.8787 148.877 22.7852 148.903V150.539Z" fill="#23313B"/>
<path d="M31.8005 148.931H30.4249V148.438H33.7638V148.931H32.3882V152.92H31.8005V148.931Z" fill="#23313B"/>
<path d="M36.5018 151.523L36.0344 152.933H35.4333L36.9693 148.451H37.6771L39.2131 152.933H38.5853L38.1045 151.523H36.5018ZM37.971 151.071L37.5302 149.781C37.4234 149.488 37.3699 149.222 37.2898 148.957C37.223 149.222 37.1563 149.502 37.0628 149.768L36.622 151.071H37.9843H37.971Z" fill="#23313B"/>
<path d="M45.1832 152.734C44.9294 152.827 44.4085 152.986 43.7942 152.986C43.113 152.986 42.5521 152.814 42.1113 152.388C41.724 152.016 41.4836 151.417 41.4836 150.712C41.4836 149.369 42.4185 148.398 43.9277 148.398C44.4486 148.398 44.8626 148.505 45.0496 148.611L44.9161 149.077C44.6756 148.97 44.3685 148.877 43.9144 148.877C42.8192 148.877 42.0979 149.555 42.0979 150.686C42.0979 151.816 42.7925 152.494 43.8342 152.494C44.2215 152.494 44.4753 152.441 44.6089 152.375V151.032H43.6873V150.566H45.1698V152.72L45.1832 152.734Z" fill="#23313B"/>
<path d="M51.5005 148.438H52.0882V152.441H54.0114V152.933H51.5005V148.452V148.438Z" fill="#23313B"/>
<path d="M57.2302 148.438V152.92H56.6426V148.438H57.2302Z" fill="#23313B"/>
<path d="M60.2487 152.933V148.451H60.8898L62.3322 150.725C62.6661 151.257 62.9332 151.723 63.1469 152.188H63.1603C63.1069 151.576 63.0935 151.031 63.0935 150.34V148.464H63.6411V152.946H63.0534L61.6243 150.672C61.3038 150.167 61.01 149.661 60.7829 149.169H60.7696C60.7963 149.741 60.823 150.286 60.823 151.031V152.946H60.2754L60.2487 152.933Z" fill="#23313B"/>
<path d="M68.9835 150.832H67.2338V152.454H69.1838V152.946H66.6462V148.465H69.077V148.957H67.2205V150.38H68.9701V150.859L68.9835 150.832Z" fill="#23313B"/>
<path d="M78.7867 152.734C78.5196 152.827 78.0121 152.986 77.3977 152.986C76.7166 152.986 76.1556 152.814 75.7149 152.388C75.3275 152.016 75.0871 151.417 75.0871 150.712C75.0871 149.369 76.0221 148.398 77.5313 148.398C78.0522 148.398 78.4662 148.505 78.6532 148.611L78.5196 149.077C78.2792 148.97 77.972 148.877 77.5179 148.877C76.4227 148.877 75.7015 149.555 75.7015 150.686C75.7015 151.816 76.396 152.494 77.4378 152.494C77.8251 152.494 78.0789 152.441 78.2124 152.375V151.032H77.2909V150.566H78.7734V152.72L78.7867 152.734Z" fill="#23313B"/>
<path d="M85.5315 150.646C85.5315 152.188 84.5832 153.013 83.4346 153.013C82.286 153.013 81.4045 152.095 81.4045 150.739C81.4045 149.382 82.2994 148.385 83.5014 148.385C84.7034 148.385 85.5315 149.329 85.5315 150.659V150.646ZM82.0322 150.712C82.0322 151.67 82.5531 152.534 83.4747 152.534C84.3962 152.534 84.9171 151.683 84.9171 150.672C84.9171 149.781 84.4497 148.85 83.4747 148.85C82.4997 148.85 82.0322 149.741 82.0322 150.725V150.712Z" fill="#23313B"/>
<path d="M90.6067 150.832H88.8571V152.454H90.8071V152.946H88.2695V148.465H90.7002V148.957H88.8438V150.38H90.5934V150.859L90.6067 150.832Z" fill="#23313B"/>
<path d="M93.4916 152.228C93.7588 152.388 94.1327 152.521 94.5334 152.521C95.1344 152.521 95.4817 152.215 95.4817 151.75C95.4817 151.324 95.2413 151.085 94.6269 150.859C93.8923 150.593 93.4382 150.22 93.4382 149.582C93.4382 148.877 94.0259 148.358 94.894 148.358C95.3615 148.358 95.6954 148.465 95.8957 148.584L95.7354 149.063C95.5885 148.983 95.2813 148.85 94.8807 148.85C94.2663 148.85 94.0259 149.21 94.0259 149.529C94.0259 149.954 94.3063 150.154 94.9207 150.393C95.682 150.686 96.0693 151.058 96.0693 151.71C96.0693 152.401 95.5485 153 94.4933 153C94.0526 153 93.5851 152.88 93.3447 152.72L93.4916 152.228Z" fill="#23313B"/>
<path d="M102.868 148.438V150.314H105.045V148.438H105.632V152.92H105.045V150.819H102.868V152.92H102.28V148.438H102.868Z" fill="#23313B"/>
<path d="M110.975 150.832H109.225V152.454H111.175V152.946H108.637V148.465H111.068V148.957H109.212V150.38H110.961V150.859L110.975 150.832Z" fill="#23313B"/>
<path d="M113.926 148.504C114.22 148.451 114.647 148.411 115.048 148.411C115.676 148.411 116.077 148.518 116.357 148.783C116.584 148.983 116.718 149.289 116.718 149.635C116.718 150.233 116.344 150.619 115.863 150.778V150.805C116.21 150.925 116.424 151.244 116.531 151.709C116.678 152.334 116.784 152.773 116.878 152.946H116.277C116.197 152.813 116.103 152.427 115.97 151.869C115.836 151.244 115.596 151.018 115.061 150.991H114.514V152.933H113.926V148.504ZM114.514 150.539H115.115C115.743 150.539 116.13 150.206 116.13 149.688C116.13 149.103 115.703 148.85 115.088 148.85C114.808 148.85 114.607 148.877 114.514 148.903V150.539Z" fill="#23313B"/>
<path d="M121.86 150.832H120.11V152.454H122.06V152.946H119.522V148.465H121.953V148.957H120.097V150.38H121.846V150.859L121.86 150.832Z" fill="#23313B"/>
</g>
<defs>
<clipPath id="clip0_98_37">
<rect width="126" height="153" fill="white"/>
</clipPath>
</defs>
</svg>
