<svg xmlns="http://www.w3.org/2000/svg" width="219.166" height="127.995" viewBox="0 0 219.166 127.995">
  <g id="annual-icon" transform="translate(0 -135.011)">
    <g id="Background_Complete" data-name="Background Complete" transform="translate(0 146.478)">
      <rect id="Rectangle_71" data-name="Rectangle 71" width="14.518" height="0.11" transform="translate(182.687 104.026)" fill="#ebebeb"/>
      <rect id="Rectangle_72" data-name="Rectangle 72" width="3.811" height="0.11" transform="translate(141.374 105.215)" fill="#ebebeb"/>
      <rect id="Rectangle_73" data-name="Rectangle 73" width="8.413" height="0.11" transform="translate(173.836 99.956)" fill="#ebebeb"/>
      <rect id="Rectangle_74" data-name="Rectangle 74" width="18.933" height="0.11" transform="translate(22.994 100.692)" fill="#ebebeb"/>
      <rect id="Rectangle_75" data-name="Rectangle 75" width="2.776" height="0.11" transform="translate(45.83 100.692)" fill="#ebebeb"/>
      <rect id="Rectangle_76" data-name="Rectangle 76" width="41.061" height="0.11" transform="translate(57.628 102.543)" fill="#ebebeb"/>
      <rect id="Rectangle_77" data-name="Rectangle 77" width="219.166" height="0.11" transform="translate(0 96.971)" fill="#ebebeb"/>
      <g id="Group_90" data-name="Group 90" transform="translate(23.913)">
        <g id="Group_62" data-name="Group 62" transform="translate(0 28.4)">
          <rect id="Rectangle_78" data-name="Rectangle 78" width="40.802" height="69.058" fill="#f0f0f0"/>
          <rect id="Rectangle_79" data-name="Rectangle 79" width="42.651" height="5.152" fill="#e6e6e6"/>
        </g>
        <g id="Group_88" data-name="Group 88" transform="translate(7.081)">
          <g id="coffee_machine" data-name="coffee machine">
            <g id="Group_81" data-name="Group 81">
              <g id="Group_67" data-name="Group 67" transform="translate(0.13)">
                <g id="Group_63" data-name="Group 63" transform="translate(4.343 10.645)">
                  <path id="Path_88" data-name="Path 88" d="M97.933,199.655H83.227l-2.312-14.2h19.331Z" transform="translate(-80.915 -185.456)" fill="#ebebeb"/>
                </g>
                <g id="Group_64" data-name="Group 64" transform="translate(17.631 11.069)">
                  <path id="Path_89" data-name="Path 89" d="M117.217,186.425l-5.11.014-.879,13.739,3.731.019Z" transform="translate(-111.229 -186.425)" fill="#e0e0e0"/>
                </g>
                <g id="Group_65" data-name="Group 65" transform="translate(0 0.026)">
                  <rect id="Rectangle_80" data-name="Rectangle 80" width="28.278" height="11.046" rx="5.523" fill="#ebebeb"/>
                </g>
                <g id="Group_66" data-name="Group 66" transform="translate(18.01)">
                  <path id="Path_90" data-name="Path 90" d="M122.442,165.614v2.208c0,2.441-1.967,4.4-4.849,4.4h-5.5a4.116,4.116,0,0,0,4.384-4.4v-2.208a4.409,4.409,0,0,0-4.384-4.442h5.942A4.429,4.429,0,0,1,122.442,165.614Z" transform="translate(-112.093 -161.172)" fill="#e0e0e0"/>
                </g>
              </g>
              <g id="Group_80" data-name="Group 80" transform="translate(0 2.808)">
                <g id="Group_68" data-name="Group 68" transform="translate(11.477 11.883)">
                  <rect id="Rectangle_81" data-name="Rectangle 81" width="5.302" height="3.038" fill="#e0e0e0"/>
                </g>
                <g id="Group_69" data-name="Group 69" transform="translate(11.477 11.883)">
                  <rect id="Rectangle_82" data-name="Rectangle 82" width="3.093" height="3.038" fill="#f5f5f5"/>
                </g>
                <g id="Group_70" data-name="Group 70" transform="translate(0 22.046)">
                  <path id="Path_91" data-name="Path 91" d="M98.987,219.7a1.818,1.818,0,0,1-1.823,1.818H72.532a1.823,1.823,0,0,1,0-3.645H97.164A1.826,1.826,0,0,1,98.987,219.7Z" transform="translate(-70.709 -217.873)" fill="#e0e0e0"/>
                </g>
                <g id="Group_71" data-name="Group 71" transform="translate(0 22.046)">
                  <path id="Path_92" data-name="Path 92" d="M89.391,219.7a1.818,1.818,0,0,1-1.823,1.818H72.532a1.823,1.823,0,0,1,0-3.645H87.568A1.826,1.826,0,0,1,89.391,219.7Z" transform="translate(-70.709 -217.873)" fill="#ebebeb"/>
                </g>
                <g id="Group_72" data-name="Group 72" transform="translate(11.377)">
                  <path id="Path_93" data-name="Path 93" d="M102.188,170.339a2.763,2.763,0,1,1-2.761-2.761A2.761,2.761,0,0,1,102.188,170.339Z" transform="translate(-96.665 -167.578)" fill="#e0e0e0"/>
                </g>
                <g id="Group_73" data-name="Group 73" transform="translate(11.377 0.11)">
                  <path id="Path_94" data-name="Path 94" d="M100.642,170.48a2.762,2.762,0,0,1-1.988,2.651,2.762,2.762,0,0,1,0-5.3A2.762,2.762,0,0,1,100.642,170.48Z" transform="translate(-96.665 -167.829)" fill="#fafafa"/>
                </g>
                <g id="Group_74" data-name="Group 74" transform="translate(9.655 8.294)">
                  <rect id="Rectangle_83" data-name="Rectangle 83" width="8.837" height="3.535" fill="#e0e0e0"/>
                </g>
                <g id="Group_75" data-name="Group 75" transform="translate(9.655 8.294)">
                  <rect id="Rectangle_84" data-name="Rectangle 84" width="6.131" height="3.535" fill="#f5f5f5"/>
                </g>
                <g id="Group_76" data-name="Group 76" transform="translate(18.947 1.591)">
                  <circle id="Ellipse_18" data-name="Ellipse 18" cx="1.16" cy="1.16" r="1.16" fill="#e0e0e0"/>
                </g>
                <g id="Group_77" data-name="Group 77" transform="translate(22.923 1.591)">
                  <circle id="Ellipse_19" data-name="Ellipse 19" cx="1.16" cy="1.16" r="1.16" fill="#e0e0e0"/>
                </g>
                <g id="Group_78" data-name="Group 78" transform="translate(3.317 1.591)">
                  <circle id="Ellipse_20" data-name="Ellipse 20" cx="1.16" cy="1.16" r="1.16" fill="#e0e0e0"/>
                </g>
                <g id="Group_79" data-name="Group 79" transform="translate(16.819 12.927)">
                  <rect id="Rectangle_85" data-name="Rectangle 85" width="4.418" height="1.381" fill="#fafafa"/>
                </g>
              </g>
            </g>
          </g>
          <g id="Group_87" data-name="Group 87" transform="translate(2.902 2.467)">
            <g id="Group_82" data-name="Group 82" transform="translate(6.376 8.204)">
              <path id="Path_95" data-name="Path 95" d="M101.1,186.345H92.291a.414.414,0,1,1,0-.828H101.1a.414.414,0,1,1,0,.828Z" transform="translate(-91.877 -185.517)" fill="#e0e0e0"/>
            </g>
            <g id="Group_83" data-name="Group 83" transform="translate(15.63 1.518)">
              <path id="Path_96" data-name="Path 96" d="M114.563,173.411a1.574,1.574,0,1,1,1.574-1.574A1.576,1.576,0,0,1,114.563,173.411Zm0-2.32a.746.746,0,1,0,.745.746A.746.746,0,0,0,114.563,171.091Z" transform="translate(-112.989 -170.263)" fill="#fafafa"/>
            </g>
            <g id="Group_84" data-name="Group 84" transform="translate(19.607 1.518)">
              <path id="Path_97" data-name="Path 97" d="M123.635,173.411a1.574,1.574,0,1,1,1.574-1.574A1.576,1.576,0,0,1,123.635,173.411Zm0-2.32a.746.746,0,1,0,.746.746A.746.746,0,0,0,123.635,171.091Z" transform="translate(-122.061 -170.263)" fill="#fafafa"/>
            </g>
            <g id="Group_85" data-name="Group 85" transform="translate(0 1.518)">
              <path id="Path_98" data-name="Path 98" d="M78.9,173.411a1.574,1.574,0,1,1,1.574-1.574A1.576,1.576,0,0,1,78.9,173.411Zm0-2.32a.746.746,0,1,0,.746.746A.746.746,0,0,0,78.9,171.091Z" transform="translate(-77.33 -170.263)" fill="#fafafa"/>
            </g>
            <g id="Group_86" data-name="Group 86" transform="translate(10.785)">
              <path id="Path_99" data-name="Path 99" d="M102.348,169.01a.414.414,0,0,1-.414-.415v-1.38a.414.414,0,0,1,.828,0v1.38A.415.415,0,0,1,102.348,169.01Z" transform="translate(-101.934 -166.801)" fill="#e6e6e6"/>
            </g>
          </g>
        </g>
        <g id="Group_89" data-name="Group 89" transform="translate(2.862 36.918)">
          <path id="Path_100" data-name="Path 100" d="M95.059,303.174H61.082V245.4H95.059Zm-33.539-.438h33.1v-56.9H61.52Z" transform="translate(-61.082 -245.396)" fill="#e6e6e6" stroke="#fafafa" stroke-miterlimit="10" stroke-width="1"/>
        </g>
        <rect id="Rectangle_86" data-name="Rectangle 86" width="2.625" height="8.034" transform="translate(5.114 58.911)" fill="#e0e0e0"/>
      </g>
      <g id="Group_110" data-name="Group 110" transform="translate(170.742 24.473)">
        <g id="Group_108" data-name="Group 108">
          <g id="Group_106" data-name="Group 106" transform="translate(0 1.972)">
            <g id="Group_101" data-name="Group 101" transform="translate(9.619 0.945)">
              <g id="Group_91" data-name="Group 91" transform="translate(3.34 0.072)">
                <path id="Path_101" data-name="Path 101" d="M420,281.386l-.358.044c-.022-.182-2.195-18.363,2.287-33.22,4.454-14.767,1.387-24.175,1.356-24.269l.342-.116c.032.095,3.135,9.613-1.352,24.489C417.812,263.1,419.974,281.2,420,281.386Z" transform="translate(-419.093 -223.826)" fill="#e0e0e0"/>
              </g>
              <g id="Group_93" data-name="Group 93" transform="translate(5.148)">
                <g id="Group_92" data-name="Group 92">
                  <path id="Path_102" data-name="Path 102" d="M426.236,225.874a5.637,5.637,0,0,0-3.019-1.861l.082-.352a6,6,0,0,1,3.214,1.982Z" transform="translate(-423.217 -223.661)" fill="#e0e0e0"/>
                </g>
              </g>
              <g id="Group_94" data-name="Group 94" transform="translate(8.669 3.723)">
                <rect id="Rectangle_87" data-name="Rectangle 87" width="1.186" height="0.361" transform="translate(0 0.583) rotate(-29.462)" fill="#e0e0e0"/>
              </g>
              <g id="Group_95" data-name="Group 95" transform="translate(3.14 7.263)">
                <path id="Path_103" data-name="Path 103" d="M423.275,245.066a8.583,8.583,0,0,0-4.639-4.5l.134-.335a8.945,8.945,0,0,1,4.837,4.692Z" transform="translate(-418.636 -240.23)" fill="#e0e0e0"/>
              </g>
              <g id="Group_96" data-name="Group 96" transform="translate(4.585 19.383)">
                <path id="Path_104" data-name="Path 104" d="M424.159,271.955l-.361,0a4.96,4.96,0,0,0-1.867-3.8l.224-.283A5.325,5.325,0,0,1,424.159,271.955Z" transform="translate(-421.931 -267.881)" fill="#e0e0e0"/>
              </g>
              <g id="Group_97" data-name="Group 97" transform="translate(5.672 24.205)">
                <path id="Path_105" data-name="Path 105" d="M424.747,281.038l-.336-.132a3.614,3.614,0,0,1,2.052-2.025l.128.337A3.248,3.248,0,0,0,424.747,281.038Z" transform="translate(-424.411 -278.881)" fill="#e0e0e0"/>
              </g>
              <g id="Group_98" data-name="Group 98" transform="translate(3.392 40.292)">
                <path id="Path_106" data-name="Path 106" d="M419.487,320.079l-.277-.23a11.929,11.929,0,0,0,.949-3.628c.043-.259.079-.48.109-.639l.355.068c-.03.157-.066.375-.108.63A10.8,10.8,0,0,1,419.487,320.079Z" transform="translate(-419.21 -315.582)" fill="#e0e0e0"/>
              </g>
              <g id="Group_99" data-name="Group 99" transform="translate(0 47.834)">
                <path id="Path_107" data-name="Path 107" d="M414.933,335.53a3.555,3.555,0,0,0-3.444-2.378l-.017-.36a3.923,3.923,0,0,1,3.8,2.625Z" transform="translate(-411.472 -332.788)" fill="#e0e0e0"/>
              </g>
              <g id="Group_100" data-name="Group 100" transform="translate(3.678 54.343)">
                <rect id="Rectangle_88" data-name="Rectangle 88" width="3.816" height="0.361" transform="matrix(0.666, -0.746, 0.746, 0.666, 0, 2.846)" fill="#e0e0e0"/>
              </g>
            </g>
            <g id="Group_105" data-name="Group 105">
              <path id="Path_108" data-name="Path 108" d="M417.622,301.447c.576,1.865-3.443,5.415-3.443,5.415s-5.32-.665-5.9-2.53a4.907,4.907,0,0,1,9.34-2.885Z" transform="translate(-399.988 -264.706)" fill="#f0f0f0"/>
              <path id="Path_109" data-name="Path 109" d="M431.572,246.735c-.51,1.98-4.316,3.387-4.316,3.387s-2.654-3.07-2.143-5.05,2.613-4.163,4.4-3.7S432.082,244.755,431.572,246.735Z" transform="translate(-409.478 -232.627)" fill="#ebebeb"/>
              <path id="Path_110" data-name="Path 110" d="M396.35,320.52c2.389.93,3.854,5.157,3.854,5.157s-3.937,2.123-6.327,1.193-4.919-3.553-4.236-5.306S393.96,319.589,396.35,320.52Z" transform="translate(-389.528 -276.814)" fill="#f5f5f5"/>
              <path id="Path_111" data-name="Path 111" d="M413.906,261.846a5.063,5.063,0,0,0,1.633.922,1.724,1.724,0,0,0,1.741-.411,2.105,2.105,0,0,0,.052-2.211c-.638-1.407-2.993-3.795-4.8-3.11C409.919,258.026,412.741,260.982,413.906,261.846Z" transform="translate(-401.844 -241.394)" fill="#e6e6e6"/>
              <path id="Path_112" data-name="Path 112" d="M428.507,273.511c-.342.425-.706.96-.519,1.472a1.094,1.094,0,0,0,1.2.591,3.206,3.206,0,0,0,1.292-.632c.922-.64,2.811-1.983,1.605-3.239C430.835,270.4,429.229,272.616,428.507,273.511Z" transform="translate(-411.101 -249.473)" fill="#ebebeb"/>
              <path id="Path_113" data-name="Path 113" d="M410.526,235.546a.95.95,0,0,0-.861.7c-.078.457.3.857.668,1.141.915.705,3.666,2.609,4.28.772C415.193,236.422,411.742,235.411,410.526,235.546Z" transform="translate(-400.832 -229.384)" fill="#e0e0e0"/>
              <g id="Group_102" data-name="Group 102" transform="translate(11.972)">
                <path id="Path_114" data-name="Path 114" d="M419.633,221.624c-.568.054-1.134-.152-1.7-.116s-1.2.494-1.074,1.05c.117.514.756.686,1.282.719a10.263,10.263,0,0,0,2.683-.185.822.822,0,0,0,.544-.275c.23-.339-.136-.793-.527-.913a5.61,5.61,0,0,1-1.189-.283Z" transform="translate(-416.84 -221.504)" fill="#e6e6e6"/>
              </g>
              <g id="Group_103" data-name="Group 103" transform="translate(18.575 3.798)">
                <path id="Path_115" data-name="Path 115" d="M433.641,230.4c.57.016,1.121-.227,1.692-.228s1.23.413,1.141.977c-.082.52-.708.734-1.231.8a10.229,10.229,0,0,1-2.689-.008.821.821,0,0,1-.561-.238c-.252-.323.083-.8.466-.946a5.6,5.6,0,0,0,1.168-.361Z" transform="translate(-431.904 -230.169)" fill="#f0f0f0"/>
              </g>
              <g id="Group_104" data-name="Group 104" transform="translate(14.766 45.778)">
                <path id="Path_116" data-name="Path 116" d="M428.2,326.182a.791.791,0,0,1,.484-.24.551.551,0,0,1,.484.473,1.546,1.546,0,0,1-.092.72c-.386,1.292-4.723,10.653-5.722,8.972-.59-.994.86-4.285,1.288-5.217A13.6,13.6,0,0,1,428.2,326.182Z" transform="translate(-423.216 -325.942)" fill="#f0f0f0"/>
              </g>
            </g>
          </g>
          <g id="Group_107" data-name="Group 107" transform="translate(17.156)">
            <path id="Path_117" data-name="Path 117" d="M428.668,219.453a4.891,4.891,0,0,1,1.4-2.079,1.491,1.491,0,1,1,1.425,2.482,4.9,4.9,0,0,1-2.79.153c-.007-.139-.015-.278-.023-.417Z" transform="translate(-428.668 -217.005)" fill="#e6e6e6"/>
          </g>
        </g>
        <g id="Group_109" data-name="Group 109" transform="translate(2.558 56.93)">
          <path id="Path_118" data-name="Path 118" d="M412.949,362.893h0a35.534,35.534,0,0,1-13.947,0h0l-3.639-16.008h21.225Z" transform="translate(-395.363 -346.885)" fill="#e6e6e6"/>
        </g>
      </g>
    </g>
    <g id="Shadow" transform="translate(24.595 253.079)">
      <ellipse id="_Path_" data-name="&lt;Path&gt;" cx="84.988" cy="4.963" rx="84.988" ry="4.963" fill="#f5f5f5"/>
    </g>
    <g id="Character" transform="translate(58.165 135.011)">
      <g id="Group_157" data-name="Group 157">
        <g id="Group_116" data-name="Group 116" transform="translate(0.013 2.292)">
          <g id="Group_111" data-name="Group 111" transform="translate(7.275 117.481)">
            <path id="Path_119" data-name="Path 119" d="M231.246,411.98a2.152,2.152,0,1,0,2.152-2.152,2.152,2.152,0,0,0-2.152,2.152Z" transform="translate(-195.337 -409.14)" fill="#263238"/>
            <path id="Path_120" data-name="Path 120" d="M153.628,411.98a2.152,2.152,0,1,1-2.152-2.152,2.152,2.152,0,0,1,2.152,2.152Z" transform="translate(-149.324 -409.14)" fill="#263238"/>
            <path id="Path_121" data-name="Path 121" d="M196.153,410.41A2.152,2.152,0,1,1,194,408.258a2.152,2.152,0,0,1,2.152,2.152Z" transform="translate(-173.209 -408.258)" fill="#263238"/>
          </g>
          <g id="Group_112" data-name="Group 112" transform="translate(4.719 113.806)">
            <path id="Path_122" data-name="Path 122" d="M143.513,403.5a1.05,1.05,0,0,0,1.06.842l22.442-.307,21.015.476a1.045,1.045,0,0,0,.233-2.07l-11.476-2.229a19.614,19.614,0,0,0-3.611-.337H160.843a19.562,19.562,0,0,0-3.606.337l-12.9,2.065A1.044,1.044,0,0,0,143.513,403.5Z" transform="translate(-143.494 -399.874)" fill="#263238"/>
          </g>
          <g id="Group_113" data-name="Group 113" transform="translate(24.426 81.16)">
            <rect id="Rectangle_89" data-name="Rectangle 89" width="7.633" height="21.972" transform="translate(0 13.922)" fill="#263238"/>
            <rect id="Rectangle_90" data-name="Rectangle 90" width="5.442" height="14.029" transform="translate(1.093)" fill="#263238"/>
            <path id="Path_123" data-name="Path 123" d="M196.387,328l-5.442,1.37V325.4h5.442Z" transform="translate(-189.852 -325.397)" opacity="0.2" style="isolation: isolate"/>
          </g>
          <g id="Group_115" data-name="Group 115">
            <g id="Group_114" data-name="Group 114">
              <path id="Path_124" data-name="Path 124" d="M142.751,325.272v.053h.74A5.345,5.345,0,0,1,142.751,325.272Z" transform="translate(-138.357 -244.166)" fill="#263238"/>
              <path id="Path_125" data-name="Path 125" d="M194.8,216.02a9.246,9.246,0,0,0-7.958-4.541H167.167V166.017a.845.845,0,0,0,0-.105l.092.018-.823-5.517a6.439,6.439,0,0,0-3-4.55l-6.344-3.907-3.325-9.7a3,3,0,0,0-2.831-2.022h-7.94a3,3,0,0,0-2.936,2.415l-1.772,9.013-3.447,3.6a6.45,6.45,0,0,0-1.785,4.078l-.324,5.407.057-.018a6.589,6.589,0,0,0-.057.88v50.642a5.135,5.135,0,0,0,4.388,5.084h0a5.153,5.153,0,0,0,.739.053h53.883a3.554,3.554,0,0,0,3.062-5.377Zm-55.156-55.765c-.039.306-.079.612-.118.91l-.962.245h0l-2.647.678.184-2.734.057-.788,3.662-3.312.162,1.168.074.56S139.863,158.57,139.648,160.255Zm13.614.888-.363-4.336.31-.761.061-.14.332-.827,1.715.827,2.783,2.37.618,3.369Z" transform="translate(-132.727 -140.239)" fill="#407bff"/>
              <path id="Path_126" data-name="Path 126" d="M194.8,216.02a9.246,9.246,0,0,0-7.958-4.541H167.167V166.017a.845.845,0,0,0,0-.105l.092.018-.823-5.517a6.439,6.439,0,0,0-3-4.55l-6.344-3.907-3.325-9.7a3,3,0,0,0-2.831-2.022h-7.94a3,3,0,0,0-2.936,2.415l-1.772,9.013-3.447,3.6a6.45,6.45,0,0,0-1.785,4.078l-.324,5.407.057-.018a6.589,6.589,0,0,0-.057.88v50.642a5.135,5.135,0,0,0,4.388,5.084h0a5.153,5.153,0,0,0,.739.053h53.883a3.554,3.554,0,0,0,3.062-5.377Zm-55.156-55.765c-.039.306-.079.612-.118.91l-.962.245h0l-2.647.678.184-2.734.057-.788,3.662-3.312.162,1.168.074.56S139.863,158.57,139.648,160.255Zm13.614.888-.363-4.336.31-.761.061-.14.332-.827,1.715.827,2.783,2.37.618,3.369Z" transform="translate(-132.727 -140.239)" opacity="0.3"/>
            </g>
          </g>
        </g>
        <g id="Group_120" data-name="Group 120" transform="translate(25.648 58.12)">
          <g id="Group_117" data-name="Group 117">
            <path id="Path_127" data-name="Path 127" d="M194.826,274.8c5.937-2.51,19.293-.856,25.5.875a2.672,2.672,0,0,0,3.222-1.471h0c.487-1.226-.545-5-2.11-5.444-7.252-2.023-21.541-1.32-28.474,1.613a2.509,2.509,0,0,0-1.514,3.379h0A2.677,2.677,0,0,0,194.826,274.8Z" transform="translate(-191.209 -267.606)" fill="#407bff"/>
          </g>
          <g id="Group_118" data-name="Group 118" opacity="0.3">
            <path id="Path_128" data-name="Path 128" d="M194.826,274.8c5.937-2.51,19.293-.856,25.5.875a2.672,2.672,0,0,0,3.222-1.471h0c.487-1.226-.545-5-2.11-5.444-7.252-2.023-21.541-1.32-28.474,1.613a2.509,2.509,0,0,0-1.514,3.379h0A2.677,2.677,0,0,0,194.826,274.8Z" transform="translate(-191.209 -267.606)" fill="#fff"/>
          </g>
          <g id="Group_119" data-name="Group 119" transform="translate(18.104 5.287)">
            <rect id="Rectangle_91" data-name="Rectangle 91" width="2.765" height="11.798" fill="#263238"/>
            <rect id="Rectangle_92" data-name="Rectangle 92" width="2.765" height="20.045" fill="#263238"/>
          </g>
        </g>
        <g id="Group_152" data-name="Group 152" transform="translate(5.707)">
          <g id="Group_125" data-name="Group 125" transform="translate(5.696 62.065)">
            <g id="Group_122" data-name="Group 122" transform="translate(8.613 0.834)">
              <path id="Path_129" data-name="Path 129" d="M259.411,383.507l.521,9.429,4.7-.378.446-8.95Z" transform="translate(-223.884 -337.482)" fill="#b55b52"/>
              <g id="Group_121" data-name="Group 121" transform="translate(35.009 52.815)">
                <path id="Path_130" data-name="Path 130" d="M273.07,402.435a.113.113,0,0,1-.092-.084.107.107,0,0,1,.047-.115c.068-.043,1.613-1.027,2.384-.855a.564.564,0,0,1,.352.236.407.407,0,0,1,.031.469,1.943,1.943,0,0,1-1.322.411A7.943,7.943,0,0,1,273.07,402.435Zm.342-.161c.853.064,2,0,2.2-.305.029-.038.054-.1-.033-.235a.3.3,0,0,0-.219-.141.721.721,0,0,0-.208-.017A5,5,0,0,0,273.412,402.273Z" transform="translate(-266.512 -400.325)" fill="#407bff"/>
                <path id="Path_131" data-name="Path 131" d="M272.991,401.105a.108.108,0,0,1-.053-.1,3.1,3.1,0,0,1,.623-1.8.8.8,0,0,1,.591-.213c.3.015.4.161.416.284.121.508-.925,1.548-1.458,1.816a.063.063,0,0,1-.045.006A.1.1,0,0,1,272.991,401.105Zm1.1-1.9a.564.564,0,0,0-.366.153,2.54,2.54,0,0,0-.538,1.425c.548-.361,1.229-1.168,1.186-1.475-.009-.027-.026-.1-.22-.112l-.062.008Z" transform="translate(-266.491 -398.999)" fill="#407bff"/>
                <path id="Path_132" data-name="Path 132" d="M264.292,402.4l-4.972.239a.4.4,0,0,0-.376.331l-.7,4.088a.666.666,0,0,0,.538.774.656.656,0,0,0,.141.01c1.791-.117,3.38-.292,5.611-.4,2.633-.126,1.98.221,5.078.117,1.866-.065,2.106-2.2,1.31-2.268-3.642-.281-4.07-1.357-5.529-2.585A1.6,1.6,0,0,0,264.292,402.4Z" transform="translate(-258.23 -400.905)" fill="#263238"/>
              </g>
              <path id="Path_133" data-name="Path 133" d="M259.773,388.87l5-.336.305-6.126-5.666-.1Z" transform="translate(-223.884 -336.808)" opacity="0.1"/>
              <path id="Path_134" data-name="Path 134" d="M212.411,289.17c.019.085.039.17.059.255a24.193,24.193,0,0,0-.534-3.456c-1.606-6.253-18.346-7.3-25.2-7.46l-8.231.9s-.768,6.593,1.193,10.765S212.411,289.17,212.411,289.17Z" transform="translate(-178.361 -278.508)" opacity="0.4"/>
            </g>
            <g id="Group_124" data-name="Group 124">
              <path id="Path_135" data-name="Path 135" d="M233.824,387.7l.425,9.584,4.644-.17.55-10.148Z" transform="translate(-200.9 -338.589)" fill="#b55b52"/>
              <g id="Group_123" data-name="Group 123" transform="translate(32.328 55.073)">
                <path id="Path_136" data-name="Path 136" d="M246.936,405.669a.112.112,0,0,1-.095-.081.108.108,0,0,1,.043-.117c.066-.046,1.574-1.087,2.35-.943a.564.564,0,0,1,.361.223.407.407,0,0,1,.048.467,1.941,1.941,0,0,1-1.306.461A8,8,0,0,1,246.936,405.669Zm.336-.174c.855.032,2-.073,2.185-.387.028-.039.05-.107-.041-.234a.3.3,0,0,0-.224-.132.722.722,0,0,0-.208-.009A5,5,0,0,0,247.272,405.5Z" transform="translate(-240.538 -403.521)" fill="#407bff"/>
                <path id="Path_137" data-name="Path 137" d="M246.858,404.394a.107.107,0,0,1-.057-.093,3.1,3.1,0,0,1,.555-1.819.8.8,0,0,1,.583-.235c.3,0,.4.146.426.269.141.5-.867,1.581-1.39,1.869a.062.062,0,0,1-.044.007A.1.1,0,0,1,246.858,404.394Zm1.028-1.936a.562.562,0,0,0-.36.167,2.541,2.541,0,0,0-.484,1.444c.535-.381,1.185-1.213,1.13-1.519-.011-.027-.03-.1-.225-.1l-.061.011Z" transform="translate(-240.517 -402.248)" fill="#407bff"/>
                <path id="Path_138" data-name="Path 138" d="M238.345,405.772l-4.959.425a.4.4,0,0,0-.363.345l-.551,4.111a.666.666,0,0,0,.707.758c1.785-.184,3.366-.418,5.592-.606,2.626-.224,1.987.147,5.079-.073,1.862-.135,2.022-2.279,1.224-2.315-3.65-.146-4.118-1.2-5.622-2.377A1.6,1.6,0,0,0,238.345,405.772Z" transform="translate(-232.465 -404.22)" fill="#263238"/>
              </g>
              <path id="Path_139" data-name="Path 139" d="M239.15,393.9l.262-4.838-5.53.126.225,5.064Z" transform="translate(-200.933 -339.771)" opacity="0.1"/>
              <path id="Path_140" data-name="Path 140" d="M190.949,276.9s29.206-2.236,31.231,5.645-2.463,45.026-2.463,45.026l-7.221.61s-.949-21.935-1.082-40.049c0,0-30.747,5.178-32.708,1.006s-1.194-10.765-1.194-10.765Z" transform="translate(-169.188 -276.604)" fill="#407bff"/>
              <path id="Path_141" data-name="Path 141" d="M190.949,276.9s29.206-2.236,31.231,5.645-2.463,45.026-2.463,45.026l-7.221.61s-.949-21.935-1.082-40.049c0,0-30.747,5.178-32.708,1.006s-1.194-10.765-1.194-10.765Z" transform="translate(-169.188 -276.604)" fill="#263238"/>
              <path id="Path_142" data-name="Path 142" d="M190.949,276.9s29.206-2.236,31.231,5.645-2.463,45.026-2.463,45.026l-7.221.61s-.949-21.935-1.082-40.049c0,0-30.747,5.178-32.708,1.006s-1.194-10.765-1.194-10.765Z" transform="translate(-169.188 -276.604)" opacity="0.1"/>
              <path id="Path_143" data-name="Path 143" d="M173.1,279.815s29.444-1.14,29.847,6.987c.315,6.351-5.049,44.081-5.049,44.081l-6.732.522s-1.234-22.671-.393-38.148c0,0-25.409,2.913-29.882-.662-4.267-3.41-.944-12.826-.944-12.826Z" transform="translate(-158.712 -278.377)" fill="#263238"/>
            </g>
          </g>
          <g id="_Group_" data-name="&lt;Group&gt;">
            <g id="Group_130" data-name="Group 130" transform="translate(2.338 26.382)">
              <g id="Group_129" data-name="Group 129">
                <g id="Group_128" data-name="Group 128" transform="translate(21.187 1)">
                  <g id="Group_126" data-name="Group 126">
                    <path id="Path_144" data-name="Path 144" d="M207.649,213.965h0a40.6,40.6,0,0,0,12.389,7.419l.734.277.382-1.989-8.9-9.034s-7.392-13.9-11.635-13.127C195.579,198.43,207.649,213.965,207.649,213.965Z" transform="translate(-199.387 -197.479)" fill="#407bff"/>
                  </g>
                  <g id="Group_127" data-name="Group 127" opacity="0.1">
                    <path id="Path_145" data-name="Path 145" d="M207.649,213.965h0a40.6,40.6,0,0,0,12.389,7.419l.734.277.382-1.989-8.9-9.034s-7.392-13.9-11.635-13.127C195.579,198.43,207.649,213.965,207.649,213.965Z" transform="translate(-199.387 -197.479)" fill="#fff"/>
                  </g>
                  <path id="Path_146" data-name="Path 146" d="M248.174,248.983l.382-1.989,5.339-.871s5.217,2.579,4.03,3.148h-5.766Z" transform="translate(-226.789 -224.801)" fill="#b55b52"/>
                </g>
                <path id="Path_147" data-name="Path 147" d="M178.642,231.743h0a41.766,41.766,0,0,1-13.192,1.325l-9.566-.567c-.228-1.963-1.7-6.275-3.721-17.388-.5-5.6-2.072-7.371-.263-15.833,0-.016-.007-.032-.01-.047a2.669,2.669,0,0,1,2.268-3.079h.05c1.415-.238,3.191-.493,4.936-.625a94.7,94.7,0,0,1,10.013-.3,28.1,28.1,0,0,1,3.314.428,4.2,4.2,0,0,1,3.331,2.656C177.377,202.8,177.917,213.506,178.642,231.743Z" transform="translate(-151.051 -195.198)" fill="#407bff"/>
              </g>
            </g>
            <g id="Group_132" data-name="Group 132" transform="translate(3.012)">
              <g id="Group_131" data-name="Group 131">
                <path id="Path_148" data-name="Path 148" d="M175.619,183.992c-4.951.423-6.846-2.5-6.846-2.5,2.111-2.241,1.1-8.089.258-11.293l2.744,2.139,3.74,2.917a13.1,13.1,0,0,0-.188,1.489,6.136,6.136,0,0,0,.011,1.074l0,.013.007.06c.166,1.5,1,2.739,3.344,3.22C178.685,181.113,179.839,183.614,175.619,183.992Z" transform="translate(-161.679 -154.776)" fill="#b55b52"/>
                <path id="Path_149" data-name="Path 149" d="M160.931,155.439a6.292,6.292,0,0,0-2.411-1.75c-.779-.318-1.616-.476-2.4-.789a3.266,3.266,0,0,1-1.873-1.594,2.181,2.181,0,0,1,.185-2.037,3.843,3.843,0,0,1-1.556-1.407,1.356,1.356,0,0,1,.49-1.849,3.712,3.712,0,0,1-.646-3.179,3.21,3.21,0,0,1,2.206-2.042,2.111,2.111,0,0,0,1.458-1.216c.226-.609.236-1.287.509-1.876a2.269,2.269,0,0,1,3.5-.8,2.684,2.684,0,0,1,1.262-1.621,2.212,2.212,0,0,1,2.077-.024,1.822,1.822,0,0,1,.928,1.81,1.251,1.251,0,0,1,1.5-.5,2.218,2.218,0,0,1,1.243,1.144,11.015,11.015,0,0,1,.6,1.626,3.665,3.665,0,0,0,.841,1.5,2.246,2.246,0,0,0,2.5.382,1.175,1.175,0,0,1-.155,1.311,1.149,1.149,0,0,1-1.253.371,1.866,1.866,0,0,1-.865,2.775,3.578,3.578,0,0,0-3.634,2.055,36.918,36.918,0,0,0-1.436,4.316C163.483,153.472,162.419,155.137,160.931,155.439Z" transform="translate(-152.59 -135.011)" fill="#263238"/>
              </g>
              <path id="Path_150" data-name="Path 150" d="M179.381,179.484a13.11,13.11,0,0,0-.188,1.489,6.136,6.136,0,0,0,.011,1.074l0,.013.007.06c-1.366-.245-3.205-1.622-3.449-3.01a6.538,6.538,0,0,1-.1-1.383Z" transform="translate(-165.546 -159.003)" opacity="0.2" style="isolation: isolate"/>
            </g>
            <g id="Group_133" data-name="Group 133" transform="translate(9.08 25.768)">
              <path id="Path_151" data-name="Path 151" d="M166.431,194.408l1.511-.61a15.136,15.136,0,0,0,6.03,3.458,5.834,5.834,0,0,0-2.063,2.7C166.572,198.32,166.431,194.408,166.431,194.408Z" transform="translate(-166.431 -193.798)" fill="#fff"/>
              <path id="Path_152" data-name="Path 152" d="M187.01,194.135l-1.436-.256s-.485,2.983-1.938,3.444c2.589.915,3.05,2.165,3.05,2.165C190.332,198.187,187.01,194.135,187.01,194.135Z" transform="translate(-176.095 -193.843)" fill="#fff"/>
            </g>
            <g id="Group_136" data-name="Group 136" transform="translate(6.107 3.276)">
              <g id="Group_135" data-name="Group 135">
                <path id="Path_153" data-name="Path 153" d="M162.589,151.608a5.77,5.77,0,0,1,5.732-5.807c4.652-.144,8.024,5.45,8.868,9.363a5.7,5.7,0,0,1-7.621,6.61c-3-1.129-4.056-3.469-6.194-7.3A5.77,5.77,0,0,1,162.589,151.608Z" transform="translate(-161.3 -144.345)" fill="#b55b52"/>
                <path id="Path_154" data-name="Path 154" d="M159.65,149.552a4.215,4.215,0,0,0,4.554,4.259,1.972,1.972,0,0,0,1.177-.437,2.668,2.668,0,0,1-1.788-.938,2.561,2.561,0,0,1-.642-1.871,1.866,1.866,0,0,0,1.468-.807,1.891,1.891,0,0,0,.17-1.678,9.336,9.336,0,0,1,.419-2.107,2.76,2.76,0,0,1,1.1-1.482,1.678,1.678,0,0,1,1.781-.023,10.022,10.022,0,0,1,.806.792c.285.247,2.788-1.323-.558-2.476a6.324,6.324,0,0,0-5.843,1.1A7.7,7.7,0,0,0,159.65,149.552Z" transform="translate(-159.649 -142.484)" fill="#263238"/>
                <g id="Group_134" data-name="Group 134" transform="translate(9.571 11.649)">
                  <path id="Path_155" data-name="Path 155" d="M185.805,169.06a20.943,20.943,0,0,0-4.32,1.073,2.547,2.547,0,0,0,3.189,1.047,1.637,1.637,0,0,0,1.167-1.97C185.831,169.16,185.819,169.109,185.805,169.06Z" transform="translate(-181.485 -169.06)" fill="#263238"/>
                  <path id="Path_156" data-name="Path 156" d="M185.368,172.282a2.789,2.789,0,0,1,1.891-.046,1.732,1.732,0,0,1-.911.633,2.757,2.757,0,0,1-1.887.045A1.67,1.67,0,0,1,185.368,172.282Z" transform="translate(-183.157 -170.764)" fill="#e83f3f"/>
                  <path id="Path_157" data-name="Path 157" d="M185.83,169.1a.748.748,0,0,1-.341.676,15.966,15.966,0,0,1-2.843.618.9.9,0,0,1-.848-.294A24.33,24.33,0,0,1,185.83,169.1Z" transform="translate(-181.661 -169.082)" fill="#fff"/>
                </g>
                <path id="Path_158" data-name="Path 158" d="M186.734,162.923a2.01,2.01,0,0,0,1.4-.962,13.1,13.1,0,0,1-2.875-2.054Z" transform="translate(-174.032 -152.27)" opacity="0.2" style="isolation: isolate"/>
                <path id="Path_159" data-name="Path 159" d="M164.171,167.733c1.006-.434,2.47.581,3.167,1.422.774.94.686,2.035-.5,2.068a4.112,4.112,0,0,1-2.586-.983C163.345,169.465,163.164,168.167,164.171,167.733Z" transform="translate(-161.807 -156.607)" fill="#b55b52"/>
                <path id="Path_160" data-name="Path 160" d="M179.412,161.175c.214-.092.529.124.665.416s.09.626-.121.723-.484-.1-.663-.411C179.139,161.581,179.2,161.267,179.412,161.175Z" transform="translate(-170.634 -152.97)" fill="#263238"/>
                <path id="Path_161" data-name="Path 161" d="M187.573,157.064c.214-.092.508.089.662.411s.11.661-.1.752-.512-.094-.665-.416S187.359,157.156,187.573,157.064Z" transform="translate(-175.223 -150.66)" fill="#263238"/>
                <path id="Path_162" data-name="Path 162" d="M185.009,153.7a.22.22,0,0,0,.2,0,1.772,1.772,0,0,1,1.533-.182.2.2,0,0,0,.271-.094l0-.01a.214.214,0,0,0-.1-.275h0a2.159,2.159,0,0,0-1.916.2.214.214,0,0,0-.071.288A.261.261,0,0,0,185.009,153.7Z" transform="translate(-173.829 -148.388)" fill="#263238"/>
                <path id="Path_163" data-name="Path 163" d="M176.4,158.666a.22.22,0,0,0,.155-.123,1.77,1.77,0,0,1,1.1-1.086.2.2,0,0,0,.156-.241l0-.011a.214.214,0,0,0-.251-.153h0a2.16,2.16,0,0,0-1.386,1.338.215.215,0,0,0,.121.271A.26.26,0,0,0,176.4,158.666Z" transform="translate(-168.917 -150.664)" fill="#263238"/>
              </g>
            </g>
            <g id="Group_138" data-name="Group 138" transform="translate(0 27.412)">
              <g id="Group_137" data-name="Group 137">
                <path id="Path_164" data-name="Path 164" d="M153.66,208.782l.551-1.164c.727-1.534,3.771-7.643,5.252-8.291l.545-.345,2.067,3.149c-.356.3-4.249,10.359-5.179,12.466a7.233,7.233,0,0,0-.364.988c-.638,2.307-4.56,5.841-7.181-.793-.655-1.4-1.255-2.773-1.792-4.162-.277-.722-.525-1.4-.777-2.119l-.256-.73c-1.212-3.467-1.417-7.439,1.893-9.48l2.226-.751Z" transform="translate(-145.717 -197.549)" fill="#407bff"/>
              </g>
            </g>
            <g id="Group_140" data-name="Group 140" transform="translate(0 27.412)" opacity="0.1">
              <g id="Group_139" data-name="Group 139">
                <path id="Path_165" data-name="Path 165" d="M153.66,208.782l.551-1.164c.727-1.534,3.771-7.643,5.252-8.291l.545-.345,2.067,3.149c-.356.3-4.249,10.359-5.179,12.466a7.233,7.233,0,0,0-.364.988c-.638,2.307-4.56,5.841-7.181-.793-.655-1.4-1.255-2.773-1.792-4.162-.277-.722-.525-1.4-.777-2.119l-.256-.73c-1.212-3.467-1.417-7.439,1.893-9.48l2.226-.751Z" transform="translate(-145.717 -197.549)" fill="#fff"/>
              </g>
            </g>
            <g id="Group_149" data-name="Group 149" transform="translate(19.686 23.705)">
              <g id="Group_148" data-name="Group 148">
                <g id="Group_147" data-name="Group 147">
                  <g id="Group_146" data-name="Group 146">
                    <path id="Path_166" data-name="Path 166" d="M190.633,191.968a2.056,2.056,0,0,0,.1.44,3.475,3.475,0,0,0,.256.608,3.017,3.017,0,0,0,.545.679c.007.006.137.116.145.126a2.987,2.987,0,0,0,.417.321,2.625,2.625,0,0,0,.922.423.212.212,0,0,1,.144.116c.038.082.089.156.134.234s.075.133.105.2a.482.482,0,0,0,.2.24,1.676,1.676,0,0,0,.571.205,6.03,6.03,0,0,0,1.591.117,7.672,7.672,0,0,0,.824-.071,6.086,6.086,0,0,0,.874-.191,2.49,2.49,0,0,0,.65-.278.488.488,0,0,0,.2-.213c.021-.051.028-.1.052-.147.059-.141.118-.281.174-.422.088-.216.159-.438.227-.659a6.351,6.351,0,0,0,.184-.654c.044-.227.095-.451.128-.681.059-.385.1-.773.145-1.164.017-.181.014-.393.024-.577a1.546,1.546,0,0,0-.049-.443.649.649,0,0,0-.156-.269,2.1,2.1,0,0,0-.724-.471,3.378,3.378,0,0,0-.792-.21c-.114-.017-.224-.047-.338-.061a8.379,8.379,0,0,0-3.568.271,5.184,5.184,0,0,0-.679.25,2.7,2.7,0,0,0-.536.349,1.153,1.153,0,0,0-.3.366.736.736,0,0,0-.057.174c-.019.071-.019.075-.087.062a1.062,1.062,0,0,0-1.027.324,1.131,1.131,0,0,0-.218.411A1.483,1.483,0,0,0,190.633,191.968Zm2.939-.912a3.259,3.259,0,0,1-.7-.2.432.432,0,0,1-.156-.085.947.947,0,0,1,.3-.355,2.2,2.2,0,0,1,.262-.159,3.01,3.01,0,0,1,.5-.2,6.759,6.759,0,0,1,.806-.194,7.875,7.875,0,0,1,.788-.1c.247-.021.444-.022.693-.023a7.789,7.789,0,0,1,.928.061,4.264,4.264,0,0,1,.92.212,1.569,1.569,0,0,1,.667.417c-.006.007-.013.011-.019.018-.023.018-.045.036-.068.051a1.644,1.644,0,0,1-.191.114,3.554,3.554,0,0,1-.794.293c-.063.017-.125.034-.188.048-.036.009-.069.018-.106.023-.205.049-.411.081-.617.109s-.4.053-.606.061c-.157.009-.314.025-.47.033a.1.1,0,0,1-.034,0s-.01,0-.017,0l-.087.005c-.208,0-.416,0-.624-.008-.184,0-.369-.006-.554-.022C193.993,191.139,193.783,191.094,193.573,191.056Zm-1.982.719a.445.445,0,0,1,.358-.355.938.938,0,0,1,.133-.014c.054.3.128.589.194.877.085.38.2.749.319,1.117a2.006,2.006,0,0,0,.237.515c-.032-.025-.175-.134-.217-.165a3.064,3.064,0,0,1-.551-.605,2.964,2.964,0,0,1-.416-.726A1.088,1.088,0,0,1,191.591,191.776Z" transform="translate(-190.627 -189.092)" fill="#fff"/>
                    <path id="Path_167" data-name="Path 167" d="M194.641,190.938c.471.387,1.5.583,3.185.487s2.685-.409,3.109-.846a.672.672,0,0,0-.084-.931,2.357,2.357,0,0,0-.4-.21,3.394,3.394,0,0,0-.792-.209c-.114-.018-.225-.048-.338-.062a8.376,8.376,0,0,0-3.567.274,4.839,4.839,0,0,0-.68.249,2.368,2.368,0,0,0-.331.193h0A.677.677,0,0,0,194.641,190.938Zm.21-.165a.92.92,0,0,1,.3-.353,2.2,2.2,0,0,1,.262-.161,3.141,3.141,0,0,1,.5-.2,6.679,6.679,0,0,1,.8-.192c.267-.047.519-.076.789-.1.248-.02.445-.024.693-.022a7.723,7.723,0,0,1,.929.059,4.237,4.237,0,0,1,.918.213,1.549,1.549,0,0,1,.667.416l-.018.016a.6.6,0,0,1-.068.054,1.587,1.587,0,0,1-.189.114,3.717,3.717,0,0,1-.793.293c-.063.017-.127.032-.191.048l-.105.023c-.2.045-.409.08-.616.109s-.4.05-.607.061c-.158.008-.315.025-.472.032H197.6l-.073,0h-.016c-.207,0-.414,0-.622-.005-.185,0-.37-.008-.553-.024-.212-.018-.425-.061-.635-.1a3.252,3.252,0,0,1-.7-.2A.408.408,0,0,1,194.85,190.772Z" transform="translate(-192.762 -189.092)" fill="#fff" opacity="0.7"/>
                    <g id="Group_143" data-name="Group 143" transform="translate(2.099 0.65)">
                      <g id="Group_141" data-name="Group 141">
                        <path id="Path_168" data-name="Path 168" d="M195.415,191.605a.917.917,0,0,1,.3-.353,2.238,2.238,0,0,1,.262-.161,3.087,3.087,0,0,1,.5-.2,6.766,6.766,0,0,1,.8-.192c.266-.047.519-.076.789-.1.247-.021.445-.024.693-.022a7.719,7.719,0,0,1,.929.059,4.249,4.249,0,0,1,.918.213,1.555,1.555,0,0,1,.667.416l-.018.016a.543.543,0,0,1-.068.053,1.533,1.533,0,0,1-.189.115,3.741,3.741,0,0,1-.793.293c-.063.017-.127.032-.191.047l-.105.024c-.2.045-.409.08-.616.109s-.4.05-.607.061c-.158.008-.314.026-.472.032h-.048l-.073,0h-.016c-.207,0-.414,0-.622-.005-.185,0-.37-.008-.553-.024-.212-.018-.425-.061-.635-.1a3.236,3.236,0,0,1-.7-.2A.413.413,0,0,1,195.415,191.605Z" transform="translate(-195.415 -190.575)" fill="none"/>
                      </g>
                      <g id="Group_142" data-name="Group 142">
                        <path id="Path_169" data-name="Path 169" d="M195.415,191.605a.917.917,0,0,1,.3-.353,2.238,2.238,0,0,1,.262-.161,3.087,3.087,0,0,1,.5-.2,6.766,6.766,0,0,1,.8-.192c.266-.047.519-.076.789-.1.247-.021.445-.024.693-.022a7.719,7.719,0,0,1,.929.059,4.249,4.249,0,0,1,.918.213,1.555,1.555,0,0,1,.667.416l-.018.016a.543.543,0,0,1-.068.053,1.533,1.533,0,0,1-.189.115,3.741,3.741,0,0,1-.793.293c-.063.017-.127.032-.191.047l-.105.024c-.2.045-.409.08-.616.109s-.4.05-.607.061c-.158.008-.314.026-.472.032h-.048l-.073,0h-.016c-.207,0-.414,0-.622-.005-.185,0-.37-.008-.553-.024-.212-.018-.425-.061-.635-.1a3.236,3.236,0,0,1-.7-.2A.413.413,0,0,1,195.415,191.605Z" transform="translate(-195.415 -190.575)" fill="none"/>
                      </g>
                    </g>
                    <g id="Group_145" data-name="Group 145" transform="translate(2.092 0.649)">
                      <g id="Group_144" data-name="Group 144">
                        <path id="Path_170" data-name="Path 170" d="M195.4,191.6a.432.432,0,0,0,.156.085,3.259,3.259,0,0,0,.7.2c.21.038.42.083.632.1.185.016.37.019.554.022.208.008.416.01.624.008l.087-.005c.007,0,.014,0,.017,0a.1.1,0,0,0,.034,0c.156-.009.313-.025.47-.033.2-.008.407-.033.606-.061s.412-.06.617-.109c.036-.005.069-.014.106-.023.063-.014.126-.031.188-.048a3.554,3.554,0,0,0,.794-.293,1.644,1.644,0,0,0,.191-.114c.022-.015.045-.033.068-.051.006-.007.013-.011.019-.018a1.569,1.569,0,0,0-.667-.417,4.264,4.264,0,0,0-.92-.212,7.789,7.789,0,0,0-.928-.061c-.248,0-.446,0-.693.023a7.875,7.875,0,0,0-.788.1,6.759,6.759,0,0,0-.806.194,3.01,3.01,0,0,0-.5.2,2.2,2.2,0,0,0-.262.159A.947.947,0,0,0,195.4,191.6Z" transform="translate(-195.4 -190.573)" fill="#263238"/>
                      </g>
                    </g>
                    <path id="Path_171" data-name="Path 171" d="M195.24,190.466a1.44,1.44,0,0,1,.182-.182,4.494,4.494,0,0,1,2.1-.736,6.223,6.223,0,0,1,1.267-.066,4.87,4.87,0,0,1,2.107.489,1.355,1.355,0,0,1,.2.16.375.375,0,0,1,.036.5.669.669,0,0,1-.075.063h0c-.649-.634-2.347-.658-2.9-.647-.555.053-2.239.27-2.812.974h0a.6.6,0,0,1-.082-.054A.375.375,0,0,1,195.24,190.466Z" transform="translate(-193.169 -189.307)" opacity="0.3"/>
                  </g>
                </g>
              </g>
            </g>
            <g id="Group_151" data-name="Group 151" transform="translate(14.067 25.343)">
              <g id="Group_150" data-name="Group 150">
                <path id="Path_172" data-name="Path 172" d="M184.647,194.579l.369,1.8-1.112,1.365a7.928,7.928,0,0,1-3.8,1.736,1.852,1.852,0,0,1-1.868-1.006l-.178-.347a2.24,2.24,0,0,1-.177-.489,1.685,1.685,0,0,1,.875-2l2.714-2.384a32.054,32.054,0,0,1,3.3-.425C185.1,192.825,184.712,194.246,184.647,194.579Z" transform="translate(-177.81 -192.828)" fill="#b55b52"/>
              </g>
            </g>
          </g>
        </g>
        <g id="Group_154" data-name="Group 154" transform="translate(18.104 63.407)">
          <g id="Group_153" data-name="Group 153">
            <rect id="Rectangle_93" data-name="Rectangle 93" width="2.765" height="11.798" fill="#263238"/>
            <rect id="Rectangle_94" data-name="Rectangle 94" width="2.765" height="20.045" fill="#407bff"/>
            <rect id="Rectangle_95" data-name="Rectangle 95" width="2.765" height="20.045" fill="#fff" opacity="0.5"/>
          </g>
        </g>
        <g id="Group_155" data-name="Group 155" transform="translate(0 58.12)">
          <path id="Path_173" data-name="Path 173" d="M136.314,274.8c5.937-2.51,19.293-.856,25.5.875a2.672,2.672,0,0,0,3.222-1.471h0c.487-1.226-.545-5-2.11-5.444-7.252-2.023-21.541-1.32-28.474,1.613a2.509,2.509,0,0,0-1.514,3.379h0A2.677,2.677,0,0,0,136.314,274.8Z" transform="translate(-132.697 -267.606)" fill="#407bff"/>
        </g>
        <g id="Group_156" data-name="Group 156" transform="translate(0 58.12)" opacity="0.3">
          <path id="Path_174" data-name="Path 174" d="M136.314,274.8c5.937-2.51,19.293-.856,25.5.875a2.672,2.672,0,0,0,3.222-1.471h0c.487-1.226-.545-5-2.11-5.444-7.252-2.023-21.541-1.32-28.474,1.613a2.509,2.509,0,0,0-1.514,3.379h0A2.677,2.677,0,0,0,136.314,274.8Z" transform="translate(-132.697 -267.606)" fill="#fff"/>
        </g>
      </g>
    </g>
    <g id="Device" transform="translate(59.892 148.239)">
      <g id="Group_181" data-name="Group 181">
        <g id="Group_159" data-name="Group 159" transform="translate(0 41.425)">
          <g id="Group_158" data-name="Group 158">
            <path id="Path_175" data-name="Path 175" d="M154.666,265.815l-5.6,67.555h1.7l9.192-67.555Z" transform="translate(-143.616 -263.133)" fill="#407bff"/>
            <path id="Path_176" data-name="Path 176" d="M304.115,265.815l9.192,67.555h1.7l-5.6-67.555Z" transform="translate(-230.704 -263.133)" fill="#407bff"/>
            <path id="Path_177" data-name="Path 177" d="M173.669,333.42h1.7l9.939-67.6h-5.29Z" transform="translate(-157.436 -263.133)" fill="#407bff"/>
            <path id="Path_178" data-name="Path 178" d="M334.16,265.815h-5.29l10.147,67.6h1.7Z" transform="translate(-244.608 -263.133)" fill="#407bff"/>
            <path id="Path_179" data-name="Path 179" d="M231.062,261.312a1.667,1.667,0,0,0-1.713-1.616h-91a1.619,1.619,0,1,0,0,3.232h91A1.666,1.666,0,0,0,231.062,261.312Z" transform="translate(-136.636 -259.696)" fill="#407bff"/>
          </g>
          <path id="Path_180" data-name="Path 180" d="M231.046,329.983h1.7l-6.505-67.055h3.108a1.619,1.619,0,1,0,0-3.232h-91a1.619,1.619,0,1,0,0,3.232h9.291l-5.558,67.006h1.7l9.118-67.006h6.266l-6.3,67.055h1.7l9.858-67.055h45.694l9.118,67.006h1.7l-5.558-67.006h5.6Z" transform="translate(-136.636 -259.696)" fill="#fff" opacity="0.5"/>
        </g>
        <g id="Group_172" data-name="Group 172" transform="translate(31.622)">
          <g id="Group_163" data-name="Group 163" transform="translate(0 38.467)">
            <g id="Group_162" data-name="Group 162" transform="translate(0.957)">
              <g id="Group_160" data-name="Group 160">
                <path id="Path_181" data-name="Path 181" d="M263.019,254.638h1.174a.224.224,0,0,0,.224-.224v-1.242a.224.224,0,0,0-.224-.224h-.843a.224.224,0,0,0-.217.167l-.331,1.242A.224.224,0,0,0,263.019,254.638Z" transform="translate(-240.074 -252.948)" fill="#407bff"/>
                <path id="Path_182" data-name="Path 182" d="M259.316,254.638h1.174a.224.224,0,0,0,.224-.224v-1.242a.224.224,0,0,0-.224-.224h-.843a.225.225,0,0,0-.217.167l-.331,1.242A.224.224,0,0,0,259.316,254.638Z" transform="translate(-237.995 -252.948)" fill="#407bff"/>
                <path id="Path_183" data-name="Path 183" d="M255.614,254.638h1.174a.224.224,0,0,0,.224-.224v-1.242a.224.224,0,0,0-.224-.224h-.843a.224.224,0,0,0-.217.167l-.331,1.242A.224.224,0,0,0,255.614,254.638Z" transform="translate(-235.915 -252.948)" fill="#407bff"/>
                <path id="Path_184" data-name="Path 184" d="M251.912,254.638h1.174a.224.224,0,0,0,.224-.224v-1.242a.224.224,0,0,0-.224-.224h-.843a.225.225,0,0,0-.217.167l-.331,1.242A.224.224,0,0,0,251.912,254.638Z" transform="translate(-233.836 -252.948)" fill="#407bff"/>
                <path id="Path_185" data-name="Path 185" d="M248.209,254.638h1.174a.224.224,0,0,0,.224-.224v-1.242a.224.224,0,0,0-.224-.224h-.843a.224.224,0,0,0-.217.167l-.331,1.242A.224.224,0,0,0,248.209,254.638Z" transform="translate(-231.756 -252.948)" fill="#407bff"/>
                <path id="Path_186" data-name="Path 186" d="M244.507,254.638h1.174a.224.224,0,0,0,.224-.224v-1.242a.224.224,0,0,0-.224-.224h-.843a.224.224,0,0,0-.217.167l-.331,1.242A.224.224,0,0,0,244.507,254.638Z" transform="translate(-229.677 -252.948)" fill="#407bff"/>
                <path id="Path_187" data-name="Path 187" d="M240.8,254.638h1.174a.224.224,0,0,0,.224-.224v-1.242a.224.224,0,0,0-.224-.224h-.843a.225.225,0,0,0-.217.167l-.331,1.242A.224.224,0,0,0,240.8,254.638Z" transform="translate(-227.597 -252.948)" fill="#407bff"/>
                <path id="Path_188" data-name="Path 188" d="M237.1,254.638h1.174a.224.224,0,0,0,.224-.224v-1.242a.224.224,0,0,0-.224-.224h-.843a.224.224,0,0,0-.217.167l-.331,1.242A.224.224,0,0,0,237.1,254.638Z" transform="translate(-225.518 -252.948)" fill="#407bff"/>
                <path id="Path_189" data-name="Path 189" d="M233.4,254.638h1.174a.224.224,0,0,0,.224-.224v-1.242a.224.224,0,0,0-.224-.224h-.843a.224.224,0,0,0-.217.167l-.331,1.242A.224.224,0,0,0,233.4,254.638Z" transform="translate(-223.438 -252.948)" fill="#407bff"/>
                <path id="Path_190" data-name="Path 190" d="M229.7,254.638h1.174a.224.224,0,0,0,.224-.224v-1.242a.224.224,0,0,0-.224-.224h-.843a.224.224,0,0,0-.217.167l-.331,1.242A.224.224,0,0,0,229.7,254.638Z" transform="translate(-221.359 -252.948)" fill="#407bff"/>
                <path id="Path_191" data-name="Path 191" d="M225.995,254.638h1.174a.224.224,0,0,0,.224-.224v-1.242a.224.224,0,0,0-.224-.224h-.843a.224.224,0,0,0-.217.167l-.331,1.242A.224.224,0,0,0,225.995,254.638Z" transform="translate(-219.279 -252.948)" fill="#407bff"/>
                <path id="Path_192" data-name="Path 192" d="M222.293,254.638h1.174a.224.224,0,0,0,.224-.224v-1.242a.224.224,0,0,0-.224-.224h-.843a.225.225,0,0,0-.217.167l-.331,1.242A.224.224,0,0,0,222.293,254.638Z" transform="translate(-217.2 -252.948)" fill="#407bff"/>
                <path id="Path_193" data-name="Path 193" d="M218.59,254.638h1.174a.224.224,0,0,0,.224-.224v-1.242a.224.224,0,0,0-.224-.224h-.843a.224.224,0,0,0-.217.167l-.331,1.242A.224.224,0,0,0,218.59,254.638Z" transform="translate(-215.12 -252.948)" fill="#407bff"/>
                <path id="Path_194" data-name="Path 194" d="M214.888,254.638h1.174a.224.224,0,0,0,.224-.224v-1.242a.224.224,0,0,0-.224-.224h-.843a.224.224,0,0,0-.217.167l-.331,1.242A.224.224,0,0,0,214.888,254.638Z" transform="translate(-213.041 -252.948)" fill="#407bff"/>
                <path id="Path_195" data-name="Path 195" d="M211.186,254.638h1.174a.224.224,0,0,0,.224-.224v-1.242a.224.224,0,0,0-.224-.224h-.843a.225.225,0,0,0-.217.167l-.331,1.242A.224.224,0,0,0,211.186,254.638Z" transform="translate(-210.961 -252.948)" fill="#407bff"/>
              </g>
              <g id="Group_161" data-name="Group 161" opacity="0.6">
                <path id="Path_196" data-name="Path 196" d="M263.019,254.638h1.174a.224.224,0,0,0,.224-.224v-1.242a.224.224,0,0,0-.224-.224h-.843a.224.224,0,0,0-.217.167l-.331,1.242A.224.224,0,0,0,263.019,254.638Z" transform="translate(-240.074 -252.948)" fill="#fff"/>
                <path id="Path_197" data-name="Path 197" d="M259.316,254.638h1.174a.224.224,0,0,0,.224-.224v-1.242a.224.224,0,0,0-.224-.224h-.843a.225.225,0,0,0-.217.167l-.331,1.242A.224.224,0,0,0,259.316,254.638Z" transform="translate(-237.995 -252.948)" fill="#fff"/>
                <path id="Path_198" data-name="Path 198" d="M255.614,254.638h1.174a.224.224,0,0,0,.224-.224v-1.242a.224.224,0,0,0-.224-.224h-.843a.224.224,0,0,0-.217.167l-.331,1.242A.224.224,0,0,0,255.614,254.638Z" transform="translate(-235.915 -252.948)" fill="#fff"/>
                <path id="Path_199" data-name="Path 199" d="M251.912,254.638h1.174a.224.224,0,0,0,.224-.224v-1.242a.224.224,0,0,0-.224-.224h-.843a.225.225,0,0,0-.217.167l-.331,1.242A.224.224,0,0,0,251.912,254.638Z" transform="translate(-233.836 -252.948)" fill="#fff"/>
                <path id="Path_200" data-name="Path 200" d="M248.209,254.638h1.174a.224.224,0,0,0,.224-.224v-1.242a.224.224,0,0,0-.224-.224h-.843a.224.224,0,0,0-.217.167l-.331,1.242A.224.224,0,0,0,248.209,254.638Z" transform="translate(-231.756 -252.948)" fill="#fff"/>
                <path id="Path_201" data-name="Path 201" d="M244.507,254.638h1.174a.224.224,0,0,0,.224-.224v-1.242a.224.224,0,0,0-.224-.224h-.843a.224.224,0,0,0-.217.167l-.331,1.242A.224.224,0,0,0,244.507,254.638Z" transform="translate(-229.677 -252.948)" fill="#fff"/>
                <path id="Path_202" data-name="Path 202" d="M240.8,254.638h1.174a.224.224,0,0,0,.224-.224v-1.242a.224.224,0,0,0-.224-.224h-.843a.225.225,0,0,0-.217.167l-.331,1.242A.224.224,0,0,0,240.8,254.638Z" transform="translate(-227.597 -252.948)" fill="#fff"/>
                <path id="Path_203" data-name="Path 203" d="M237.1,254.638h1.174a.224.224,0,0,0,.224-.224v-1.242a.224.224,0,0,0-.224-.224h-.843a.224.224,0,0,0-.217.167l-.331,1.242A.224.224,0,0,0,237.1,254.638Z" transform="translate(-225.518 -252.948)" fill="#fff"/>
                <path id="Path_204" data-name="Path 204" d="M233.4,254.638h1.174a.224.224,0,0,0,.224-.224v-1.242a.224.224,0,0,0-.224-.224h-.843a.224.224,0,0,0-.217.167l-.331,1.242A.224.224,0,0,0,233.4,254.638Z" transform="translate(-223.438 -252.948)" fill="#fff"/>
                <path id="Path_205" data-name="Path 205" d="M229.7,254.638h1.174a.224.224,0,0,0,.224-.224v-1.242a.224.224,0,0,0-.224-.224h-.843a.224.224,0,0,0-.217.167l-.331,1.242A.224.224,0,0,0,229.7,254.638Z" transform="translate(-221.359 -252.948)" fill="#fff"/>
                <path id="Path_206" data-name="Path 206" d="M225.995,254.638h1.174a.224.224,0,0,0,.224-.224v-1.242a.224.224,0,0,0-.224-.224h-.843a.224.224,0,0,0-.217.167l-.331,1.242A.224.224,0,0,0,225.995,254.638Z" transform="translate(-219.279 -252.948)" fill="#fff"/>
                <path id="Path_207" data-name="Path 207" d="M222.293,254.638h1.174a.224.224,0,0,0,.224-.224v-1.242a.224.224,0,0,0-.224-.224h-.843a.225.225,0,0,0-.217.167l-.331,1.242A.224.224,0,0,0,222.293,254.638Z" transform="translate(-217.2 -252.948)" fill="#fff"/>
                <path id="Path_208" data-name="Path 208" d="M218.59,254.638h1.174a.224.224,0,0,0,.224-.224v-1.242a.224.224,0,0,0-.224-.224h-.843a.224.224,0,0,0-.217.167l-.331,1.242A.224.224,0,0,0,218.59,254.638Z" transform="translate(-215.12 -252.948)" fill="#fff"/>
                <path id="Path_209" data-name="Path 209" d="M214.888,254.638h1.174a.224.224,0,0,0,.224-.224v-1.242a.224.224,0,0,0-.224-.224h-.843a.224.224,0,0,0-.217.167l-.331,1.242A.224.224,0,0,0,214.888,254.638Z" transform="translate(-213.041 -252.948)" fill="#fff"/>
                <path id="Path_210" data-name="Path 210" d="M211.186,254.638h1.174a.224.224,0,0,0,.224-.224v-1.242a.224.224,0,0,0-.224-.224h-.843a.225.225,0,0,0-.217.167l-.331,1.242A.224.224,0,0,0,211.186,254.638Z" transform="translate(-210.961 -252.948)" fill="#fff"/>
              </g>
            </g>
            <rect id="Rectangle_96" data-name="Rectangle 96" width="26.257" height="1.955" transform="translate(26.257 2.801) rotate(180)" fill="#407bff"/>
            <rect id="Rectangle_97" data-name="Rectangle 97" width="26.257" height="1.955" transform="translate(26.257 2.801) rotate(180)" fill="#fff" opacity="0.6"/>
          </g>
          <g id="Group_164" data-name="Group 164" transform="translate(31.092 38.181)">
            <path id="Path_211" data-name="Path 211" d="M279.711,255.325h7.709v-.685a2.345,2.345,0,0,0-2.471-2.341l-3.019.163a2.345,2.345,0,0,0-2.218,2.341Z" transform="translate(-279.711 -252.295)" fill="#407bff"/>
            <path id="Path_212" data-name="Path 212" d="M279.711,255.325h7.709v-.685a2.345,2.345,0,0,0-2.471-2.341l-3.019.163a2.345,2.345,0,0,0-2.218,2.341Z" transform="translate(-279.711 -252.295)" fill="#fff" opacity="0.6"/>
          </g>
          <g id="Group_171" data-name="Group 171" transform="translate(3.69)">
            <g id="Group_169" data-name="Group 169">
              <g id="Group_165" data-name="Group 165">
                <path id="Path_213" data-name="Path 213" d="M220.153,165.19h2.9l-2.144,30.66h-2.9a.8.8,0,0,1-.81-.871l2.022-28.918A.948.948,0,0,1,220.153,165.19Z" transform="translate(-217.197 -165.19)" fill="#407bff"/>
                <path id="Path_214" data-name="Path 214" d="M220.153,165.19h2.9l-2.144,30.66h-2.9a.8.8,0,0,1-.81-.871l2.022-28.918A.948.948,0,0,1,220.153,165.19Z" transform="translate(-217.197 -165.19)" fill="#fff" opacity="0.7"/>
              </g>
              <g id="Group_168" data-name="Group 168" transform="translate(1.666)">
                <g id="Group_166" data-name="Group 166">
                  <path id="Path_215" data-name="Path 215" d="M221.809,195.85h43.5a.949.949,0,0,0,.932-.871l2.022-28.918a.8.8,0,0,0-.81-.871h-43.5a.948.948,0,0,0-.932.871L221,194.979A.8.8,0,0,0,221.809,195.85Z" transform="translate(-220.997 -165.19)" fill="#263238"/>
                </g>
                <g id="Group_167" data-name="Group 167" transform="translate(34.916 27.76)">
                  <path id="Path_216" data-name="Path 216" d="M306.772,230.12h0a.3.3,0,0,0,.3-.277l.073-1.041a.256.256,0,0,0-.258-.277h0a.3.3,0,0,0-.3.277l-.073,1.041A.256.256,0,0,0,306.772,230.12Z" transform="translate(-303.945 -228.522)" opacity="0.1"/>
                  <path id="Path_217" data-name="Path 217" d="M303.842,230.12h0a.3.3,0,0,0,.3-.277l.073-1.041a.256.256,0,0,0-.258-.277h0a.3.3,0,0,0-.3.277l-.073,1.041A.256.256,0,0,0,303.842,230.12Z" transform="translate(-302.3 -228.522)" opacity="0.1"/>
                  <path id="Path_218" data-name="Path 218" d="M300.913,230.12h0a.3.3,0,0,0,.3-.277l.073-1.041a.256.256,0,0,0-.258-.277h0a.3.3,0,0,0-.3.277l-.073,1.041A.256.256,0,0,0,300.913,230.12Z" transform="translate(-300.654 -228.522)" opacity="0.1"/>
                  <path id="Path_219" data-name="Path 219" d="M311.682,228.52a.873.873,0,0,0-.855.8.738.738,0,0,0,.745.8.87.87,0,0,0,.85-.8A.733.733,0,0,0,311.682,228.52Zm-.1,1.363a.516.516,0,0,1-.522-.565.61.61,0,0,1,.6-.561.518.518,0,0,1,.526.561A.614.614,0,0,1,311.586,229.883Z" transform="translate(-306.367 -228.52)" opacity="0.1"/>
                </g>
                <path id="Path_220" data-name="Path 220" d="M258.955,219.657a1.242,1.242,0,0,0-1.214,1.084l-.673,5.7h10.614l.124-5.7a1.047,1.047,0,0,0-1.062-1.084Zm1.421,4.12a2.381,2.381,0,0,1,2.339-2.186,2.012,2.012,0,0,1,2.033,2.186,2.381,2.381,0,0,1-2.339,2.186A2.012,2.012,0,0,1,260.375,223.777Z" transform="translate(-241.257 -195.782)" opacity="0.1"/>
              </g>
            </g>
            <g id="Group_170" data-name="Group 170" transform="translate(18.875 23.875)">
              <path id="Path_221" data-name="Path 221" d="M260.258,236.975h11.627l-.781-16.234a1.139,1.139,0,0,0-1.137-1.084h-7.79a1.139,1.139,0,0,0-1.138,1.084Zm3.627-13.2a2.186,2.186,0,1,1,2.186,2.186A2.186,2.186,0,0,1,263.885,223.777Z" transform="translate(-260.258 -219.657)" fill="#407bff"/>
              <path id="Path_222" data-name="Path 222" d="M260.258,236.975h11.627l-.781-16.234a1.139,1.139,0,0,0-1.137-1.084h-7.79a1.139,1.139,0,0,0-1.138,1.084Zm3.627-13.2a2.186,2.186,0,1,1,2.186,2.186A2.186,2.186,0,0,1,263.885,223.777Z" transform="translate(-260.258 -219.657)" fill="#fff" opacity="0.7"/>
            </g>
          </g>
        </g>
        <g id="Group_175" data-name="Group 175" transform="translate(75.569 29.45)">
          <g id="Group_173" data-name="Group 173" transform="translate(0 3.633)">
            <path id="Path_223" data-name="Path 223" d="M312.371,245.729l-3.333-4.993.324-.073,3.48,4.96Z" transform="translate(-309.038 -240.663)" fill="#407bff"/>
          </g>
          <g id="Group_174" data-name="Group 174" transform="translate(16.522 3.614)">
            <path id="Path_224" data-name="Path 224" d="M347.2,245.688l3.333-4.993-.324-.073-3.48,4.96Z" transform="translate(-346.73 -240.621)" fill="#407bff"/>
          </g>
          <path id="Path_225" data-name="Path 225" d="M331.045,240.261h.585l-.157-7.885H331.2Z" transform="translate(-321.398 -232.376)" fill="#407bff"/>
          <path id="Path_226" data-name="Path 226" d="M346.814,252.06l-.188.353h-.39l.337-.413Z" transform="translate(-329.93 -243.398)" fill="#263238"/>
          <path id="Path_227" data-name="Path 227" d="M316.862,252.06l.188.353h.391L317.1,252Z" transform="translate(-313.432 -243.398)" fill="#263238"/>
          <rect id="Rectangle_98" data-name="Rectangle 98" width="0.633" height="0.418" transform="translate(9.728 8.517) rotate(-89.758)" fill="#263238"/>
        </g>
        <g id="Group_180" data-name="Group 180" transform="translate(78.711 37.806)">
          <g id="Group_177" data-name="Group 177">
            <g id="Group_176" data-name="Group 176" transform="translate(0.577 2.412)">
              <rect id="Rectangle_99" data-name="Rectangle 99" width="1.65" height="1.027" transform="translate(12.838 1.027) rotate(180)" fill="#407bff"/>
              <rect id="Rectangle_100" data-name="Rectangle 100" width="1.65" height="1.027" transform="translate(1.65 1.027) rotate(180)" fill="#407bff"/>
            </g>
            <path id="Path_228" data-name="Path 228" d="M316.206,254.307l3.584.388a31.746,31.746,0,0,0,6.84,0l3.584-.388v-2.224l-2.911-.378a31.754,31.754,0,0,0-8.187,0l-2.911.378Z" transform="translate(-316.206 -251.44)" fill="#407bff"/>
            <path id="Path_229" data-name="Path 229" d="M316.206,254.307l3.584.388a31.746,31.746,0,0,0,6.84,0l3.584-.388v-2.224l-2.911-.378a31.754,31.754,0,0,0-8.187,0l-2.911.378Z" transform="translate(-316.206 -251.44)" fill="#263238"/>
          </g>
          <g id="Group_178" data-name="Group 178" transform="translate(11.926 1.154)">
            <path id="Path_230" data-name="Path 230" d="M343.414,254.738a.664.664,0,1,0,.664-.664A.664.664,0,0,0,343.414,254.738Z" transform="translate(-343.414 -254.074)" fill="#fff"/>
            <circle id="Ellipse_21" data-name="Ellipse 21" cx="0.397" cy="0.397" r="0.397" transform="translate(0.267 0.272)" fill="#407bff"/>
          </g>
          <g id="Group_179" data-name="Group 179" transform="translate(4.343 1.613)">
            <path id="Path_231" data-name="Path 231" d="M336.354,255.331a.21.21,0,1,0,.21-.21A.21.21,0,0,0,336.354,255.331Z" transform="translate(-331.865 -255.121)" fill="#fff"/>
            <path id="Path_232" data-name="Path 232" d="M334.647,255.331a.21.21,0,1,0,.21-.21A.21.21,0,0,0,334.647,255.331Z" transform="translate(-330.906 -255.121)" fill="#fff"/>
            <path id="Path_233" data-name="Path 233" d="M332.94,255.331a.21.21,0,1,0,.21-.21A.21.21,0,0,0,332.94,255.331Z" transform="translate(-329.948 -255.121)" fill="#fff"/>
            <path id="Path_234" data-name="Path 234" d="M331.234,255.331a.21.21,0,1,0,.21-.21A.21.21,0,0,0,331.234,255.331Z" transform="translate(-328.989 -255.121)" fill="#fff"/>
            <path id="Path_235" data-name="Path 235" d="M329.526,255.331a.21.21,0,1,0,.21-.21A.21.21,0,0,0,329.526,255.331Z" transform="translate(-328.03 -255.121)" fill="#fff"/>
            <path id="Path_236" data-name="Path 236" d="M327.82,255.331a.21.21,0,1,0,.21-.21A.21.21,0,0,0,327.82,255.331Z" transform="translate(-327.072 -255.121)" fill="#fff"/>
            <path id="Path_237" data-name="Path 237" d="M326.113,255.331a.21.21,0,1,0,.21-.21A.21.21,0,0,0,326.113,255.331Z" transform="translate(-326.113 -255.121)" fill="#fff"/>
          </g>
        </g>
      </g>
    </g>
  </g>
</svg>
