<svg xmlns="http://www.w3.org/2000/svg" xmlns:xlink="http://www.w3.org/1999/xlink" width="541.268" height="454" viewBox="0 0 541.268 454">
  <defs>
    <clipPath id="clip-path">
      <rect id="Rectangle_128" data-name="Rectangle 128" width="355.954" height="203.878" fill="#fffffa"/>
    </clipPath>
    <clipPath id="clip-path-2">
      <path id="Path_390" data-name="Path 390" d="M351.595,208.166a37.995,37.995,0,0,0-20.861-9.084c-3.839-.369-8.043.078-10.926,2.643-7.58,6.747-6.8,22.806-6.666,32.185.317,22.554,6.037,44.8,15.02,65.41a222.528,222.528,0,0,0,15.619,29.452c2.719,4.327,5.609,8.546,8.222,12.938,1.1,1.844,8.441,13.259,7.049,15.094,6.4-8.431,9.973-18.733,11.78-29.162,2.674-15.426,5.574-31.325,4.778-47.252-.818-16.374-3.227-32.777-8.286-48.407A52.678,52.678,0,0,0,351.595,208.166Z" transform="translate(-313.056 -198.969)" fill="#31d8f4"/>
    </clipPath>
    <clipPath id="clip-path-3">
      <path id="Path_399" data-name="Path 399" d="M365.354,235.238a25.046,25.046,0,0,1,14.608-3.413c2.535.215,5.207,1.006,6.771,3.01,4.116,5.278,1.7,15.6.5,21.667-2.884,14.591-9.235,28.339-17.508,40.638A146.913,146.913,0,0,1,356.1,314.387c-2.276,2.483-4.65,4.876-6.868,7.414-.93,1.065-7.051,7.6-6.363,8.951-3.151-6.227-4.244-13.333-4.178-20.313.1-10.321.1-20.976,2.512-31.213a123.625,123.625,0,0,1,11.122-30.41A34.738,34.738,0,0,1,365.354,235.238Z" transform="translate(-338.687 -231.74)" fill="#0065e0"/>
    </clipPath>
  </defs>
  <g id="Group_605" data-name="Group 605" transform="translate(-78.724 -52.94)">
    <path id="Path_359" data-name="Path 359" d="M556.655,474.562c27.369-16.24,59.7-40.391,62.646-74.754,2.4-28.06-17.7-42.533-25-67.057-8.431-28.311,19.184-48.484,15.955-75.965-1.451-12.352-9.84-22.825-19.3-30.9-15.244-13.005-34.967-22.935-44.268-41.606-10.666-21.407.519-46.715-11.007-67.35-17.678-31.65-57.043-16.808-84.217-13a152.6,152.6,0,0,1-62.017-4.208c-20.5-5.731-37.86-20.942-58.8-23.83A91.847,91.847,0,0,0,272.2,87.352c-41.034,24.014-48.381,76.089-64.135,116.977-6.206,16.109-15.519,32.395-29.469,42.967-13.664,10.355-30.849,14.541-47.006,20.277-26.657,9.463-46.946,30.151-51.555,58.588-6.043,37.29,22.329,58.738,51.544,74.128,11.923,6.28,24.34,13.281,32.8,24.064,13.543,17.272,8.937,41.4,34.934,48.552" transform="translate(0 15.981)" fill="none" stroke="#34abcd" stroke-miterlimit="10" stroke-width="1" stroke-dasharray="5 5"/>
    <g id="Group_591" data-name="Group 591" transform="translate(123.132 165.892)">
      <path id="Path_419" data-name="Path 419" d="M13.1,0H379.026a13.1,13.1,0,0,1,13.1,13.1V252.416a13.1,13.1,0,0,1-13.1,13.1H13.1A13.1,13.1,0,0,1,0,252.416V13.1A13.1,13.1,0,0,1,13.1,0Z" transform="translate(0 11.938)" fill="#eee"/>
      <path id="Rectangle_125" data-name="Rectangle 125" d="M9,0H383.128a9,9,0,0,1,9,9V242.005a0,0,0,0,1,0,0H0a0,0,0,0,1,0,0V9A9,9,0,0,1,9,0Z" fill="#151535"/>
      <rect id="Rectangle_126" data-name="Rectangle 126" width="366.083" height="214.296" transform="translate(13.023 12.878)" fill="#0065e0"/>
      <g id="Group_589" data-name="Group 589" transform="translate(18.087 18.087)">
        <rect id="Rectangle_127" data-name="Rectangle 127" width="355.954" height="203.878" fill="#fffffa"/>
        <g id="Group_588" data-name="Group 588" clip-path="url(#clip-path)">
          <g id="Group_584" data-name="Group 584" transform="translate(-9.286 102.752)">
            <circle id="Ellipse_31" data-name="Ellipse 31" cx="32.161" cy="32.161" r="32.161" transform="translate(0 126.331) rotate(-85.269)" fill="#00bff3"/>
            <circle id="Ellipse_32" data-name="Ellipse 32" cx="19.768" cy="19.768" r="19.768" transform="translate(231.893 54.115) rotate(-22.5)" fill="#00bff3"/>
            <circle id="Ellipse_33" data-name="Ellipse 33" cx="19.768" cy="19.768" r="19.768" transform="translate(264.742 29.567)" fill="#00bff3"/>
            <circle id="Ellipse_34" data-name="Ellipse 34" cx="19.768" cy="19.768" r="19.768" transform="matrix(0.23, -0.973, 0.973, 0.23, 30.691, 77.568)" fill="#00bff3"/>
            <circle id="Ellipse_35" data-name="Ellipse 35" cx="19.768" cy="19.768" r="19.768" transform="translate(102.505 29.567)" fill="#00bff3"/>
            <circle id="Ellipse_36" data-name="Ellipse 36" cx="32.161" cy="32.161" r="32.161" transform="translate(42.122 24.615) rotate(-22.5)" fill="#00bff3"/>
            <circle id="Ellipse_37" data-name="Ellipse 37" cx="32.161" cy="32.161" r="32.161" transform="translate(128.147 28.143)" fill="#00bff3"/>
            <circle id="Ellipse_38" data-name="Ellipse 38" cx="32.161" cy="32.161" r="32.161" transform="matrix(0.383, -0.924, 0.924, 0.383, 174.67, 79.523)" fill="#00bff3"/>
            <circle id="Ellipse_39" data-name="Ellipse 39" cx="32.161" cy="32.161" r="32.161" transform="translate(285.161 39.136)" fill="#00bff3"/>
            <path id="Path_360" data-name="Path 360" d="M124.27,287.6l-10.2,39.535,332.856-1.143,7.459-53.352-40.61-50.854L324.825,234.4l-79.022.562-59.826-21.951L161.2,233.864l-32.161,16.367-7.17,15.041Z" transform="translate(-106.73 -170.993)" fill="#00bff3"/>
          </g>
          <g id="Group_585" data-name="Group 585" transform="translate(-54.184 145.092)">
            <circle id="Ellipse_40" data-name="Ellipse 40" cx="19.768" cy="19.768" r="19.768" transform="translate(114.75 20.53)" fill="#31d8f4"/>
            <circle id="Ellipse_41" data-name="Ellipse 41" cx="19.768" cy="19.768" r="19.768" transform="translate(40.067 54.336)" fill="#31d8f4"/>
            <circle id="Ellipse_42" data-name="Ellipse 42" cx="19.768" cy="19.768" r="19.768" transform="translate(389.443 64.436)" fill="#31d8f4"/>
            <circle id="Ellipse_43" data-name="Ellipse 43" cx="19.768" cy="19.768" r="19.768" transform="translate(321.122 18.828) rotate(-4.731)" fill="#31d8f4"/>
            <circle id="Ellipse_44" data-name="Ellipse 44" cx="19.768" cy="19.768" r="19.768" transform="translate(238.265 44.272) rotate(-45)" fill="#31d8f4"/>
            <circle id="Ellipse_45" data-name="Ellipse 45" cx="32.161" cy="32.161" r="32.161" transform="translate(272.743 10.303) rotate(-9.217)" fill="#31d8f4"/>
            <circle id="Ellipse_46" data-name="Ellipse 46" cx="32.161" cy="32.161" r="32.161" transform="matrix(0.987, -0.16, 0.16, 0.987, 188.503, 23.042)" fill="#31d8f4"/>
            <circle id="Ellipse_47" data-name="Ellipse 47" cx="32.161" cy="32.161" r="32.161" transform="matrix(0.987, -0.16, 0.16, 0.987, 134.649, 32.71)" fill="#31d8f4"/>
            <circle id="Ellipse_48" data-name="Ellipse 48" cx="32.161" cy="32.161" r="32.161" transform="translate(64.666 25.193) rotate(-4.731)" fill="#31d8f4"/>
            <circle id="Ellipse_49" data-name="Ellipse 49" cx="32.161" cy="32.161" r="32.161" transform="translate(344.888 25.035)" fill="#31d8f4"/>
            <path id="Path_361" data-name="Path 361" d="M506.636,300.118l25.124,12.393H83.754l30.362-32.161,61.9-21.191,81.886-6.116,79.021.562,59.825-21.951,24.776,20.851,42.694,7.037,26.314,32.076Z" transform="translate(-83.754 -199.855)" fill="#31d8f4"/>
          </g>
          <path id="Path_362" data-name="Path 362" d="M237.379,133.845,185.074,321H300.242l-45.11-187.151Z" transform="translate(-64.681 -125.482)" fill="#31d8f4"/>
          <g id="Group_587" data-name="Group 587" transform="translate(23.151 122.558)">
            <g id="Group_586" data-name="Group 586" transform="translate(0 63.555)">
              <circle id="Ellipse_50" data-name="Ellipse 50" cx="19.768" cy="19.768" r="19.768" transform="translate(199.456 44.255) rotate(-22.5)" fill="#c8fcf9"/>
              <circle id="Ellipse_51" data-name="Ellipse 51" cx="19.768" cy="19.768" r="19.768" transform="translate(226.245 28.777) rotate(-22.5)" fill="#c8fcf9"/>
              <circle id="Ellipse_52" data-name="Ellipse 52" cx="19.768" cy="19.768" r="19.768" transform="translate(0 35.807) rotate(-7.018)" fill="#c8fcf9"/>
              <circle id="Ellipse_53" data-name="Ellipse 53" cx="19.768" cy="19.768" r="19.768" transform="translate(61.881 39.475) rotate(-45)" fill="#c8fcf9"/>
              <circle id="Ellipse_54" data-name="Ellipse 54" cx="32.161" cy="32.161" r="32.161" transform="translate(19.545)" fill="#c8fcf9"/>
              <circle id="Ellipse_55" data-name="Ellipse 55" cx="32.161" cy="32.161" r="32.161" transform="matrix(0.851, -0.526, 0.526, 0.851, 83.605, 39.995)" fill="#c8fcf9"/>
              <circle id="Ellipse_56" data-name="Ellipse 56" cx="32.161" cy="32.161" r="32.161" transform="translate(152.092 20.098)" fill="#c8fcf9"/>
            </g>
            <circle id="Ellipse_57" data-name="Ellipse 57" cx="34.567" cy="34.567" r="34.567" transform="translate(28.064 72.171) rotate(-45)" fill="#c8fcf9"/>
            <circle id="Ellipse_58" data-name="Ellipse 58" cx="38.088" cy="38.088" r="38.088" transform="translate(77.655 35.298) rotate(-22.5)" fill="#c8fcf9"/>
            <circle id="Ellipse_59" data-name="Ellipse 59" cx="34.567" cy="34.567" r="34.567" transform="translate(132.504 105.431) rotate(-76.717)" fill="#c8fcf9"/>
            <circle id="Ellipse_60" data-name="Ellipse 60" cx="34.567" cy="34.567" r="34.567" transform="translate(167.529 48.886) rotate(-45)" fill="#c8fcf9"/>
            <circle id="Ellipse_61" data-name="Ellipse 61" cx="34.567" cy="34.567" r="34.567" transform="translate(183.699 107.54) rotate(-76.717)" fill="#c8fcf9"/>
            <circle id="Ellipse_62" data-name="Ellipse 62" cx="25.734" cy="25.734" r="25.734" transform="translate(135.791 56.724) rotate(-76.718)" fill="#c8fcf9"/>
          </g>
          <path id="Path_363" data-name="Path 363" d="M230.205,133.845,195,310.8h83.362l-30.4-176.376Z" transform="translate(-57.507 -125.482)" fill="#c8fcf9"/>
        </g>
      </g>
      <rect id="Rectangle_129" data-name="Rectangle 129" width="88.265" height="47.75" transform="translate(151.932 277.456)" fill="#c4c4c4"/>
      <rect id="Rectangle_130" data-name="Rectangle 130" width="156.273" height="13.023" transform="translate(117.928 325.206)" fill="#fffffa"/>
      <path id="Path_364" data-name="Path 364" d="M230.305,272.307a8.32,8.32,0,1,1-8.321-8.321A8.321,8.321,0,0,1,230.305,272.307Z" transform="translate(-25.921 -13.299)" fill="#c4c4c4"/>
      <path id="Path_365" data-name="Path 365" d="M281.146,299.78,192.881,312.8v-33.28h88.265Z" transform="translate(-40.949 -2.066)" fill="#000100" opacity="0.1"/>
      <rect id="Rectangle_131" data-name="Rectangle 131" width="355.954" height="8.32" transform="translate(18.087 18.087)" fill="#34abcd"/>
      <g id="Group_590" data-name="Group 590" transform="translate(22.835 19.958)">
        <path id="Path_366" data-name="Path 366" d="M122.535,132.367a2.289,2.289,0,1,1-2.29-2.29A2.29,2.29,0,0,1,122.535,132.367Z" transform="translate(-117.957 -130.077)" fill="#fff"/>
        <path id="Path_367" data-name="Path 367" d="M127.257,132.367a2.288,2.288,0,1,1-2.288-2.29A2.288,2.288,0,0,1,127.257,132.367Z" transform="translate(-114.541 -130.077)" fill="#fff"/>
        <path id="Path_368" data-name="Path 368" d="M131.982,132.367a2.289,2.289,0,1,1-2.288-2.29A2.289,2.289,0,0,1,131.982,132.367Z" transform="translate(-111.127 -130.077)" fill="#fff"/>
      </g>
    </g>
    <g id="Group_592" data-name="Group 592" transform="translate(546.96 174.881)">
      <circle id="Ellipse_63" data-name="Ellipse 63" cx="21.675" cy="21.675" r="21.675" fill="#ffd880"/>
      <rect id="Rectangle_132" data-name="Rectangle 132" width="19.542" height="12.041" transform="translate(11.904 37.73)" fill="#ffd880"/>
      <rect id="Rectangle_133" data-name="Rectangle 133" width="19.542" height="6.623" transform="translate(11.904 49.771)" fill="#151535"/>
      <path id="Path_369" data-name="Path 369" d="M367.362,168.482h0a9.77,9.77,0,0,1-9.771-9.77v-2.271h19.543v2.271A9.77,9.77,0,0,1,367.362,168.482Z" transform="translate(-345.687 -100.047)" fill="#151535"/>
      <path id="Path_370" data-name="Path 370" d="M366.268,166.545c-.067-5.648-.193-11.3-.6-16.936-.208-2.85-.489-5.7-.875-8.527a9.718,9.718,0,0,0-2.855-6.182c-1.206-1.044-3.713-2.319-5.174-1.087-1.084.915-.413,2.612.536,3.353a19.4,19.4,0,0,0,11.072,3.751" transform="translate(-346.692 -116.774)" fill="none" stroke="#fff" stroke-miterlimit="10" stroke-width="1"/>
      <path id="Path_371" data-name="Path 371" d="M365.359,166.545c.067-5.648.195-11.3.606-16.936.208-2.85.489-5.7.874-8.527A9.712,9.712,0,0,1,369.7,134.9c1.206-1.044,3.711-2.319,5.172-1.087,1.086.915.415,2.612-.536,3.353a19.4,19.4,0,0,1-11.07,3.751" transform="translate(-341.587 -116.774)" fill="none" stroke="#fff" stroke-miterlimit="10" stroke-width="1"/>
    </g>
    <g id="Group_593" data-name="Group 593" transform="translate(279.026 52.94)">
      <path id="Path_372" data-name="Path 372" d="M237.449,120.652s9.518-2.778,18.976,5.667c7.492,6.691,8.295,33.716,1.07,49.236s-2.142-19.448-25.823-34.476S237.449,120.652,237.449,120.652Z" transform="translate(-175.457 -4.299)" fill="#0065e0"/>
      <path id="Path_373" data-name="Path 373" d="M220.232,120.652s-9.518-2.778-18.976,5.667c-7.492,6.691-8.295,33.716-1.07,49.236s2.142-19.448,25.823-34.476S220.232,120.652,220.232,120.652Z" transform="translate(-195.181 -4.299)" fill="#0065e0"/>
      <path id="Path_420" data-name="Path 420" d="M28.1,0c15.517,0,28.1,30.011,28.1,67.031s-12.579,67.031-28.1,67.031S0,104.051,0,67.031,12.579,0,28.1,0Z" transform="translate(15.63 20.872)" fill="#f1f1f1"/>
      <path id="Path_374" data-name="Path 374" d="M228.432,52.94l-18.764,37.7H247.2Z" transform="translate(-184.706 -52.94)" fill="#0065e0"/>
      <circle id="Ellipse_65" data-name="Ellipse 65" cx="14.717" cy="14.717" r="14.717" transform="translate(29.009 50.708)" fill="#34abcd"/>
      <path id="Path_375" data-name="Path 375" d="M235.332,95.278a10.407,10.407,0,1,1-10.407-10.407A10.407,10.407,0,0,1,235.332,95.278Z" transform="translate(-181.199 -29.853)" fill="#023ec3"/>
      <path id="Path_376" data-name="Path 376" d="M242.726,141.4c-1.907,1.852-26.467,1.761-28.211,0s-5.116-9.077-5.116-9.077h38.455S244.632,139.548,242.726,141.4Z" transform="translate(-184.9 4.456)" fill="#182f3f"/>
      <rect id="Rectangle_134" data-name="Rectangle 134" width="28.21" height="9.077" transform="translate(29.615 145.856)" fill="#34abcd"/>
      <path id="Path_377" data-name="Path 377" d="M235.551,142.859s9.833,6.155,6.222,29.7-7.566-5.352-7.566-5.352-3.808,39.068-12.1,39.6,0-63.954,0-63.954Z" transform="translate(-178.379 12.074)" fill="#fbae3c"/>
      <path id="Path_378" data-name="Path 378" d="M216.162,142.859s-9.833,6.155-6.222,29.7,7.566-5.352,7.566-5.352,3.808,39.068,12.1,39.6,0-63.954,0-63.954Z" transform="translate(-185.085 12.074)" fill="#fbae3c"/>
      <path id="Path_379" data-name="Path 379" d="M233.489,142.859s8.458,4.2,5.352,20.278-6.51-3.655-6.51-3.655-3.274,26.673-10.409,27.04,0-43.663,0-43.663Z" transform="translate(-178.139 12.074)" fill="#ffd880"/>
      <path id="Path_380" data-name="Path 380" d="M216.808,142.859s-8.458,4.2-5.352,20.278,6.51-3.655,6.51-3.655,3.274,26.673,10.411,27.04,0-43.663,0-43.663Z" transform="translate(-183.908 12.074)" fill="#ffd880"/>
      <ellipse id="Ellipse_66" data-name="Ellipse 66" cx="4.614" cy="29.614" rx="4.614" ry="29.614" transform="translate(38.779 115.916)" fill="#0065e0"/>
      <path id="Path_381" data-name="Path 381" d="M220.554,228.083c2.037,0,3.76-8.47,4.373-20.209h10.059v-9.058l.065-.091a25.711,25.711,0,0,0,3.25-5.231c18.033,16.314,14.224,45.037,20.9,30.7,7.225-15.519,6.422-42.547-1.07-49.236a23.162,23.162,0,0,0-11.768-5.829,148.56,148.56,0,0,0,2.624-28.289c0-19.987-3.672-37.92-9.489-50.2h.157l-18.766-37.7" transform="translate(-176.835 -52.94)" fill="#231f20" opacity="0.2"/>
    </g>
    <g id="Group_604" data-name="Group 604" transform="translate(407.493 304.553)">
      <g id="Group_600" data-name="Group 600" transform="translate(74.636)">
        <g id="Group_596" data-name="Group 596">
          <path id="Path_382" data-name="Path 382" d="M351.595,208.166a37.995,37.995,0,0,0-20.861-9.084c-3.839-.369-8.043.078-10.926,2.643-7.58,6.747-6.8,22.806-6.666,32.185.317,22.554,6.037,44.8,15.02,65.41a222.528,222.528,0,0,0,15.619,29.452c2.719,4.327,5.609,8.546,8.222,12.938,1.1,1.844,8.441,13.259,7.049,15.094,6.4-8.431,9.973-18.733,11.78-29.162,2.674-15.426,5.574-31.325,4.778-47.252-.818-16.374-3.227-32.777-8.286-48.407A52.678,52.678,0,0,0,351.595,208.166Z" transform="translate(-313.056 -198.969)" fill="#31d8f4"/>
          <g id="Group_595" data-name="Group 595" clip-path="url(#clip-path-2)">
            <g id="Group_594" data-name="Group 594" transform="translate(-11.934 -13.976)">
              <path id="Path_383" data-name="Path 383" d="M355.909,370.744c2.169-27.2-.214-54.577-5.434-81.308-4.981-25.5-11.458-51.076-21.171-75.21a231.667,231.667,0,0,0-10.878-23.368" transform="translate(-297.24 -190.858)" fill="none" stroke="#0065e0" stroke-miterlimit="10" stroke-width="1"/>
              <path id="Path_384" data-name="Path 384" d="M306.13,212.1a164.025,164.025,0,0,1,38,18.91c2.988,2.007,4.647,2.617,7.144,5.209" transform="translate(-306.13 -175.497)" fill="none" stroke="#0065e0" stroke-miterlimit="10" stroke-width="1"/>
              <path id="Path_385" data-name="Path 385" d="M354.017,249.722a112.069,112.069,0,0,0-42.609-16.083" transform="translate(-302.314 -159.926)" fill="none" stroke="#0065e0" stroke-miterlimit="10" stroke-width="1"/>
              <path id="Path_386" data-name="Path 386" d="M356.911,272.008a95.791,95.791,0,0,0-42.118-20.749" transform="translate(-299.866 -147.186)" fill="none" stroke="#0065e0" stroke-miterlimit="10" stroke-width="1"/>
              <path id="Path_387" data-name="Path 387" d="M331.94,243.111a119.1,119.1,0,0,1,10.193-41.768" transform="translate(-287.469 -183.277)" fill="none" stroke="#0065e0" stroke-miterlimit="10" stroke-width="1"/>
              <path id="Path_388" data-name="Path 388" d="M336.037,256.717a105.205,105.205,0,0,1,25.339-34.39" transform="translate(-284.506 -168.105)" fill="none" stroke="#0065e0" stroke-miterlimit="10" stroke-width="1"/>
              <path id="Path_389" data-name="Path 389" d="M339.7,276.729a39.4,39.4,0,0,1,4.258-11.487,70.605,70.605,0,0,1,8.527-11.46q3.373-3.892,6.866-7.683" transform="translate(-281.856 -150.917)" fill="none" stroke="#0065e0" stroke-miterlimit="10" stroke-width="1"/>
            </g>
          </g>
        </g>
        <g id="Group_599" data-name="Group 599" transform="translate(44.164 56.465)">
          <path id="Path_391" data-name="Path 391" d="M365.354,235.238a25.046,25.046,0,0,1,14.608-3.413c2.535.215,5.207,1.006,6.771,3.01,4.116,5.278,1.7,15.6.5,21.667-2.884,14.591-9.235,28.339-17.508,40.638A146.913,146.913,0,0,1,356.1,314.387c-2.276,2.483-4.65,4.876-6.868,7.414-.93,1.065-7.051,7.6-6.363,8.951-3.151-6.227-4.244-13.333-4.178-20.313.1-10.321.1-20.976,2.512-31.213a123.625,123.625,0,0,1,11.122-30.41A34.738,34.738,0,0,1,365.354,235.238Z" transform="translate(-338.687 -231.74)" fill="#0065e0"/>
          <g id="Group_598" data-name="Group 598" clip-path="url(#clip-path-3)">
            <g id="Group_597" data-name="Group 597" transform="translate(0.589 -8.054)">
              <path id="Path_392" data-name="Path 392" d="M340.279,339.282c1.823-17.9,6.618-35.37,13.18-52.087,6.258-15.947,13.5-31.764,22.661-46.265a152.785,152.785,0,0,1,9.83-13.864" transform="translate(-338.125 -227.066)" fill="none" stroke="#31d8f4" stroke-miterlimit="10" stroke-width="1"/>
              <path id="Path_393" data-name="Path 393" d="M385.723,242.305a108.183,108.183,0,0,0-26.888,7.752c-2.176.948-3.326,1.146-5.254,2.529" transform="translate(-328.507 -216.048)" fill="none" stroke="#31d8f4" stroke-miterlimit="10" stroke-width="1"/>
              <path id="Path_394" data-name="Path 394" d="M349.109,261.027a73.9,73.9,0,0,1,29.545-5.371" transform="translate(-331.741 -206.412)" fill="none" stroke="#31d8f4" stroke-miterlimit="10" stroke-width="1"/>
              <path id="Path_395" data-name="Path 395" d="M344.685,275.126a63.173,63.173,0,0,1,29.779-8.455" transform="translate(-334.939 -198.43)" fill="none" stroke="#31d8f4" stroke-miterlimit="10" stroke-width="1"/>
              <path id="Path_396" data-name="Path 396" d="M354.589,259.858a78.513,78.513,0,0,0-1.651-28.3" transform="translate(-328.972 -223.817)" fill="none" stroke="#31d8f4" stroke-miterlimit="10" stroke-width="1"/>
              <path id="Path_397" data-name="Path 397" d="M354.437,268.951a69.321,69.321,0,0,0-12.349-25.313" transform="translate(-336.817 -215.084)" fill="none" stroke="#31d8f4" stroke-miterlimit="10" stroke-width="1"/>
              <path id="Path_398" data-name="Path 398" d="M348.137,281.211a26,26,0,0,0-1.4-7.955,46.507,46.507,0,0,0-4.168-8.445q-1.727-2.926-3.541-5.8" transform="translate(-339.029 -203.967)" fill="none" stroke="#31d8f4" stroke-miterlimit="10" stroke-width="1"/>
            </g>
          </g>
        </g>
        <path id="Path_400" data-name="Path 400" d="M327.923,285.25h44.744c0,25.27-7.85,50.542-7.85,50.542H335.773S327.923,310.63,327.923,285.25Z" transform="translate(-302.307 -136.586)" fill="#ffd880"/>
        <rect id="Rectangle_135" data-name="Rectangle 135" width="51.546" height="6.803" transform="translate(73.76 148.664) rotate(180)" fill="#fbae3c"/>
      </g>
      <g id="Group_603" data-name="Group 603" transform="translate(0 36.552)">
        <g id="Group_601" data-name="Group 601" transform="translate(71.324 84.213)">
          <path id="Path_401" data-name="Path 401" d="M313.918,331.011c10.523-3.051,21.13-7.225,27.434-17.018,7.995-12.42,6.82-28.377-3.307-44.935l-10.422,6.613c5.669,9.268,12.752,21.352,5.315,32.9-4.747,7.378-13.745,10.488-21.8,12.823Z" transform="translate(-311.134 -269.058)" fill="#fab594"/>
        </g>
        <path id="Path_402" data-name="Path 402" d="M295.227,252.391a24.146,24.146,0,0,0,.258-3.8c-.059-4.892.236-9.882,1.983-14.451s5.138-8.71,9.737-10.374c2.045-.741,4.242-.974,6.3-1.677,6.887-2.355,13.912-3.251,20.084,1.6,3.749,2.95,6.13,7.287,8.05,11.655,3.73,8.489,6.089,18.218,3.086,26.99a17.894,17.894,0,0,0-.987,3.324c-.513,3.82,2.326,7.149,4.421,10.385,2.268,3.5,3.839,7.616,3.513,11.772a8.719,8.719,0,0,0,.777,6.51c1.845,4.614,1.2,8.986-2.776,12.116-3.8,2.989-8.963,3.455-13.8,3.463a105.359,105.359,0,0,1-29.927-4.285,52.491,52.491,0,0,1-10.591-4.192c-3.177-1.751-6.194-4.139-7.647-7.464-2.009-4.594-.588-10.081,2.219-14.236,1.311-1.938,2.941-3.756,3.517-6.024,1.075-4.233-1.334-8.436-.258-12.737A87.882,87.882,0,0,0,295.227,252.391Z" transform="translate(-257.428 -220.183)" fill="#151b35"/>
        <g id="Group_602" data-name="Group 602" transform="translate(16.161 84.213)">
          <path id="Path_403" data-name="Path 403" d="M311.8,331.011l2.784-9.613c-8.059-2.335-17.056-5.445-21.8-12.823-7.435-11.553-.644-23.886,5.024-33.155l-10.131-6.363c-10.125,16.558-11.3,32.515-3.306,44.935C290.668,323.787,301.275,327.96,311.8,331.011Z" transform="translate(-279.119 -269.058)" fill="#fab594"/>
        </g>
        <path id="Path_404" data-name="Path 404" d="M280.436,279.68c4.6,3.784,12.246,7.6,17.556,10.292-1.006-.508.072-13.96.464-15.342,1.4-4.942,4.282-9.84,5.369-14.775,1.627-7.388-12.394,4.833-13.81,6.377A66.939,66.939,0,0,0,280.436,279.68Z" transform="translate(-262.006 -193.202)" fill="#34abcd"/>
        <path id="Path_405" data-name="Path 405" d="M340.27,279.68c-4.6,3.784-12.439,7.059-17.749,9.747,1.006-.51.121-13.416-.272-14.8-1.4-4.942-4.28-9.84-5.367-14.775-1.628-7.388,12.394,4.833,13.81,6.377A66.94,66.94,0,0,1,340.27,279.68Z" transform="translate(-235.75 -193.202)" fill="#34abcd"/>
        <path id="Path_406" data-name="Path 406" d="M317.361,352.691c7.6-.2,15.087-1.048,22-4.063,3.134-1.366,6.3-3.429,7.38-6.673a14,14,0,0,0,.5-4.314c.04-5.424-.314-10.641-.038-16.047.284-5.579.289-11.169.364-16.755a198.112,198.112,0,0,0-1.527-28.621,18.314,18.314,0,0,0-1.182-4.468,12.278,12.278,0,0,0-2.419-3.906,18.412,18.412,0,0,0-3.468-2.624c-4.264-2.724-10.218-5.112-12.445-9.914a26.387,26.387,0,0,1-1.916-9.951,98.157,98.157,0,0,0-12.433-.086,22.964,22.964,0,0,1-.524,9.073,6.324,6.324,0,0,1-1.03,2.445,21,21,0,0,1-7.073,5.073,45.664,45.664,0,0,0-7.281,4.428c-2.009,1.473-3.415,4.034-4.525,6.273-3.083,6.22-3.236,13.431-3.329,20.371-.09,6.858-.222,13.915-.367,20.849-.21,10.05-.4,19.96-.364,30a9.93,9.93,0,0,0,.451,3.567,6.756,6.756,0,0,0,2.705,3.093c3.487,2.269,7.931,2.24,12.091,2.242C307.709,352.688,312.556,352.819,317.361,352.691Z" transform="translate(-256.765 -202.159)" fill="#34abcd"/>
        <path id="Path_407" data-name="Path 407" d="M299.254,261.241c-.264-.289-.5-.6-.741-.913a18.3,18.3,0,0,0,4.285-3.541,6.323,6.323,0,0,0,1.03-2.445,22.963,22.963,0,0,0,.524-9.073,98.158,98.158,0,0,1,12.433.086,26.385,26.385,0,0,0,1.916,9.951,14.338,14.338,0,0,0,5.229,5.571,13.221,13.221,0,0,1-3.425,2.752l-.093.052C313.9,267.155,304.537,267.03,299.254,261.241Z" transform="translate(-248.935 -202.159)" fill="#d99d81"/>
        <path id="Path_408" data-name="Path 408" d="M328.238,244.491a33.108,33.108,0,0,1-2.542,13.984c-2.364,5.011-6.809,9.12-12.015,9.794-5.283.682-10.281-2.371-12.905-7.226-4.983-9.22-5.447-24.2,2.149-32.1C314.969,216.416,327.99,230.147,328.238,244.491Z" transform="translate(-249.948 -217.4)" fill="#fab594"/>
        <path id="Path_409" data-name="Path 409" d="M291.245,324.907h58.862a3.757,3.757,0,0,0,3.739-3.391l4.128-42.238a3.757,3.757,0,0,0-3.739-4.121H287.117a3.757,3.757,0,0,0-3.739,4.121l4.13,42.238A3.756,3.756,0,0,0,291.245,324.907Z" transform="translate(-259.892 -180.436)" fill="#fff"/>
        <path id="Path_410" data-name="Path 410" d="M323.829,314.621c-.193-2.492,1.527-5.486,3.646-6.168,2.088-.672,4.673-.5,6.847-.663a47.976,47.976,0,0,1,12.142.291c3.524.638,8.024,1.766,7.9,6.858-.088,3.5-2.54,5.719-5.266,6.766-3.9,1.5-8.095,1.322-12.118.641C332.813,321.638,324.329,321.039,323.829,314.621Z" transform="translate(-230.642 -157.017)" fill="#0065e0"/>
        <path id="Path_411" data-name="Path 411" d="M310.829,328.324q-2.463-.592-4.9-1.261a168.893,168.893,0,0,1-16.327-5.384c-4.921-1.9-10.054-3.8-14.268-7.535-6.635-5.879-8.51-19.836.772-23.607,5.385-2.188,11.16-1.032,16.472.877,5.817,2.088,11.438,4.792,17.146,7.256,7.349,3.17,14.692,6.339,21.986,9.689a258.187,258.187,0,0,0,27.5,11.351.893.893,0,0,1,.493.3,1.243,1.243,0,0,1,.153.638c.055,1.011-.743,12.618-1.239,12.626-6.677.033-13.3-.364-19.968-.767A160.6,160.6,0,0,1,310.829,328.324Z" transform="translate(-269.739 -170.175)" fill="#1d133f"/>
        <path id="Path_412" data-name="Path 412" d="M321.322,320.408c.005-.079,4.011,0,4.294,0,2.579,0,6.613-.107,7.9-3.436.81-2.09.274-5.8-1.141-7.354-1.325-1.456-3.343-1.359-5-1.745-1.642-.383-3.319-.41-4.967-.729C322.408,307.144,321.322,320.4,321.322,320.408Z" transform="translate(-232.444 -157.308)" fill="#fab594"/>
        <path id="Path_413" data-name="Path 413" d="M300.274,314.621c.193-2.492-1.527-5.486-3.646-6.168-2.087-.672-4.673-.5-6.847-.663a47.976,47.976,0,0,0-12.142.291c-3.524.638-8.024,1.766-7.9,6.858.088,3.5,2.54,5.719,5.267,6.766,3.9,1.5,8.093,1.322,12.116.641C291.29,321.638,299.774,321.039,300.274,314.621Z" transform="translate(-269.739 -157.017)" fill="#0065e0"/>
        <path id="Path_414" data-name="Path 414" d="M338.271,328.324q2.463-.592,4.9-1.261a168.749,168.749,0,0,0,16.327-5.384c4.921-1.9,10.054-3.8,14.268-7.535,6.635-5.879,8.51-19.836-.772-23.607-5.384-2.188-11.16-1.032-16.472.877-5.817,2.088-11.437,4.792-17.146,7.256-7.347,3.17-14.692,6.339-21.986,9.689a258.187,258.187,0,0,1-27.5,11.351.894.894,0,0,0-.493.3,1.243,1.243,0,0,0-.153.638c-.055,1.011.743,12.618,1.239,12.626,6.677.033,13.3-.364,19.968-.767A160.6,160.6,0,0,0,338.271,328.324Z" transform="translate(-255.639 -170.175)" fill="#1d133f"/>
        <path id="Path_415" data-name="Path 415" d="M295.239,320.408c-.007-.079-4.011,0-4.294,0-2.579,0-6.613-.107-7.9-3.436-.808-2.09-.274-5.8,1.141-7.354,1.325-1.456,3.343-1.359,5-1.745,1.642-.383,3.318-.41,4.967-.729C294.154,307.144,295.239,320.4,295.239,320.408Z" transform="translate(-260.395 -157.308)" fill="#fab594"/>
        <path id="Path_416" data-name="Path 416" d="M313.363,240.085c-.868,2.74-.267,5.374,1.342,5.884s3.62-1.3,4.488-4.035.267-5.374-1.344-5.884S314.231,237.346,313.363,240.085Z" transform="translate(-238.486 -208.773)" fill="#fab594"/>
        <path id="Path_417" data-name="Path 417" d="M301.451,227.35a9.015,9.015,0,0,1,7.209-3.491q4.719-.271,9.439-.4a21.2,21.2,0,0,1,6.74.569,19.212,19.212,0,0,1,6.925,4.375,7.834,7.834,0,0,1,2.672,3.661c1,3.808-1.447,9.363-3.861,12.187-2.573-4.351-5-10.938-9.253-13.464a1.123,1.123,0,0,0-.588-.21c-.441.014-.727.5-.965.9-1.9,3.253-5.483,4.762-8.8,6.125a18.8,18.8,0,0,0-7.823,5.214c-2.843,3.408-3.443,7.478-3.446,11.8-.005,6.99.407,14.137-1.627,20.825-3.747-5.367-4.035-12.439-3.949-19.055a83.256,83.256,0,0,1,1.184-14.6,34.606,34.606,0,0,1,5.41-13.491C300.965,227.964,301.206,227.647,301.451,227.35Z" transform="translate(-252.113 -217.833)" fill="#151b35"/>
        <path id="Path_418" data-name="Path 418" d="M302.316,291.546a4.654,4.654,0,1,0,4.654-4.654A4.653,4.653,0,0,0,302.316,291.546Z" transform="translate(-246.186 -171.951)" fill="#0065e0"/>
      </g>
    </g>
  </g>
</svg>
