<svg xmlns="http://www.w3.org/2000/svg" width="63" height="63" viewBox="0 0 63 63">
  <g id="icon-4" transform="translate(-49 -971)">
    <g id="Path_422" data-name="Path 422" transform="translate(49 971)" fill="none">
      <path d="M31.5,0A31.5,31.5,0,1,1,0,31.5,31.5,31.5,0,0,1,31.5,0Z" stroke="none"/>
      <path d="M 31.5 1 C 27.3820915222168 1 23.38787841796875 1.806278228759766 19.62833023071289 3.396430969238281 C 15.99652862548828 4.932548522949219 12.7346305847168 7.131851196289062 9.933238983154297 9.933238983154297 C 7.131851196289062 12.7346305847168 4.932548522949219 15.99652862548828 3.396430969238281 19.62833023071289 C 1.806278228759766 23.38787841796875 1 27.3820915222168 1 31.5 C 1 35.61791229248047 1.806278228759766 39.61212158203125 3.396430969238281 43.37166976928711 C 4.932548522949219 47.00347137451172 7.131851196289062 50.2653694152832 9.933238983154297 53.0667610168457 C 12.7346305847168 55.86814880371094 15.99652862548828 58.06745147705078 19.62833023071289 59.60356903076172 C 23.38787841796875 61.19372177124023 27.3820915222168 62 31.5 62 C 35.61791229248047 62 39.61212158203125 61.19372177124023 43.37166976928711 59.60356903076172 C 47.00347137451172 58.06745147705078 50.2653694152832 55.86814880371094 53.0667610168457 53.0667610168457 C 55.86814880371094 50.2653694152832 58.06745147705078 47.00347137451172 59.60356903076172 43.37166976928711 C 61.19372177124023 39.61212158203125 62 35.61791229248047 62 31.5 C 62 27.3820915222168 61.19372177124023 23.38787841796875 59.60356903076172 19.62833023071289 C 58.06745147705078 15.99652862548828 55.86814880371094 12.7346305847168 53.0667610168457 9.933238983154297 C 50.2653694152832 7.131851196289062 47.00347137451172 4.932548522949219 43.37166976928711 3.396430969238281 C 39.61212158203125 1.806278228759766 35.61791229248047 1 31.5 1 M 31.5 0 C 48.89696884155273 0 63 14.10303115844727 63 31.5 C 63 48.89696884155273 48.89696884155273 63 31.5 63 C 14.10303115844727 63 0 48.89696884155273 0 31.5 C 0 14.10303115844727 14.10303115844727 0 31.5 0 Z" stroke="none" fill="#1f8fbb"/>
    </g>
    <path id="Icon_material-ondemand-video" data-name="Icon material-ondemand-video" d="M29.513,4.5H4.3A2.886,2.886,0,0,0,1.5,7.483v17.9a2.9,2.9,0,0,0,2.8,2.983h7v2.983H22.51V28.365h7A2.894,2.894,0,0,0,32.3,25.382l.014-17.9A2.9,2.9,0,0,0,29.513,4.5Zm0,20.882H4.3V7.483H29.513Zm-7-8.949-9.8,5.966V10.466Z" transform="translate(63.593 985.246)" fill="#1f8fbb"/>
  </g>
</svg>
