<svg xmlns="http://www.w3.org/2000/svg" width="63" height="63" viewBox="0 0 63 63">
  <g id="Group_609" data-name="Group 609" transform="translate(-733 -966)">
    <g id="Group_58" data-name="Group 58" transform="translate(26 -6)">
      <g id="Path_421" data-name="Path 421" transform="translate(707 972)" fill="none">
        <path d="M31.5,0A31.5,31.5,0,1,1,0,31.5,31.5,31.5,0,0,1,31.5,0Z" stroke="none"/>
        <path d="M 31.5 1 C 27.3820915222168 1 23.38787841796875 1.806278228759766 19.62833023071289 3.396430969238281 C 15.99652862548828 4.932548522949219 12.7346305847168 7.131851196289062 9.933238983154297 9.933238983154297 C 7.131851196289062 12.7346305847168 4.932548522949219 15.99652862548828 3.396430969238281 19.62833023071289 C 1.806278228759766 23.38787841796875 1 27.3820915222168 1 31.5 C 1 35.61791229248047 1.806278228759766 39.61212158203125 3.396430969238281 43.37166976928711 C 4.932548522949219 47.00347137451172 7.131851196289062 50.2653694152832 9.933238983154297 53.0667610168457 C 12.7346305847168 55.86814880371094 15.99652862548828 58.06745147705078 19.62833023071289 59.60356903076172 C 23.38787841796875 61.19372177124023 27.3820915222168 62 31.5 62 C 35.61791229248047 62 39.61212158203125 61.19372177124023 43.37166976928711 59.60356903076172 C 47.00347137451172 58.06745147705078 50.2653694152832 55.86814880371094 53.0667610168457 53.0667610168457 C 55.86814880371094 50.2653694152832 58.06745147705078 47.00347137451172 59.60356903076172 43.37166976928711 C 61.19372177124023 39.61212158203125 62 35.61791229248047 62 31.5 C 62 27.3820915222168 61.19372177124023 23.38787841796875 59.60356903076172 19.62833023071289 C 58.06745147705078 15.99652862548828 55.86814880371094 12.7346305847168 53.0667610168457 9.933238983154297 C 50.2653694152832 7.131851196289062 47.00347137451172 4.932548522949219 43.37166976928711 3.396430969238281 C 39.61212158203125 1.806278228759766 35.61791229248047 1 31.5 1 M 31.5 0 C 48.89696884155273 0 63 14.10303115844727 63 31.5 C 63 48.89696884155273 48.89696884155273 63 31.5 63 C 14.10303115844727 63 0 48.89696884155273 0 31.5 C 0 14.10303115844727 14.10303115844727 0 31.5 0 Z" stroke="none" fill="#1f8fbb"/>
      </g>
      <g id="Icon_feather-check-circle" data-name="Icon feather-check-circle" transform="translate(722.667 987.666)">
        <path id="Path_58" data-name="Path 58" d="M34.667,17.377v1.457A15.833,15.833,0,1,1,25.277,4.362" transform="translate(-3 -2.991)" fill="none" stroke="#1f8fbb" stroke-linecap="round" stroke-linejoin="round" stroke-width="3"/>
        <path id="Path_59" data-name="Path 59" d="M34.083,6,18.25,21.849,13.5,17.1" transform="translate(-2.417 -2.823)" fill="none" stroke="#1f8fbb" stroke-linecap="round" stroke-linejoin="round" stroke-width="3"/>
      </g>
    </g>
  </g>
</svg>
