<?xml version="1.0" encoding="utf-8"?>
<!-- Generator: Adobe Illustrator 19.0.0, SVG Export Plug-In . SVG Version: 6.00 Build 0)  -->
<svg version="1.1" id="Layer_1" xmlns="http://www.w3.org/2000/svg" xmlns:xlink="http://www.w3.org/1999/xlink" x="0px" y="0px"
	 viewBox="0 0 636 196.5" style="enable-background:new 0 0 636 196.5;" xml:space="preserve">
<style type="text/css">
	.st0{fill:#FFFFFF;}
	.st1{opacity:0.3;}
	.st2{clip-path:url(#SVGID_2_);fill:#282828;}
	.st3{clip-path:url(#SVGID_4_);fill:url(#SVGID_5_);}
	.st4{clip-path:url(#SVGID_7_);fill:url(#SVGID_8_);}
	.st5{clip-path:url(#SVGID_11_);fill:url(#SVGID_12_);stroke:url(#SVGID_13_);stroke-width:4;stroke-miterlimit:10;}
	.st6{fill:url(#SVGID_15_);}
</style>
<g>
	<path class="st0" d="M336.9,25.9v131.9c0,1.6,0.9,3.1,2.3,3.7c0.7,0.3,1.4,0.5,2.2,0.5h17.7c0.8,0,1.6-0.2,2.2-0.5
		c1.4-0.6,2.3-2.1,2.3-3.7l1.5-134.2c0-5.8-4.2-9.8-6.9-9.5l-17.1,4C338.9,18.4,336.9,20.5,336.9,25.9"/>
	<path class="st0" d="M341.8,63.8c0,0-63.8-7.6-70.4,41.5c0,0-3.8,44.2,36.6,51.3c0,0,17.5,4.4,33.8-12.6v-6.4
		c0,0-29.2,16-38.5-21.6c0,0-9.8-43.8,38.5-43.9V63.8z"/>
	<path class="st0" d="M380.8,68.9v69.8v3.1c0,6,7.7,33.4,46.2,13.7c0.1-0.1,0.2-0.1,0.4-0.2l12.4-7.5v9.1c0,2.8,2.3,5.1,5.1,5.1
		h18.7c2.8,0,5.1-2.3,5.1-5.1v-88c0-2.8-2.3-5.1-5.1-5.1h-18.6c-2.9,0-5.2,2.3-5.1,5.2l1.1,63c0.1,6.1-3.5,11.7-9.2,13.9
		c-5.5,2.2-12.6,2.5-18.9-4.8c-0.1-0.1-0.2-0.2-0.3-0.4c-0.9-1.2-3.9-6.1-4.5-14.8l0.2-57.3c0-2.9-2.3-5.2-5.2-5.1l-17.3,0.2
		C383,63.8,380.8,66.1,380.8,68.9"/>
	<path class="st0" d="M196.5,107.8l53.6-3.7c3.4-0.2,6.1-3.1,6.1-6.5c0-12-3.1-37.7-30.3-39.6c0,0-39.4-2.9-51.7,32.8
		c0,0-19,52.8,25,69.8c0,0,35.2,13.4,57.8-26.4C257.1,134.3,201.9,165.8,196.5,107.8 M218.2,69.6c9.2,2.4,12.3,12.1,13.3,18.1
		c0.5,2.6-1.4,5.1-4.1,5.4l-23.1,2.2c-2.8,0.3-5.1-2-5-4.7c0.3-13.4,8.8-18.6,13.3-20.5C214.3,69.3,216.3,69.2,218.2,69.6"/>
	<path class="st0" d="M11,15.4V157c0,3.4,2.6,6.1,5.7,6.1h15.8c3.2,0,5.7-2.7,5.7-6.1V59.4c0-1.4,1.7-1.9,2.4-0.7l7,12
		c1.8,3.1,6,3.3,8,0.4L64.4,59c1.4-2,1.6-4.6,0.5-6.8L47.5,16.8c-0.9-1.9-2.8-3.1-4.8-3.1h-30C11.8,13.7,11,14.4,11,15.4"/>
	<path class="st0" d="M153.9,18.8v139.6c0,2.5-2,4.5-4.6,4.5h-18.6c-2.5,0-4.6-2-4.6-4.5V18.8c0-2.5,2.1-4.5,4.6-4.5h18.6
		C151.8,14.3,153.9,16.3,153.9,18.8"/>
	<g class="st1">
		<g>
			<defs>
				<rect id="SVGID_1_" x="126.1" y="14" width="27.7" height="80.7"/>
			</defs>
			<clipPath id="SVGID_2_">
				<use xlink:href="#SVGID_1_"  style="overflow:visible;"/>
			</clipPath>
			<path class="st2" d="M153.7,17.2c0-0.1,0-0.1,0-0.2c0,0,0-0.1-0.1-0.1c-0.1-0.1-0.2-0.3-0.2-0.5c0-0.1-0.1-0.1-0.1-0.2
				c-0.1-0.1-0.2-0.2-0.2-0.4l0,0c-0.1-0.1-0.2-0.2-0.2-0.3c0,0-0.1-0.1-0.1-0.2c-0.2-0.2-0.3-0.3-0.5-0.5c-0.2-0.1-0.4-0.3-0.5-0.4
				c-0.1-0.1-0.3-0.3-0.4-0.4l-24.8,51.7c0,0.1-0.6,1.7-0.6,1.8v27.1c0,0.1,0.1,0.1,0.1,0l27.6-51.9V17.6
				C153.7,17.5,153.7,17.3,153.7,17.2"/>
		</g>
	</g>
	<g>
		<defs>
			<path id="SVGID_3_" d="M127.3,14.2c-0.8,0-1.5,0.4-1.8,1.1l-36.9,74c-0.7,1.4-2.6,1.5-3.5,0.2L73.7,71.4c-0.8-1.2-2.6-1.2-3.4,0
				L59,88.5c-0.4,0.6-0.4,1.4-0.1,2.1l26,46.5c0.8,1.4,2.8,1.4,3.5,0l64.3-119.9c0.4-0.7,0.3-1.5-0.1-2.1c-0.1-0.1-0.2-0.2-0.3-0.3
				c-0.1-0.1-0.2-0.2-0.3-0.3c-0.3-0.2-0.7-0.4-1.1-0.4H127.3z"/>
		</defs>
		<clipPath id="SVGID_4_">
			<use xlink:href="#SVGID_3_"  style="overflow:visible;"/>
		</clipPath>
		
			<linearGradient id="SVGID_5_" gradientUnits="userSpaceOnUse" x1="-189.6008" y1="341.8916" x2="-189.0551" y2="341.8916" gradientTransform="matrix(172.9164 0 0 -172.9164 32843.8203 59194.7539)">
			<stop  offset="0" style="stop-color:#3EBFB4"/>
			<stop  offset="1" style="stop-color:#1884BD"/>
		</linearGradient>
		<rect x="58.6" y="13.8" class="st3" width="94.6" height="124.6"/>
	</g>
	<g>
		<defs>
			<path id="SVGID_6_" d="M547.1,181.1v-2.1h5.8c2.3,0,4.2-1.9,4.2-4.2c0-2.3-1.9-4.2-4.2-4.2h-29.4c-2.3,0-4.2,1.9-4.2,4.2
				c0,2.3,1.9,4.2,4.2,4.2h5.8v2.1c0,5,4,9,9,9C543.1,190.1,547.1,186.1,547.1,181.1"/>
		</defs>
		<clipPath id="SVGID_7_">
			<use xlink:href="#SVGID_6_"  style="overflow:visible;"/>
		</clipPath>
		
			<linearGradient id="SVGID_8_" gradientUnits="userSpaceOnUse" x1="-189.3706" y1="350.3195" x2="-188.5957" y2="350.3195" gradientTransform="matrix(-48.8994 0 0 48.8994 -8703.0615 -16950.0742)">
			<stop  offset="0" style="stop-color:#3EBFB4"/>
			<stop  offset="1" style="stop-color:#1884BD"/>
		</linearGradient>
		<rect x="519.2" y="170.6" class="st4" width="37.9" height="19.5"/>
	</g>
	<path class="st0" d="M520.5,90.2l0.2,0c4.1,0,8.4,5,11.9,9c0.8,0.9,1.5,1.8,2.1,2.4c0.9,0.9,1.6,1.9,2.2,2.6
		c0.1,0.1,0.2,0.2,0.3,0.4c0.5-0.6,1.1-1.3,1.5-1.8c0.5-0.5,0.8-1,1.1-1.3c0.4-0.5,1.1-1.1,1.8-1.9c4.7-5.1,8.8-9.4,11.7-9.4h0.1
		c2.1,0,4.6,1.4,5.3,4c1.1,4.5-3.8,8.8-6.8,11.4c-0.5,0.5-1,0.9-1.2,1.1c-1.4,1.4-2.4,2.5-3.4,3.4c-1.5,1.6-2.9,2.9-5.1,5.3l0,17.2
		c0,0.8,0,1.9,0.1,2.9c0.2,5.6,0.5,13.2-4.7,13.4c-0.1,0-0.2,0-0.2,0c-1.2,0-2.2-0.5-3-1.3c-2.2-2.4-2.1-7.1-1.9-12.6
		c0-0.9,0.1-1.8,0.1-2.4c0-1.5,0.1-3.3,0.3-5.2c0.3-4,0.6-8.9-0.2-11.8c-0.2-0.7-1.6-2-2.6-2.9c-0.4-0.4-0.8-0.7-1.2-1.1
		c-3.3-3.1-5.6-5.5-9-9l-0.1-0.1c-2.1-2.1-3.9-4.2-4-6.3c0-1.6,0.5-3.2,1.6-4.3C518,90.8,519.3,90.2,520.5,90.2"/>
	<g>
		<defs>
			<path id="SVGID_9_" d="M539,55.7c18.9,0.6,35.5,16.6,36.9,35.7c1.4,18.9-8.6,29.6-17.2,35.3c-1.2,0.8-2.4,1.4-3.6,2
				c-4.3,2.2-8,4.1-6.5,12.9c0,0,0,0,0,0c-1.6,0.4-3.2,0.7-4.9,0.9h-13.1c-1.7-0.2-3.3-0.5-4.9-0.9c-0.1,0-0.2,0-0.3-0.1
				c-0.1-1.2,0-2.4,0.1-3.5c0.2-2.1,0.3-4-0.6-5.8c-0.6-1.2-2.4-2.1-4.2-3c-0.4-0.2-0.7-0.4-1-0.5c-9.5-5-20.9-14.8-21.4-33.3
				c-0.3-10.7,3.6-20.6,10.8-28c7.4-7.6,17.6-11.8,28.6-11.8C538.1,55.6,538.5,55.6,539,55.7 M560.7,148.9c0.1-0.1,0.1-0.2,0.2-0.3
				c0.7-1.5,0.6-3.6,0.5-5.5c0-0.9-0.1-1.7,0-2.5c1.5-1.5,3.2-2.5,4.8-3.4c1.2-0.7,2.5-1.5,3.7-2.5c13.2-11.1,20.3-27.8,19.1-44.7
				c-0.9-12-6-22.7-15.2-31.8c-10.5-10.3-22.5-15.4-36.8-15.4c-1.5,0-3,0.1-4.5,0.2c-12.2,0.9-23.7,6.2-32.6,15
				c-8.7,8.7-13.9,19.9-14.8,31.5c-1.6,21,7.7,38.1,27.6,50.9c0,0.7,0,1.6-0.1,2.4c-0.1,2-0.2,4,0.6,5.5c0,0,0,0.1,0.1,0.1
				c5,7.2,19.6,7.8,23.9,7.8C545.6,156.2,556.2,154.3,560.7,148.9"/>
		</defs>
		
			<linearGradient id="SVGID_10_" gradientUnits="userSpaceOnUse" x1="510.6357" y1="-404.8324" x2="614.8281" y2="-404.8324" gradientTransform="matrix(-1 0 0 -1 1099.8038 -305.3662)">
			<stop  offset="0" style="stop-color:#3EBFB4"/>
			<stop  offset="1" style="stop-color:#1884BD"/>
		</linearGradient>
		<use xlink:href="#SVGID_9_"  style="overflow:visible;fill:url(#SVGID_10_);"/>
		<clipPath id="SVGID_11_">
			<use xlink:href="#SVGID_9_"  style="overflow:visible;"/>
		</clipPath>
		
			<linearGradient id="SVGID_12_" gradientUnits="userSpaceOnUse" x1="509.555" y1="-404.8324" x2="616.2668" y2="-404.8324" gradientTransform="matrix(-1 0 0 -1 1099.8038 -305.3662)">
			<stop  offset="0" style="stop-color:#3EBFB4"/>
			<stop  offset="1" style="stop-color:#1884BD"/>
		</linearGradient>
		
			<linearGradient id="SVGID_13_" gradientUnits="userSpaceOnUse" x1="507.555" y1="-404.8324" x2="618.2668" y2="-404.8324" gradientTransform="matrix(-1 0 0 -1 1099.8038 -305.3662)">
			<stop  offset="0" style="stop-color:#3EBFB4"/>
			<stop  offset="1" style="stop-color:#1884BD"/>
		</linearGradient>
		<rect x="483.5" y="42.8" class="st5" width="106.7" height="113.4"/>
		
			<linearGradient id="SVGID_14_" gradientUnits="userSpaceOnUse" x1="508.6357" y1="-404.8324" x2="616.8281" y2="-404.8324" gradientTransform="matrix(-1 0 0 -1 1099.8038 -305.3662)">
			<stop  offset="0" style="stop-color:#3EBFB4"/>
			<stop  offset="1" style="stop-color:#1884BD"/>
		</linearGradient>
		<use xlink:href="#SVGID_9_"  style="overflow:visible;fill:none;stroke:url(#SVGID_14_);stroke-width:4;stroke-miterlimit:10;"/>
	</g>
	<path class="st0" d="M521.4,160.8h31.8c2.5,0,4.6,1.7,4.6,3.8c0,2.1-2,3.8-4.6,3.8h-31.8c-2.5,0-4.6-1.7-4.6-3.8
		C516.8,162.5,518.9,160.8,521.4,160.8"/>
	<linearGradient id="SVGID_15_" gradientUnits="userSpaceOnUse" x1="600.539" y1="66.586" x2="625.2109" y2="66.586">
		<stop  offset="0" style="stop-color:#3EBFB4"/>
		<stop  offset="1" style="stop-color:#1884BD"/>
	</linearGradient>
	<path class="st6" d="M605.8,73.3l16.7-5.8c2.1-0.7,3.2-3,2.4-5.1c-0.7-2.1-3-3.2-5.1-2.4l-16.7,5.8c-2.1,0.7-3.2,3-2.4,5.1
		c0.6,1.6,2.1,2.7,3.8,2.7C605,73.5,605.4,73.4,605.8,73.3z"/>
	<path class="st0" d="M623.9,117.1l-17-4.9c-2.1-0.6-4.3,0.6-4.9,2.7c-0.6,2.1,0.6,4.3,2.7,4.9l17,4.9c0.4,0.1,0.7,0.2,1.1,0.2
		c1.7,0,3.3-1.1,3.8-2.9C627.2,120,626,117.8,623.9,117.1z"/>
	<path class="st0" d="M576,36c0.6,0.4,1.3,0.6,2,0.6c1.1,0,2.2-0.5,2.9-1.5l9.1-12.7c1.1-1.6,0.8-3.8-0.8-4.9
		c-1.6-1.1-3.8-0.8-4.9,0.8l-9.1,12.7C574,32.7,574.4,34.9,576,36z"/>
</g>
</svg>
