<svg xmlns="http://www.w3.org/2000/svg" xmlns:xlink="http://www.w3.org/1999/xlink" width="119.272" height="34.174" viewBox="0 0 119.272 34.174">
  <defs>
    <clipPath id="clip-path">
      <rect id="Rectangle_2" data-name="Rectangle 2" width="5.359" height="15.627" fill="#fff"/>
    </clipPath>
    <clipPath id="clip-path-2">
      <path id="Path_8" data-name="Path 8" d="M262.086,180.962a.388.388,0,0,0-.347.215L254.6,195.513a.388.388,0,0,1-.675.034l-2.217-3.508a.388.388,0,0,0-.652-.006l-2.182,3.317a.388.388,0,0,0-.015.4l5.036,9.006a.388.388,0,0,0,.68-.005l12.464-23.22a.384.384,0,0,0-.02-.4.333.333,0,0,1-.048-.05.363.363,0,0,1-.053-.054.382.382,0,0,0-.22-.069Z" transform="translate(-248.806 -180.962)" fill="#fff"/>
    </clipPath>
    <clipPath id="clip-path-3">
      <path id="Path_9" data-name="Path 9" d="M714.668,339.42v-.4h1.114a.82.82,0,0,0,0-1.641h-5.7a.82.82,0,0,0,0,1.641H711.2v.4a1.736,1.736,0,1,0,3.472,0" transform="translate(-709.261 -337.382)" fill="#fff"/>
    </clipPath>
    <clipPath id="clip-path-4">
      <path id="Path_12" data-name="Path 12" d="M685.542,212.058a7.61,7.61,0,0,1,7.154,6.919,7.119,7.119,0,0,1-3.339,6.839,7.5,7.5,0,0,1-.689.389,1.943,1.943,0,0,0-1.268,2.5h0a8.365,8.365,0,0,1-.944.17h-2.547a8.387,8.387,0,0,1-.944-.17l-.06-.013a4.89,4.89,0,0,1,.022-.683,2.023,2.023,0,0,0-.113-1.117,1.808,1.808,0,0,0-.808-.579c-.07-.034-.138-.069-.2-.1a7.253,7.253,0,0,1-4.14-6.442,7.431,7.431,0,0,1,2.094-5.433,7.649,7.649,0,0,1,5.538-2.285c.082,0,.164,0,.247,0m4.219,18.067a.267.267,0,0,0,.036-.054A2.422,2.422,0,0,0,689.9,229c-.007-.172-.013-.337-.007-.485a4.39,4.39,0,0,1,.922-.666,5.1,5.1,0,0,0,.722-.485,10.417,10.417,0,0,0,3.7-8.666,9.418,9.418,0,0,0-2.948-6.154,9.73,9.73,0,0,0-7.123-2.977c-.285,0-.578.011-.871.032a9.951,9.951,0,0,0-6.306,2.907,9.733,9.733,0,0,0-2.876,6.109c-.314,4.068,1.486,7.382,5.348,9.853.005.145,0,.31-.011.471a2.169,2.169,0,0,0,.112,1.064.227.227,0,0,0,.015.025c.971,1.394,3.8,1.5,4.638,1.5,1.615,0,3.656-.368,4.54-1.4" transform="translate(-675.083 -209.563)" fill="#fff" stroke="#707070" stroke-miterlimit="10" stroke-width="4"/>
    </clipPath>
  </defs>
  <g id="Group_10" data-name="Group 10" transform="translate(-201.126 -180.449)">
    <path id="Path_1" data-name="Path 1" d="M527.017,183.132v25.55a.792.792,0,0,0,.446.726,1.03,1.03,0,0,0,.43.1h3.437a1.039,1.039,0,0,0,.431-.1.793.793,0,0,0,.45-.718l.284-26c.006-1.12-.811-1.905-1.335-1.842l-3.314.778c-.443.054-.828.472-.828,1.506" transform="translate(-262.761 -0.32)" fill="#fff"/>
    <path id="Path_2" data-name="Path 2" d="M475.1,230.2s-12.366-1.48-13.634,8.032c0,0-.74,8.561,7.081,9.935,0,0,3.382.845,6.553-2.445v-1.244s-5.654,3.107-7.451-4.186c0,0-1.9-8.487,7.451-8.508Z" transform="translate(-209.893 -40.049)" fill="#fff"/>
    <path id="Path_3" data-name="Path 3" d="M570.857,231.414v14.135c0,1.163,1.484,6.469,8.948,2.66.023-.011.047-.025.069-.038l2.4-1.459v1.759a.989.989,0,0,0,.989.989h3.624a.989.989,0,0,0,.989-.989V231.423a.988.988,0,0,0-.989-.989h-3.607a.988.988,0,0,0-.988,1.007l.219,12.211a2.827,2.827,0,0,1-1.779,2.691,3.038,3.038,0,0,1-3.662-.921c-.02-.023-.039-.047-.057-.073a5.555,5.555,0,0,1-.869-2.865l.044-11.095a.988.988,0,0,0-1-1l-3.351.033a.988.988,0,0,0-.979.989" transform="translate(-298.109 -40.268)" fill="#fff"/>
    <path id="Path_4" data-name="Path 4" d="M365.433,234.393l10.386-.707A1.266,1.266,0,0,0,377,232.43c.007-2.325-.6-7.31-5.861-7.678,0,0-7.624-.571-10.008,6.353,0,0-3.685,10.231,4.846,13.53,0,0,6.824,2.6,11.2-5.111,0,0-10.7,6.1-11.743-5.131m4.195-7.39c1.783.457,2.384,2.342,2.586,3.511a.889.889,0,0,1-.794,1.037l-4.482.417a.893.893,0,0,1-.972-.916,4.118,4.118,0,0,1,2.572-3.965,1.735,1.735,0,0,1,1.09-.084" transform="translate(-128.372 -35.712)" fill="#fff"/>
    <path id="Path_5" data-name="Path 5" d="M201.126,180.785v27.431a1.144,1.144,0,0,0,1.111,1.174H205.3a1.144,1.144,0,0,0,1.111-1.174v-18.9a.248.248,0,0,1,.463-.139l1.351,2.321a.914.914,0,0,0,1.554.079l1.679-2.346a1.3,1.3,0,0,0,.105-1.324l-3.378-6.861a1.049,1.049,0,0,0-.934-.6h-5.808a.327.327,0,0,0-.318.336" fill="#fff"/>
    <path id="Path_6" data-name="Path 6" d="M321.57,181.986v27.035a.881.881,0,0,1-.887.874h-3.611a.881.881,0,0,1-.887-.874V181.986a.881.881,0,0,1,.887-.875h3.611a.881.881,0,0,1,.887.875" transform="translate(-92.771 -0.534)" fill="#fff"/>
    <g id="Group_3" data-name="Group 3" transform="translate(223.415 180.518)" opacity="0.3">
      <g id="Group_2" data-name="Group 2" transform="translate(0 0)">
        <g id="Group_1" data-name="Group 1" clip-path="url(#clip-path)">
          <path id="Path_7" data-name="Path 7" d="M321.531,181.416a.2.2,0,0,1-.008-.031c0-.008-.007-.016-.011-.024a.217.217,0,0,1-.039-.091.209.209,0,0,1-.017-.032.205.205,0,0,1-.043-.075h0a.183.183,0,0,1-.043-.054.177.177,0,0,1-.019-.03.974.974,0,0,0-.188-.191.371.371,0,0,1-.07-.081l-4.8,10.02c0,.01-.107.338-.107.349v5.246a.012.012,0,0,0,.022.006l5.337-10.045v-4.874a.208.208,0,0,1-.014-.091" transform="translate(-316.186 -180.806)" fill="#fff"/>
        </g>
      </g>
    </g>
    <g id="Group_5" data-name="Group 5" transform="translate(210.362 180.548)">
      <g id="Group_4" data-name="Group 4" transform="translate(0 0)" clip-path="url(#clip-path-2)">
        <rect id="Rectangle_3" data-name="Rectangle 3" width="18.324" height="24.139" transform="translate(-0.021 -0.075)" fill="#fff"/>
      </g>
    </g>
    <g id="Group_7" data-name="Group 7" transform="translate(299.559 210.849)">
      <g id="Group_6" data-name="Group 6" transform="translate(0 0)" clip-path="url(#clip-path-3)">
        <rect id="Rectangle_4" data-name="Rectangle 4" width="7.341" height="3.774" transform="translate(0 0)" fill="#fff"/>
      </g>
    </g>
    <path id="Path_10" data-name="Path 10" d="M706.606,256.941h.031c.791,0,1.634.965,2.31,1.739.153.175.3.34.415.462a5.782,5.782,0,0,1,.426.513l.054.07c.1-.109.221-.253.293-.339.088-.1.158-.188.21-.242.087-.089.2-.219.342-.371.9-1,1.7-1.822,2.266-1.821h.012a1.069,1.069,0,0,1,1.019.772c.212.866-.746,1.706-1.318,2.209-.1.09-.192.168-.239.217-.267.276-.468.478-.651.663-.3.3-.557.563-1,1.032l-.006,3.323c0,.163.008.361.017.57.045,1.075.106,2.548-.9,2.594h-.043a.779.779,0,0,1-.586-.26,3.68,3.68,0,0,1-.365-2.45c.009-.182.016-.34.017-.459,0-.29.024-.643.049-1.017a8.655,8.655,0,0,0-.031-2.283,2.008,2.008,0,0,0-.511-.566c-.078-.07-.155-.139-.226-.207-.631-.6-1.089-1.059-1.75-1.746l-.027-.028a2.188,2.188,0,0,1-.767-1.221,1.189,1.189,0,0,1,.3-.833.942.942,0,0,1,.657-.323" transform="translate(-406.788 -61.674)" fill="#fff"/>
    <g id="Group_9" data-name="Group 9" transform="translate(292.938 186.089)">
      <path id="Path_11" data-name="Path 11" d="M685.542,212.058a7.61,7.61,0,0,1,7.154,6.919,7.119,7.119,0,0,1-3.339,6.839,7.5,7.5,0,0,1-.689.389,1.943,1.943,0,0,0-1.268,2.5h0a8.365,8.365,0,0,1-.944.17h-2.547a8.387,8.387,0,0,1-.944-.17l-.06-.013a4.89,4.89,0,0,1,.022-.683,2.023,2.023,0,0,0-.113-1.117,1.808,1.808,0,0,0-.808-.579c-.07-.034-.138-.069-.2-.1a7.253,7.253,0,0,1-4.14-6.442,7.431,7.431,0,0,1,2.094-5.433,7.649,7.649,0,0,1,5.538-2.285c.082,0,.164,0,.247,0m4.219,18.067a.267.267,0,0,0,.036-.054A2.422,2.422,0,0,0,689.9,229c-.007-.172-.013-.337-.007-.485a4.39,4.39,0,0,1,.922-.666,5.1,5.1,0,0,0,.722-.485,10.417,10.417,0,0,0,3.7-8.666,9.418,9.418,0,0,0-2.948-6.154,9.73,9.73,0,0,0-7.123-2.977c-.285,0-.578.011-.871.032a9.951,9.951,0,0,0-6.306,2.907,9.733,9.733,0,0,0-2.876,6.109c-.314,4.068,1.486,7.382,5.348,9.853.005.145,0,.31-.011.471a2.169,2.169,0,0,0,.112,1.064.227.227,0,0,0,.015.025c.971,1.394,3.8,1.5,4.638,1.5,1.615,0,3.656-.368,4.54-1.4" transform="translate(-675.083 -209.563)" fill="#fff"/>
    </g>
    <path id="Path_14" data-name="Path 14" d="M707.8,327.589h6.161a.744.744,0,1,1,0,1.46H707.8a.744.744,0,1,1,0-1.46" transform="translate(-407.808 -118.637)" fill="#fff"/>
    <path id="Path_15" data-name="Path 15" d="M791.669,229.109l3.238-1.128a.771.771,0,0,0-.507-1.456l-3.238,1.128a.77.77,0,1,0,.507,1.455Z" transform="translate(-475.321 -37.116)" fill="#fff"/>
    <path id="Path_16" data-name="Path 16" d="M796.158,279.822l-3.294-.956a.77.77,0,1,0-.429,1.48l3.294.956a.77.77,0,1,0,.43-1.479Z" transform="translate(-476.316 -79.328)" fill="#fff"/>
    <path id="Path_17" data-name="Path 17" d="M764.9,187.373a.673.673,0,0,0,.393.126.681.681,0,0,0,.556-.286l1.754-2.469a.681.681,0,0,0-1.11-.789l-1.754,2.469A.681.681,0,0,0,764.9,187.373Z" transform="translate(-454.334 -2.595)" fill="#fff"/>
  </g>
</svg>
