<svg xmlns="http://www.w3.org/2000/svg" xmlns:xlink="http://www.w3.org/1999/xlink" width="1365.915" height="576" viewBox="0 0 1365.915 576">
  <defs>
    <clipPath id="clip-path">
      <rect id="Rectangle_62" data-name="Rectangle 62" width="1365.915" height="576" transform="translate(0 1509)" fill="#1a1a1a"/>
    </clipPath>
    <clipPath id="clip-path-2">
      <rect id="Rectangle_138" data-name="Rectangle 138" width="1365.915" height="576" transform="translate(0 1509)" fill="#1f8fbb"/>
    </clipPath>
  </defs>
  <g id="Group_610" data-name="Group 610" transform="translate(0 -1510.997)">
    <g id="Mask_Group_1" data-name="Mask Group 1" transform="translate(0 1.997)" clip-path="url(#clip-path)">
      <g id="rainbow-vortex" transform="translate(1727.5 2626.5)">
        <rect id="Rectangle_136" data-name="Rectangle 136" width="884" height="442" transform="translate(-805.5 -805.5)" fill="#1c9b90"/>
        <g id="Group_606" data-name="Group 606" transform="translate(-1800 -1800)">
          <circle id="Ellipse_67" data-name="Ellipse 67" cx="994.5" cy="994.5" r="994.5" transform="translate(-0.5 0.5)" fill="#1c9b90" stroke="rgba(23,126,117,0.05)" stroke-width="66.7"/>
          <circle id="Ellipse_68" data-name="Ellipse 68" cx="939" cy="939" r="939" transform="translate(55.5 55.5)" fill="#1b978c" stroke="rgba(23,126,117,0.05)" stroke-width="66.7"/>
          <circle id="Ellipse_69" data-name="Ellipse 69" cx="884" cy="884" r="884" transform="translate(110.5 110.5)" fill="#1a9288" stroke="rgba(23,126,117,0.05)" stroke-width="66.7"/>
          <circle id="Ellipse_70" data-name="Ellipse 70" cx="829" cy="829" r="829" transform="translate(165.5 165.5)" fill="#1a8e84" stroke="rgba(23,126,117,0.05)" stroke-width="66.7"/>
          <circle id="Ellipse_71" data-name="Ellipse 71" cx="773.5" cy="773.5" r="773.5" transform="translate(221.5 221.5)" fill="#198980" stroke="rgba(23,126,117,0.05)" stroke-width="66.7"/>
          <circle id="Ellipse_72" data-name="Ellipse 72" cx="718" cy="718" r="718" transform="translate(276.5 276.5)" fill="#18857c" stroke="rgba(23,126,117,0.05)" stroke-width="66.7"/>
          <circle id="Ellipse_73" data-name="Ellipse 73" cx="663" cy="663" r="663" transform="translate(331.5 331.5)" fill="#178178" stroke="rgba(23,126,117,0.05)" stroke-width="66.7"/>
          <circle id="Ellipse_74" data-name="Ellipse 74" cx="608" cy="608" r="608" transform="translate(386.5 386.5)" fill="#177c74" stroke="rgba(23,126,117,0.05)" stroke-width="66.7"/>
          <circle id="Ellipse_75" data-name="Ellipse 75" cx="552.5" cy="552.5" r="552.5" transform="translate(442.5 442.5)" fill="#167870" stroke="rgba(23,126,117,0.05)" stroke-width="66.7"/>
          <circle id="Ellipse_76" data-name="Ellipse 76" cx="497" cy="497" r="497" transform="translate(497.5 497.5)" fill="#15746c" stroke="rgba(23,126,117,0.05)" stroke-width="66.7"/>
          <circle id="Ellipse_77" data-name="Ellipse 77" cx="442" cy="442" r="442" transform="translate(552.5 552.5)" fill="#147068" stroke="rgba(23,126,117,0.05)" stroke-width="66.7"/>
          <circle id="Ellipse_78" data-name="Ellipse 78" cx="387" cy="387" r="387" transform="translate(607.5 607.5)" fill="#146b64" stroke="rgba(23,126,117,0.05)" stroke-width="66.7"/>
          <circle id="Ellipse_79" data-name="Ellipse 79" cx="331.5" cy="331.5" r="331.5" transform="translate(663.5 663.5)" fill="#136760" stroke="rgba(23,126,117,0.05)" stroke-width="66.7"/>
          <circle id="Ellipse_80" data-name="Ellipse 80" cx="276" cy="276" r="276" transform="translate(718.5 718.5)" fill="#12635c" stroke="rgba(23,126,117,0.05)" stroke-width="66.7"/>
          <circle id="Ellipse_81" data-name="Ellipse 81" cx="221" cy="221" r="221" transform="translate(773.5 773.5)" fill="#115f58" stroke="rgba(23,126,117,0.05)" stroke-width="66.7"/>
          <circle id="Ellipse_82" data-name="Ellipse 82" cx="166" cy="166" r="166" transform="translate(828.5 828.5)" fill="#115b54" stroke="rgba(23,126,117,0.05)" stroke-width="66.7"/>
          <circle id="Ellipse_83" data-name="Ellipse 83" cx="110.5" cy="110.5" r="110.5" transform="translate(884.5 884.5)" fill="#105751" stroke="rgba(23,126,117,0.05)" stroke-width="66.7"/>
          <circle id="Ellipse_84" data-name="Ellipse 84" cx="55" cy="55" r="55" transform="translate(939.5 939.5)" fill="#0f534d" stroke="rgba(23,126,117,0.05)" stroke-width="66.7"/>
        </g>
      </g>
    </g>
    <g id="Mask_Group_2" data-name="Mask Group 2" transform="translate(0 1.997)" clip-path="url(#clip-path-2)" style="mix-blend-mode: hard-light;isolation: isolate">
      <g id="rainbow-vortex-2" data-name="rainbow-vortex" transform="translate(1727.5 2626.5)">
        <rect id="Rectangle_137" data-name="Rectangle 137" width="884" height="442" transform="translate(-805.5 -805.5)" fill="#1f8fbb"/>
        <g id="Group_607" data-name="Group 607" transform="translate(-1800 -1800)">
          <circle id="Ellipse_85" data-name="Ellipse 85" cx="994.5" cy="994.5" r="994.5" transform="translate(-0.5 0.5)" fill="#1f8fbb" stroke="rgba(23,126,117,0.05)" stroke-width="66.7"/>
          <circle id="Ellipse_86" data-name="Ellipse 86" cx="939" cy="939" r="939" transform="translate(55.5 55.5)" fill="#1f8fbb" stroke="rgba(23,126,117,0.05)" stroke-width="66.7"/>
          <circle id="Ellipse_87" data-name="Ellipse 87" cx="884" cy="884" r="884" transform="translate(110.5 110.5)" fill="#1f8fbb" stroke="rgba(23,126,117,0.05)" stroke-width="66.7"/>
          <circle id="Ellipse_88" data-name="Ellipse 88" cx="829" cy="829" r="829" transform="translate(165.5 165.5)" fill="#1f8fbb" stroke="rgba(23,126,117,0.05)" stroke-width="66.7"/>
          <circle id="Ellipse_89" data-name="Ellipse 89" cx="773.5" cy="773.5" r="773.5" transform="translate(221.5 221.5)" fill="#1f8fbb" stroke="rgba(23,126,117,0.05)" stroke-width="66.7"/>
          <circle id="Ellipse_90" data-name="Ellipse 90" cx="718" cy="718" r="718" transform="translate(276.5 276.5)" fill="#1f8fbb" stroke="rgba(23,126,117,0.05)" stroke-width="66.7"/>
          <circle id="Ellipse_91" data-name="Ellipse 91" cx="663" cy="663" r="663" transform="translate(331.5 331.5)" fill="#1f8fbb" stroke="rgba(23,126,117,0.05)" stroke-width="66.7"/>
          <circle id="Ellipse_92" data-name="Ellipse 92" cx="608" cy="608" r="608" transform="translate(386.5 386.5)" fill="#1f8fbb" stroke="rgba(23,126,117,0.05)" stroke-width="66.7"/>
          <circle id="Ellipse_93" data-name="Ellipse 93" cx="552.5" cy="552.5" r="552.5" transform="translate(442.5 442.5)" fill="#1f8fbb" stroke="rgba(23,126,117,0.05)" stroke-width="66.7"/>
          <circle id="Ellipse_94" data-name="Ellipse 94" cx="497" cy="497" r="497" transform="translate(497.5 497.5)" fill="#1f8fbb" stroke="rgba(23,126,117,0.05)" stroke-width="66.7"/>
          <circle id="Ellipse_95" data-name="Ellipse 95" cx="442" cy="442" r="442" transform="translate(552.5 552.5)" fill="#1f8fbb" stroke="rgba(23,126,117,0.05)" stroke-width="66.7"/>
          <circle id="Ellipse_96" data-name="Ellipse 96" cx="387" cy="387" r="387" transform="translate(607.5 607.5)" fill="#1f8fbb" stroke="rgba(23,126,117,0.05)" stroke-width="66.7"/>
          <circle id="Ellipse_97" data-name="Ellipse 97" cx="331.5" cy="331.5" r="331.5" transform="translate(663.5 663.5)" fill="#1f8fbb" stroke="rgba(23,126,117,0.05)" stroke-width="66.7"/>
          <circle id="Ellipse_98" data-name="Ellipse 98" cx="276" cy="276" r="276" transform="translate(718.5 718.5)" fill="#1f8fbb" stroke="rgba(23,126,117,0.05)" stroke-width="66.7"/>
          <circle id="Ellipse_99" data-name="Ellipse 99" cx="221" cy="221" r="221" transform="translate(773.5 773.5)" fill="#1f8fbb" stroke="rgba(23,126,117,0.05)" stroke-width="66.7"/>
          <circle id="Ellipse_100" data-name="Ellipse 100" cx="166" cy="166" r="166" transform="translate(828.5 828.5)" fill="#1f8fbb" stroke="rgba(23,126,117,0.05)" stroke-width="66.7"/>
          <circle id="Ellipse_101" data-name="Ellipse 101" cx="110.5" cy="110.5" r="110.5" transform="translate(884.5 884.5)" fill="#1f8fbb" stroke="rgba(23,126,117,0.05)" stroke-width="66.7"/>
          <circle id="Ellipse_102" data-name="Ellipse 102" cx="55" cy="55" r="55" transform="translate(939.5 939.5)" fill="#1f8fbb" stroke="rgba(23,126,117,0.05)" stroke-width="66.7"/>
        </g>
      </g>
    </g>
  </g>
</svg>
