<svg xmlns="http://www.w3.org/2000/svg" width="47" height="47" viewBox="0 0 47 47">
  <g id="Group_35" data-name="Group 35" transform="translate(-659 -8034)">
    <g id="Ellipse_10" data-name="Ellipse 10" transform="translate(659 8034)" fill="none" stroke="#fff" stroke-width="1">
      <circle cx="23.5" cy="23.5" r="23.5" stroke="none"/>
      <circle cx="23.5" cy="23.5" r="23" fill="none"/>
    </g>
    <path id="Icon_awesome-twitter" data-name="Icon awesome-twitter" d="M20.008,7.894c.014.2.014.4.014.594a12.914,12.914,0,0,1-13,13A12.915,12.915,0,0,1,0,19.441a9.455,9.455,0,0,0,1.1.057,9.153,9.153,0,0,0,5.674-1.953A4.578,4.578,0,0,1,2.5,14.375a5.764,5.764,0,0,0,.863.071,4.834,4.834,0,0,0,1.2-.156A4.571,4.571,0,0,1,.906,9.8V9.748a4.6,4.6,0,0,0,2.066.58A4.577,4.577,0,0,1,1.556,4.216,12.991,12.991,0,0,0,10.98,9a5.159,5.159,0,0,1-.113-1.047,4.575,4.575,0,0,1,7.91-3.127,9,9,0,0,0,2.9-1.1,4.558,4.558,0,0,1-2.009,2.519A9.162,9.162,0,0,0,22.3,5.532a9.824,9.824,0,0,1-2.292,2.363Z" transform="translate(672 8045.5)" fill="#fff"/>
  </g>
</svg>
