<svg id="Group_10" data-name="Group 10" xmlns="http://www.w3.org/2000/svg" xmlns:xlink="http://www.w3.org/1999/xlink" width="111.333" height="31.9" viewBox="0 0 111.333 31.9">
  <defs>
    <linearGradient id="linear-gradient" x1="0.246" y1="4.719" x2="1.246" y2="4.719" gradientUnits="objectBoundingBox">
      <stop offset="0" stop-color="#3ebfb4"/>
      <stop offset="1" stop-color="#1884bd"/>
    </linearGradient>
    <clipPath id="clip-path">
      <rect id="Rectangle_2" data-name="Rectangle 2" width="5.003" height="14.587" fill="none"/>
    </clipPath>
    <clipPath id="clip-path-2">
      <path id="Path_8" data-name="Path 8" d="M261.2,180.962a.362.362,0,0,0-.324.2l-6.667,13.382a.362.362,0,0,1-.63.032l-2.07-3.274a.362.362,0,0,0-.608-.005l-2.037,3.1a.362.362,0,0,0-.014.376l4.7,8.407a.362.362,0,0,0,.635-.005L265.822,181.5a.359.359,0,0,0-.018-.372.313.313,0,0,1-.045-.046.339.339,0,0,1-.05-.051.356.356,0,0,0-.206-.065Z" transform="translate(-248.806 -180.962)" fill="none"/>
    </clipPath>
    <linearGradient id="linear-gradient-2" x1="-2.624" y1="6.598" x2="-2.618" y2="6.598" xlink:href="#linear-gradient"/>
    <clipPath id="clip-path-3">
      <path id="Path_9" data-name="Path 9" d="M714.308,339.284v-.371h1.04a.766.766,0,0,0,0-1.532h-5.321a.766.766,0,0,0,0,1.532h1.04v.371a1.62,1.62,0,1,0,3.241,0" transform="translate(-709.261 -337.382)" fill="none"/>
    </clipPath>
    <linearGradient id="linear-gradient-3" x1="-18.698" y1="33.925" x2="-18.677" y2="33.925" xlink:href="#linear-gradient"/>
    <clipPath id="clip-path-4">
      <path id="Path_12" data-name="Path 12" d="M684.846,211.892a7.1,7.1,0,0,1,6.677,6.458,6.645,6.645,0,0,1-3.117,6.384,7,7,0,0,1-.643.363,1.813,1.813,0,0,0-1.183,2.336h0a7.8,7.8,0,0,1-.881.159h-2.377a7.825,7.825,0,0,1-.881-.159l-.056-.012a4.562,4.562,0,0,1,.021-.638,1.888,1.888,0,0,0-.106-1.042,1.688,1.688,0,0,0-.755-.54c-.065-.032-.129-.064-.186-.094a6.77,6.77,0,0,1-3.864-6.013,6.937,6.937,0,0,1,1.954-5.072,7.14,7.14,0,0,1,5.169-2.133c.077,0,.153,0,.23,0m3.938,16.864a.249.249,0,0,0,.033-.051,2.262,2.262,0,0,0,.1-1c-.006-.161-.012-.314-.006-.452a4.1,4.1,0,0,1,.86-.621,4.758,4.758,0,0,0,.674-.453,9.724,9.724,0,0,0,3.455-8.089,8.791,8.791,0,0,0-2.752-5.745,9.082,9.082,0,0,0-6.649-2.779c-.266,0-.539.01-.813.03a9.288,9.288,0,0,0-5.886,2.714,9.085,9.085,0,0,0-2.685,5.7c-.293,3.8,1.387,6.891,4.992,9.2,0,.135,0,.29-.01.44a2.025,2.025,0,0,0,.1.993.229.229,0,0,0,.014.023c.907,1.3,3.543,1.4,4.33,1.4,1.508,0,3.413-.343,4.238-1.307" transform="translate(-675.083 -209.563)" stroke="#707070" stroke-miterlimit="10" stroke-width="4" fill="url(#linear-gradient)"/>
    </clipPath>
    <linearGradient id="linear-gradient-5" x1="0" y1="0.5" x2="1" y2="0.5" xlink:href="#linear-gradient"/>
  </defs>
  <path id="Path_1" data-name="Path 1" d="M527.017,182.98v23.85a.739.739,0,0,0,.416.678.961.961,0,0,0,.4.1h3.208a.97.97,0,0,0,.4-.1.74.74,0,0,0,.42-.671l.265-24.268c.006-1.046-.757-1.779-1.246-1.719l-3.093.726c-.414.05-.773.441-.773,1.405" transform="translate(-468.089 -180.774)" fill="#303e99"/>
  <path id="Path_2" data-name="Path 2" d="M474.191,230.2s-11.543-1.381-12.727,7.5c0,0-.691,7.991,6.61,9.274a6.706,6.706,0,0,0,6.117-2.282v-1.161s-5.278,2.9-6.955-3.907c0,0-1.776-7.922,6.955-7.942Z" transform="translate(-414.376 -221.138)" fill="#303e99"/>
  <path id="Path_3" data-name="Path 3" d="M570.857,231.346V244.54c0,1.085,1.386,6.038,8.352,2.483.022-.011.044-.023.065-.036l2.238-1.362v1.642a.923.923,0,0,0,.923.923h3.383a.923.923,0,0,0,.923-.923V231.355a.923.923,0,0,0-.923-.923h-3.367a.923.923,0,0,0-.922.94l.2,11.4a2.639,2.639,0,0,1-1.661,2.512,2.836,2.836,0,0,1-3.418-.86c-.019-.022-.037-.044-.053-.068a5.184,5.184,0,0,1-.811-2.675l.041-10.356a.922.922,0,0,0-.932-.931l-3.128.031a.922.922,0,0,0-.914.923" transform="translate(-504.002 -221.361)" fill="#303e99"/>
  <path id="Path_4" data-name="Path 4" d="M365.094,233.751l9.7-.66a1.182,1.182,0,0,0,1.1-1.172c.006-2.17-.559-6.823-5.471-7.167,0,0-7.117-.533-9.342,5.931,0,0-3.439,9.55,4.523,12.629,0,0,6.369,2.425,10.453-4.771,0,0-9.989,5.7-10.961-4.79m3.916-6.9c1.664.427,2.225,2.186,2.413,3.277a.83.83,0,0,1-.741.968l-4.183.39a.833.833,0,0,1-.907-.855,3.844,3.844,0,0,1,2.4-3.7,1.62,1.62,0,0,1,1.018-.078" transform="translate(-331.551 -216.732)" fill="#303e99"/>
  <path id="Path_5" data-name="Path 5" d="M201.126,180.763v25.6a1.068,1.068,0,0,0,1.037,1.1h2.858a1.068,1.068,0,0,0,1.037-1.1v-17.64a.232.232,0,0,1,.433-.129l1.261,2.166a.854.854,0,0,0,1.451.074l1.567-2.19a1.215,1.215,0,0,0,.1-1.236l-3.153-6.4a.979.979,0,0,0-.872-.559h-5.421a.305.305,0,0,0-.3.314" transform="translate(-201.126 -180.449)" fill="#283b99"/>
  <path id="Path_6" data-name="Path 6" d="M321.212,181.928v25.235a.822.822,0,0,1-.828.816h-3.37a.822.822,0,0,1-.828-.816V181.928a.822.822,0,0,1,.828-.817h3.37a.822.822,0,0,1,.828.817" transform="translate(-295.381 -180.991)" fill="#283b99"/>
  <g id="Group_3" data-name="Group 3" transform="translate(20.805 0.064)" opacity="0.3">
    <g id="Group_2" data-name="Group 2" transform="translate(0 0)">
      <g id="Group_1" data-name="Group 1" clip-path="url(#clip-path)">
        <path id="Path_7" data-name="Path 7" d="M321.176,181.376a.189.189,0,0,1-.007-.029c0-.007-.007-.014-.01-.022a.2.2,0,0,1-.036-.085.2.2,0,0,1-.016-.03.191.191,0,0,1-.04-.07h0a.17.17,0,0,1-.04-.051.161.161,0,0,1-.018-.028.909.909,0,0,0-.176-.179.346.346,0,0,1-.066-.076l-4.481,9.353c0,.009-.1.315-.1.325v4.9a.011.011,0,0,0,.021.005l4.982-9.376v-4.55a.194.194,0,0,1-.013-.085" transform="translate(-316.186 -180.806)" fill="#282828"/>
      </g>
    </g>
  </g>
  <g id="Group_5" data-name="Group 5" transform="translate(8.622 0.093)">
    <g id="Group_4" data-name="Group 4" transform="translate(0 0)" clip-path="url(#clip-path-2)">
      <rect id="Rectangle_3" data-name="Rectangle 3" width="17.104" height="22.532" transform="translate(-0.02 -0.07)" fill="url(#linear-gradient-2)"/>
    </g>
  </g>
  <g id="Group_7" data-name="Group 7" transform="translate(91.881 28.377)">
    <g id="Group_6" data-name="Group 6" transform="translate(0 0)" clip-path="url(#clip-path-3)">
      <rect id="Rectangle_4" data-name="Rectangle 4" width="6.852" height="3.523" transform="translate(0 0)" fill="url(#linear-gradient-3)"/>
    </g>
  </g>
  <path id="Path_10" data-name="Path 10" d="M706.542,256.941h.029c.739,0,1.525.9,2.156,1.623.143.163.278.317.387.431a5.379,5.379,0,0,1,.4.478l.05.066c.094-.1.206-.236.273-.316.082-.1.147-.176.2-.226.081-.083.191-.2.319-.346.844-.93,1.585-1.7,2.115-1.7h.012a1,1,0,0,1,.951.72c.2.808-.7,1.593-1.23,2.062-.1.084-.179.157-.223.2-.25.258-.436.446-.608.619-.278.28-.52.525-.929.963l-.006,3.1c0,.152.008.337.016.533.042,1,.1,2.379-.844,2.422h-.04a.727.727,0,0,1-.547-.242,3.435,3.435,0,0,1-.34-2.287c.009-.17.015-.317.016-.428,0-.271.022-.6.046-.949a8.079,8.079,0,0,0-.029-2.131,1.875,1.875,0,0,0-.477-.528c-.073-.065-.145-.13-.211-.194-.589-.561-1.016-.988-1.634-1.629l-.025-.026a2.042,2.042,0,0,1-.716-1.14,1.11,1.11,0,0,1,.281-.778.88.88,0,0,1,.613-.3" transform="translate(-614.419 -243.11)" fill="#303e99"/>
  <g id="Group_9" data-name="Group 9" transform="translate(85.701 5.264)">
    <path id="Path_11" data-name="Path 11" d="M684.846,211.892a7.1,7.1,0,0,1,6.677,6.458,6.645,6.645,0,0,1-3.117,6.384,7,7,0,0,1-.643.363,1.813,1.813,0,0,0-1.183,2.336h0a7.8,7.8,0,0,1-.881.159h-2.377a7.825,7.825,0,0,1-.881-.159l-.056-.012a4.562,4.562,0,0,1,.021-.638,1.888,1.888,0,0,0-.106-1.042,1.688,1.688,0,0,0-.755-.54c-.065-.032-.129-.064-.186-.094a6.77,6.77,0,0,1-3.864-6.013,6.937,6.937,0,0,1,1.954-5.072,7.14,7.14,0,0,1,5.169-2.133c.077,0,.153,0,.23,0m3.938,16.864a.249.249,0,0,0,.033-.051,2.262,2.262,0,0,0,.1-1c-.006-.161-.012-.314-.006-.452a4.1,4.1,0,0,1,.86-.621,4.758,4.758,0,0,0,.674-.453,9.724,9.724,0,0,0,3.455-8.089,8.791,8.791,0,0,0-2.752-5.745,9.082,9.082,0,0,0-6.649-2.779c-.266,0-.539.01-.813.03a9.288,9.288,0,0,0-5.886,2.714,9.085,9.085,0,0,0-2.685,5.7c-.293,3.8,1.387,6.891,4.992,9.2,0,.135,0,.29-.01.44a2.025,2.025,0,0,0,.1.993.229.229,0,0,0,.014.023c.907,1.3,3.543,1.4,4.33,1.4,1.508,0,3.413-.343,4.238-1.307" transform="translate(-675.083 -209.563)" fill="url(#linear-gradient)"/>
  </g>
  <path id="Path_14" data-name="Path 14" d="M707.74,327.589h5.751a.695.695,0,1,1,0,1.363H707.74a.695.695,0,1,1,0-1.363" transform="translate(-615.456 -300.983)" fill="#283b99"/>
  <path id="Path_15" data-name="Path 15" d="M791.6,228.934l3.022-1.053a.719.719,0,0,0-.473-1.359l-3.023,1.053a.719.719,0,1,0,.474,1.358Z" transform="translate(-684.048 -218.158)" fill="url(#linear-gradient-5)"/>
  <path id="Path_16" data-name="Path 16" d="M795.873,279.756l-3.074-.892a.719.719,0,1,0-.4,1.381l3.074.892a.719.719,0,1,0,.4-1.381Z" transform="translate(-685.059 -261.045)" fill="#303e99"/>
  <path id="Path_17" data-name="Path 17" d="M764.883,187.126a.628.628,0,0,0,.367.117.636.636,0,0,0,.519-.267l1.637-2.3a.636.636,0,0,0-1.036-.737l-1.637,2.305A.636.636,0,0,0,764.883,187.126Z" transform="translate(-662.725 -183.086)" fill="#303e99"/>
</svg>
