<svg width="38" height="38" viewBox="0 0 38 38" fill="none" xmlns="http://www.w3.org/2000/svg">
<g clip-path="url(#clip0_90_99)">
<path fill-rule="evenodd" clip-rule="evenodd" d="M19 0.296875L24.2778 5.08488L31.4007 4.81042L32.3655 11.8742L38 16.24L34.2 22.2693L35.7094 29.2381L28.9222 31.4125L25.5993 37.7184L19 35.0225L12.4007 37.7184L9.07778 31.4125L2.29055 29.2381L3.8 22.2693L0 16.24L5.63455 11.8742L6.59933 4.81042L13.7222 5.08488L19 0.296875ZM19 3.14687L15.1388 6.64921L14.5012 7.22766L13.6399 7.19599L8.42967 6.99542L7.72455 12.1592L7.60845 13.0142L6.92655 13.5399L2.80778 16.734L5.586 21.1462L6.04622 21.8724L5.86255 22.7169L4.76055 27.811L9.72378 29.4028L10.545 29.6667L10.9482 30.4288L13.376 35.0394L18.202 33.0698L19 32.7425L19.798 33.0698L24.624 35.0394L27.0539 30.4288L27.455 29.6667L28.2762 29.4028L33.2395 27.811L32.1375 22.7169L31.9538 21.8724L32.414 21.1462L35.1943 16.734L31.0735 13.5399L30.3915 13.0142L30.2755 12.1592L29.5682 6.99542L24.3622 7.19599L23.4988 7.22766L22.8612 6.64921L19 3.14687ZM25.7501 15.2887L27.0273 16.9713L15.9123 25.4073L10.8646 20.3596L12.3572 18.8671L16.1023 22.6122L25.7501 15.2887Z" fill="white"/>
</g>
<defs>
<clipPath id="clip0_90_99">
<rect width="38" height="38" fill="white"/>
</clipPath>
</defs>
</svg>
