<?xml version="1.0" encoding="utf-8"?>
<!-- Generator: Adobe Illustrator 26.3.1, SVG Export Plug-In . SVG Version: 6.00 Build 0)  -->
<svg version="1.1" id="Layer_1" xmlns="http://www.w3.org/2000/svg" xmlns:xlink="http://www.w3.org/1999/xlink" x="0px" y="0px"
	 viewBox="0 0 60 60" style="enable-background:new 0 0 60 60;" xml:space="preserve">
<style type="text/css">
	.st0{clip-path:url(#SVGID_00000070117707335869927820000011071165774688674492_);}
	.st1{fill:#E45252;}
	.st2{clip-path:url(#SVGID_00000178194751138588394760000008902072143931135377_);}
	.st3{clip-path:url(#SVGID_00000086670033446894472480000018415023773120975537_);}
</style>
<g id="surface1">
	<path class="st1" d="M25.9,27.1c1.8-1.5,3-3.9,3-6.4c0-4.6-3.8-8.4-8.4-8.4c-4.6,0-8.4,3.8-8.4,8.4c0,2.6,1.2,4.9,3,6.4
		c-4.7,1.8-8.1,6.3-8.1,11.7v8.9H34v-8.9C34,33.5,30.6,28.9,25.9,27.1z M14.8,20.7c0-3.1,2.5-5.7,5.7-5.7c3.1,0,5.7,2.5,5.7,5.7
		c0,3.1-2.5,5.7-5.7,5.7C17.3,26.4,14.8,23.8,14.8,20.7z M21.5,29.1c0.7,0,1.4,0.1,2,0.2l-3.1,5.8L17,29.4h0
		c0.7-0.2,1.5-0.3,2.3-0.3H21.5z M31.2,44.9H9.7v-6.1c0-3.5,1.9-6.7,4.8-8.3l6.1,10.3l5.7-10.4c3,1.6,5.1,4.8,5.1,8.5L31.2,44.9
		L31.2,44.9z"/>
	<path class="st1" d="M52.2,22.9l-0.7,0.7h-13v13.7h13.7V26.7l1.9-1.8L52.2,22.9z M49.5,34.5h-8.2v-8.2h7.3l-2.9,2.8l-1.8-1.7
		l-1.9,2l3.8,3.5l3.7-3.6V34.5z"/>
	<path class="st1" d="M52.2,38.9l-0.8,0.7H38.6v13.7h13.7V42.7l1.9-1.8L52.2,38.9z M49.5,50.5h-8.2v-8.2h7.3l-2.9,2.8L44,43.5
		l-1.9,2l3.7,3.5l3.7-3.6V50.5z"/>
	<path class="st1" d="M52.3,10.5l1.9-1.8l-1.9-2l-0.8,0.8H38.6v13.7h13.7V10.5z M49.5,18.4h-8.2v-8.2h7.2L45.8,13L44,11.3l-1.9,2
		l3.7,3.5l3.7-3.6V18.4z"/>
</g>
</svg>
