<?xml version="1.0" encoding="utf-8"?>
<!-- Generator: Adobe Illustrator 26.3.1, SVG Export Plug-In . SVG Version: 6.00 Build 0)  -->
<svg version="1.1" id="Layer_1" xmlns="http://www.w3.org/2000/svg" xmlns:xlink="http://www.w3.org/1999/xlink" x="0px" y="0px"
	 viewBox="0 0 60 60" style="enable-background:new 0 0 60 60;" xml:space="preserve">
<style type="text/css">
	.st0{clip-path:url(#SVGID_00000151525709633936997500000013110588662855065763_);}
	.st1{fill:#E45252;}
	.st2{clip-path:url(#SVGID_00000107577215565944807710000008218429116499987872_);}
	.st3{clip-path:url(#SVGID_00000067193717000185093560000016316276482389907609_);}
</style>
<g id="g1098_00000098179915119576414160000008681639455611719066_" transform="matrix(1.3333333,0,0,-1.3333333,0,682.66667)">
	<g id="g1100_00000138575270630664709510000016166445413491691662_">
		<g>
			<defs>
				<rect id="SVGID_1_" x="-1.4" y="465.6" width="47.8" height="47.8"/>
			</defs>
			<clipPath id="SVGID_00000007386433962994296910000001767013326860637883_">
				<use xlink:href="#SVGID_1_"  style="overflow:visible;"/>
			</clipPath>
			
				<g id="g1102_00000105404302660362206370000004532503637275849402_" style="clip-path:url(#SVGID_00000007386433962994296910000001767013326860637883_);">
				<g id="g1108_00000156563078426640137380000000249251340389219728_" transform="translate(497.1162,227.3452)">
					<g id="path1110_00000085229029573859733380000016620401051287543683_">
						<rect x="-497.1" y="258.7" class="st1" width="45" height="2.8"/>
					</g>
				</g>
			</g>
		</g>
	</g>
	<g id="g1112_00000080893609250600429590000000552862578594420651_" transform="translate(62.1133,376.4375)">
		<g id="path1114_00000146488603814395578060000008064090539205700511_">
			<rect x="-56.1" y="120.1" class="st1" width="23" height="2.8"/>
		</g>
	</g>
	<g id="g1116_00000142893819935070540030000014038804282936719232_" transform="translate(62.1133,316.4375)">
		<g id="path1118_00000170273248294704608410000006396017256109108908_">
			<rect x="-55.2" y="175.9" class="st1" width="16.1" height="2.8"/>
		</g>
	</g>
	<g id="g1120_00000177464092353301757180000010676165822410405765_" transform="translate(62.1133,436.4375)">
		<g id="path1122_00000057132025506987696440000004212410283308552325_">
			<rect x="-55.2" y="64.3" class="st1" width="16.1" height="2.8"/>
		</g>
	</g>
	<g id="g1124_00000132068904825137168090000012282042572084286105_">
		<g>
			<defs>
				<rect id="SVGID_00000093869764648785857600000004624513234247076494_" x="-1.4" y="465.6" width="47.8" height="47.8"/>
			</defs>
			<clipPath id="SVGID_00000127747037089873240020000002951484625204319668_">
				<use xlink:href="#SVGID_00000093869764648785857600000004624513234247076494_"  style="overflow:visible;"/>
			</clipPath>
			
				<g id="g1126_00000157273808694379708670000006122118620120577214_" style="clip-path:url(#SVGID_00000127747037089873240020000002951484625204319668_);">
				<g id="g1132_00000064340856850475550140000008525341742857808825_" transform="translate(485.2217,144.4858)">
					<g id="path1134_00000137835542954655671470000005236010834803590812_">
						<path class="st1" d="M-446.7,336.2h-32.1c-1,0-1.9,0.8-1.9,1.9v23c0,1,0.8,1.9,1.9,1.9h32.1c1,0,1.9-0.8,1.9-1.9v-23
							C-444.8,337-445.6,336.2-446.7,336.2z M-478.5,338.3h31.6v22.6h-31.6V338.3z"/>
					</g>
				</g>
				<g id="g1136_00000127024060595814611060000001000990447857081267_" transform="translate(342.3125,117.3726)">
					<g id="path1138_00000150100705594824026290000013199475851132904067_">
						<path class="st1" d="M-307.6,354.2h-24.5v6.3h3.2c1.1,0,1.9,0.9,1.9,1.9v2.9h14.2v-2.9c0-1.1,0.9-1.9,1.9-1.9h3.2V354.2z
							 M-330,356.3h20.3v2.1h-1.1c-2.2,0-4,1.8-4,4v0.8h-10v-0.8c0-2.2-1.8-4-4-4h-1.1V356.3z"/>
					</g>
				</g>
				<g id="path1140_00000163034197631803972340000000566281735525619607_">
					<path class="st1" d="M34.4,490.7h-2.1v2.1h2.1V490.7z"/>
				</g>
				<g id="g1142_00000067926050899191047570000010181931887848511149_" transform="translate(415.8633,74.8882)">
					<g id="path1144_00000015335170690073095510000014650136712978591639_">
						<rect x="-408.3" y="400.5" class="st1" width="29.8" height="2.8"/>
					</g>
				</g>
			</g>
		</g>
	</g>
</g>
</svg>
