<?xml version="1.0" encoding="utf-8"?>
<!-- Generator: Adobe Illustrator 26.3.1, SVG Export Plug-In . SVG Version: 6.00 Build 0)  -->
<svg version="1.1" id="Layer_1" xmlns="http://www.w3.org/2000/svg" xmlns:xlink="http://www.w3.org/1999/xlink" x="0px" y="0px"
	 viewBox="0 0 60 60" style="enable-background:new 0 0 60 60;" xml:space="preserve">
<style type="text/css">
	.st0{clip-path:url(#SVGID_00000142864042569213076800000017044391671234209696_);}
	.st1{fill:#E45252;}
	.st2{clip-path:url(#SVGID_00000129887961851144091930000014750051489025177230_);}
	.st3{clip-path:url(#SVGID_00000109719860685158903660000004607020461704736157_);}
</style>
<g>
	<path class="st1" d="M6.6,7.2v40h15.9L19.6,51h-2.5v2.7h25.4V51H40l-2.9-3.7h15.9v-40H6.6z M50.3,10v5.9c-0.4-0.1-0.8-0.2-1.3-0.2
		h-1.7c-1.7,0-3.2,1.1-3.7,2.6h-2.6c-0.6-1.5-2-2.6-3.7-2.6h-1.7c-1.7,0-3.2,1.1-3.7,2.6h-3.5c-0.6-1.5-2-2.6-3.7-2.6H23
		c-1.7,0-3.2,1.1-3.7,2.6H16c-0.6-1.5-2-2.6-3.7-2.6h-1.7c-0.4,0-0.9,0.1-1.3,0.2V10H50.3z M9.3,32h3.8c0.6,1.5,2,2.6,3.7,2.6h1.7
		c1.7,0,3.2-1.1,3.7-2.6h3.5c0.6,1.5,2,2.6,3.7,2.6h1.7c1.7,0,3.2-1.1,3.7-2.6h2.6c0.6,1.5,2,2.6,3.7,2.6h1.7c1.7,0,3.2-1.1,3.7-2.6
		h3.7v7h-41L9.3,32z M15.6,30.7c0-0.7,0.6-1.3,1.3-1.3h1.7c0.7,0,1.3,0.6,1.3,1.3c0,0.7-0.6,1.3-1.3,1.3h-1.7
		C16.2,31.9,15.6,31.3,15.6,30.7z M28.2,30.7c0-0.7,0.6-1.3,1.3-1.3h1.7c0.7,0,1.3,0.6,1.3,1.3c0,0.7-0.6,1.3-1.3,1.3h-1.7
		C28.8,31.9,28.2,31.3,28.2,30.7L28.2,30.7z M40,30.7c0-0.7,0.6-1.3,1.3-1.3h1.7c0.7,0,1.3,0.6,1.3,1.3c0,0.7-0.6,1.3-1.3,1.3h-1.7
		C40.5,31.9,40,31.3,40,30.7z M46.6,29.3c-0.6-1.5-2-2.6-3.7-2.6h-1.7c-1.7,0-3.2,1.1-3.7,2.6h-2.6c-0.6-1.5-2-2.6-3.7-2.6h-1.7
		c-1.7,0-3.2,1.1-3.7,2.6h-3.5c-0.6-1.5-2-2.6-3.7-2.6h-1.7c-1.7,0-3.2,1.1-3.7,2.6H9.3v-5.8c0.4,0.1,0.8,0.2,1.3,0.2h1.7
		c1.7,0,3.2-1.1,3.7-2.6h3.3c0.6,1.5,2,2.6,3.7,2.6h1.7c1.7,0,3.2-1.1,3.7-2.6h3.5c0.6,1.5,2,2.6,3.7,2.6h1.7c1.7,0,3.2-1.1,3.7-2.6
		h2.6c0.6,1.5,2,2.6,3.7,2.6h1.7c0.4,0,0.9-0.1,1.3-0.2v5.8H46.6z M9.3,19.7c0-0.7,0.6-1.3,1.3-1.3h1.7c0.7,0,1.3,0.6,1.3,1.3
		c0,0.7-0.6,1.3-1.3,1.3h-1.7C9.9,20.9,9.3,20.4,9.3,19.7z M21.8,19.7c0-0.7,0.6-1.3,1.3-1.3h1.7c0.7,0,1.3,0.6,1.3,1.3
		c0,0.7-0.6,1.3-1.3,1.3H23C22.4,20.9,21.8,20.4,21.8,19.7z M34.4,19.7c0-0.7,0.6-1.3,1.3-1.3h1.7c0.7,0,1.3,0.6,1.3,1.3
		c0,0.7-0.6,1.3-1.3,1.3h-1.7C35,20.9,34.4,20.4,34.4,19.7z M49.1,20.9h-1.7c-0.7,0-1.3-0.6-1.3-1.3c0-0.7,0.6-1.3,1.3-1.3h1.7
		c0.7,0,1.3,0.6,1.3,1.3C50.3,20.4,49.8,20.9,49.1,20.9z M36.6,51H23l2.9-3.7h7.8L36.6,51z M9.3,44.5v-2.8h41v2.8H9.3z"/>
</g>
</svg>
