<?xml version="1.0" encoding="utf-8"?>
<!-- Generator: Adobe Illustrator 26.3.1, SVG Export Plug-In . SVG Version: 6.00 Build 0)  -->
<svg version="1.1" id="Layer_1" xmlns="http://www.w3.org/2000/svg" xmlns:xlink="http://www.w3.org/1999/xlink" x="0px" y="0px"
	 viewBox="0 0 60 60" style="enable-background:new 0 0 60 60;" xml:space="preserve">
<style type="text/css">
	.st0{clip-path:url(#SVGID_00000013166040943599417280000002162638397122565021_);}
	.st1{fill:#E45252;}
	.st2{clip-path:url(#SVGID_00000098217272734374033100000003569946902261563301_);}
	.st3{clip-path:url(#SVGID_00000086663819902158125760000006598330134916688006_);}
</style>
<g>
	<g>
		<path class="st1" d="M45.6,30.6c1.3-2.5,1.9-5.2,1.9-8C47.6,12.9,39.7,5,30,5s-17.6,7.9-17.6,17.6c0,2.8,0.6,5.5,1.9,8
			c1.1,2.2,2.7,4.1,4.6,5.7l0.6,4.1h-2.7v2.9h2.9v2.9h-2.9v2.9h3.5l2.9,5.9h13.5l2.9-5.9h3.5v-2.9h-2.9v-2.9h2.9v-2.9h-2.7l0.6-4.1
			C42.9,34.7,44.5,32.8,45.6,30.6z M34.9,52h-9.9l-1.5-2.9h12.8L34.9,52z M37.3,46.2H22.7v-2.9h14.6V46.2z M26.3,25.2l3.7,2l3.7-2
			l-2.1,15.1h-3.2L26.3,25.2z M38.8,34.3l-0.5,0.4l-0.8,5.7h-3l2.6-19.2H35l-5,2.7l-5-2.7h-2.1l2.6,19.2h-3l-0.8-5.7l-0.5-0.4
			c-3.7-2.8-5.9-7.1-5.9-11.7C15.4,14.5,21.9,8,30,8s14.6,6.6,14.6,14.6C44.6,27.2,42.5,31.5,38.8,34.3z"/>
	</g>
</g>
<g>
	<g>
		<rect x="5" y="21.1" class="st1" width="4.5" height="2.9"/>
	</g>
</g>
<g>
	<g>
		<rect x="8.1" y="32.5" transform="matrix(0.866 -0.5 0.5 0.866 -15.5929 9.707)" class="st1" width="4.5" height="2.9"/>
	</g>
</g>
<g>
	<g>
		<rect x="48.2" y="31.7" transform="matrix(0.5 -0.866 0.866 0.5 -4.5626 60.0013)" class="st1" width="2.9" height="4.5"/>
	</g>
</g>
<g>
	<g>
		<rect x="50.5" y="21.1" class="st1" width="4.5" height="2.9"/>
	</g>
</g>
<g>
	<g>
		<rect x="47.4" y="9.8" transform="matrix(0.866 -0.5 0.5 0.866 1.045 26.3446)" class="st1" width="4.5" height="2.9"/>
	</g>
</g>
<g>
	<g>
		<rect x="8.9" y="9" transform="matrix(0.5 -0.866 0.866 0.5 -4.561 14.5466)" class="st1" width="2.9" height="4.5"/>
	</g>
</g>
</svg>
