<?xml version="1.0" encoding="utf-8"?>
<!-- Generator: Adobe Illustrator 26.3.1, SVG Export Plug-In . SVG Version: 6.00 Build 0)  -->
<svg version="1.1" id="Layer_1" xmlns="http://www.w3.org/2000/svg" xmlns:xlink="http://www.w3.org/1999/xlink" x="0px" y="0px"
	 viewBox="0 0 60 60" style="enable-background:new 0 0 60 60;" xml:space="preserve">
<style type="text/css">
	.st0{clip-path:url(#SVGID_00000168817778305839956480000016715572750908098716_);}
	.st1{fill:#E45252;}
	.st2{clip-path:url(#SVGID_00000030481809610947937380000002424248239873557123_);}
	.st3{clip-path:url(#SVGID_00000074427107871814323450000010676312656709230727_);}
</style>
<path class="st1" d="M54.6,32.7c0-4.7-1.4-9.2-4-13c0.4-0.9,0.2-2-0.5-2.7l-2.9-2.9c-0.7-0.7-1.8-0.9-2.7-0.5c-3.8-2.6-8.3-4-13-4
	c-4.7,0-9.2,1.4-13,4c-0.9-0.4-2-0.2-2.7,0.5L12.9,17c-0.7,0.7-0.9,1.8-0.5,2.7c-2.6,3.8-4,8.3-4,13c0,4.7,1.4,9.2,4,13
	c-0.4,0.9-0.2,2,0.5,2.7l2.9,2.9c0.5,0.5,1.1,0.7,1.7,0.7c0.3,0,0.7-0.1,1-0.2c3.8,2.6,8.3,4,13,4c4.7,0,9.2-1.4,13-4
	c0.3,0.1,0.7,0.2,1,0.2c0.6,0,1.2-0.2,1.7-0.7l2.9-2.9h0c0.7-0.7,0.9-1.8,0.5-2.7C53.2,41.9,54.6,37.4,54.6,32.7L54.6,32.7z
	 M48.8,43.6l-6.2-6.2c0.6-1.4,1-3,1-4.7s-0.3-3.3-1-4.7l6.2-6.2c2,3.2,3.2,6.9,3.2,10.9C51.9,36.7,50.8,40.5,48.8,43.6z M35,39.1
	c-0.7,0.7-0.9,1.6-0.6,2.5c-0.9,0.3-1.9,0.5-2.9,0.5s-2-0.2-2.9-0.5c0.3-0.8,0.1-1.8-0.6-2.5l-2.9-2.9c-0.5-0.5-1.1-0.7-1.7-0.7
	c-0.3,0-0.5,0-0.7,0.1c-0.3-0.9-0.5-1.9-0.5-2.9c0-1,0.2-2,0.5-2.9c0.2,0.1,0.5,0.1,0.7,0.1c0.6,0,1.3-0.3,1.7-0.7l2.9-2.9
	c0.7-0.7,0.9-1.6,0.6-2.5c0.9-0.3,1.9-0.5,2.9-0.5c1,0,2,0.2,2.9,0.5c-0.3,0.8-0.1,1.8,0.6,2.5l2.9,2.9c0.5,0.5,1.1,0.7,1.7,0.7
	c0.3,0,0.5,0,0.7-0.1c0.3,0.9,0.5,1.9,0.5,2.9c0,1-0.2,2-0.5,2.9c-0.2-0.1-0.5-0.1-0.7-0.1c-0.6,0-1.3,0.3-1.7,0.7L35,39.1z
	 M48,18.7l-8.4,8.4l-2.5-2.5l8.4-8.4L48,18.7z M42.4,15.5l-6.2,6.2c-1.4-0.6-3-1-4.7-1c-1.7,0-3.3,0.3-4.7,1l-6.2-6.2
	c3.2-2,6.9-3.2,10.9-3.2C35.5,12.3,39.3,13.5,42.4,15.5z M17.5,16.2l8.4,8.4l-2.5,2.5L15,18.7L17.5,16.2z M14.3,21.8l6.2,6.2
	c-0.6,1.4-1,3-1,4.7c0,1.7,0.3,3.3,1,4.7l-6.2,6.2c-2-3.2-3.2-6.9-3.2-10.9S12.3,25,14.3,21.8z M15,46.7l8.4-8.4l2.5,2.5l-8.4,8.4
	L15,46.7z M20.6,49.9l6.2-6.2c1.4,0.6,3,1,4.7,1c1.7,0,3.3-0.3,4.7-1l6.2,6.2c-3.2,2-6.9,3.2-10.9,3.2S23.8,52,20.6,49.9z
	 M45.5,49.2l-8.4-8.4l2.5-2.5l8.4,8.4L45.5,49.2z"/>
</svg>
