<?xml version="1.0" encoding="utf-8"?>
<!-- Generator: Adobe Illustrator 26.3.1, SVG Export Plug-In . SVG Version: 6.00 Build 0)  -->
<svg version="1.1" id="Layer_1" xmlns="http://www.w3.org/2000/svg" xmlns:xlink="http://www.w3.org/1999/xlink" x="0px" y="0px"
	 viewBox="0 0 60 60" style="enable-background:new 0 0 60 60;" xml:space="preserve">
<style type="text/css">
	.st0{clip-path:url(#SVGID_00000121248566706767341210000006965742010916921013_);}
	.st1{fill:#E45252;}
	.st2{clip-path:url(#SVGID_00000158718785204768104240000006373187002744844931_);}
	.st3{clip-path:url(#SVGID_00000010300917467287804110000017614825579199930261_);}
</style>
<g id="g975" transform="matrix(1.3333333,0,0,-1.3333333,0,682.66667)">
	<g id="g977">
		<g>
			<g id="g979">
				<g id="g985" transform="translate(467,256)">
					<g id="path987">
						<path class="st1" d="M-444.5,216.4c-4.7,0-9.1,1.8-12.5,5.2c-3.3,3.3-5.2,7.8-5.2,12.5c0,4.7,1.8,9.1,5.2,12.5
							c3.3,3.3,7.8,5.2,12.5,5.2c4.7,0,9.1-1.8,12.5-5.2c3.3-3.3,5.2-7.8,5.2-12.5c0-4.7-1.8-9.1-5.2-12.5
							C-435.4,218.2-439.8,216.4-444.5,216.4z M-444.5,249.3c-8.4,0-15.3-6.9-15.3-15.3c0-8.4,6.9-15.3,15.3-15.3
							c8.4,0,15.3,6.9,15.3,15.3C-429.2,242.5-436.1,249.3-444.5,249.3z"/>
					</g>
				</g>
				<g id="g989" transform="translate(392,256)">
					<g id="path991">
						<path class="st1" d="M-369.5,222.2c-6.5,0-11.8,5.3-11.8,11.8c0,6.5,5.3,11.8,11.8,11.8c6.5,0,11.8-5.3,11.8-11.8
							C-357.7,227.5-363,222.2-369.5,222.2z M-369.5,243.5c-5.2,0-9.4-4.2-9.4-9.4c0-5.2,4.2-9.4,9.4-9.4c5.2,0,9.4,4.2,9.4,9.4
							C-360.1,239.2-364.3,243.5-369.5,243.5z"/>
					</g>
				</g>
				<g id="g993" transform="translate(256,392)">
					<g id="path995">
						<rect x="-235.1" y="107.1" class="st1" width="3.1" height="12.5"/>
					</g>
				</g>
				<g id="g997" transform="translate(256,196)">
					<g id="path999">
						<rect x="-235.1" y="287.8" class="st1" width="3.1" height="12.5"/>
					</g>
				</g>
				<g id="g1001" transform="translate(196,256)">
					<g id="path1003">
						<rect x="-179.7" y="232.5" class="st1" width="12.5" height="3.1"/>
					</g>
				</g>
				<g id="g1005" transform="translate(256)">
					<g id="path1007">
						<rect x="-235.1" y="468.5" class="st1" width="3.1" height="12.5"/>
					</g>
				</g>
				<g id="g1009" transform="translate(392,256)">
					<g id="path1011">
						<rect x="-360.4" y="232.5" class="st1" width="12.5" height="3.1"/>
					</g>
				</g>
				<g id="g1013" transform="translate(0,256)">
					<g id="path1015">
						<rect x="1" y="232.5" class="st1" width="12.5" height="3.1"/>
					</g>
				</g>
			</g>
		</g>
	</g>
</g>
</svg>
