<?xml version="1.0" encoding="utf-8"?>
<!-- Generator: Adobe Illustrator 26.3.1, SVG Export Plug-In . SVG Version: 6.00 Build 0)  -->
<svg version="1.1" id="Layer_1" xmlns="http://www.w3.org/2000/svg" xmlns:xlink="http://www.w3.org/1999/xlink" x="0px" y="0px"
	 viewBox="0 0 60 60" style="enable-background:new 0 0 60 60;" xml:space="preserve">
<style type="text/css">
	.st0{clip-path:url(#SVGID_00000146484199991395972980000014167103748913125560_);}
	.st1{fill:#E45252;}
	.st2{clip-path:url(#SVGID_00000147916256509784539070000000457547796352227223_);}
	.st3{clip-path:url(#SVGID_00000173872516812195969640000007372653283574854786_);}
</style>
<g id="g3015" transform="matrix(1.3333333,0,0,-1.3333333,0,682.66667)">
	<g id="g3017">
		<g>
			<g id="g3019">
				<g id="g3025" transform="translate(497,256)">
					<g id="path3027">
						<path class="st1" d="M-474.3,215.4c-2.4,0-4.8,0.5-7.1,1.4c-2.2,0.9-4.1,2.2-5.8,3.9c-1.7,1.7-3,3.6-3.9,5.8
							c-0.9,2.2-1.4,4.6-1.4,7.1c0,2.4,0.5,4.8,1.4,7.1c0.9,2.2,2.2,4.1,3.9,5.8c1.7,1.7,3.6,3,5.8,3.9c2.2,0.9,4.6,1.4,7.1,1.4
							s4.8-0.5,7.1-1.4c2.2-0.9,4.1-2.2,5.8-3.9c1.7-1.7,3-3.6,3.9-5.8c0.9-2.2,1.4-4.6,1.4-7.1c0-2.4-0.5-4.8-1.4-7.1
							c-0.9-2.2-2.2-4.1-3.9-5.8c-1.7-1.7-3.6-3-5.8-3.9C-469.5,215.8-471.9,215.4-474.3,215.4z M-474.3,249.5c-8.8,0-16-7.2-16-16
							c0-8.8,7.2-16,16-16s16,7.2,16,16C-458.3,242.3-465.5,249.5-474.3,249.5z"/>
					</g>
				</g>
				<g id="g3029" transform="translate(380.7471,256)">
					<g id="path3031">
						<path class="st1" d="M-358.1,215.4c-2.8,0-5.3,2-7.2,5.6c-1.7,3.4-2.7,7.8-2.7,12.6c0,4.7,1,9.2,2.7,12.6
							c1.9,3.6,4.4,5.6,7.2,5.6c2.8,0,5.3-2,7.2-5.6c1.7-3.4,2.7-7.8,2.7-12.6c0-4.7-1-9.2-2.7-12.6
							C-352.7,217.3-355.3,215.4-358.1,215.4z M-358.1,249.5c-4.2,0-7.8-7.3-7.8-16c0-8.7,3.6-16,7.8-16c4.2,0,7.8,7.3,7.8,16
							C-350.3,242.2-353.9,249.5-358.1,249.5z"/>
					</g>
				</g>
				<g id="g3033" transform="translate(256,497)">
					<g id="path3035">
						<rect x="-234.7" y="-30.3" class="st1" width="2.8" height="45.5"/>
					</g>
				</g>
				<g id="g3037" transform="translate(14.5,256)">
					<g id="path3039">
						<rect x="-14.6" y="232.1" class="st1" width="45.6" height="2.8"/>
					</g>
				</g>
				<g id="g3041" transform="translate(47.2451,376.5)">
					<g id="path3043">
						<rect x="-44.3" y="120.1" class="st1" width="39.4" height="2.8"/>
					</g>
				</g>
				<g id="g3045" transform="translate(41.667,135.5)">
					<g id="path3047">
						<rect x="-39.2" y="344" class="st1" width="40" height="2.8"/>
					</g>
				</g>
			</g>
		</g>
	</g>
</g>
</svg>
