<?xml version="1.0" encoding="utf-8"?>
<!-- Generator: Adobe Illustrator 26.3.1, SVG Export Plug-In . SVG Version: 6.00 Build 0)  -->
<svg version="1.1" id="Layer_1" xmlns="http://www.w3.org/2000/svg" xmlns:xlink="http://www.w3.org/1999/xlink" x="0px" y="0px"
	 viewBox="0 0 60 60" style="enable-background:new 0 0 60 60;" xml:space="preserve">
<style type="text/css">
	.st0{clip-path:url(#SVGID_00000159449306373954513070000008101240476871237296_);}
	.st1{fill:#E45252;}
	.st2{clip-path:url(#SVGID_00000087381387401745726740000012505203215566513338_);}
	.st3{clip-path:url(#SVGID_00000026862224052099043600000000734594553752243595_);}
</style>
<g id="g1047" transform="matrix(1.3333333,0,0,-1.3333333,0,682.66667)">
	<g id="g1049">
		<g>
			<defs>
				<rect id="SVGID_00000052084011433783285110000012357337300323104156_" x="2.3" y="468.1" width="40.4" height="40.4"/>
			</defs>
			<clipPath id="SVGID_00000125580252152362703310000009613685890702759351_">
				<use xlink:href="#SVGID_00000052084011433783285110000012357337300323104156_"  style="overflow:visible;"/>
			</clipPath>
			<g id="g1051" style="clip-path:url(#SVGID_00000125580252152362703310000009613685890702759351_);">
				<g id="g1057" transform="translate(512,15)">
					<g id="path1059">
						<rect x="-509.7" y="457.8" class="st1" width="40.4" height="2.4"/>
					</g>
				</g>
			</g>
		</g>
	</g>
	<g id="path1061">
		<path class="st1" d="M7.4,498.1h1.8v1.8H7.4V498.1z"/>
	</g>
	<g id="path1063">
		<path class="st1" d="M7.4,501.6h1.8v1.8H7.4V501.6z"/>
	</g>
	<g id="path1065">
		<path class="st1" d="M7.4,494.5h1.8v1.8H7.4V494.5z"/>
	</g>
	<g id="g1067" transform="translate(256,296)">
		<g id="path1069">
			<polygon class="st1" points="-239.7,181.5 -241.5,181.5 -241.5,195.5 -233.5,195.5 -233.5,193.7 -239.7,193.7 			"/>
		</g>
	</g>
	<g id="g1071" transform="translate(376.5,396.5)">
		<g id="path1073">
			<polygon class="st1" points="-353.1,81 -354.9,81 -354.9,100.9 -346.9,100.9 -346.9,99.2 -353.1,99.2 			"/>
		</g>
	</g>
	<g id="g1075">
		<g>
			<g id="g1077">
				<g id="g1083" transform="translate(135.5,195.5)">
					<g id="path1085">
						<path class="st1" d="M-97.9,281.2h-30.3v8.9h8v-1.8h-6.2v-5.3h19.6v24.9h8.9V281.2z M-105,282.9h5.3v23.2h-5.3V282.9z"/>
					</g>
				</g>
			</g>
		</g>
	</g>
</g>
</svg>
