<svg width="40" height="40" viewBox="0 0 40 40" fill="none" xmlns="http://www.w3.org/2000/svg">
<g clip-path="url(#clip0_90_159)">
<path d="M20 12.5H10V15H20V12.5Z" fill="white"/>
<path d="M25 7.5H10V10H25V7.5Z" fill="white"/>
<path d="M25 2.5H10V5H25V2.5Z" fill="white"/>
<path d="M5.88888 35L12.9279 22.5049L22.2205 30.6174C22.5014 30.8672 22.835 31.0505 23.1965 31.1536C23.5581 31.2567 23.9382 31.277 24.3086 31.2128C24.6791 31.1487 25.0302 31.0018 25.3361 30.7832C25.6419 30.5646 25.8945 30.2798 26.075 29.95L34.7884 16.9457L32.7106 15.5543L23.9606 28.6133L23.8731 28.7426L14.58 20.6293C14.2991 20.3807 13.9659 20.1984 13.6051 20.0958C13.2443 19.9933 12.865 19.9731 12.4954 20.0368C12.1257 20.1005 11.7751 20.2464 11.4694 20.4638C11.1637 20.6812 10.9108 20.9645 10.7292 21.2928L5 31.4783V2.5H2.5V35C2.50076 35.6628 2.7644 36.2983 3.23307 36.7669C3.70175 37.2356 4.33719 37.4992 5 37.5H37.5V35H5.88888Z" fill="white"/>
</g>
<defs>
<clipPath id="clip0_90_159">
<rect width="40" height="40" fill="white"/>
</clipPath>
</defs>
</svg>
