<svg width="40" height="40" viewBox="0 0 40 40" fill="none" xmlns="http://www.w3.org/2000/svg">
<path d="M27.0614 25.9087C27.1689 26.9725 27.2739 28.2262 27.2289 29.4575C27.1976 30.3625 27.1226 31.2612 27.0476 32.1613L26.9789 32.9925C26.9426 33.4187 26.7689 33.7262 26.4614 33.9075C26.3039 34 26.1201 34.0487 25.9351 34.0487C25.8426 34.0487 25.7501 34.0362 25.6639 34.0112C25.4051 33.9412 25.1789 33.7662 25.0414 33.5337C24.9051 33.3025 24.8751 33.0587 24.9389 32.7188C24.9689 32.565 24.9939 32.41 25.0176 32.255C25.2689 30.055 25.2476 27.7225 24.9551 25.3162C24.8601 24.645 24.7526 23.935 24.5726 23.2463C24.3876 22.55 24.1689 21.8837 23.9226 21.265C23.5364 20.3675 23.1851 19.72 22.7839 19.1613C22.5651 18.8988 22.3451 18.6675 22.0964 18.4537C21.8026 18.2525 21.4889 18.0838 21.0951 17.9075C20.6789 17.7475 20.2676 17.6337 19.8301 17.5525C19.6951 17.5413 19.5801 17.5363 19.4676 17.5363C19.3651 17.5363 19.2626 17.54 19.1589 17.5487C18.8339 17.6062 18.5376 17.685 18.2426 17.7887C17.9626 17.9225 17.7164 18.0662 17.4751 18.2312C17.3289 18.36 17.2139 18.48 17.1026 18.6088C16.9876 18.7738 16.8976 18.9275 16.8176 19.09C16.7051 19.3863 16.6201 19.665 16.5626 19.9562C16.5401 20.28 16.5514 20.575 16.5789 20.8725C16.6776 21.4025 16.8326 21.9025 16.9851 22.3862C17.1339 22.8612 17.2876 23.3537 17.3789 23.8475C17.6039 25.0775 17.7364 26.245 17.7851 27.4163C17.8414 28.7163 17.8214 29.875 17.7201 30.9562C17.5789 32.5012 17.2639 33.6588 16.7289 34.6C16.5451 34.9213 16.1901 35.1213 15.8026 35.1213C15.6151 35.1213 15.4326 35.0725 15.2739 34.98C14.7726 34.6862 14.6014 34.0338 14.8926 33.5238C14.9864 33.3587 15.0726 33.195 15.1526 33.0262C15.3514 32.475 15.4901 31.925 15.5839 31.33C15.6839 30.4575 15.7264 29.4913 15.7151 28.3675C15.7026 27.3587 15.6439 26.4375 15.5389 25.5487C15.3914 24.5987 15.2351 23.8875 15.0289 23.2363L14.8926 22.8288C14.8239 22.6275 14.7551 22.4275 14.6989 22.2237C14.5951 21.8337 14.5176 21.4088 14.4564 20.8888C14.2976 19.5888 14.7039 18.2338 15.5426 17.2625C16.2601 16.4263 17.3914 15.8238 18.6451 15.6112C18.9301 15.5638 19.2126 15.5387 19.4939 15.5387C19.8776 15.5387 20.2639 15.5863 20.6426 15.6788C21.2151 15.8175 21.7914 16.0275 22.4064 16.3225C23.0239 16.6162 23.5239 16.9688 23.8939 17.3688C24.3326 17.8438 24.7101 18.36 25.0164 18.9025C25.6401 19.9987 26.1164 21.1225 26.4351 22.2425C26.7864 23.4663 26.9439 24.7275 27.0614 25.9087ZM13.0501 12.165C12.9514 12.1375 12.8401 12.1238 12.7276 12.1238C12.5089 12.1238 12.3126 12.1763 12.1739 12.2738C11.8389 12.5075 11.5576 12.7362 11.3151 12.9725C11.0526 13.2313 10.8276 13.54 10.6301 13.8137C10.3439 14.205 10.0764 14.6862 9.83511 15.245C9.57511 15.84 9.31386 16.4738 9.21386 17.1075C9.15761 17.47 9.10886 17.8325 9.08011 18.1975C9.05761 18.4787 9.08011 18.7675 9.10886 19.1575C9.15386 19.8337 9.25011 20.49 9.39386 21.11C9.51761 21.6438 9.69886 22.1737 9.90511 22.7837C10.3764 24.1775 10.6951 25.3475 10.9076 26.4663C10.9351 26.6163 10.9601 26.7675 10.9826 26.9263C11.0314 27.4163 11.0701 27.9075 11.0851 28.4025C11.1001 28.95 11.0589 29.4987 11.0114 30.0712C10.9214 30.65 10.8064 31.2237 10.6914 31.8013C10.6251 32.12 10.6576 32.3738 10.7914 32.6025C10.9264 32.8325 11.1489 33.005 11.4026 33.0737C11.4814 33.095 11.5664 33.1063 11.6539 33.1063C12.0776 33.1063 12.5701 32.8312 12.6601 32.3713L12.6901 32.215C12.7989 31.6412 12.9101 31.0638 12.9739 30.48C13.0326 29.9413 13.0639 29.3988 13.0801 28.8538C13.1089 27.91 13.0326 26.8813 12.8389 25.6162C12.6889 24.6462 12.4264 23.68 12.1714 22.745C11.9276 21.8487 11.6751 20.9225 11.5189 19.9775C11.4489 19.4075 11.3776 18.6562 11.4489 17.8687C11.5364 17.3962 11.6701 16.9225 11.8639 16.4112C12.1326 15.825 12.4151 15.3263 12.7389 14.8713C12.9551 14.625 13.1876 14.3925 13.4401 14.18C13.6751 13.985 13.7964 13.8113 13.8601 13.58C13.9401 13.2838 13.8976 12.9613 13.7439 12.695C13.5864 12.4388 13.3351 12.245 13.0501 12.165ZM22.2114 28.41C22.1814 27.8413 22.1226 27.2712 22.0589 26.7013C21.9814 25.9788 21.9001 25.3738 21.7589 24.7775C21.6314 24.2413 21.4764 23.7162 21.3189 23.1912C21.1501 22.6275 20.9951 22.0625 20.8414 21.4963L20.7801 21.2737C20.6639 20.8412 20.2476 20.5275 19.7914 20.5275C19.7026 20.5275 19.6139 20.5388 19.5289 20.5625C19.2701 20.6338 19.0526 20.805 18.9164 21.045C18.7801 21.285 18.7439 21.5587 18.8151 21.8162C18.9976 22.475 19.2026 23.125 19.4076 23.775L19.5689 24.29C19.7664 24.925 19.9214 25.6288 20.0439 26.4475C20.1576 27.475 20.2264 28.425 20.2526 29.3563C20.2789 30.2025 20.2289 31.1012 20.0964 32.1875C19.9939 32.9387 19.8301 33.9225 19.4701 34.86C19.3726 35.1125 19.4551 35.4725 19.5864 35.6987C19.7326 35.9475 19.9739 36.1325 20.2501 36.2087C20.3426 36.2375 20.4401 36.25 20.5376 36.25C21.0364 36.25 21.4801 35.9137 21.6164 35.4325C21.9039 34.4213 22.0776 33.2863 22.1601 31.8612L22.1851 31.465C22.2126 31.0263 22.2401 30.5875 22.2526 30.1475C22.2714 29.635 22.2451 29.1225 22.2201 28.6087L22.2114 28.41ZM15.1851 10.61C15.0564 10.83 15.0226 11.0963 15.0889 11.3412C15.1539 11.5788 15.3126 11.785 15.5264 11.9075C15.6664 11.99 15.8114 12.0275 15.9839 12.0275C16.0789 12.0275 16.1764 12.0162 16.2776 11.9987L16.5389 11.9537C16.9076 11.89 17.2776 11.8263 17.6526 11.775C18.0014 11.735 18.3501 11.7138 18.6989 11.7138C18.9364 11.7138 19.1726 11.7238 19.4276 11.7463C20.0476 11.8663 20.7289 12.0625 21.5226 12.3525C21.9926 12.5688 22.3826 12.7975 22.6889 13.035C22.8589 13.1338 23.0376 13.1825 23.2351 13.1825C23.5201 13.1825 23.7989 13.0675 23.9976 12.8687C24.1989 12.6675 24.3139 12.3887 24.3139 12.1037C24.3139 11.8537 24.2101 11.5075 24.0164 11.3575C23.5189 10.9713 23.0764 10.7025 22.6226 10.5125C22.0989 10.29 21.5639 10.1137 20.9864 9.9725C20.5051 9.855 19.9339 9.73125 19.3414 9.705L19.2039 9.7C18.8176 9.7 18.4201 9.7625 18.0351 9.82375L17.9664 9.83375V9.84125C17.2214 9.9375 16.4776 10.0537 15.7339 10.1762C15.5214 10.2125 15.2926 10.425 15.1851 10.61ZM31.8464 23.2638C31.7614 22.6675 31.6389 22.0938 31.4839 21.5575C31.3139 20.9725 31.0751 20.3988 30.8439 19.845C30.5589 19.1575 30.2801 18.5612 29.9901 18.0212C29.7689 17.605 29.4989 17.2125 29.2314 16.8237L28.9839 16.4625C28.6976 16.0375 28.4251 15.6075 28.1526 15.1762L28.0301 14.9825C27.8176 14.65 27.4526 14.4438 27.0764 14.4438C26.8901 14.4438 26.7126 14.4925 26.5476 14.5887C26.2976 14.735 26.1076 15.0013 26.0376 15.3013C25.9739 15.5763 26.0139 15.845 26.1539 16.0588C26.4001 16.4313 26.6539 16.7987 26.9089 17.1663C27.1101 17.4575 27.3114 17.7487 27.5089 18.0425C27.9001 18.63 28.2464 19.2737 28.5976 20.075C28.8589 20.7175 29.1576 21.4788 29.3889 22.2638C29.6176 23.035 29.7501 23.85 29.8539 24.5575C30.1564 27.01 30.2164 29.03 30.0426 30.92C30.0176 31.1737 30.1826 31.4638 30.3451 31.6275C30.5351 31.8188 30.8001 31.9287 31.0701 31.9287C31.7014 31.9287 32.0639 31.4062 32.0976 30.89L32.1151 30.6188C32.1501 30.1063 32.1839 29.595 32.1776 29.0825C32.1689 28.4438 32.1564 27.8062 32.1326 27.1663C32.0939 25.9175 32.0376 24.5925 31.8464 23.2638ZM35.5214 24.3888C35.5051 23.3062 35.3351 22.2388 35.1526 21.245C35.1089 21 34.8839 20.7687 34.6926 20.6575C34.5364 20.5675 34.3601 20.52 34.1801 20.52C34.0889 20.52 33.9989 20.5325 33.9101 20.5575C33.6576 20.625 33.4401 20.7938 33.3076 21.0238C33.1739 21.2463 33.1451 21.4837 33.2089 21.8162C33.3089 22.3462 33.3989 22.875 33.4801 23.4163C33.5351 23.9775 33.5401 24.5287 33.5301 25.1838L33.5226 25.7337C33.5189 26.1588 33.5139 26.5838 33.4951 27.0075C33.4851 27.2463 33.5776 27.4812 33.7576 27.6712C33.9526 27.8762 34.2289 27.9975 34.4964 27.9975C34.7589 27.9975 35.0176 27.89 35.2026 27.7038C35.4039 27.5025 35.4639 27.2775 35.4951 26.9775C35.5364 26.62 35.5326 26.2612 35.5289 25.9C35.5289 25.9 35.5264 24.8387 35.5214 24.3888ZM33.6826 17.3612C33.8264 17.095 33.8576 16.8038 33.7726 16.54C33.7014 16.32 33.6164 16.1075 33.5301 15.895L33.1239 14.8462C32.8626 14.1975 32.5776 13.5112 32.2289 12.87C31.6139 11.74 30.7376 10.7713 29.8389 9.7775C29.4639 9.36125 29.0664 8.965 28.5889 8.50625C28.1164 8.04875 27.6264 7.575 27.0939 7.175C26.5964 6.80125 26.0051 6.545 25.4814 6.31875C24.7764 6.01125 24.0689 5.715 23.3564 5.4275L23.2151 5.37C22.1451 4.93625 21.0401 4.4875 19.9001 4.25125C19.2314 4.1125 18.5389 4.035 17.7789 3.94875L17.3789 3.90375C16.8701 3.8475 16.3639 3.79 15.8514 3.75875C15.7376 3.75375 15.6251 3.75 15.5114 3.75C14.9539 3.75 14.3864 3.8325 13.7576 3.92375C13.1351 4.01375 12.5101 4.1775 11.9014 4.41125C11.1689 4.69125 10.5389 4.9875 9.97386 5.315C9.42511 5.6325 8.85011 6.03 8.16386 6.56625C7.49886 7.085 7.00011 7.78125 6.54636 8.45125C6.22761 8.9225 5.94011 9.44375 5.67136 10.045C5.32636 10.8038 5.06136 11.5012 4.86261 12.1775C4.67136 12.8212 4.55011 13.5262 4.49011 14.3337C4.44886 14.9012 4.47636 15.5287 4.57761 16.3075C4.68261 17.0937 4.78386 17.8013 4.95386 18.4975C5.05636 18.9175 5.17261 19.3337 5.28886 19.7525L5.47886 20.4425C5.58136 20.8213 5.67261 21.2013 5.76511 21.5812L5.92761 22.2487C6.12886 23.0625 6.30511 23.7975 6.42886 24.5837C6.49511 25.2762 6.50636 25.8625 6.46761 26.43C6.42886 26.98 6.36886 27.5288 6.31011 28.0763L6.26136 28.5312C6.23511 28.7813 6.39761 29.0887 6.57136 29.2625C6.77136 29.46 7.04386 29.5725 7.32136 29.5725C7.60011 29.5725 7.87386 29.46 8.07011 29.2637C8.28761 29.0462 8.35261 28.7987 8.38261 28.4925L8.40261 28.295C8.50136 27.2825 8.60386 26.2375 8.54136 25.2125C8.47886 24.1737 8.28886 23.1438 8.10636 22.1475C7.93261 21.1975 7.75386 20.2525 7.53011 19.31C7.32136 18.4262 7.10511 17.47 6.94386 16.4675C6.83886 15.5813 6.81511 14.77 6.87386 13.9688C7.01386 13.1462 7.24886 12.3088 7.59636 11.4C7.77761 10.9825 7.97011 10.5725 8.19136 10.1713C8.45011 9.705 8.76511 9.2625 9.05261 8.8575C9.27136 8.605 9.52511 8.3625 9.88636 8.0625C10.7451 7.435 11.4989 6.98125 12.2689 6.62875C12.9501 6.3675 13.6789 6.18 14.5064 6.055C14.8376 6.025 15.1676 6.0075 15.4976 6.0075C15.7976 6.0075 16.0964 6.02125 16.3976 6.05125C16.9989 6.10625 17.5989 6.17875 18.2039 6.25625C18.6651 6.33125 19.1264 6.415 19.5826 6.51375C19.9626 6.595 20.3264 6.72375 20.6901 6.855L20.8789 6.92125C21.7839 7.24125 22.6739 7.59 23.5801 7.955C24.3201 8.26625 25.0851 8.58875 25.7726 9.06125C26.3514 9.54 26.9651 10.1088 27.6476 10.8C28.1676 11.3263 28.8426 12.0287 29.4576 12.7937C29.7539 13.1912 29.9976 13.57 30.2039 13.9513C30.4414 14.3875 30.6514 14.8388 30.8514 15.2987C31.0976 15.905 31.3376 16.5163 31.5501 17.1325C31.6664 17.4663 31.8351 17.6888 32.0839 17.8337C32.2589 17.935 32.4589 17.9887 32.6651 17.9887C32.7689 17.9887 32.8714 17.975 32.9701 17.9475C33.2614 17.865 33.5289 17.6462 33.6826 17.3612Z" fill="white"/>
</svg>
