<svg width="40" height="40" viewBox="0 0 40 40" fill="none" xmlns="http://www.w3.org/2000/svg">
<g clip-path="url(#clip0_90_166)">
<path d="M8.75 37.5C7.51387 37.5 6.3055 37.1334 5.27769 36.4467C4.24988 35.7599 3.4488 34.7838 2.97576 33.6418C2.50271 32.4997 2.37894 31.2431 2.62009 30.0307C2.86125 28.8183 3.45651 27.7047 4.33059 26.8306C5.20466 25.9565 6.31831 25.3613 7.53069 25.1201C8.74307 24.8789 9.99974 25.0027 11.1418 25.4758C12.2838 25.9488 13.2599 26.7499 13.9467 27.7777C14.6334 28.8055 15 30.0139 15 31.25C14.9981 32.907 14.3389 34.4956 13.1673 35.6673C11.9956 36.8389 10.407 37.4981 8.75 37.5ZM8.75 27.5C8.00832 27.5 7.2833 27.7199 6.66661 28.132C6.04993 28.544 5.56928 29.1297 5.28545 29.8149C5.00163 30.5002 4.92736 31.2542 5.07206 31.9816C5.21675 32.709 5.57391 33.3772 6.09835 33.9017C6.6228 34.4261 7.29099 34.7833 8.01841 34.9279C8.74584 35.0726 9.49984 34.9984 10.1851 34.7146C10.8703 34.4307 11.456 33.9501 11.868 33.3334C12.2801 32.7167 12.5 31.9917 12.5 31.25C12.4989 30.2558 12.1035 29.3026 11.4004 28.5996C10.6974 27.8965 9.74423 27.5011 8.75 27.5Z" fill="white"/>
<path d="M30 32.5H17.5V30H30V21.25H10C9.33717 21.2493 8.70169 20.9857 8.233 20.517C7.76431 20.0483 7.50069 19.4128 7.5 18.75V10C7.50069 9.33717 7.76431 8.70169 8.233 8.233C8.70169 7.76431 9.33717 7.50069 10 7.5H22.5V10H10V18.75H30C30.6628 18.7507 31.2983 19.0143 31.767 19.483C32.2357 19.9517 32.4993 20.5872 32.5 21.25V30C32.4993 30.6628 32.2357 31.2983 31.767 31.767C31.2983 32.2357 30.6628 32.4993 30 32.5Z" fill="white"/>
<path d="M35 15H27.5C26.8372 14.9992 26.2017 14.7356 25.7331 14.2669C25.2644 13.7983 25.0008 13.1628 25 12.5V5C25.0008 4.33719 25.2644 3.70175 25.7331 3.23307C26.2017 2.7644 26.8372 2.50076 27.5 2.5H35C35.6628 2.50076 36.2983 2.7644 36.7669 3.23307C37.2356 3.70175 37.4992 4.33719 37.5 5V12.5C37.4992 13.1628 37.2356 13.7983 36.7669 14.2669C36.2983 14.7356 35.6628 14.9992 35 15ZM27.5 5V12.5H35V5H27.5Z" fill="white"/>
</g>
<defs>
<clipPath id="clip0_90_166">
<rect width="40" height="40" fill="white"/>
</clipPath>
</defs>
</svg>
