<?xml version="1.0" encoding="UTF-8"?>
<svg id="Layer_1" data-name="Layer 1" xmlns="http://www.w3.org/2000/svg" version="1.1" viewBox="0 0 52 52">
  <defs>
    <style>
      .cls-1 {
        fill: #fff;
        stroke-width: 0px;
      }
    </style>
  </defs>
  <path class="cls-1" d="M42,0H10C4.5,0,0,4.5,0,10v32c0,5.5,4.5,10,10,10h32c5.5,0,10-4.5,10-10V10c0-5.5-4.5-10-10-10ZM35.8,33.7c0,1.1-.9,2-2,2s-2-.9-2-2v-10.9l-12.3,12.3c-.8.8-2,.8-2.8,0s-.8-2,0-2.8l12.3-12.3h-10.9c-1.1,0-2-.9-2-2s.9-2,2-2h15.7s0,0,0,0c.2,0,.5,0,.7.1h0c.2,0,.5.2.7.4.2.2.3.4.4.6h0c0,.2.2.5.2.8v15.7Z"/>
</svg>