<svg id="svg" version="1.1" xmlns="http://www.w3.org/2000/svg" xmlns:xlink="http://www.w3.org/1999/xlink" width="400" height="219.2600652883569" viewBox="0, 0, 400,219.2600652883569"><g id="svgg"><path id="path0" d="M109.083 0.092 C 108.992 0.118,107.492 0.179,105.750 0.227 C 104.008 0.275,102.433 0.347,102.250 0.386 C 102.067 0.426,101.504 0.508,101.000 0.569 C 99.292 0.776,99.023 0.815,97.969 1.000 C 95.789 1.382,90.686 2.647,89.917 2.994 C 89.733 3.077,89.096 3.305,88.500 3.500 C 87.904 3.695,87.267 3.917,87.083 3.991 C 85.070 4.814,84.404 5.080,84.333 5.087 C 84.287 5.091,84.091 5.184,83.897 5.292 C 83.703 5.400,83.496 5.441,83.439 5.383 C 83.381 5.325,83.333 5.365,83.333 5.472 C 83.333 5.579,83.256 5.667,83.161 5.667 C 82.930 5.667,78.868 7.657,78.802 7.803 C 78.773 7.865,78.450 8.064,78.083 8.244 C 77.717 8.424,77.098 8.784,76.708 9.044 C 76.319 9.303,76.000 9.461,76.000 9.393 C 76.000 9.325,75.906 9.386,75.792 9.529 C 75.677 9.672,75.321 9.930,75.000 10.103 C 74.679 10.275,74.379 10.457,74.333 10.506 C 74.287 10.555,73.807 10.885,73.265 11.241 C 72.724 11.596,72.142 12.024,71.974 12.193 C 71.805 12.362,71.602 12.500,71.523 12.500 C 71.444 12.500,71.102 12.762,70.761 13.083 C 70.421 13.404,70.091 13.667,70.027 13.667 C 69.963 13.667,69.556 14.007,69.122 14.422 C 68.688 14.838,68.333 15.133,68.333 15.078 C 68.333 14.964,67.340 15.883,65.085 18.083 C 63.571 19.561,60.982 22.408,60.167 23.493 C 59.938 23.798,59.545 24.280,59.294 24.565 C 59.044 24.850,58.837 25.128,58.836 25.183 C 58.835 25.238,58.680 25.459,58.492 25.675 C 58.305 25.892,57.990 26.334,57.793 26.659 C 57.596 26.984,57.393 27.287,57.342 27.333 C 57.115 27.539,55.833 29.486,55.833 29.626 C 55.833 29.711,55.683 29.918,55.499 30.084 C 55.315 30.251,55.196 30.418,55.234 30.456 C 55.273 30.495,54.936 31.133,54.485 31.874 C 54.035 32.615,53.667 33.316,53.667 33.430 C 53.667 33.545,53.610 33.664,53.542 33.694 C 53.292 33.805,51.158 38.368,51.119 38.875 C 51.106 39.035,51.052 39.167,50.997 39.167 C 50.917 39.167,50.285 40.714,50.249 41.000 C 50.243 41.046,50.144 41.252,50.030 41.458 C 49.915 41.665,49.864 41.833,49.915 41.833 C 49.966 41.833,49.892 42.058,49.750 42.333 C 49.608 42.608,49.540 42.833,49.599 42.833 C 49.659 42.833,49.616 42.944,49.504 43.079 C 49.325 43.294,49.074 44.072,48.938 44.833 C 48.913 44.971,48.847 45.196,48.791 45.333 C 48.675 45.620,47.853 48.875,47.739 49.500 C 47.697 49.729,47.619 50.104,47.565 50.333 C 47.512 50.563,47.433 50.938,47.391 51.167 C 47.348 51.396,47.241 51.912,47.151 52.314 C 47.062 52.716,47.022 53.077,47.062 53.118 C 47.103 53.159,47.068 53.430,46.984 53.721 C 46.500 55.409,46.179 65.088,46.514 67.924 C 46.759 70.005,46.984 71.712,47.072 72.167 C 47.116 72.396,47.227 73.033,47.319 73.583 C 47.410 74.133,47.525 74.771,47.574 75.000 C 47.852 76.314,48.021 77.167,48.011 77.206 C 48.005 77.230,48.186 77.850,48.414 78.583 C 48.642 79.317,48.829 80.049,48.831 80.211 C 48.832 80.372,48.902 80.635,48.987 80.794 C 49.071 80.953,49.381 81.854,49.676 82.796 C 49.971 83.737,50.276 84.548,50.356 84.597 C 50.435 84.646,50.500 84.830,50.500 85.005 C 50.500 85.180,50.693 85.757,50.929 86.287 C 51.165 86.817,51.476 87.513,51.619 87.833 C 52.310 89.376,53.724 92.259,53.826 92.333 C 53.927 92.406,54.188 92.932,54.240 93.167 C 54.256 93.238,54.546 93.714,55.620 95.426 C 55.731 95.604,56.050 96.135,56.329 96.605 C 56.608 97.076,56.947 97.554,57.084 97.668 C 57.221 97.781,57.333 97.971,57.333 98.090 C 57.333 98.208,57.394 98.331,57.468 98.361 C 57.542 98.392,57.857 98.792,58.167 99.250 C 58.478 99.708,58.820 100.158,58.927 100.250 C 59.034 100.342,59.444 100.867,59.838 101.417 C 60.231 101.967,60.672 102.544,60.818 102.699 C 60.964 102.854,61.383 103.326,61.750 103.747 C 62.117 104.169,62.905 105.017,63.502 105.632 C 64.099 106.247,64.755 106.966,64.960 107.231 C 65.165 107.495,65.333 107.662,65.333 107.602 C 65.333 107.541,65.792 107.942,66.353 108.493 C 66.914 109.044,67.596 109.664,67.870 109.872 C 68.143 110.080,68.499 110.385,68.661 110.549 C 68.823 110.713,69.209 111.033,69.519 111.258 C 70.092 111.675,70.850 112.281,71.644 112.958 C 71.886 113.164,72.143 113.333,72.215 113.333 C 72.288 113.333,72.438 113.409,72.549 113.502 C 73.255 114.094,74.187 114.759,74.833 115.133 C 75.246 115.372,75.621 115.618,75.667 115.681 C 75.712 115.743,76.237 116.054,76.833 116.372 C 77.429 116.690,78.254 117.149,78.667 117.393 C 79.079 117.637,79.698 117.957,80.042 118.103 C 80.385 118.250,80.667 118.436,80.667 118.518 C 80.667 118.600,80.750 118.667,80.851 118.667 C 80.953 118.667,81.496 118.884,82.060 119.149 C 83.503 119.830,84.569 120.303,84.667 120.307 C 84.712 120.308,85.256 120.537,85.875 120.815 C 86.494 121.092,87.001 121.266,87.003 121.201 C 87.004 121.136,87.060 121.160,87.128 121.255 C 87.233 121.403,89.174 122.087,89.293 122.018 C 89.317 122.005,89.552 122.104,89.814 122.240 C 90.076 122.376,90.336 122.442,90.392 122.386 C 90.447 122.331,90.588 122.361,90.704 122.454 C 90.821 122.546,91.104 122.663,91.333 122.713 C 91.563 122.763,91.900 122.842,92.083 122.888 C 94.821 123.581,95.586 123.771,96.250 123.924 C 96.342 123.945,96.679 124.007,97.000 124.061 C 97.321 124.116,97.771 124.199,98.000 124.246 C 98.963 124.444,99.534 124.541,100.043 124.591 C 100.340 124.620,101.146 124.713,101.833 124.797 C 104.283 125.097,139.700 125.245,141.250 124.962 C 142.398 124.752,143.168 124.539,143.380 124.373 C 143.492 124.285,143.808 124.159,144.082 124.093 C 144.356 124.027,144.618 123.923,144.665 123.862 C 144.712 123.800,145.224 123.501,145.803 123.197 C 148.471 121.797,151.004 118.790,152.260 115.532 C 152.497 114.919,152.757 114.267,152.839 114.083 C 153.396 112.829,153.417 111.853,153.417 86.667 C 153.417 59.474,153.438 60.750,152.950 59.083 C 152.762 58.442,152.591 57.826,152.570 57.716 C 152.549 57.605,152.412 57.275,152.266 56.982 C 152.120 56.689,152.000 56.388,152.000 56.314 C 152.000 56.239,151.794 55.856,151.542 55.463 C 149.980 53.026,148.158 51.190,146.369 50.250 C 145.845 49.975,145.392 49.694,145.361 49.625 C 145.331 49.556,145.211 49.500,145.095 49.500 C 144.979 49.500,144.652 49.384,144.368 49.242 C 144.083 49.100,143.715 48.957,143.550 48.924 C 143.385 48.890,143.044 48.783,142.792 48.686 C 142.540 48.588,142.333 48.542,142.333 48.583 C 142.333 48.625,142.127 48.579,141.875 48.482 C 141.127 48.193,137.320 48.153,136.418 48.424 C 135.991 48.553,135.591 48.648,135.529 48.636 C 135.467 48.623,135.206 48.700,134.947 48.806 C 134.689 48.913,134.413 49.000,134.333 49.000 C 134.085 49.000,132.086 49.898,132.028 50.036 C 131.997 50.108,131.866 50.167,131.736 50.167 C 131.606 50.167,131.500 50.233,131.500 50.314 C 131.500 50.395,131.369 50.505,131.208 50.559 C 130.169 50.908,127.606 53.425,126.771 54.917 C 126.617 55.192,126.344 55.660,126.165 55.958 C 125.986 56.256,125.878 56.500,125.923 56.500 C 125.969 56.500,125.844 56.819,125.644 57.208 C 124.552 59.341,124.523 59.904,124.511 79.151 L 124.500 96.386 114.621 96.282 L 104.743 96.179 102.266 95.676 C 100.905 95.399,99.699 95.096,99.588 95.004 C 99.477 94.912,99.342 94.881,99.287 94.935 C 99.233 94.989,99.090 94.972,98.969 94.896 C 98.849 94.821,98.641 94.743,98.507 94.723 C 98.374 94.703,98.111 94.614,97.924 94.526 C 97.737 94.438,97.133 94.194,96.583 93.985 C 96.033 93.775,95.340 93.469,95.042 93.305 C 94.744 93.140,94.500 93.047,94.500 93.098 C 94.500 93.149,94.302 93.035,94.061 92.845 C 93.819 92.655,93.529 92.500,93.415 92.500 C 93.301 92.500,93.115 92.388,93.002 92.252 C 92.888 92.115,92.734 92.042,92.659 92.088 C 92.584 92.134,92.481 92.104,92.429 92.020 C 92.377 91.936,92.016 91.702,91.626 91.498 C 91.236 91.295,90.643 90.912,90.309 90.648 C 89.975 90.383,89.650 90.167,89.587 90.167 C 89.524 90.167,89.125 89.885,88.700 89.542 C 88.274 89.198,87.740 88.767,87.513 88.583 C 87.286 88.400,86.728 87.912,86.273 87.500 C 85.562 86.855,85.058 86.343,83.292 84.475 C 83.131 84.305,83.000 84.108,83.000 84.037 C 83.000 83.966,82.869 83.789,82.708 83.644 C 82.272 83.251,81.833 82.683,81.833 82.512 C 81.833 82.429,81.776 82.336,81.707 82.306 C 81.498 82.214,79.999 79.933,80.000 79.708 C 80.000 79.594,79.935 79.500,79.856 79.500 C 79.737 79.500,78.298 76.742,77.814 75.583 C 75.306 69.589,74.587 62.554,75.839 56.250 C 75.930 55.792,76.048 55.160,76.103 54.847 C 76.157 54.533,76.303 53.989,76.427 53.638 C 76.551 53.287,76.609 53.000,76.556 53.000 C 76.503 53.000,76.533 52.906,76.624 52.792 C 76.714 52.677,76.955 52.058,77.158 51.417 C 77.580 50.085,79.271 46.478,79.558 46.294 C 79.664 46.227,79.695 46.171,79.627 46.169 C 79.439 46.165,80.741 44.104,82.019 42.380 C 83.501 40.381,86.728 37.124,88.333 36.006 C 88.654 35.782,88.954 35.556,89.000 35.503 C 89.598 34.808,94.719 31.833,95.318 31.833 C 95.403 31.833,95.497 31.777,95.528 31.708 C 95.671 31.387,101.472 29.620,103.080 29.409 C 103.357 29.372,103.947 29.274,104.393 29.189 C 104.838 29.105,108.850 29.031,113.309 29.024 C 123.311 29.008,140.205 28.844,141.017 28.755 C 142.695 28.570,145.737 27.427,146.999 26.508 C 148.289 25.568,150.667 23.259,150.667 22.946 C 150.667 22.858,150.772 22.703,150.900 22.602 C 151.099 22.444,152.231 20.411,152.256 20.167 C 152.278 19.950,152.725 18.731,152.836 18.583 C 153.537 17.655,153.549 12.759,152.856 10.533 C 152.680 9.965,152.560 9.500,152.591 9.500 C 152.681 9.500,151.147 6.592,151.009 6.500 C 150.940 6.454,150.853 6.328,150.817 6.221 C 150.481 5.234,146.201 1.626,145.108 1.407 C 144.938 1.374,144.713 1.276,144.608 1.190 C 144.386 1.010,142.390 0.420,141.417 0.247 C 140.795 0.137,109.449 -0.014,109.083 0.092 M324.278 0.111 C 324.263 0.126,323.725 0.184,323.083 0.241 C 321.816 0.354,320.092 0.614,319.167 0.832 C 318.846 0.907,318.021 1.099,317.333 1.258 C 314.792 1.846,312.371 2.703,309.667 3.971 C 309.162 4.207,308.694 4.385,308.625 4.367 C 308.556 4.348,308.500 4.399,308.500 4.480 C 308.500 4.560,308.256 4.726,307.958 4.849 C 307.660 4.971,307.342 5.132,307.250 5.206 C 306.691 5.657,305.013 6.624,304.931 6.542 C 304.877 6.489,304.833 6.532,304.833 6.639 C 304.833 6.746,304.729 6.833,304.601 6.833 C 304.473 6.833,304.324 6.951,304.269 7.094 C 304.214 7.237,304.093 7.308,304.001 7.251 C 303.909 7.194,303.833 7.210,303.833 7.288 C 303.833 7.365,303.627 7.553,303.375 7.705 C 303.123 7.857,302.714 8.173,302.466 8.407 C 302.218 8.642,301.942 8.833,301.853 8.833 C 301.563 8.833,296.420 14.057,295.618 15.167 C 295.188 15.762,294.723 16.369,294.584 16.514 C 294.446 16.659,294.333 16.836,294.333 16.907 C 294.333 16.977,294.120 17.309,293.859 17.643 C 293.211 18.473,290.830 22.632,290.838 22.919 C 290.839 22.965,290.735 23.209,290.606 23.460 C 290.477 23.711,290.254 24.254,290.111 24.667 C 289.967 25.079,289.663 25.923,289.434 26.542 C 289.205 27.160,289.054 27.667,289.098 27.667 C 289.142 27.667,289.085 27.835,288.970 28.042 C 288.856 28.248,288.755 28.529,288.748 28.667 C 288.740 28.804,288.674 29.093,288.600 29.308 C 288.527 29.524,288.445 29.861,288.419 30.058 C 288.393 30.255,288.281 30.792,288.172 31.250 C 286.230 39.364,288.251 50.706,292.946 58.043 C 293.342 58.663,293.667 59.215,293.667 59.269 C 293.667 59.324,293.835 59.576,294.042 59.830 C 294.248 60.084,294.567 60.502,294.750 60.760 C 296.498 63.219,301.229 68.167,301.833 68.167 C 301.910 68.167,301.997 68.223,302.028 68.292 C 302.058 68.360,302.317 68.604,302.602 68.833 C 303.135 69.262,303.342 69.408,304.318 70.046 C 304.630 70.250,305.193 70.618,305.568 70.864 C 306.951 71.772,308.461 72.596,310.167 73.373 C 311.129 73.812,312.067 74.245,312.250 74.335 C 312.433 74.425,312.733 74.522,312.917 74.550 C 313.100 74.578,313.512 74.723,313.833 74.873 C 314.533 75.199,316.400 75.744,317.667 75.991 C 319.085 76.268,319.399 76.337,319.648 76.425 C 321.230 76.986,323.315 77.046,342.917 77.087 C 362.657 77.128,362.883 77.132,363.719 77.475 C 363.977 77.580,364.249 77.667,364.323 77.667 C 364.832 77.667,367.299 79.110,367.958 79.795 C 368.165 80.009,368.333 80.131,368.333 80.066 C 368.333 79.824,369.828 81.817,369.846 82.083 C 369.852 82.175,369.976 82.381,370.121 82.542 C 370.266 82.702,370.324 82.833,370.250 82.833 C 370.176 82.833,370.251 82.983,370.417 83.167 C 370.583 83.350,370.667 83.500,370.605 83.500 C 370.543 83.500,370.607 83.675,370.747 83.888 C 370.887 84.102,370.956 84.322,370.901 84.377 C 370.845 84.433,370.860 84.575,370.934 84.694 C 371.206 85.135,371.267 87.741,371.020 88.375 C 370.922 88.627,370.876 88.833,370.918 88.833 C 371.105 88.833,370.241 90.819,369.770 91.471 C 368.553 93.157,367.241 94.262,365.333 95.208 C 362.968 96.381,364.648 96.319,335.167 96.330 C 318.416 96.337,308.183 96.402,307.500 96.507 C 306.904 96.598,306.168 96.709,305.863 96.754 C 305.559 96.798,305.146 96.922,304.946 97.029 C 304.747 97.136,304.562 97.205,304.536 97.183 C 304.490 97.144,303.689 97.494,302.500 98.073 C 301.704 98.461,301.283 98.711,300.994 98.964 C 300.860 99.082,300.431 99.408,300.041 99.688 C 299.651 99.967,299.367 100.253,299.410 100.323 C 299.453 100.393,299.322 100.543,299.119 100.657 C 298.516 100.996,296.357 103.959,296.197 104.667 C 296.168 104.796,296.007 105.205,295.840 105.576 C 294.008 109.636,294.885 115.852,297.812 119.554 C 298.430 120.335,300.695 122.486,301.002 122.584 C 301.184 122.642,301.333 122.748,301.333 122.820 C 301.333 122.986,303.915 124.264,304.583 124.429 C 304.858 124.497,305.158 124.576,305.250 124.605 C 307.052 125.174,306.468 125.166,339.333 125.110 C 356.887 125.080,371.605 125.006,372.038 124.947 C 373.985 124.678,377.728 123.747,378.480 123.344 C 378.650 123.253,378.837 123.226,378.895 123.284 C 378.953 123.342,379.000 123.301,379.000 123.194 C 379.000 123.088,379.116 123.000,379.259 123.000 C 379.401 123.000,380.024 122.738,380.644 122.417 C 381.264 122.096,381.828 121.833,381.897 121.833 C 381.967 121.833,382.350 121.608,382.750 121.333 C 383.150 121.058,383.523 120.833,383.579 120.833 C 383.635 120.833,383.771 120.759,383.882 120.667 C 383.993 120.576,384.571 120.148,385.167 119.717 C 387.478 118.045,389.866 115.766,391.083 114.071 C 391.267 113.816,391.567 113.451,391.750 113.262 C 392.054 112.947,392.965 111.653,393.167 111.250 C 393.212 111.158,393.449 110.778,393.691 110.405 C 393.934 110.032,394.347 109.320,394.608 108.822 C 394.869 108.324,395.128 107.879,395.182 107.833 C 395.482 107.580,398.002 101.171,398.257 100.014 C 398.369 99.505,398.450 99.170,398.664 98.333 C 399.127 96.521,399.363 95.313,399.592 93.583 C 399.641 93.217,399.748 92.429,399.830 91.833 C 400.030 90.375,400.031 83.292,399.830 82.250 C 399.742 81.792,399.636 81.154,399.593 80.833 C 399.453 79.772,399.186 78.425,398.998 77.833 C 398.897 77.512,398.777 77.063,398.733 76.833 C 398.620 76.256,397.860 73.979,397.662 73.627 C 397.573 73.468,397.500 73.242,397.500 73.125 C 397.500 73.008,397.268 72.425,396.985 71.831 C 395.975 69.708,395.582 68.915,395.500 68.833 C 395.454 68.787,395.395 68.648,395.369 68.523 C 395.342 68.398,394.949 67.732,394.494 67.042 C 394.039 66.352,393.667 65.729,393.667 65.657 C 393.667 65.586,393.603 65.503,393.526 65.472 C 393.448 65.442,393.022 64.892,392.579 64.250 C 392.136 63.608,391.730 63.046,391.676 63.000 C 391.623 62.954,391.249 62.517,390.846 62.028 C 390.098 61.122,387.500 58.488,387.500 58.636 C 387.500 58.681,387.369 58.574,387.208 58.399 C 387.048 58.224,386.354 57.631,385.667 57.082 C 384.979 56.533,384.392 56.027,384.361 55.958 C 384.331 55.890,384.206 55.833,384.083 55.833 C 383.961 55.833,383.836 55.772,383.806 55.697 C 383.775 55.622,383.262 55.234,382.667 54.834 C 382.071 54.435,381.537 54.040,381.481 53.957 C 381.425 53.873,381.350 53.816,381.315 53.830 C 381.214 53.869,380.593 53.620,380.500 53.504 C 380.454 53.446,379.742 53.066,378.917 52.658 C 378.092 52.250,377.371 51.854,377.315 51.777 C 377.259 51.701,377.165 51.645,377.106 51.654 C 377.047 51.663,376.718 51.546,376.374 51.395 C 375.384 50.957,371.629 49.662,371.130 49.586 C 370.881 49.548,370.543 49.448,370.380 49.365 C 370.217 49.281,369.783 49.169,369.417 49.116 C 369.050 49.063,368.563 48.981,368.333 48.932 C 367.813 48.823,366.231 48.551,364.917 48.345 C 364.323 48.252,356.163 48.207,344.833 48.234 C 334.337 48.259,325.581 48.218,325.374 48.143 C 325.168 48.069,324.755 47.974,324.458 47.933 C 323.557 47.809,322.467 47.404,321.500 46.834 C 320.477 46.231,318.876 45.003,319.103 44.995 C 319.184 44.992,319.121 44.914,318.963 44.822 C 318.496 44.551,317.237 42.651,316.925 41.750 C 316.767 41.292,316.579 40.803,316.508 40.664 C 316.258 40.173,316.432 36.346,316.717 36.060 C 316.781 35.997,316.833 35.837,316.833 35.705 C 316.833 35.347,317.647 33.794,318.014 33.452 C 318.190 33.288,318.333 33.084,318.333 33.000 C 318.333 32.318,321.477 30.174,323.443 29.514 L 324.917 29.019 336.144 29.007 C 342.320 29.001,347.430 28.960,347.500 28.917 C 347.570 28.874,354.817 28.833,363.605 28.827 C 379.388 28.817,380.166 28.793,381.583 28.271 C 381.858 28.170,382.121 28.080,382.167 28.071 C 384.683 27.591,388.980 23.908,390.175 21.208 C 390.307 20.910,390.471 20.667,390.541 20.667 C 390.610 20.667,390.650 20.610,390.630 20.542 C 390.609 20.473,390.788 19.854,391.026 19.167 C 392.110 16.043,392.128 13.018,391.080 9.808 C 390.920 9.318,390.731 8.842,390.659 8.750 C 390.587 8.658,390.512 8.508,390.493 8.417 C 390.429 8.117,390.276 7.752,390.179 7.667 C 390.126 7.621,389.904 7.254,389.684 6.851 C 389.464 6.448,389.164 5.988,389.017 5.829 C 388.870 5.670,388.600 5.341,388.417 5.099 C 387.857 4.359,386.782 3.377,385.765 2.676 C 385.574 2.544,385.379 2.386,385.333 2.325 C 385.253 2.217,384.169 1.613,384.000 1.582 C 383.954 1.573,383.542 1.390,383.083 1.175 C 380.517 -0.032,381.594 0.007,351.445 0.047 C 336.518 0.067,324.293 0.096,324.278 0.111 M185.490 0.226 C 185.450 0.263,184.892 0.333,184.250 0.380 C 183.029 0.471,180.333 1.263,180.333 1.531 C 180.333 1.616,180.262 1.643,180.176 1.589 C 180.005 1.484,177.961 2.653,177.254 3.260 C 176.204 4.162,175.167 5.192,175.167 5.332 C 175.167 5.415,175.072 5.543,174.957 5.617 C 174.657 5.808,173.791 7.000,173.950 7.003 C 174.023 7.004,174.004 7.060,173.907 7.128 C 173.743 7.242,173.283 8.148,172.703 9.500 C 171.745 11.737,171.555 15.374,172.245 18.292 C 172.293 18.498,172.365 18.809,172.404 18.984 C 172.443 19.158,172.593 19.529,172.737 19.809 C 172.882 20.088,173.000 20.424,173.000 20.555 C 173.000 20.685,173.110 20.884,173.245 20.996 C 173.379 21.107,173.473 21.248,173.454 21.308 C 173.279 21.849,177.139 26.320,177.792 26.330 C 177.906 26.332,178.000 26.400,178.000 26.482 C 178.000 26.681,181.306 28.339,181.833 28.404 C 182.063 28.432,182.475 28.559,182.750 28.686 C 183.499 29.032,256.880 29.031,258.000 28.685 C 260.032 28.058,261.714 27.313,262.292 26.785 C 262.498 26.596,262.668 26.511,262.669 26.596 C 262.671 26.681,262.727 26.675,262.794 26.582 C 262.862 26.490,263.179 26.219,263.500 25.980 C 264.615 25.150,266.278 23.326,266.811 22.349 C 268.747 18.800,269.503 14.739,268.768 11.833 C 268.711 11.604,268.623 11.195,268.573 10.924 C 268.483 10.429,268.400 10.222,267.596 8.460 C 267.355 7.934,267.167 7.455,267.177 7.396 C 267.187 7.336,267.129 7.241,267.047 7.185 C 266.966 7.129,266.641 6.711,266.325 6.255 C 265.637 5.264,263.948 3.500,263.686 3.500 C 263.584 3.500,263.500 3.432,263.500 3.348 C 263.500 3.006,260.696 1.494,258.941 0.889 L 257.083 0.250 221.324 0.204 C 201.656 0.179,185.531 0.189,185.490 0.226 M12.667 48.348 C 12.346 48.416,11.858 48.510,11.583 48.556 C 10.445 48.746,7.651 49.906,7.000 50.457 C 6.862 50.574,6.696 50.672,6.631 50.675 C 6.206 50.694,3.000 53.926,3.000 54.335 C 3.000 54.426,2.944 54.500,2.875 54.500 C 2.806 54.500,2.567 54.856,2.343 55.292 C 2.120 55.727,1.827 56.215,1.693 56.375 C 1.558 56.535,1.499 56.667,1.562 56.667 C 1.624 56.667,1.548 56.910,1.393 57.208 C 1.238 57.506,0.937 58.487,0.723 59.387 L 0.335 61.024 0.336 86.481 C 0.338 113.829,0.316 113.093,1.178 115.450 C 1.372 115.982,1.537 116.510,1.543 116.625 C 1.550 116.740,1.609 116.833,1.674 116.833 C 1.739 116.833,1.891 117.077,2.012 117.375 C 2.555 118.720,4.366 120.940,5.858 122.090 C 7.372 123.258,9.970 124.573,11.083 124.735 C 11.450 124.789,12.116 124.918,12.563 125.021 C 13.859 125.322,17.152 125.111,18.750 124.625 C 20.294 124.155,22.167 123.340,22.167 123.139 C 22.167 123.062,22.265 123.000,22.385 123.000 C 22.505 123.000,22.766 122.848,22.965 122.663 C 23.164 122.478,23.385 122.309,23.455 122.288 C 23.526 122.267,23.565 122.194,23.542 122.125 C 23.519 122.056,23.594 121.999,23.708 121.997 C 23.968 121.993,25.415 120.635,26.084 119.768 C 26.719 118.943,27.500 117.839,27.500 117.764 C 27.500 117.733,27.613 117.436,27.752 117.104 C 27.890 116.773,27.997 116.453,27.988 116.394 C 27.979 116.335,28.059 116.233,28.165 116.168 C 28.271 116.102,28.540 115.316,28.761 114.421 L 29.165 112.793 29.164 86.855 C 29.164 72.589,29.100 60.654,29.022 60.333 C 28.943 60.012,28.785 59.337,28.669 58.833 C 28.449 57.869,26.883 54.500,26.655 54.500 C 26.582 54.500,26.479 54.364,26.426 54.197 C 26.302 53.807,24.480 51.903,23.475 51.113 C 22.157 50.079,19.498 48.825,18.083 48.572 C 15.712 48.148,13.953 48.076,12.667 48.348 M219.160 48.224 C 219.118 48.264,218.746 48.334,218.333 48.380 C 217.229 48.503,215.814 48.841,215.293 49.107 C 215.042 49.235,214.780 49.347,214.710 49.355 C 214.571 49.370,213.445 49.951,212.917 50.279 C 212.733 50.393,212.430 50.556,212.243 50.642 C 211.376 51.041,207.833 54.928,207.833 55.481 C 207.833 55.583,207.746 55.667,207.639 55.667 C 207.532 55.667,207.492 55.714,207.549 55.771 C 207.607 55.829,207.484 56.185,207.277 56.563 C 207.070 56.941,206.768 57.737,206.607 58.333 C 206.446 58.929,206.243 59.640,206.157 59.913 C 205.971 60.501,206.024 112.656,206.212 113.417 C 206.604 115.012,206.730 115.433,206.858 115.575 C 206.936 115.662,207.000 115.840,207.000 115.971 C 207.000 116.560,209.614 120.821,209.985 120.838 C 210.039 120.840,210.394 121.121,210.773 121.463 C 211.948 122.521,212.230 122.714,213.667 123.446 C 214.171 123.703,214.638 123.989,214.706 124.082 C 214.773 124.174,214.829 124.196,214.831 124.131 C 214.832 124.065,215.152 124.148,215.542 124.314 C 219.184 125.869,225.930 125.039,228.449 122.725 C 228.564 122.619,228.929 122.365,229.261 122.160 C 229.763 121.850,230.456 121.190,231.591 119.942 C 232.616 118.815,234.188 115.666,234.431 114.250 C 234.463 114.067,234.566 113.617,234.661 113.250 C 234.853 112.506,234.808 60.891,234.614 60.167 C 234.553 59.938,234.467 59.600,234.423 59.417 C 234.379 59.233,234.277 58.818,234.197 58.494 C 233.593 56.053,230.419 51.558,228.958 51.074 C 228.798 51.021,228.667 50.913,228.667 50.834 C 228.667 50.755,228.310 50.516,227.875 50.304 C 227.440 50.091,227.038 49.856,226.983 49.781 C 226.928 49.706,226.778 49.623,226.650 49.597 C 226.522 49.570,226.121 49.418,225.759 49.259 C 225.397 49.099,224.966 48.942,224.800 48.910 C 224.634 48.878,224.423 48.805,224.330 48.748 C 224.158 48.642,224.051 48.620,222.375 48.349 C 221.351 48.184,219.288 48.104,219.160 48.224 M167.368 154.507 C 166.540 154.689,166.167 155.112,166.167 155.867 C 166.167 157.397,167.268 158.160,168.513 157.493 C 170.092 156.648,169.124 154.123,167.368 154.507 M257.000 166.000 L 257.000 177.167 258.083 177.167 L 259.167 177.167 259.167 166.000 L 259.167 154.833 258.083 154.833 L 257.000 154.833 257.000 166.000 M292.083 156.000 C 290.713 156.275,290.422 156.357,290.221 156.524 C 290.107 156.618,289.936 156.647,289.841 156.588 C 289.745 156.529,289.667 156.558,289.667 156.654 C 289.667 156.749,289.479 156.874,289.250 156.932 C 289.021 156.989,288.833 157.107,288.833 157.195 C 288.833 157.282,288.758 157.307,288.667 157.250 C 288.575 157.193,288.500 157.221,288.500 157.312 C 288.500 157.403,288.369 157.520,288.208 157.571 C 287.968 157.648,287.044 158.397,286.250 159.158 C 285.907 159.486,285.688 159.805,285.351 160.465 C 285.161 160.839,284.932 161.189,284.843 161.244 C 284.754 161.299,284.728 161.466,284.786 161.616 C 284.855 161.798,284.825 161.848,284.695 161.768 C 284.588 161.701,284.491 161.726,284.479 161.823 C 284.456 162.022,284.425 162.139,284.304 162.500 C 283.709 164.262,283.647 164.631,283.650 166.383 C 283.651 167.410,283.686 168.400,283.727 168.583 C 283.768 168.767,283.853 169.142,283.915 169.417 C 284.534 172.169,287.214 175.652,289.169 176.245 C 289.600 176.375,290.461 176.729,291.150 177.059 C 291.866 177.401,296.091 177.306,297.167 176.923 C 297.671 176.744,298.121 176.590,298.167 176.582 C 299.353 176.373,303.167 172.804,303.167 171.904 C 303.167 171.847,303.287 171.527,303.434 171.192 C 303.581 170.857,303.761 170.433,303.836 170.250 C 304.084 169.636,304.333 167.954,304.333 166.889 L 304.333 165.833 298.750 165.833 L 293.167 165.833 293.167 166.750 L 293.167 167.667 297.523 167.667 L 301.879 167.667 301.766 168.768 C 301.696 169.453,301.485 170.195,301.210 170.727 C 300.965 171.198,300.762 171.621,300.758 171.667 C 300.703 172.237,297.879 174.667,297.271 174.667 C 297.122 174.667,297.000 174.742,297.000 174.833 C 297.000 174.925,296.944 174.986,296.875 174.968 C 296.806 174.951,296.353 175.026,295.867 175.135 C 294.695 175.398,293.284 175.383,292.203 175.095 C 291.053 174.789,289.500 174.142,289.500 173.969 C 289.500 173.895,289.416 173.833,289.313 173.833 C 289.048 173.833,287.710 172.402,287.389 171.776 C 287.241 171.486,287.067 171.213,287.002 171.167 C 286.482 170.801,285.903 168.114,285.940 166.241 C 285.977 164.427,286.996 161.167,287.527 161.167 C 287.604 161.167,287.667 161.079,287.667 160.972 C 287.667 160.767,289.491 159.010,289.710 159.004 C 289.780 159.002,290.155 158.856,290.543 158.680 C 294.376 156.945,298.959 158.263,300.671 161.592 L 301.052 162.333 302.360 162.333 C 303.078 162.333,303.667 162.292,303.667 162.241 C 303.667 162.013,302.882 160.523,302.417 159.866 C 301.780 158.968,299.522 157.014,299.000 156.910 C 298.954 156.900,298.729 156.811,298.500 156.710 C 296.731 155.934,293.945 155.625,292.083 156.000 M0.577 156.208 C 0.533 156.323,0.516 161.067,0.540 166.750 L 0.583 177.083 1.667 177.132 L 2.750 177.180 2.706 166.590 L 2.662 156.000 1.659 156.000 C 1.010 156.000,0.628 156.074,0.577 156.208 M39.500 158.625 L 39.500 160.667 38.333 160.667 L 37.167 160.667 37.167 161.583 L 37.167 162.500 38.333 162.500 L 39.500 162.500 39.500 168.136 C 39.500 174.957,39.595 175.457,41.079 176.429 C 41.949 176.999,42.715 177.162,44.542 177.164 L 46.333 177.167 46.333 176.167 L 46.333 175.167 44.911 175.167 C 41.809 175.167,41.833 175.223,41.833 168.092 L 41.833 162.500 44.083 162.500 L 46.333 162.500 46.333 161.583 L 46.333 160.667 44.083 160.667 L 41.833 160.667 41.833 158.680 L 41.833 156.694 40.666 156.639 L 39.499 156.583 39.500 158.625 M150.301 158.625 L 150.352 160.667 149.176 160.667 L 148.000 160.667 148.000 161.583 L 148.000 162.500 149.172 162.500 L 150.343 162.500 150.327 168.292 C 150.318 171.477,150.362 174.233,150.424 174.417 C 151.117 176.478,152.006 177.000,155.042 177.129 L 157.000 177.212 157.000 176.190 L 157.000 175.167 155.500 175.146 C 152.434 175.103,152.539 175.350,152.508 168.125 L 152.484 162.500 154.742 162.500 L 157.000 162.500 157.000 161.583 L 157.000 160.667 154.750 160.667 L 152.500 160.667 152.500 158.625 L 152.499 156.583 151.375 156.583 L 150.250 156.583 150.301 158.625 M19.667 160.528 C 18.875 160.730,17.798 161.198,17.530 161.455 C 17.409 161.572,17.250 161.667,17.177 161.667 C 17.105 161.667,16.829 161.980,16.564 162.363 L 16.083 163.059 16.000 161.905 L 15.917 160.750 14.792 160.701 L 13.667 160.651 13.667 168.909 L 13.667 177.167 14.839 177.167 L 16.012 177.167 15.993 171.958 C 15.980 168.657,16.038 166.582,16.149 166.292 C 16.246 166.040,16.293 165.833,16.254 165.833 C 16.215 165.833,16.301 165.552,16.445 165.208 C 18.104 161.232,24.958 161.533,25.620 165.611 C 25.669 165.913,25.756 166.131,25.813 166.096 C 25.870 166.060,25.919 166.305,25.922 166.641 C 25.926 166.976,25.944 169.481,25.964 172.208 L 26.000 177.167 27.083 177.167 L 28.167 177.167 28.161 171.792 C 28.154 165.131,27.799 163.355,26.229 162.120 C 26.010 161.948,25.737 161.720,25.621 161.612 C 24.517 160.587,21.548 160.046,19.667 160.528 M60.642 160.706 C 59.978 160.869,59.385 161.083,59.324 161.182 C 59.263 161.281,59.184 161.348,59.148 161.331 C 58.801 161.168,56.245 163.390,56.432 163.692 C 56.480 163.770,56.449 163.833,56.363 163.833 C 55.281 163.833,54.530 169.469,55.313 171.708 C 55.498 172.235,55.597 172.668,55.533 172.669 C 55.469 172.671,55.492 172.727,55.583 172.794 C 55.675 172.862,55.937 173.275,56.166 173.714 C 57.336 175.955,60.847 177.752,63.417 177.426 C 65.639 177.144,66.805 176.751,68.047 175.863 C 68.803 175.324,69.833 174.063,69.833 173.678 C 69.833 173.580,69.908 173.500,70.000 173.500 C 70.092 173.500,70.167 173.363,70.167 173.194 C 70.167 173.026,70.220 172.836,70.284 172.771 C 70.866 172.189,70.508 171.833,69.339 171.833 C 68.468 171.833,68.167 171.891,68.167 172.058 C 68.167 172.364,67.672 173.333,67.516 173.333 C 67.446 173.333,67.291 173.517,67.171 173.742 C 67.051 173.967,66.439 174.420,65.811 174.750 C 62.222 176.636,57.833 174.476,57.265 170.544 L 57.163 169.837 63.957 169.794 L 70.750 169.750 70.804 168.500 C 70.880 166.746,70.367 164.713,69.589 163.689 C 69.284 163.288,67.444 161.414,67.430 161.491 C 67.423 161.532,67.004 161.370,66.500 161.132 C 64.909 160.380,62.639 160.215,60.642 160.706 M86.583 160.567 C 85.656 160.831,84.667 161.337,84.667 161.547 C 84.667 161.643,84.620 161.675,84.563 161.618 C 84.451 161.506,83.479 162.444,83.187 162.945 C 83.051 163.180,83.009 162.952,83.005 161.958 L 83.000 160.667 81.920 160.667 L 80.839 160.667 80.795 168.917 L 80.750 177.167 81.875 177.167 L 83.000 177.167 83.000 172.060 C 83.000 166.880,83.252 164.667,83.840 164.667 C 83.928 164.667,84.000 164.565,84.000 164.440 C 84.000 164.315,84.196 164.072,84.435 163.898 C 84.674 163.725,84.973 163.486,85.099 163.366 C 85.225 163.246,85.460 163.117,85.622 163.079 C 85.784 163.041,86.179 162.945,86.500 162.865 C 86.821 162.786,87.140 162.708,87.208 162.694 C 87.277 162.679,87.633 162.667,88.000 162.667 L 88.667 162.667 88.667 161.500 L 88.667 160.333 87.958 160.355 C 87.569 160.367,86.950 160.462,86.583 160.567 M104.166 160.478 C 104.166 160.536,103.928 160.600,103.637 160.621 C 103.347 160.641,103.032 160.735,102.938 160.829 C 102.844 160.923,102.632 161.000,102.467 161.000 C 102.302 161.000,102.167 161.075,102.167 161.167 C 102.167 161.258,102.054 161.333,101.917 161.333 C 101.779 161.333,101.667 161.403,101.667 161.489 C 101.667 161.574,101.516 161.692,101.331 161.751 C 101.146 161.809,101.018 161.908,101.046 161.970 C 101.074 162.032,100.887 162.299,100.631 162.563 L 100.167 163.042 100.167 161.854 L 100.167 160.667 98.998 160.667 L 97.830 160.667 97.873 168.875 L 97.917 177.083 99.042 177.133 L 100.167 177.182 100.179 172.133 C 100.192 167.013,100.204 166.769,100.522 165.583 C 101.720 161.115,109.049 161.379,109.933 165.922 C 110.116 166.859,110.107 166.595,110.138 172.125 L 110.167 177.167 111.261 177.167 L 112.356 177.167 112.290 171.208 C 112.219 164.801,112.204 164.676,111.273 163.204 C 110.849 162.533,109.510 161.167,109.277 161.167 C 109.198 161.167,108.897 161.067,108.609 160.944 C 108.320 160.822,107.856 160.647,107.578 160.555 C 107.025 160.374,104.167 160.309,104.166 160.478 M127.750 160.746 C 125.680 161.389,123.111 163.524,123.036 164.667 C 123.033 164.712,122.874 165.162,122.682 165.666 C 122.098 167.204,122.051 169.628,122.565 171.823 C 122.907 173.286,125.030 176.167,125.766 176.167 C 125.879 176.167,125.998 176.244,126.030 176.339 C 126.156 176.719,128.884 177.441,130.083 177.413 C 131.069 177.389,132.176 177.176,132.813 176.887 C 133.122 176.746,133.460 176.617,133.563 176.600 C 134.041 176.521,135.186 175.565,135.811 174.722 L 136.500 173.791 136.500 175.479 L 136.500 177.167 137.583 177.167 L 138.667 177.167 138.667 168.917 L 138.667 160.667 137.583 160.667 L 136.500 160.667 136.500 162.287 C 136.500 163.849,136.490 163.893,136.225 163.495 C 135.822 162.892,134.959 162.000,134.779 162.000 C 134.693 162.000,134.501 161.868,134.353 161.707 C 134.105 161.438,133.597 161.158,132.750 160.824 C 131.434 160.305,129.280 160.272,127.750 160.746 M185.500 160.523 C 182.822 161.178,181.832 161.769,180.318 163.618 C 179.398 164.742,178.766 166.929,178.811 168.833 C 178.893 172.290,179.726 174.119,182.054 175.956 C 185.227 178.462,191.137 177.541,193.750 174.134 C 194.088 173.694,194.693 172.375,194.849 171.738 C 194.937 171.378,195.051 170.933,195.101 170.750 C 195.475 169.379,194.925 165.116,194.326 164.746 C 194.235 164.689,194.204 164.574,194.257 164.488 C 194.310 164.403,194.274 164.333,194.177 164.333 C 194.079 164.333,194.000 164.221,194.000 164.083 C 194.000 163.946,193.938 163.833,193.861 163.833 C 193.785 163.833,193.619 163.639,193.492 163.402 C 193.365 163.165,192.884 162.678,192.422 162.320 C 191.961 161.963,191.494 161.596,191.386 161.505 C 191.181 161.334,189.620 160.785,188.750 160.578 C 187.980 160.395,186.150 160.364,185.500 160.523 M211.053 160.554 C 210.670 160.662,210.301 160.806,210.234 160.875 C 210.166 160.944,209.974 161.000,209.806 161.000 C 209.637 161.000,209.500 161.059,209.500 161.131 C 209.500 161.203,209.256 161.402,208.958 161.574 C 208.660 161.747,208.213 162.119,207.965 162.402 L 207.514 162.917 207.507 161.784 L 207.500 160.651 206.375 160.701 L 205.250 160.750 205.207 168.966 L 205.164 177.182 206.290 177.133 L 207.417 177.083 207.500 171.667 C 207.591 165.764,207.613 165.615,208.620 164.152 C 210.201 161.853,214.581 161.751,216.301 163.973 C 217.346 165.322,217.500 166.386,217.500 172.258 L 217.500 177.167 218.587 177.167 L 219.675 177.167 219.662 171.602 C 219.655 168.441,219.577 165.759,219.482 165.393 C 219.245 164.485,218.405 162.736,218.036 162.382 C 217.407 161.777,216.667 161.167,216.667 161.253 C 216.667 161.301,216.490 161.225,216.275 161.084 C 215.287 160.437,212.483 160.152,211.053 160.554 M236.417 160.458 C 235.452 160.601,233.863 161.088,233.474 161.358 C 233.231 161.528,232.972 161.667,232.898 161.667 C 232.653 161.667,230.896 163.614,230.624 164.189 C 230.351 164.763,230.062 165.482,230.013 165.706 C 229.999 165.773,229.877 166.139,229.743 166.519 C 229.280 167.831,229.505 170.940,230.183 172.584 C 230.296 172.859,230.398 173.121,230.410 173.167 C 231.139 176.067,236.714 178.317,239.917 177.003 C 241.728 176.260,242.676 175.558,243.533 174.324 C 243.808 173.928,243.816 173.963,243.825 175.542 L 243.833 177.167 244.917 177.167 L 246.000 177.167 246.000 168.917 L 246.000 160.667 244.923 160.667 L 243.845 160.667 243.798 162.292 C 243.763 163.460,243.706 163.823,243.593 163.583 C 242.670 161.619,239.090 160.060,236.417 160.458 M320.083 160.541 C 318.724 160.963,317.806 161.564,317.041 162.530 L 316.471 163.250 316.527 161.951 L 316.583 160.653 315.417 160.701 L 314.250 160.750 314.250 168.917 L 314.250 177.083 315.375 177.133 L 316.500 177.182 316.512 172.383 C 316.519 169.743,316.595 167.171,316.681 166.667 C 316.767 166.162,316.846 165.637,316.857 165.500 C 316.890 165.081,318.500 163.058,318.500 163.436 C 318.500 163.500,318.658 163.409,318.851 163.234 C 319.044 163.060,319.232 162.937,319.268 162.961 C 319.305 162.986,319.503 162.967,319.709 162.919 C 320.392 162.759,320.910 162.692,321.542 162.679 L 322.167 162.667 322.167 161.497 L 322.167 160.327 321.375 160.357 C 320.940 160.373,320.358 160.456,320.083 160.541 M336.833 160.576 C 336.421 160.672,336.008 160.796,335.917 160.852 C 335.825 160.908,335.538 161.005,335.278 161.067 C 334.050 161.361,332.084 163.122,331.510 164.442 C 331.424 164.639,331.273 164.851,331.174 164.912 C 331.075 164.973,331.041 165.098,331.097 165.189 C 331.153 165.280,331.095 165.481,330.968 165.636 C 330.841 165.790,330.713 166.142,330.685 166.417 C 330.656 166.692,330.572 167.030,330.498 167.169 C 330.324 167.496,330.323 170.335,330.497 170.664 C 330.571 170.803,330.666 171.184,330.710 171.511 C 330.813 172.289,331.254 173.218,332.018 174.264 C 332.550 174.994,332.859 175.298,333.920 176.140 C 335.336 177.264,339.340 177.710,341.417 176.976 C 342.904 176.451,345.167 174.901,345.167 174.408 C 345.167 174.355,345.345 174.072,345.563 173.781 C 345.781 173.489,346.060 172.950,346.181 172.583 C 346.303 172.217,346.457 171.840,346.523 171.747 C 346.885 171.236,347.031 168.727,346.782 167.293 C 346.344 164.767,344.643 162.171,342.989 161.501 C 342.674 161.373,342.379 161.222,342.333 161.164 C 341.908 160.629,338.278 160.241,336.833 160.576 M389.000 160.587 C 387.206 160.960,385.308 162.228,384.548 163.562 C 384.378 163.859,384.344 163.652,384.339 162.292 L 384.333 160.667 383.250 160.667 L 382.167 160.667 382.167 172.570 C 382.167 179.116,382.128 184.573,382.081 184.695 C 382.014 184.870,382.243 184.905,383.164 184.861 L 384.333 184.806 384.333 179.457 L 384.333 174.109 385.149 175.016 C 386.703 176.744,389.366 177.685,391.667 177.320 C 392.171 177.240,392.733 177.151,392.917 177.122 C 393.997 176.952,397.901 174.177,397.079 174.164 C 396.980 174.163,396.983 174.114,397.087 174.039 C 398.794 172.814,399.063 167.456,397.571 164.406 C 396.139 161.480,392.499 159.858,389.000 160.587 M166.500 168.917 L 166.500 177.167 167.667 177.167 L 168.833 177.167 168.833 168.917 L 168.833 160.667 167.667 160.667 L 166.500 160.667 166.500 168.917 M356.771 160.785 C 356.593 160.962,356.673 171.536,356.858 172.365 C 357.748 176.358,361.796 178.405,365.966 176.971 C 367.108 176.577,368.024 175.901,368.745 174.917 C 368.967 174.613,368.990 174.699,368.995 175.875 L 369.000 177.167 370.083 177.167 L 371.167 177.167 371.167 168.917 L 371.167 160.667 370.092 160.667 L 369.018 160.667 368.954 165.708 C 368.853 173.752,368.042 175.274,363.823 175.346 C 359.706 175.416,358.833 173.647,358.833 165.238 L 358.833 160.667 357.861 160.667 C 357.326 160.667,356.836 160.720,356.771 160.785 M64.457 162.584 C 66.712 163.115,68.093 164.643,68.411 166.958 L 68.531 167.833 62.853 167.833 L 57.175 167.833 57.268 167.292 C 57.435 166.320,57.948 165.015,58.250 164.794 C 58.342 164.727,58.360 164.671,58.290 164.669 C 57.986 164.663,59.135 163.622,59.962 163.156 C 61.407 162.340,62.717 162.173,64.457 162.584 M132.349 162.672 C 135.523 163.520,137.666 169.069,135.897 171.860 C 135.819 171.983,135.754 172.136,135.753 172.201 C 135.749 172.346,134.873 173.414,134.234 174.054 C 133.099 175.189,131.076 175.655,129.167 175.223 C 128.479 175.067,127.871 174.871,127.815 174.789 C 127.759 174.706,127.664 174.646,127.605 174.655 C 127.211 174.717,125.815 173.394,125.462 172.625 C 125.347 172.373,125.207 172.167,125.153 172.167 C 124.524 172.167,124.370 167.280,124.958 165.974 C 126.233 163.145,129.184 161.827,132.349 162.672 M189.117 162.769 C 189.603 162.934,190.000 163.128,190.000 163.201 C 190.000 163.274,190.106 163.333,190.235 163.333 C 190.566 163.333,191.846 164.804,192.288 165.692 C 194.011 169.156,192.129 174.423,188.925 175.105 C 186.735 175.570,185.842 175.507,184.268 174.772 C 180.574 173.049,179.868 166.182,183.133 163.731 C 183.472 163.476,183.805 163.189,183.872 163.092 C 183.940 162.996,183.996 162.982,183.997 163.062 C 183.999 163.142,184.094 163.135,184.208 163.046 C 185.036 162.405,187.619 162.260,189.117 162.769 M240.231 162.944 C 241.843 163.751,243.060 165.077,243.418 166.417 C 243.492 166.692,243.582 167.029,243.619 167.167 C 243.731 167.583,243.701 170.221,243.580 170.667 C 243.517 170.896,243.429 171.284,243.383 171.528 C 243.337 171.773,243.157 172.126,242.983 172.313 C 242.809 172.500,242.664 172.712,242.660 172.785 C 242.635 173.262,240.551 174.990,239.992 174.997 C 239.850 174.999,239.643 175.090,239.533 175.200 C 239.423 175.310,239.333 175.357,239.333 175.305 C 239.333 175.253,238.981 175.276,238.550 175.356 C 236.312 175.774,233.493 174.325,232.521 172.256 C 231.834 170.795,231.597 167.104,232.147 166.440 C 232.248 166.319,232.288 166.176,232.235 166.124 C 231.969 165.858,233.670 163.776,234.600 163.232 C 236.238 162.271,238.642 162.148,240.231 162.944 M340.403 162.646 C 340.502 162.724,340.797 162.839,341.058 162.901 C 341.613 163.034,342.444 163.591,342.883 164.126 C 343.053 164.333,343.301 164.611,343.434 164.744 C 343.636 164.946,344.069 165.935,344.239 166.583 C 344.263 166.675,344.325 166.862,344.377 167.000 C 344.729 167.931,344.597 170.506,344.142 171.605 C 344.034 171.868,343.936 172.121,343.926 172.167 C 343.744 172.995,341.717 174.784,340.583 175.115 C 339.329 175.482,337.847 175.503,336.833 175.169 C 336.010 174.897,335.829 174.842,335.745 174.841 C 335.651 174.840,335.443 174.670,334.576 173.880 C 332.447 171.941,332.051 166.128,333.951 164.708 C 334.105 164.594,334.168 164.500,334.091 164.500 C 333.958 164.500,334.427 164.038,335.106 163.500 C 335.529 163.165,336.653 162.649,337.163 162.555 C 337.390 162.514,337.606 162.449,337.643 162.412 C 337.763 162.292,340.216 162.501,340.403 162.646 M392.895 162.978 C 393.818 163.397,395.000 164.304,395.000 164.594 C 395.000 164.651,395.152 164.911,395.337 165.172 C 397.491 168.197,395.461 175.000,392.403 175.000 C 392.273 175.000,392.167 175.079,392.167 175.177 C 392.167 175.274,392.106 175.316,392.033 175.270 C 391.959 175.225,391.565 175.263,391.158 175.354 C 387.097 176.269,383.331 171.584,384.510 167.083 C 384.889 165.635,386.490 163.333,387.118 163.333 C 387.236 163.333,387.333 163.277,387.333 163.207 C 387.333 162.369,391.201 162.210,392.895 162.978 M135.673 188.713 C 134.698 189.206,134.698 191.198,135.672 191.453 C 135.852 191.500,136.000 191.605,136.000 191.686 C 136.000 192.122,137.524 191.579,137.812 191.040 C 138.621 189.526,137.175 187.952,135.673 188.713 M171.369 188.760 C 170.460 189.397,170.344 190.406,171.089 191.209 C 171.888 192.070,173.021 191.940,173.568 190.923 C 174.357 189.458,172.700 187.828,171.369 188.760 M328.217 188.691 C 327.317 189.147,327.174 190.673,327.965 191.382 C 329.215 192.504,331.264 190.927,330.474 189.451 C 330.034 188.629,329.015 188.286,328.217 188.691 M249.417 190.068 C 246.520 190.783,244.734 192.738,244.576 195.362 C 244.406 198.217,245.994 200.021,249.630 201.103 C 252.125 201.845,254.248 202.559,254.466 202.729 C 256.797 204.543,256.590 207.594,254.051 208.857 C 250.914 210.417,247.026 208.808,246.846 205.875 C 246.837 205.728,246.470 205.667,245.605 205.667 L 244.377 205.667 244.455 206.375 C 244.498 206.765,244.600 207.155,244.683 207.242 C 244.766 207.329,244.833 207.526,244.833 207.680 C 244.833 207.833,244.945 208.052,245.081 208.165 C 245.218 208.278,245.290 208.435,245.242 208.513 C 245.193 208.592,245.307 208.751,245.494 208.868 C 245.680 208.985,245.833 209.144,245.833 209.222 C 245.833 210.496,251.196 211.823,253.646 211.155 C 259.034 209.686,260.169 203.367,255.496 200.858 C 254.948 200.564,254.500 200.372,254.500 200.432 C 254.500 200.492,254.395 200.454,254.267 200.347 C 254.139 200.241,253.858 200.113,253.642 200.063 C 253.426 200.013,252.950 199.898,252.583 199.809 C 252.217 199.719,251.709 199.605,251.456 199.554 C 251.203 199.503,250.955 199.395,250.905 199.314 C 250.855 199.233,250.708 199.167,250.580 199.167 C 248.275 199.167,245.878 195.637,247.145 194.109 C 247.271 193.957,247.313 193.833,247.238 193.833 C 247.163 193.833,247.360 193.565,247.676 193.237 C 249.936 190.891,254.449 191.618,255.608 194.513 L 255.870 195.167 257.040 195.167 L 258.210 195.167 258.115 194.578 C 257.999 193.867,257.488 192.667,257.301 192.667 C 257.227 192.667,257.167 192.566,257.167 192.443 C 257.167 192.112,255.703 190.938,254.788 190.534 C 253.238 189.849,251.066 189.660,249.417 190.068 M6.707 190.127 L 0.998 190.171 1.040 200.711 L 1.083 211.250 2.125 211.300 L 3.167 211.349 3.167 206.419 L 3.167 201.488 7.083 201.536 L 11.000 201.583 11.000 200.625 L 11.000 199.667 7.083 199.667 L 3.167 199.667 3.167 195.833 L 3.167 192.000 7.755 192.000 C 12.855 192.000,12.558 192.075,12.468 190.812 L 12.417 190.083 6.707 190.127 M72.333 191.083 L 72.333 192.000 75.250 192.000 L 78.167 192.000 78.167 201.674 L 78.167 211.349 79.292 211.299 L 80.417 211.250 80.460 201.625 L 80.503 192.000 83.335 192.000 L 86.167 192.000 86.167 191.083 L 86.167 190.167 79.250 190.167 L 72.333 190.167 72.333 191.083 M101.167 194.451 C 100.662 194.481,100.063 194.588,99.833 194.687 C 98.537 195.251,97.904 195.658,97.327 196.300 L 96.682 197.017 96.633 195.883 L 96.583 194.750 95.500 194.750 L 94.417 194.750 94.417 203.000 L 94.417 211.250 95.500 211.250 L 96.583 211.250 96.667 205.500 L 96.750 199.750 97.228 199.000 C 97.819 198.070,98.250 197.650,99.000 197.269 C 99.630 196.949,99.760 196.918,101.208 196.752 L 102.167 196.643 102.167 195.488 C 102.167 194.853,102.148 194.347,102.125 194.364 C 102.102 194.381,101.671 194.420,101.167 194.451 M153.660 194.508 C 152.423 194.660,150.904 195.456,150.061 196.394 L 149.305 197.235 149.361 195.950 L 149.417 194.666 148.292 194.666 L 147.167 194.667 147.167 203.000 L 147.167 211.333 148.292 211.333 L 149.417 211.333 149.417 206.041 C 149.417 200.679,149.690 198.500,150.364 198.500 C 150.439 198.500,150.500 198.429,150.500 198.342 C 150.500 198.050,151.243 197.414,152.167 196.915 C 154.146 195.847,157.211 196.446,158.343 198.123 C 159.285 199.519,159.315 199.748,159.329 205.652 C 159.343 211.715,159.266 211.370,160.601 211.301 L 161.583 211.250 161.627 206.001 C 161.665 201.526,161.629 200.569,161.385 199.501 C 161.228 198.813,161.090 198.213,161.080 198.167 C 160.961 197.633,158.833 195.045,158.833 195.433 C 158.833 195.482,158.616 195.368,158.349 195.178 C 158.083 194.988,157.723 194.833,157.549 194.833 C 157.376 194.833,157.162 194.764,157.075 194.679 C 156.883 194.492,154.686 194.382,153.660 194.508 M189.375 194.468 C 188.985 194.496,188.667 194.594,188.667 194.686 C 188.667 194.778,188.586 194.803,188.488 194.743 C 188.309 194.632,186.833 195.326,186.833 195.521 C 186.833 195.579,186.611 195.718,186.339 195.831 C 186.067 195.944,185.799 196.178,185.744 196.351 C 185.689 196.525,185.580 196.667,185.501 196.667 C 185.422 196.667,185.323 196.798,185.282 196.958 C 185.240 197.119,185.197 196.665,185.186 195.951 L 185.167 194.651 184.042 194.701 L 182.917 194.750 182.917 203.000 L 182.917 211.250 184.042 211.299 L 185.167 211.349 185.188 206.174 C 185.199 203.328,185.221 200.944,185.237 200.875 C 185.252 200.806,185.324 200.450,185.397 200.083 C 186.025 196.895,189.914 195.368,192.963 197.112 C 194.863 198.198,195.154 199.445,195.162 206.542 L 195.167 211.333 196.125 211.331 C 197.629 211.327,197.531 211.740,197.450 205.734 C 197.381 200.649,197.283 199.117,197.004 198.750 C 196.934 198.658,196.781 198.283,196.665 197.917 C 196.424 197.161,194.337 195.000,193.848 195.000 C 193.687 195.000,193.499 194.944,193.431 194.875 C 193.362 194.806,193.256 194.744,193.194 194.736 C 193.133 194.729,192.896 194.674,192.667 194.614 C 192.151 194.480,190.326 194.399,189.375 194.468 M297.417 194.512 C 295.750 194.648,294.119 195.571,293.376 196.798 L 293.002 197.417 293.001 196.042 L 293.000 194.667 291.917 194.667 L 290.833 194.667 290.833 203.000 L 290.833 211.333 291.958 211.333 L 293.083 211.333 293.083 206.125 C 293.083 199.731,293.144 199.363,294.409 198.098 C 295.340 197.167,295.859 196.952,297.665 196.747 C 298.786 196.619,298.692 196.743,298.633 195.478 L 298.583 194.417 297.417 194.512 M25.400 194.810 C 20.914 196.116,18.682 200.959,20.229 206.030 C 21.118 208.944,23.360 210.815,26.590 211.336 C 28.181 211.593,30.557 211.284,31.458 210.703 C 31.665 210.570,31.833 210.512,31.833 210.573 C 31.833 210.634,32.084 210.492,32.391 210.258 C 32.697 210.025,32.994 209.833,33.051 209.833 C 33.439 209.833,35.745 206.777,35.534 206.541 C 35.513 206.518,35.606 206.236,35.740 205.914 C 37.556 201.568,34.702 195.650,30.333 194.705 C 29.207 194.462,26.391 194.521,25.400 194.810 M49.946 194.839 C 48.933 195.223,48.233 195.744,47.652 196.547 L 47.167 197.217 47.167 195.934 L 47.167 194.651 46.042 194.701 L 44.917 194.750 44.917 203.000 L 44.917 211.250 46.000 211.250 L 47.083 211.250 47.167 205.567 C 47.232 201.090,47.299 199.826,47.479 199.609 C 47.605 199.457,47.657 199.333,47.595 199.333 C 47.474 199.333,48.239 198.250,48.660 197.824 C 49.013 197.468,49.927 197.029,50.558 196.911 C 50.847 196.858,51.233 196.787,51.417 196.753 C 51.600 196.720,51.956 196.686,52.208 196.679 C 52.660 196.667,52.667 196.652,52.667 195.575 L 52.667 194.483 51.682 194.518 C 51.140 194.538,50.359 194.682,49.946 194.839 M115.481 194.575 C 115.425 194.631,115.155 194.705,114.882 194.740 C 114.238 194.821,112.535 195.684,112.000 196.200 C 111.326 196.850,110.312 198.000,110.413 198.000 C 110.465 198.000,110.358 198.292,110.175 198.650 C 108.215 202.492,109.363 207.984,112.558 210.042 C 116.185 212.379,122.135 211.386,123.294 208.250 C 123.367 208.050,123.450 208.585,123.500 209.583 L 123.583 211.250 124.625 211.300 L 125.667 211.349 125.667 203.008 L 125.667 194.667 124.583 194.667 L 123.500 194.667 123.500 196.262 C 123.500 197.680,123.472 197.829,123.250 197.607 C 123.112 197.470,123.000 197.308,123.000 197.247 C 123.000 196.843,120.628 195.000,120.108 195.000 C 119.987 195.000,119.837 194.948,119.773 194.884 C 119.517 194.628,115.702 194.353,115.481 194.575 M211.583 194.690 C 211.308 194.785,210.847 194.969,210.558 195.098 C 210.269 195.228,209.951 195.333,209.850 195.333 C 209.749 195.333,209.667 195.403,209.667 195.489 C 209.667 195.574,209.513 195.693,209.325 195.753 C 208.490 196.018,206.494 198.649,206.277 199.769 C 206.244 199.942,206.152 200.233,206.073 200.417 C 205.669 201.357,206.054 206.667,206.527 206.667 C 206.604 206.667,206.667 206.817,206.667 207.000 C 206.667 207.183,206.723 207.333,206.793 207.333 C 206.862 207.333,207.019 207.561,207.143 207.839 C 208.416 210.717,213.773 212.387,216.706 210.821 C 216.865 210.736,217.109 210.667,217.248 210.667 C 217.386 210.667,217.500 210.592,217.500 210.500 C 217.500 210.408,217.596 210.333,217.714 210.333 C 218.026 210.333,219.240 209.192,219.754 208.417 L 220.196 207.750 220.130 210.333 C 220.027 214.386,219.145 216.042,216.614 216.935 C 215.193 217.436,212.394 217.172,211.250 216.429 C 210.503 215.944,209.332 214.624,209.202 214.121 C 209.065 213.590,209.050 213.583,207.948 213.534 C 206.600 213.474,206.560 213.588,207.350 215.260 C 208.027 216.692,208.876 217.547,210.333 218.264 C 214.525 220.327,219.808 218.953,221.440 215.377 C 221.681 214.849,221.962 214.267,222.064 214.083 C 222.193 213.852,222.265 210.831,222.298 204.208 L 222.346 194.667 221.256 194.667 L 220.167 194.667 220.157 196.292 C 220.149 197.622,220.111 197.858,219.949 197.593 C 219.273 196.490,217.296 195.026,216.083 194.730 C 215.266 194.531,212.123 194.502,211.583 194.690 M272.069 194.651 C 271.786 194.722,271.448 194.848,271.319 194.930 C 271.189 195.013,270.845 195.164,270.555 195.266 C 269.919 195.489,268.023 196.998,268.009 197.292 C 268.004 197.406,267.935 197.500,267.856 197.500 C 267.722 197.500,267.108 198.783,266.701 199.917 C 265.995 201.881,266.109 204.802,266.965 206.667 C 267.196 207.171,267.374 207.640,267.359 207.708 C 267.345 207.777,267.408 207.833,267.500 207.833 C 267.592 207.833,267.667 207.921,267.667 208.028 C 267.667 208.230,267.852 208.449,268.848 209.420 C 269.368 209.928,271.333 211.095,271.333 210.897 C 271.333 210.857,271.558 210.941,271.832 211.082 C 272.106 211.224,272.369 211.331,272.417 211.321 C 272.465 211.310,272.941 211.352,273.476 211.414 C 276.766 211.796,280.145 210.094,281.407 207.419 C 282.103 205.944,282.094 205.924,280.717 205.868 L 279.517 205.819 279.344 206.462 C 278.769 208.595,274.981 210.224,272.716 209.312 C 270.919 208.589,269.144 207.132,269.290 206.500 C 269.301 206.454,269.208 206.304,269.083 206.167 C 268.959 206.029,268.858 205.879,268.859 205.833 C 268.860 205.787,268.816 205.563,268.761 205.333 C 268.706 205.104,268.635 204.673,268.602 204.375 L 268.544 203.833 275.373 203.833 L 282.203 203.833 282.128 201.958 C 282.056 200.162,281.585 198.386,281.130 198.194 C 281.057 198.163,281.037 198.076,281.084 197.999 C 281.394 197.497,278.387 195.207,276.875 194.794 C 276.085 194.578,272.752 194.479,272.069 194.651 M344.417 194.716 C 343.106 195.131,341.079 196.371,340.854 196.896 C 340.820 196.976,340.651 197.182,340.479 197.354 C 340.307 197.526,340.167 197.711,340.167 197.766 C 340.167 197.821,340.030 198.064,339.863 198.308 C 338.747 199.934,338.377 205.825,339.352 206.428 C 339.434 206.479,339.500 206.639,339.500 206.784 C 339.500 207.458,341.165 209.513,342.284 210.219 C 344.160 211.403,348.536 211.870,349.586 210.997 C 349.722 210.885,349.833 210.844,349.833 210.906 C 349.833 211.122,351.848 209.945,352.355 209.432 C 352.949 208.832,353.833 207.595,353.833 207.364 C 353.833 207.276,353.945 206.990,354.082 206.727 C 354.568 205.795,354.460 205.667,353.189 205.667 L 352.045 205.667 351.752 206.458 C 350.724 209.227,346.881 210.349,343.862 208.761 C 340.643 207.068,340.008 200.963,342.750 198.068 C 344.709 195.999,349.005 195.888,350.765 197.860 C 351.197 198.345,351.897 199.500,351.758 199.500 C 351.701 199.500,351.735 199.650,351.833 199.833 C 351.986 200.118,352.182 200.167,353.176 200.167 L 354.340 200.167 354.242 199.708 C 354.065 198.882,353.642 197.833,353.486 197.833 C 353.402 197.833,353.333 197.739,353.333 197.623 C 353.333 197.062,350.534 194.856,350.135 195.103 C 350.061 195.149,350.000 195.121,350.000 195.040 C 350.000 194.586,345.629 194.332,344.417 194.716 M367.495 194.832 C 366.228 195.267,364.333 196.361,364.333 196.657 C 364.333 196.720,364.202 196.918,364.042 197.098 C 363.631 197.558,362.630 199.000,362.722 199.000 C 362.763 199.000,362.626 199.553,362.418 200.230 C 361.512 203.164,362.390 207.223,364.355 209.188 C 364.845 209.679,366.311 210.667,366.548 210.667 C 366.668 210.667,366.838 210.735,366.925 210.819 C 367.012 210.903,367.271 210.996,367.500 211.027 C 367.729 211.058,367.965 211.151,368.025 211.233 C 368.193 211.465,371.825 211.429,372.583 211.188 C 373.291 210.963,374.597 210.361,374.980 210.084 C 375.921 209.402,377.153 207.904,377.281 207.288 C 377.333 207.034,377.442 206.786,377.522 206.737 C 378.189 206.324,377.634 205.833,376.500 205.833 C 375.521 205.833,375.139 205.961,375.373 206.208 C 375.476 206.318,374.538 207.646,374.011 208.135 C 373.237 208.853,372.785 209.083,371.647 209.335 C 368.061 210.131,365.032 208.086,364.423 204.458 L 364.318 203.833 371.156 203.833 L 377.993 203.833 377.941 202.125 C 377.856 199.339,376.996 197.485,375.156 196.122 C 373.730 195.064,373.772 195.092,373.493 195.020 C 373.360 194.986,372.950 194.864,372.583 194.750 C 371.497 194.411,368.581 194.458,367.495 194.832 M390.124 194.598 C 390.072 194.650,389.930 194.709,389.807 194.731 C 388.542 194.954,386.519 196.472,386.505 197.208 C 386.502 197.369,386.441 197.500,386.369 197.500 C 386.118 197.500,386.012 199.482,386.219 200.295 C 386.524 201.491,388.080 202.841,389.708 203.323 C 390.098 203.438,390.547 203.600,390.706 203.683 C 390.865 203.766,391.171 203.833,391.387 203.833 C 391.602 203.833,391.827 203.883,391.888 203.944 C 391.949 204.005,392.239 204.081,392.533 204.113 C 392.826 204.145,393.108 204.230,393.158 204.302 C 393.209 204.374,393.562 204.524,393.943 204.635 C 395.875 205.199,396.431 207.140,395.064 208.547 C 394.709 208.912,394.303 209.167,394.074 209.167 C 393.861 209.167,393.637 209.246,393.577 209.344 C 393.396 209.636,391.016 209.488,390.157 209.131 C 388.995 208.648,387.980 207.530,387.998 206.751 C 387.999 206.705,388.000 206.588,388.000 206.492 C 388.000 206.383,387.578 206.337,386.875 206.367 C 385.871 206.411,385.752 206.452,385.767 206.750 C 385.903 209.440,388.484 211.360,391.969 211.365 C 394.015 211.368,394.864 211.202,395.692 210.636 C 395.936 210.469,396.177 210.333,396.228 210.333 C 396.382 210.333,397.229 209.450,397.546 208.958 C 397.708 208.706,397.793 208.500,397.733 208.500 C 397.674 208.500,397.722 208.384,397.839 208.243 C 398.488 207.461,397.976 204.962,396.980 204.055 C 396.601 203.708,394.613 202.621,394.227 202.549 C 394.126 202.530,393.847 202.479,393.608 202.435 C 393.368 202.392,393.095 202.309,393.000 202.250 C 392.905 202.191,392.623 202.108,392.372 202.064 C 388.447 201.382,386.936 198.206,389.875 196.817 C 392.224 195.707,395.667 197.131,395.667 199.213 C 395.667 199.560,395.739 199.583,396.833 199.583 C 398.148 199.583,398.148 199.583,397.762 198.312 C 396.984 195.747,395.302 194.619,392.150 194.549 C 391.087 194.525,390.175 194.547,390.124 194.598 M135.373 202.951 L 135.417 211.250 136.500 211.250 L 137.583 211.250 137.583 203.000 L 137.583 194.750 136.457 194.701 L 135.330 194.651 135.373 202.951 M171.167 202.736 C 171.167 207.175,171.121 210.925,171.066 211.070 C 170.979 211.295,171.137 211.333,172.149 211.333 L 173.333 211.333 173.333 203.000 L 173.333 194.667 172.250 194.667 L 171.167 194.667 171.167 202.736 M304.667 194.722 C 304.667 194.760,304.776 195.102,304.911 195.483 C 305.142 196.137,305.255 196.410,305.897 197.859 C 306.045 198.193,306.167 198.519,306.167 198.583 C 306.167 198.647,306.287 198.973,306.434 199.308 C 306.850 200.258,306.957 200.514,307.384 201.583 C 307.604 202.133,307.844 202.733,307.917 202.917 C 308.108 203.392,308.630 204.751,309.070 205.917 C 309.495 207.042,309.894 208.010,310.239 208.750 C 310.367 209.025,310.604 209.625,310.765 210.083 C 311.197 211.313,311.227 211.333,312.604 211.333 C 313.597 211.333,313.833 211.284,313.833 211.078 C 313.833 210.938,313.957 210.544,314.108 210.203 C 314.259 209.862,314.407 209.462,314.436 209.314 C 314.466 209.166,314.681 208.668,314.912 208.207 C 315.144 207.746,315.333 207.304,315.333 207.226 C 315.333 207.147,315.555 206.558,315.827 205.917 C 316.252 204.916,316.572 204.116,317.528 201.667 C 317.617 201.438,317.682 201.229,317.671 201.204 C 317.661 201.179,317.763 200.954,317.899 200.704 C 318.034 200.454,318.277 199.875,318.438 199.417 C 318.599 198.958,318.835 198.419,318.962 198.217 C 319.089 198.016,319.181 197.828,319.165 197.800 C 319.149 197.773,319.209 197.563,319.299 197.333 C 319.389 197.104,319.651 196.410,319.883 195.792 L 320.304 194.667 319.155 194.667 L 318.007 194.667 317.682 195.304 C 317.503 195.654,317.198 196.423,317.003 197.012 C 316.809 197.601,316.530 198.343,316.384 198.660 C 316.237 198.977,316.106 199.352,316.092 199.493 C 316.078 199.635,315.945 200.012,315.796 200.333 C 315.648 200.654,315.288 201.554,314.997 202.333 C 314.706 203.112,314.404 203.900,314.326 204.083 C 314.248 204.267,314.023 204.829,313.825 205.333 C 313.627 205.838,313.406 206.400,313.333 206.583 C 313.260 206.767,313.120 207.142,313.021 207.417 C 312.923 207.692,312.759 208.142,312.657 208.417 L 312.471 208.917 312.054 207.833 C 311.825 207.237,311.618 206.675,311.594 206.583 C 311.500 206.224,311.296 205.730,311.061 205.292 C 310.925 205.040,310.865 204.833,310.926 204.833 C 310.988 204.833,310.917 204.648,310.769 204.423 C 310.621 204.197,310.500 203.926,310.500 203.821 C 310.500 203.632,309.435 200.823,309.176 200.328 C 309.103 200.187,308.990 199.832,308.925 199.538 C 308.860 199.244,308.738 198.961,308.654 198.909 C 308.569 198.856,308.500 198.705,308.500 198.572 C 308.500 198.439,308.358 198.012,308.185 197.623 C 308.012 197.235,307.682 196.429,307.453 195.833 L 307.036 194.750 305.851 194.701 C 305.200 194.674,304.667 194.683,304.667 194.722 M327.833 203.008 L 327.833 211.349 328.958 211.299 L 330.083 211.250 330.127 202.958 L 330.170 194.667 329.002 194.667 L 327.833 194.667 327.833 203.008 M29.324 196.655 C 29.732 196.742,30.126 196.775,30.199 196.730 C 30.273 196.684,30.333 196.708,30.333 196.783 C 30.333 196.858,30.562 197.020,30.841 197.144 C 31.961 197.639,33.243 199.146,33.443 200.200 C 33.500 200.503,33.616 200.884,33.700 201.048 C 33.876 201.393,33.920 203.985,33.764 204.803 C 32.936 209.130,27.176 210.993,24.000 207.959 C 23.276 207.268,22.833 206.714,22.833 206.498 C 22.833 206.407,22.746 206.333,22.639 206.333 C 22.532 206.333,22.488 206.290,22.541 206.236 C 22.595 206.183,22.535 205.893,22.409 205.591 C 22.283 205.289,22.225 204.997,22.280 204.942 C 22.336 204.887,22.306 204.746,22.214 204.629 C 22.122 204.512,22.034 203.929,22.017 203.333 C 21.911 199.573,23.857 196.925,27.000 196.552 C 27.412 196.503,27.780 196.435,27.816 196.401 C 27.853 196.367,28.040 196.375,28.233 196.418 C 28.426 196.462,28.917 196.568,29.324 196.655 M118.583 196.569 C 121.386 196.820,123.732 200.025,123.445 203.211 C 123.296 204.863,123.164 205.566,122.978 205.680 C 122.883 205.739,122.817 205.816,122.831 205.852 C 122.940 206.124,122.329 207.034,121.507 207.827 C 118.710 210.521,114.131 209.811,112.302 206.399 C 111.787 205.438,111.282 202.676,111.498 202.000 C 111.513 201.954,111.557 201.729,111.597 201.500 C 111.738 200.693,112.214 199.333,112.356 199.333 C 112.435 199.333,112.500 199.240,112.500 199.125 C 112.500 198.939,112.959 198.416,113.794 197.652 C 114.272 197.215,115.617 196.644,116.372 196.557 C 116.761 196.512,117.111 196.445,117.148 196.408 C 117.185 196.370,117.374 196.377,117.566 196.424 C 117.759 196.471,118.217 196.536,118.583 196.569 M216.250 196.758 C 216.740 196.943,218.217 198.008,218.462 198.352 C 218.579 198.516,218.766 198.748,218.879 198.867 C 220.575 200.662,220.440 205.695,218.650 207.381 C 218.476 207.545,218.333 207.764,218.333 207.868 C 218.333 207.971,218.288 208.010,218.232 207.954 C 218.176 207.899,217.933 208.037,217.690 208.263 C 216.286 209.569,213.053 209.799,211.198 208.724 C 210.143 208.112,208.237 206.000,208.740 206.000 C 208.796 206.000,208.718 205.813,208.568 205.583 C 208.418 205.354,208.330 205.167,208.372 205.167 C 208.414 205.167,208.363 204.832,208.259 204.422 C 207.537 201.576,209.462 197.331,211.667 196.909 C 211.713 196.901,212.050 196.809,212.417 196.707 C 213.597 196.376,215.301 196.399,216.250 196.758 M276.151 196.699 C 278.215 197.214,279.813 199.281,279.829 201.458 L 279.833 202.000 274.178 202.000 L 268.522 202.000 268.596 201.542 C 268.637 201.290,268.719 200.896,268.780 200.667 C 268.840 200.438,268.897 200.213,268.906 200.167 C 269.442 197.470,272.799 195.864,276.151 196.699 M371.685 196.587 C 372.255 196.697,373.580 197.350,373.974 197.716 C 374.420 198.131,375.401 199.500,375.252 199.500 C 375.199 199.500,375.243 199.665,375.352 199.868 C 375.460 200.070,375.582 200.632,375.623 201.118 L 375.697 202.000 370.013 202.000 L 364.329 202.000 364.438 201.292 C 364.675 199.742,366.206 197.333,366.953 197.333 C 367.071 197.333,367.167 197.264,367.167 197.180 C 367.167 197.012,368.460 196.556,369.250 196.447 C 369.718 196.382,371.006 196.456,371.685 196.587 " stroke="none" fill="#244494" fill-rule="evenodd"></path><path id="path1" d="M11.833 0.196 C 11.512 0.284,10.950 0.441,10.583 0.544 C 6.733 1.623,3.099 4.658,1.490 8.139 C 1.208 8.750,0.907 9.400,0.822 9.583 C 0.031 11.287,-0.266 15.665,0.257 17.920 C 2.280 26.643,11.032 31.632,19.500 28.889 C 20.260 28.643,22.014 27.843,22.167 27.673 C 22.212 27.622,22.544 27.431,22.904 27.248 C 23.884 26.751,26.483 24.131,27.283 22.833 C 32.796 13.890,28.123 2.623,17.920 0.257 C 16.672 -0.033,12.798 -0.072,11.833 0.196 " stroke="none" fill="#1cb48c" fill-rule="evenodd"></path><path id="path2" d="M123.553 0.125 C 125.461 0.152,128.536 0.152,130.386 0.125 C 132.236 0.098,130.675 0.076,126.917 0.076 C 123.158 0.076,121.645 0.098,123.553 0.125 M334.125 0.125 C 336.440 0.151,340.227 0.151,342.542 0.125 C 344.856 0.099,342.962 0.077,338.333 0.077 C 333.704 0.077,331.810 0.099,334.125 0.125 M146.167 2.008 C 146.745 2.401,147.074 2.515,146.667 2.182 C 146.438 1.994,146.175 1.840,146.083 1.840 C 145.992 1.839,146.029 1.915,146.167 2.008 M202.722 29.125 C 212.514 29.149,228.489 29.149,238.222 29.125 C 247.954 29.101,239.942 29.082,220.417 29.082 C 200.892 29.082,192.929 29.101,202.722 29.125 M335.281 48.291 C 336.856 48.319,339.481 48.319,341.114 48.291 C 342.747 48.264,341.458 48.242,338.250 48.242 C 335.042 48.242,333.706 48.264,335.281 48.291 M127.740 53.445 C 127.483 53.782,127.358 54.004,127.462 53.940 C 127.675 53.808,128.397 52.833,128.281 52.833 C 128.240 52.833,127.996 53.109,127.740 53.445 M46.372 59.000 C 46.372 59.321,46.406 59.452,46.448 59.292 C 46.490 59.131,46.490 58.869,46.448 58.708 C 46.406 58.548,46.372 58.679,46.372 59.000 M234.725 63.167 C 234.725 63.946,234.754 64.265,234.789 63.875 C 234.824 63.485,234.824 62.848,234.789 62.458 C 234.754 62.069,234.725 62.387,234.725 63.167 M368.333 80.115 C 368.333 80.207,368.483 80.417,368.667 80.583 C 368.850 80.749,369.000 80.847,369.000 80.801 C 369.000 80.755,368.850 80.545,368.667 80.333 C 368.483 80.122,368.333 80.024,368.333 80.115 M112.375 96.291 C 113.177 96.321,114.490 96.321,115.292 96.291 C 116.094 96.260,115.438 96.235,113.833 96.235 C 112.229 96.235,111.573 96.260,112.375 96.291 M59.500 101.167 C 59.696 101.442,59.894 101.667,59.939 101.667 C 59.985 101.667,59.862 101.442,59.667 101.167 C 59.471 100.892,59.273 100.667,59.227 100.667 C 59.181 100.667,59.304 100.892,59.500 101.167 M106.542 125.121 C 106.885 125.157,107.448 125.157,107.792 125.121 C 108.135 125.085,107.854 125.056,107.167 125.056 C 106.479 125.056,106.198 125.085,106.542 125.121 M2.745 166.500 C 2.745 172.321,2.766 174.702,2.792 171.792 C 2.817 168.881,2.817 164.119,2.792 161.208 C 2.766 158.298,2.745 160.679,2.745 166.500 M40.121 156.620 C 40.417 156.657,40.942 156.658,41.288 156.622 C 41.634 156.586,41.392 156.555,40.750 156.555 C 40.108 156.554,39.825 156.583,40.121 156.620 M150.961 156.621 C 151.261 156.658,151.711 156.657,151.961 156.619 C 152.212 156.581,151.967 156.551,151.417 156.552 C 150.867 156.553,150.662 156.584,150.961 156.621 M150.231 158.667 C 150.231 159.813,150.258 160.281,150.290 159.708 C 150.323 159.135,150.323 158.198,150.290 157.625 C 150.258 157.052,150.231 157.521,150.231 158.667 M80.744 168.833 C 80.744 173.371,80.765 175.227,80.792 172.958 C 80.818 170.690,80.818 166.977,80.792 164.708 C 80.765 162.440,80.744 164.296,80.744 168.833 M136.394 162.250 C 136.395 163.167,136.423 163.520,136.456 163.036 C 136.490 162.552,136.490 161.802,136.456 161.369 C 136.421 160.937,136.394 161.333,136.394 162.250 M138.744 168.917 C 138.744 173.500,138.765 175.351,138.792 173.030 C 138.818 170.709,138.818 166.959,138.792 164.697 C 138.765 162.434,138.744 164.333,138.744 168.917 M358.907 165.500 C 358.907 168.204,358.930 169.310,358.958 167.958 C 358.986 166.606,358.986 164.394,358.958 163.042 C 358.930 161.690,358.907 162.796,358.907 165.500 M382.079 172.667 C 382.079 179.313,382.100 182.031,382.125 178.708 C 382.150 175.385,382.150 169.948,382.125 166.625 C 382.100 163.302,382.079 166.021,382.079 172.667 M316.556 162.000 C 316.556 162.688,316.585 162.969,316.621 162.625 C 316.657 162.281,316.657 161.719,316.621 161.375 C 316.585 161.031,316.556 161.313,316.556 162.000 M395.500 161.885 C 395.500 161.914,395.744 162.158,396.042 162.427 L 396.583 162.917 396.094 162.375 C 395.638 161.870,395.500 161.757,395.500 161.885 M150.241 167.833 C 150.241 170.813,150.264 172.031,150.291 170.542 C 150.319 169.052,150.319 166.615,150.291 165.125 C 150.264 163.635,150.241 164.854,150.241 167.833 M110.074 172.167 C 110.074 174.963,110.097 176.106,110.125 174.708 C 110.153 173.310,110.153 171.023,110.125 169.625 C 110.097 168.227,110.074 169.371,110.074 172.167 M316.574 172.250 C 316.574 175.000,316.597 176.148,316.625 174.802 C 316.653 173.456,316.653 171.206,316.625 169.802 C 316.597 168.398,316.574 169.500,316.574 172.250 M295.292 167.791 C 296.506 167.820,298.494 167.820,299.708 167.791 C 300.923 167.763,299.929 167.739,297.500 167.739 C 295.071 167.739,294.077 167.763,295.292 167.791 M178.721 169.250 C 178.722 169.892,178.752 170.134,178.788 169.788 C 178.824 169.442,178.824 168.917,178.787 168.621 C 178.750 168.325,178.721 168.608,178.721 169.250 M192.872 168.833 C 192.872 169.154,192.906 169.285,192.948 169.125 C 192.990 168.965,192.990 168.702,192.948 168.542 C 192.906 168.381,192.872 168.512,192.872 168.833 M195.214 169.083 C 195.216 169.542,195.248 169.709,195.286 169.456 C 195.325 169.203,195.324 168.828,195.284 168.623 C 195.244 168.418,195.213 168.625,195.214 169.083 M344.539 168.833 C 344.539 169.154,344.573 169.285,344.615 169.125 C 344.657 168.965,344.657 168.702,344.615 168.542 C 344.573 168.381,344.539 168.512,344.539 168.833 M136.194 174.184 C 136.074 174.377,136.053 174.487,136.148 174.428 C 136.260 174.359,136.340 174.832,136.376 175.786 L 136.431 177.250 136.466 175.542 C 136.503 173.665,136.507 173.683,136.194 174.184 M390.042 175.448 C 390.202 175.490,390.465 175.490,390.625 175.448 C 390.785 175.406,390.654 175.372,390.333 175.372 C 390.012 175.372,389.881 175.406,390.042 175.448 M289.333 176.389 C 289.333 176.432,289.575 176.552,289.871 176.655 C 290.167 176.758,290.336 176.774,290.246 176.690 C 290.056 176.512,289.333 176.274,289.333 176.389 M382.621 184.954 C 382.917 184.990,383.442 184.991,383.788 184.955 C 384.134 184.919,383.892 184.889,383.250 184.888 C 382.608 184.887,382.325 184.917,382.621 184.954 M3.792 190.125 C 5.373 190.152,7.960 190.152,9.542 190.125 C 11.123 190.097,9.829 190.075,6.667 190.075 C 3.504 190.075,2.210 190.097,3.792 190.125 M75.803 190.125 C 77.757 190.152,80.907 190.151,82.803 190.125 C 84.699 190.098,83.100 190.076,79.250 190.076 C 75.400 190.076,73.849 190.098,75.803 190.125 M154.708 194.448 C 154.869 194.490,155.131 194.490,155.292 194.448 C 155.452 194.406,155.321 194.372,155.000 194.372 C 154.679 194.372,154.548 194.406,154.708 194.448 M171.077 202.833 C 171.077 207.371,171.099 209.227,171.125 206.958 C 171.151 204.690,171.151 200.977,171.125 198.708 C 171.099 196.440,171.077 198.296,171.077 202.833 M219.970 196.183 C 219.941 197.017,219.973 197.734,220.042 197.776 C 220.110 197.818,220.167 197.136,220.167 196.260 C 220.167 194.238,220.041 194.188,219.970 196.183 M293.000 196.000 C 293.000 196.764,293.049 197.340,293.109 197.280 C 293.226 197.163,293.194 194.805,293.073 194.685 C 293.033 194.644,293.000 195.236,293.000 196.000 M149.333 196.000 C 149.333 196.672,149.384 197.172,149.446 197.110 C 149.563 196.993,149.525 194.969,149.403 194.848 C 149.365 194.809,149.333 195.328,149.333 196.000 M246.872 195.333 C 246.872 195.654,246.906 195.785,246.948 195.625 C 246.990 195.465,246.990 195.202,246.948 195.042 C 246.906 194.881,246.872 195.012,246.872 195.333 M373.250 197.272 C 373.342 197.352,373.717 197.680,374.083 198.000 L 374.749 198.583 374.250 198.027 C 373.975 197.722,373.600 197.394,373.417 197.299 C 373.233 197.204,373.158 197.192,373.250 197.272 M396.292 199.621 C 396.590 199.658,397.077 199.658,397.375 199.621 C 397.673 199.584,397.429 199.553,396.833 199.553 C 396.238 199.553,395.994 199.584,396.292 199.621 M293.074 206.167 C 293.074 208.963,293.097 210.106,293.125 208.708 C 293.153 207.310,293.153 205.023,293.125 203.625 C 293.097 202.227,293.074 203.371,293.074 206.167 M5.042 201.624 C 6.119 201.653,7.881 201.653,8.958 201.624 C 10.035 201.595,9.154 201.572,7.000 201.572 C 4.846 201.572,3.965 201.595,5.042 201.624 M149.407 206.333 C 149.407 208.946,149.430 210.015,149.458 208.708 C 149.486 207.402,149.486 205.265,149.458 203.958 C 149.430 202.652,149.407 203.721,149.407 206.333 M220.053 202.833 C 220.053 203.429,220.084 203.673,220.121 203.375 C 220.158 203.077,220.158 202.590,220.121 202.292 C 220.084 201.994,220.053 202.237,220.053 202.833 M36.205 202.667 C 36.205 202.987,36.240 203.119,36.282 202.958 C 36.323 202.798,36.323 202.535,36.282 202.375 C 36.240 202.215,36.205 202.346,36.205 202.667 M338.714 203.083 C 338.716 203.542,338.748 203.709,338.786 203.456 C 338.825 203.203,338.824 202.828,338.784 202.623 C 338.744 202.418,338.713 202.625,338.714 203.083 M219.976 208.042 C 219.943 208.156,219.958 209.225,220.008 210.417 L 220.099 212.583 220.133 210.208 C 220.164 208.008,220.128 207.510,219.976 208.042 " stroke="none" fill="#284490" fill-rule="evenodd"></path><path id="path3" d="" stroke="none" fill="#206490" fill-rule="evenodd"></path><path id="path4" d="M123.553 0.125 C 125.461 0.152,128.536 0.152,130.386 0.125 C 132.236 0.098,130.675 0.076,126.917 0.076 C 123.158 0.076,121.645 0.098,123.553 0.125 M334.125 0.125 C 336.440 0.151,340.227 0.151,342.542 0.125 C 344.856 0.099,342.962 0.077,338.333 0.077 C 333.704 0.077,331.810 0.099,334.125 0.125 M146.167 2.008 C 146.745 2.401,147.074 2.515,146.667 2.182 C 146.438 1.994,146.175 1.840,146.083 1.840 C 145.992 1.839,146.029 1.915,146.167 2.008 M202.722 29.125 C 212.514 29.149,228.489 29.149,238.222 29.125 C 247.954 29.101,239.942 29.082,220.417 29.082 C 200.892 29.082,192.929 29.101,202.722 29.125 M335.281 48.291 C 336.856 48.319,339.481 48.319,341.114 48.291 C 342.747 48.264,341.458 48.242,338.250 48.242 C 335.042 48.242,333.706 48.264,335.281 48.291 M127.740 53.445 C 127.483 53.782,127.358 54.004,127.462 53.940 C 127.675 53.808,128.397 52.833,128.281 52.833 C 128.240 52.833,127.996 53.109,127.740 53.445 M46.372 59.000 C 46.372 59.321,46.406 59.452,46.448 59.292 C 46.490 59.131,46.490 58.869,46.448 58.708 C 46.406 58.548,46.372 58.679,46.372 59.000 M234.725 63.167 C 234.725 63.946,234.754 64.265,234.789 63.875 C 234.824 63.485,234.824 62.848,234.789 62.458 C 234.754 62.069,234.725 62.387,234.725 63.167 M368.333 80.115 C 368.333 80.207,368.483 80.417,368.667 80.583 C 368.850 80.749,369.000 80.847,369.000 80.801 C 369.000 80.755,368.850 80.545,368.667 80.333 C 368.483 80.122,368.333 80.024,368.333 80.115 M112.375 96.291 C 113.177 96.321,114.490 96.321,115.292 96.291 C 116.094 96.260,115.438 96.235,113.833 96.235 C 112.229 96.235,111.573 96.260,112.375 96.291 M59.500 101.167 C 59.696 101.442,59.894 101.667,59.939 101.667 C 59.985 101.667,59.862 101.442,59.667 101.167 C 59.471 100.892,59.273 100.667,59.227 100.667 C 59.181 100.667,59.304 100.892,59.500 101.167 M106.542 125.121 C 106.885 125.157,107.448 125.157,107.792 125.121 C 108.135 125.085,107.854 125.056,107.167 125.056 C 106.479 125.056,106.198 125.085,106.542 125.121 M2.745 166.500 C 2.745 172.321,2.766 174.702,2.792 171.792 C 2.817 168.881,2.817 164.119,2.792 161.208 C 2.766 158.298,2.745 160.679,2.745 166.500 M40.121 156.620 C 40.417 156.657,40.942 156.658,41.288 156.622 C 41.634 156.586,41.392 156.555,40.750 156.555 C 40.108 156.554,39.825 156.583,40.121 156.620 M150.961 156.621 C 151.261 156.658,151.711 156.657,151.961 156.619 C 152.212 156.581,151.967 156.551,151.417 156.552 C 150.867 156.553,150.662 156.584,150.961 156.621 M150.231 158.667 C 150.231 159.813,150.258 160.281,150.290 159.708 C 150.323 159.135,150.323 158.198,150.290 157.625 C 150.258 157.052,150.231 157.521,150.231 158.667 M80.744 168.833 C 80.744 173.371,80.765 175.227,80.792 172.958 C 80.818 170.690,80.818 166.977,80.792 164.708 C 80.765 162.440,80.744 164.296,80.744 168.833 M136.394 162.250 C 136.395 163.167,136.423 163.520,136.456 163.036 C 136.490 162.552,136.490 161.802,136.456 161.369 C 136.421 160.937,136.394 161.333,136.394 162.250 M138.744 168.917 C 138.744 173.500,138.765 175.351,138.792 173.030 C 138.818 170.709,138.818 166.959,138.792 164.697 C 138.765 162.434,138.744 164.333,138.744 168.917 M358.907 165.500 C 358.907 168.204,358.930 169.310,358.958 167.958 C 358.986 166.606,358.986 164.394,358.958 163.042 C 358.930 161.690,358.907 162.796,358.907 165.500 M382.079 172.667 C 382.079 179.313,382.100 182.031,382.125 178.708 C 382.150 175.385,382.150 169.948,382.125 166.625 C 382.100 163.302,382.079 166.021,382.079 172.667 M316.556 162.000 C 316.556 162.688,316.585 162.969,316.621 162.625 C 316.657 162.281,316.657 161.719,316.621 161.375 C 316.585 161.031,316.556 161.313,316.556 162.000 M395.500 161.885 C 395.500 161.914,395.744 162.158,396.042 162.427 L 396.583 162.917 396.094 162.375 C 395.638 161.870,395.500 161.757,395.500 161.885 M150.241 167.833 C 150.241 170.813,150.264 172.031,150.291 170.542 C 150.319 169.052,150.319 166.615,150.291 165.125 C 150.264 163.635,150.241 164.854,150.241 167.833 M110.074 172.167 C 110.074 174.963,110.097 176.106,110.125 174.708 C 110.153 173.310,110.153 171.023,110.125 169.625 C 110.097 168.227,110.074 169.371,110.074 172.167 M316.574 172.250 C 316.574 175.000,316.597 176.148,316.625 174.802 C 316.653 173.456,316.653 171.206,316.625 169.802 C 316.597 168.398,316.574 169.500,316.574 172.250 M295.292 167.791 C 296.506 167.820,298.494 167.820,299.708 167.791 C 300.923 167.763,299.929 167.739,297.500 167.739 C 295.071 167.739,294.077 167.763,295.292 167.791 M178.721 169.250 C 178.722 169.892,178.752 170.134,178.788 169.788 C 178.824 169.442,178.824 168.917,178.787 168.621 C 178.750 168.325,178.721 168.608,178.721 169.250 M192.872 168.833 C 192.872 169.154,192.906 169.285,192.948 169.125 C 192.990 168.965,192.990 168.702,192.948 168.542 C 192.906 168.381,192.872 168.512,192.872 168.833 M195.214 169.083 C 195.216 169.542,195.248 169.709,195.286 169.456 C 195.325 169.203,195.324 168.828,195.284 168.623 C 195.244 168.418,195.213 168.625,195.214 169.083 M344.539 168.833 C 344.539 169.154,344.573 169.285,344.615 169.125 C 344.657 168.965,344.657 168.702,344.615 168.542 C 344.573 168.381,344.539 168.512,344.539 168.833 M136.194 174.184 C 136.074 174.377,136.053 174.487,136.148 174.428 C 136.260 174.359,136.340 174.832,136.376 175.786 L 136.431 177.250 136.466 175.542 C 136.503 173.665,136.507 173.683,136.194 174.184 M390.042 175.448 C 390.202 175.490,390.465 175.490,390.625 175.448 C 390.785 175.406,390.654 175.372,390.333 175.372 C 390.012 175.372,389.881 175.406,390.042 175.448 M289.333 176.389 C 289.333 176.432,289.575 176.552,289.871 176.655 C 290.167 176.758,290.336 176.774,290.246 176.690 C 290.056 176.512,289.333 176.274,289.333 176.389 M382.621 184.954 C 382.917 184.990,383.442 184.991,383.788 184.955 C 384.134 184.919,383.892 184.889,383.250 184.888 C 382.608 184.887,382.325 184.917,382.621 184.954 M3.792 190.125 C 5.373 190.152,7.960 190.152,9.542 190.125 C 11.123 190.097,9.829 190.075,6.667 190.075 C 3.504 190.075,2.210 190.097,3.792 190.125 M75.803 190.125 C 77.757 190.152,80.907 190.151,82.803 190.125 C 84.699 190.098,83.100 190.076,79.250 190.076 C 75.400 190.076,73.849 190.098,75.803 190.125 M154.708 194.448 C 154.869 194.490,155.131 194.490,155.292 194.448 C 155.452 194.406,155.321 194.372,155.000 194.372 C 154.679 194.372,154.548 194.406,154.708 194.448 M171.077 202.833 C 171.077 207.371,171.099 209.227,171.125 206.958 C 171.151 204.690,171.151 200.977,171.125 198.708 C 171.099 196.440,171.077 198.296,171.077 202.833 M219.970 196.183 C 219.941 197.017,219.973 197.734,220.042 197.776 C 220.110 197.818,220.167 197.136,220.167 196.260 C 220.167 194.238,220.041 194.188,219.970 196.183 M293.000 196.000 C 293.000 196.764,293.049 197.340,293.109 197.280 C 293.226 197.163,293.194 194.805,293.073 194.685 C 293.033 194.644,293.000 195.236,293.000 196.000 M149.333 196.000 C 149.333 196.672,149.384 197.172,149.446 197.110 C 149.563 196.993,149.525 194.969,149.403 194.848 C 149.365 194.809,149.333 195.328,149.333 196.000 M246.872 195.333 C 246.872 195.654,246.906 195.785,246.948 195.625 C 246.990 195.465,246.990 195.202,246.948 195.042 C 246.906 194.881,246.872 195.012,246.872 195.333 M373.250 197.272 C 373.342 197.352,373.717 197.680,374.083 198.000 L 374.749 198.583 374.250 198.027 C 373.975 197.722,373.600 197.394,373.417 197.299 C 373.233 197.204,373.158 197.192,373.250 197.272 M396.292 199.621 C 396.590 199.658,397.077 199.658,397.375 199.621 C 397.673 199.584,397.429 199.553,396.833 199.553 C 396.238 199.553,395.994 199.584,396.292 199.621 M293.074 206.167 C 293.074 208.963,293.097 210.106,293.125 208.708 C 293.153 207.310,293.153 205.023,293.125 203.625 C 293.097 202.227,293.074 203.371,293.074 206.167 M5.042 201.624 C 6.119 201.653,7.881 201.653,8.958 201.624 C 10.035 201.595,9.154 201.572,7.000 201.572 C 4.846 201.572,3.965 201.595,5.042 201.624 M149.407 206.333 C 149.407 208.946,149.430 210.015,149.458 208.708 C 149.486 207.402,149.486 205.265,149.458 203.958 C 149.430 202.652,149.407 203.721,149.407 206.333 M220.053 202.833 C 220.053 203.429,220.084 203.673,220.121 203.375 C 220.158 203.077,220.158 202.590,220.121 202.292 C 220.084 201.994,220.053 202.237,220.053 202.833 M36.205 202.667 C 36.205 202.987,36.240 203.119,36.282 202.958 C 36.323 202.798,36.323 202.535,36.282 202.375 C 36.240 202.215,36.205 202.346,36.205 202.667 M338.714 203.083 C 338.716 203.542,338.748 203.709,338.786 203.456 C 338.825 203.203,338.824 202.828,338.784 202.623 C 338.744 202.418,338.713 202.625,338.714 203.083 M219.976 208.042 C 219.943 208.156,219.958 209.225,220.008 210.417 L 220.099 212.583 220.133 210.208 C 220.164 208.008,220.128 207.510,219.976 208.042 " stroke="none" fill="#284490" fill-rule="evenodd"></path></g></svg>