<?xml version="1.0" encoding="utf-8"?>
<!-- Generator: Adobe Illustrator 26.3.1, SVG Export Plug-In . SVG Version: 6.00 Build 0)  -->
<svg version="1.1" id="Layer_1" xmlns="http://www.w3.org/2000/svg" xmlns:xlink="http://www.w3.org/1999/xlink" x="0px" y="0px"
	 viewBox="0 0 2500 769" style="enable-background:new 0 0 2500 769;" xml:space="preserve">
<style type="text/css">
	.st0{fill:#0081FB;}
	.st1{fill:url(#Logo1_00000170974572609525453270000007713991382826632627_);}
	.st2{fill:url(#Logo2_00000054257376090851903250000002816770304266880133_);}
	.st3{fill:#192830;}
</style>
<path id="Logo0" class="st0" d="M101.3,427.1c0,28.3,6.2,50,14.3,63.2c10.6,17.2,26.5,24.5,42.7,24.5c20.9,0,40-5.2,76.8-56.1
	c29.5-40.8,64.2-98.1,87.6-134l39.6-60.8c27.5-42.3,59.3-89.2,95.8-121.1c29.8-26,61.9-40.4,94.3-40.4c54.3,0,106.1,31.5,145.6,90.5
	c43.3,64.7,64.4,146.1,64.4,230.1c0,50-9.8,86.7-26.6,115.7c-16.2,28-47.7,56.1-100.8,56.1v-80c45.4,0,56.8-41.8,56.8-89.6
	c0-68.1-15.9-143.7-50.9-197.7c-24.8-38.3-57-61.7-92.4-61.7c-38.3,0-69.1,28.9-103.7,80.4c-18.4,27.4-37.3,60.7-58.5,98.3
	L363,385.8C316.1,469,304.2,488,280.8,519.2c-41.1,54.8-76.2,75.5-122.4,75.5c-54.8,0-89.5-23.7-111-59.5
	c-17.5-29.2-26.1-67.4-26.1-111L101.3,427.1z"/>
<linearGradient id="Logo1_00000145055041739247911250000016531949926446475966_" gradientUnits="userSpaceOnUse" x1="181.8967" y1="434.0853" x2="692.3033" y2="408.3072" gradientTransform="matrix(1 0 0 -1 0 769.8898)">
	<stop  offset="0" style="stop-color:#0064E1"/>
	<stop  offset="0.4" style="stop-color:#0064E1"/>
	<stop  offset="0.83" style="stop-color:#0073EE"/>
	<stop  offset="1" style="stop-color:#0082FB"/>
</linearGradient>
<path id="Logo1" style="fill:url(#Logo1_00000145055041739247911250000016531949926446475966_);" d="M84.3,198.5
	C121,142,174,102.4,234.8,102.4c35.2,0,70.2,10.4,106.7,40.2c40,32.6,82.5,86.3,135.7,174.8l19.1,31.8c46,76.6,72.2,116,87.5,134.6
	c19.7,23.9,33.5,31,51.4,31c45.4,0,56.8-41.8,56.8-89.6l70.6-2.2c0,50-9.8,86.7-26.6,115.7c-16.2,28-47.7,56.1-100.8,56.1
	c-33,0-62.2-7.2-94.6-37.7c-24.9-23.4-53.9-65-76.3-102.4l-66.5-111.1c-33.4-55.7-64-97.3-81.7-116.1
	c-19.1-20.2-43.5-44.7-82.6-44.7c-31.6,0-58.5,22.2-81,56.1L84.3,198.5z"/>
<linearGradient id="Logo2_00000112633233686043516940000002749400727267866025_" gradientUnits="userSpaceOnUse" x1="127.9926" y1="309.1924" x2="127.9926" y2="497.3725" gradientTransform="matrix(1 0 0 -1 0 769.8898)">
	<stop  offset="0" style="stop-color:#0082FB"/>
	<stop  offset="1" style="stop-color:#0064E0"/>
</linearGradient>
<path id="Logo2" style="fill:url(#Logo2_00000112633233686043516940000002749400727267866025_);" d="M233.5,182.9
	c-31.6,0-58.5,22.2-81,56.1c-31.8,48-51.2,119.4-51.2,188.1c0,28.3,6.2,50,14.3,63.2l-68.3,45c-17.5-29.2-26.1-67.4-26.1-111
	c0-79.3,21.8-161.9,63.1-225.7C121,142,174,102.4,234.8,102.4L233.5,182.9z"/>
<path id="Text" class="st3" d="M918.1,118h92.6l157.5,284.9L1325.7,118h90.6v468.1h-75.6V227.3l-138.1,248.4h-70.9L993.7,227.3
	v358.8h-75.6V118z M1653.1,292.5c-54.2,0-86.8,40.8-94.6,91.3h183.9C1738.6,331.8,1708.6,292.5,1653.1,292.5L1653.1,292.5z
	 M1483.5,412.5c0-106.3,68.7-183.6,170.9-183.6c100.5,0,160.5,76.4,160.5,189.3V439h-256.5c9.1,54.9,45.5,92,104.3,92
	c46.9,0,76.2-14.3,104-40.5l40.1,49.2c-37.8,34.8-85.9,54.8-146.8,54.8C1549.5,594.4,1483.5,513.8,1483.5,412.5z M1906.5,299.2H1837
	v-61.9h69.5V135h72.9v102.3h105.7v61.9h-105.7V456c0,53.5,17.1,72.6,59.2,72.6c19.2,0,30.2-1.6,46.5-4.4v61.2
	c-20.3,5.7-39.6,8.4-60.5,8.4c-78.7,0-118-43-118-129.1L1906.5,299.2z M2392.1,359.4c-14.6-37-47.3-64.2-95.3-64.2
	c-62.4,0-102.3,44.3-102.3,116.4c0,70.3,36.8,116.7,99.3,116.7c49.2,0,84.3-28.6,98.3-64.2V359.4z M2465,586.1h-71.6v-48.8
	c-20,28.7-56.4,57.2-115.4,57.2c-94.8,0-158.2-79.4-158.2-182.9c0-104.5,64.9-182.6,162.2-182.6c48.1,0,85.8,19.2,111.3,53.2v-44.8
	h71.6V586.1z"/>
</svg>
