<?xml version="1.0" encoding="utf-8"?>
<!-- Generator: Adobe Illustrator 26.3.1, SVG Export Plug-In . SVG Version: 6.00 Build 0)  -->
<svg version="1.1" id="Layer_1" xmlns="http://www.w3.org/2000/svg" xmlns:xlink="http://www.w3.org/1999/xlink" x="0px" y="0px"
	 viewBox="0 0 2500 769" style="enable-background:new 0 0 2500 769;" xml:space="preserve">
<style type="text/css">
	.st0{fill:#3374BA;}
	.st1{fill:#1A3C67;}
	.st2{fill:#FFFFFF;}
</style>
<g id="Group_3717">
	<path id="Vector" class="st0" d="M865.1,19.2H313.5v730.5h551.6V19.2z"/>
	<path id="Vector_2" class="st0" d="M2182.9,19.2h-628.3v730.5h628.3V19.2z"/>
	<path id="Vector_3" class="st1" d="M1554.7,19.2H865.1v730.5h689.6V19.2z"/>
	<g id="Clip_path_group">
		<path id="Vector_4" class="st2" d="M1468.5,595c-13.6-6.7-17.2-36.7-15.4-69.2c5.4-105.8-42.7-134.2-112.6-153.3v-1.7
			c57.2-5,128-22.5,128-110c0-30-18.2-98.3-135.3-98.3h-186.1v15.8h43.6v183.3h-167.9V178.3h42.7v-15.8H911.1v15.8h43.6v417.5h-43.6
			v15.8h154.3v-15.8h-42.7V376.7h167.9v219.2h-43.6v15.8h159.8v-15.8h-48.1V376.7h29.1c77.2,0,82.6,50,85.3,80.8
			c4.5,40,8.2,95,10.9,106.7c8.2,31.7,39.9,56.7,83.5,56.7c16.3-0.8,33.6-5,54.5-12.5v-16.7C1502.1,600,1479.4,603.3,1468.5,595z
			 M1284.2,361.7h-25.4V178.3h49.9c59,0,84.4,20,84.4,85C1393.1,355,1351.4,361.7,1284.2,361.7z"/>
	</g>
	<g id="Clip_path_group_x5F_2">
		<path id="Vector_5" class="st2" d="M2062.5,179.5h49v-17.1h-135.3L1871,504.8l-104.4-342.3h-135.3v17.1h49v425.9h-49v15.4h119.8
			v-15.4h-49v-414h0.9l132.5,429.3h22.7l133.4-429.3h1.8v414h-49v15.4h167v-15.4h-49V179.5z"/>
	</g>
	<g id="Clip_path_group_x5F_3">
		<path id="Vector_6" class="st2" d="M460.8,587.8c30.9,20.7,83.5,33.1,124.4,33.1c112.6,0,185.2-60.4,185.2-134.9
			c0-57.1-38.1-100.1-127.1-124.1c-33.6-9.1-67.2-17.4-89.9-24c-53.6-14.9-96.2-33.9-96.2-84.4c0-43.9,52.7-74.5,108-74.5
			c87.1,0,141.6,52.1,151.6,114.2h28.1V169.1h-15.4l-33.6,26.5c-39.9-24-77.2-33.1-128-33.1c-90.8,0-158.9,51.3-158.9,120
			c0,62.1,48.1,97.6,129.8,115.8c17.2,4.1,34.5,9.1,52.7,13.2c79.9,19,130.7,39.7,130.7,100.1c0,53.8-60.8,91.8-130.7,91.8
			c-92.6,0-142.5-57.9-160.7-120h-25.4v130.7h14.5L460.8,587.8z"/>
	</g>
</g>
</svg>
