<svg id="Layer_1" data-name="Layer 1" xmlns="http://www.w3.org/2000/svg" viewBox="0 0 80.78 80.78"><defs><style>.cls-1,.cls-3{fill:none;stroke:#1ab48a;}.cls-1,.cls-3,.cls-4{stroke-miterlimit:10;}.cls-1,.cls-4{stroke-width:2px;}.cls-2{fill:#1ab48a;}.cls-4{fill:#224093;stroke:#224093;}</style></defs><title>ICONS</title><path class="cls-1" d="M48.09,64.6A12.61,12.61,0,0,0,53.36,67v1.6a1.83,1.83,0,0,0,1.82,1.82h2.25a1.83,1.83,0,0,0,1.82-1.82V67a12,12,0,0,0,4.44-1.72A7.28,7.28,0,0,0,67.18,59a6.31,6.31,0,0,0-1.4-4.27,10.49,10.49,0,0,0-6.53-3.31V48.75c.19.13.38.28.57.44a2.19,2.19,0,0,0,1.43.52,2.37,2.37,0,0,0,1-.28l.08,0,2.52-1.58a1.59,1.59,0,0,0,.81-1.33,1.52,1.52,0,0,0-.5-1.13,10.67,10.67,0,0,0-5.92-3.41V40a1.82,1.82,0,0,0-1.82-1.82H55.18A1.82,1.82,0,0,0,53.36,40v1.82a11.39,11.39,0,0,0-2.81.85c-3.25,1.48-4.87,3.75-4.81,6.73a6.53,6.53,0,0,0,1.33,3.93,9.7,9.7,0,0,0,6.29,3.47v3.9a9.05,9.05,0,0,1-2.58-2A1.8,1.8,0,0,0,49.33,58a2.85,2.85,0,0,0-.91.24l0,0,0,0-2.3,1.34a1.56,1.56,0,0,0-.47,2.44A12.06,12.06,0,0,0,48.09,64.6Z"/><path class="cls-2" d="M54.54,46.61a.61.61,0,0,0-.26-.49.58.58,0,0,0-.54-.06l-.18.07,0,0a2.48,2.48,0,0,0-1.65,2.3h0a2.58,2.58,0,0,0,1.87,2.47A.52.52,0,0,0,54,51a.64.64,0,0,0,.33-.1.61.61,0,0,0,.26-.49Zm-1.18,2.7a1.33,1.33,0,0,1-.31-.87,1.06,1.06,0,0,1,.31-.77Z"/><path class="cls-3" d="M58.34,61.05a.62.62,0,0,0,.32.09.56.56,0,0,0,.25,0,4.2,4.2,0,0,0,.55-.29,3.13,3.13,0,0,0,1.61-2.75,2.71,2.71,0,0,0-2.23-2.7.59.59,0,0,0-.53.08.6.6,0,0,0-.24.48v4.64A.58.58,0,0,0,58.34,61.05Zm.91-4.23A1.31,1.31,0,0,1,59.89,58a1.86,1.86,0,0,1-.64,1.46Z"/><path class="cls-4" d="M35.67,25v3.52H28a1.18,1.18,0,0,0-1.18,1.18v7.67H23.31V29.65a1.18,1.18,0,0,0-1.19-1.18H14.45V25h7.67a1.18,1.18,0,0,0,1.19-1.18V16.1h3.52v7.67A1.18,1.18,0,0,0,28,25Z"/><path class="cls-4" d="M67.08,28.47H45.86V25H67.08Z"/><path class="cls-4" d="M16.65,61.51l5.09-5.09a1.2,1.2,0,0,0,0-1.67l-5.43-5.42,2.5-2.49,5.42,5.42a1.18,1.18,0,0,0,1.67,0l5.42-5.42,2.49,2.49-5.42,5.42a1.18,1.18,0,0,0,0,1.67l5.42,5.42-2.05,2a.66.66,0,0,1-.88,0l-5-5a1.22,1.22,0,0,0-1.67,0l-5,5a.69.69,0,0,1-.79.11l-1.71-1.71A.67.67,0,0,1,16.65,61.51Z"/></svg>