<?xml version="1.0" encoding="utf-8"?>
<!-- Generator: Adobe Illustrator 23.0.3, SVG Export Plug-In . SVG Version: 6.00 Build 0)  -->
<svg version="1.1" id="Layer_1" xmlns="http://www.w3.org/2000/svg" xmlns:xlink="http://www.w3.org/1999/xlink" x="0px" y="0px"
	 viewBox="0 0 60 60" style="enable-background:new 0 0 60 60;" xml:space="preserve">
<style type="text/css">
	.st0{fill:#2CB288;}
	.st1{fill:#29408F;}
</style>
<rect x="23.61" y="46.96" class="st0" width="17.83" height="1.63"/>
<path class="st1" d="M45.4,23.29c-0.11-4.29-1.89-8.36-4.98-11.34c-2.68-2.61-6.3-3.82-11.41-3.82c-3.51,0-11.78,1.28-12.84,13.13
	c0,0.02,0,0.04-0.01,0.06l-2.29,11.8l4.05-0.01l0,0c0.32,0,0.59,0.26,0.59,0.59v7.48h4.51c0.33,0,0.59,0.26,0.59,0.59l0,0v4.03
	h17.83v-1.8c0-4.92,0.91-9.62,2.72-13.95C45.05,27.9,45.47,25.6,45.4,23.29z M36.99,25.5c0.17-1.11,1.22-1.87,2.33-1.7
	c1.11,0.17,1.87,1.22,1.7,2.33c-0.17,1.11-1.22,1.87-2.33,1.7c-0.67-0.11-1.25-0.54-1.53-1.15h-1.91v1.31
	c0,0.33-0.26,0.59-0.59,0.59l0,0H32.8v1.74c1.11,0.17,1.87,1.22,1.7,2.33c-0.17,1.11-1.22,1.87-2.33,1.7
	c-1.11-0.17-1.87-1.22-1.7-2.33c0.11-0.67,0.54-1.25,1.15-1.53v-1.91H27v1.74c1.11,0.17,1.87,1.22,1.7,2.33
	c-0.17,1.11-1.22,1.87-2.33,1.7c-1.11-0.17-1.87-1.22-1.7-2.33c0.11-0.67,0.54-1.25,1.15-1.53v-1.91h-1.31
	c-0.33,0-0.59-0.26-0.59-0.59l0,0v-1.31h-1.91c-0.48,1.02-1.69,1.46-2.71,0.98c-1.02-0.48-1.46-1.69-0.98-2.71
	c0.48-1.02,1.69-1.46,2.71-0.98c0.61,0.29,1.04,0.86,1.15,1.53h1.74v-4.62h-1.91c-0.48,1.02-1.69,1.46-2.71,0.98
	c-1.02-0.48-1.46-1.69-0.98-2.71c0.48-1.02,1.69-1.46,2.71-0.98c0.61,0.29,1.04,0.86,1.15,1.53h1.74v-1.86
	c0-0.33,0.26-0.59,0.59-0.59l0,0h1.31v-1.91c-1.02-0.48-1.46-1.69-0.98-2.71c0.48-1.02,1.69-1.46,2.71-0.98
	c1.02,0.48,1.46,1.69,0.98,2.71c-0.29,0.61-0.86,1.04-1.53,1.15v1.74h4.62v-1.91c-1.02-0.48-1.46-1.69-0.98-2.71
	s1.69-1.46,2.71-0.98c1.02,0.48,1.46,1.69,0.98,2.71c-0.29,0.61-0.86,1.04-1.53,1.15v1.74h1.86c0.33,0,0.59,0.26,0.59,0.59l0,0v1.86
	h1.74c0.17-1.11,1.22-1.87,2.33-1.7c1.11,0.17,1.87,1.22,1.7,2.33c-0.17,1.11-1.22,1.87-2.33,1.7c-0.67-0.11-1.25-0.54-1.53-1.15
	h-1.91v4.62H36.99L36.99,25.5z"/>
</svg>
