<svg id="Layer_1" data-name="Layer 1" xmlns="http://www.w3.org/2000/svg" viewBox="0 0 1200 1200"><defs><style>.cls-1{fill:#224093;}.cls-2{fill:#1ab48a;}</style></defs><title>Icons</title><path class="cls-1" d="M767.81,453.82c-70.1-76.07-156.55-107.27-258.3-89.47C363.2,389.93,263.82,529.58,286.73,676.54c14.65,93.89,66,162.57,150.24,206.59a18.31,18.31,0,0,0,9.39,1.74,255,255,0,0,0,27.49-3,204.91,204.91,0,0,0,29.75-7.26,21.69,21.69,0,0,0,15-18.56,160.78,160.78,0,0,0,1.13-21.83c-.21-14.8-1.56-29.6-1.22-44.37.51-22.58,7.59-43,22.89-60.18,15.81-17.72,35.64-28,59.33-31.67,0-1.26,0-1.94,0-2.62-.51-20.32,11-33.48,31.27-36a7.78,7.78,0,0,0,4.72-3.23q65.91-97.57,131.69-195.24C770.36,458,770.07,456.29,767.81,453.82ZM372,537.26a36.91,36.91,0,1,1-36.9,36.66A36.65,36.65,0,0,1,372,537.26Zm5.37,197.51A36.87,36.87,0,1,1,377.9,661c20.35.22,36.9,17,36.68,37.17A37,37,0,0,1,377.35,734.77Zm66.23-224.85a37,37,0,1,1,36.78-37.09A37.13,37.13,0,0,1,443.58,509.92Zm118.34-36.3a36.94,36.94,0,1,1,36.87-36.79A36.88,36.88,0,0,1,561.92,473.62Zm115.65,44.24a36.92,36.92,0,1,1,37.09-36.62A37,37,0,0,1,677.57,517.86Z"/><path class="cls-2" d="M676.51,749.89a19.48,19.48,0,0,0-6.21-6c-13.92-8.59-28-17-42-25.29a16.8,16.8,0,0,0-5.7-2.37c-36.64-5.88-74.64,19.56-83.38,55.66-4.14,17-2.6,34.25-1.8,51.45.35,7.48.78,15,.67,22.43-.39,27-12.19,42.43-38.09,49.82-6.64,1.88-13.49,3-21.16,4.68,2.46.79,4,1.36,5.62,1.8,28.68,7.94,57.67,9.18,86.78,3,45.3-9.54,82-32.39,106.43-72.37C694.42,805.24,693.43,777.22,676.51,749.89ZM542.61,890.8c.11-.94,0-1.55.23-1.89,9.52-12.83,13.14-27.54,13-43.18-.1-14.43-1-28.86-1.45-43.29-.17-5.34,0-10.69,0-15.84,15.47-3.18,24,.36,30.52,13.54,4.51,9.15,7.72,19,11.48,28.48.63,1.59,1.12,3.23,1.77,5.13q20-6.6,39.25-13c-10,20.56-29.87,30-49.34,40a68.68,68.68,0,0,0,29.65-4c9.42-3.31,18.48-7.65,28.53-11.89C617.47,874.35,582.68,888.15,542.61,890.8Z"/><path class="cls-2" d="M912.75,292.34c-3.61-2.13-7-1.62-9.85,1.56a35.67,35.67,0,0,0-2.72,3.82Q775.79,482.4,651.39,667.1c-1,1.52-1.92,3.12-3.07,5,18,10.8,35.55,21.37,53.69,32.25,1.08-1.87,2-3.33,2.76-4.85l209.32-394A27.65,27.65,0,0,0,916,301.8C917.3,297.87,916.43,294.51,912.75,292.34Zm-34.86,59.77c-11.65,22-23.26,44-35,65.89a150.79,150.79,0,0,1-8.09,12.77Q755.16,549,675.54,667.18c-1.06,1.59-2.18,3.14-3.58,5.14-3-1.78-5.48-3.3-8.5-5.13L879.05,347.1l1,.54C879.31,349.13,878.66,350.67,877.89,352.11Z"/><path class="cls-1" d="M815.26,530.41A275.69,275.69,0,0,1,835,610.86c1.38,15.46,2.19,30.86-2,46.12-12.19,44.87-57.46,72.69-102.9,63-3.4-.72-7.05-1.25-8.71-5.54-1.18-3-1.2-5.27.36-8.19q38.18-71.52,76.13-143.16C803.48,552.54,809.09,542,815.26,530.41Z"/><path class="cls-1" d="M697.64,713.44c-18.48-11.05-36.91-22.2-55.43-33.2-8-4.77-17-2.72-21.35,4.59s-2.05,16.1,6,21c8.28,5.1,16.65,10.06,25,15.06,10.28,6.16,20.49,12.45,30.88,18.44,10.56,6.09,22.81-.56,23-12.26C705.69,721,702.83,716.55,697.64,713.44Zm-61.58-13.71-4.68-3c1.55-2.68,3-5.28,4.77-8.23l5,2.84C639.38,694.25,637.8,696.86,636.06,699.73ZM655,711l-13.41-8c1.75-2.9,3.29-5.49,5.06-8.42l13.42,8Z"/></svg>