<?xml version="1.0" encoding="utf-8"?>
<!-- Generator: Adobe Illustrator 23.0.3, SVG Export Plug-In . SVG Version: 6.00 Build 0)  -->
<svg version="1.1" id="Layer_1" xmlns="http://www.w3.org/2000/svg" xmlns:xlink="http://www.w3.org/1999/xlink" x="0px" y="0px"
	 viewBox="0 0 60 60" style="enable-background:new 0 0 60 60;" xml:space="preserve">
<style type="text/css">
	.st0{fill:#2CB288;}
</style>
<path class="st0" d="M25.56,42.74c-4.43-0.07-8.85-0.08-13.28-0.04c-2.8,0.02-3.87-0.61-3.83-3.47c0.11-8.33,0.11-16.66,0-24.99
	c-0.01-0.73,0.02-1.79,0.08-3.16c0.08-1.78,1.26-2.6,3-2.61c12.81-0.05,25.62-0.04,38.43,0.03c2.01,0.01,3.41,0.47,3.4,2.71
	c-0.07,10.82-0.08,20.25-0.03,28.26c0.02,2.5-0.71,3.38-3.19,3.33c-5.54-0.1-9.79-0.14-12.75-0.13c-0.56,0-1.32,0.06-2.28,0.17
	c-0.11,0.01-0.2,0.11-0.2,0.22l0.01,5.14c0,0.12,0.06,0.19,0.17,0.22c2.21,0.63,4.26,1.59,6.15,2.89c0.12,0.08,0.06,0.27-0.08,0.27
	l-20.97-0.12c-0.27,0-0.37-0.36-0.13-0.5c1.62-0.92,3.32-1.64,5.11-2.15c0.3-0.08,0.51-0.36,0.51-0.67l0.04-5.22
	C25.72,42.82,25.65,42.74,25.56,42.74 M49.98,12.63c0-0.14-0.11-0.25-0.25-0.25H12.58c-0.14,0-0.25,0.11-0.25,0.25v25.95
	c0,0.14,0.11,0.25,0.25,0.25h37.15c0.14,0,0.25-0.11,0.25-0.25V12.63L49.98,12.63z"/>
</svg>
