<?xml version="1.0" encoding="utf-8"?>
<!-- Generator: Adobe Illustrator 24.3.0, SVG Export Plug-In . SVG Version: 6.00 Build 0)  -->
<svg version="1.1" id="Layer_1" xmlns="http://www.w3.org/2000/svg" xmlns:xlink="http://www.w3.org/1999/xlink" x="0px" y="0px"
	 viewBox="0 0 60 60" style="enable-background:new 0 0 60 60;" xml:space="preserve">
<style type="text/css">
	.st0{fill:#17B188;}
	.st1{fill:#234091;}
</style>
<g id="Layer_x5F_1">
	<g id="_485564504">
		<path id="_485570776" class="st0" d="M17.41,27.35c-1.04,1.23-1.71,2.91-1.82,5.44c-0.12,2.63,0.99,6.43,2.74,8.49
			c-0.07-3.45,0.99-6.85,3.03-9.71c2.31-3.21,5.71-5.5,9.6-6.45c3.61-1.31,6.39-4.1,7.63-7.66c1.07-3.05,0.89-6.35-0.51-9.28
			c-0.11-0.22-0.28-0.37-0.53-0.43c-0.26-0.07-0.48-0.02-0.69,0.12c-2.72,1.89-5.73,3.31-8.93,4.23h-0.01
			c-6.33,1.62-10.64,7.36-10.41,13.65c1.38-1.19,3.1-1.94,4.85-2.72c2.36-1.03,4.78-2.1,6.81-4.29c0.2-0.21,0.53-0.23,0.76-0.03
			c0.22,0.2,0.23,0.53,0.03,0.76c-2.18,2.36-4.83,3.52-7.16,4.54c-2.1,0.92-3.97,1.74-5.28,3.21
			C17.49,27.27,17.45,27.32,17.41,27.35L17.41,27.35z M18.94,43.11c-0.11,0-0.22-0.03-0.31-0.1c-2.61-1.87-4.27-6.91-4.11-10.26
			c0.12-2.74,0.87-4.6,1.99-5.97c-0.36-3.43,0.53-6.89,2.52-9.75c2.04-2.94,5.1-5.05,8.62-5.95c3.09-0.89,5.99-2.27,8.61-4.09
			c0.47-0.32,1.01-0.42,1.57-0.28c0.56,0.14,0.98,0.49,1.22,1.01c1.51,3.18,1.71,6.77,0.56,10.09c-1.36,3.87-4.38,6.91-8.3,8.32
			c-0.02,0.01-0.03,0.01-0.06,0.01c-7.5,1.83-12.56,8.88-11.78,16.39c0.02,0.21-0.08,0.41-0.27,0.51
			C19.12,43.09,19.04,43.11,18.94,43.11z"/>
		<path id="_485568368" class="st0" d="M27.73,19.9c-1.38,0-2.74-0.38-3.91-1.12c-0.24-0.16-0.32-0.49-0.17-0.73
			c0.16-0.24,0.49-0.32,0.73-0.17c1.41,0.89,3.17,1.18,4.8,0.79c1.63-0.39,3.04-1.42,3.88-2.84c0.14-0.26,0.48-0.34,0.73-0.19
			c0.26,0.14,0.34,0.48,0.19,0.73c-0.98,1.67-2.64,2.89-4.55,3.34C28.88,19.83,28.3,19.9,27.73,19.9L27.73,19.9z"/>
		<path id="_485569600" class="st0" d="M44.03,27.39c-0.02,0-0.04,0-0.06,0c-0.28-0.03-0.48-0.29-0.45-0.57
			c0.55-4.48-1.37-9-4.99-11.82c-0.22-0.17-0.27-0.49-0.1-0.72s0.49-0.27,0.72-0.09c1.9,1.48,3.41,3.42,4.36,5.62
			c0.96,2.25,1.32,4.7,1.03,7.12C44.5,27.19,44.27,27.39,44.03,27.39z"/>
		<path id="_485569208" class="st0" d="M42.22,42.43c-0.09,0-0.18-0.02-0.26-0.07c-0.17-0.11-0.28-0.3-0.26-0.49
			c0.76-7.23-4.12-14.01-11.33-15.77c-0.28-0.06-0.45-0.34-0.37-0.62c0.06-0.28,0.34-0.45,0.62-0.37c3.75,0.92,7.05,3.12,9.27,6.22
			c1.97,2.74,2.98,6.02,2.92,9.35c1.68-1.98,2.75-5.62,2.64-8.17c-0.26-5.52-3.2-6.81-6.94-8.45c-1.01-0.45-2.05-0.9-3.09-1.48
			c-0.25-0.14-0.34-0.45-0.2-0.7s0.45-0.34,0.7-0.2c0.99,0.55,2.02,0.99,3.02,1.43c3.73,1.65,7.26,3.2,7.55,9.35
			c0.15,3.23-1.44,8.08-3.96,9.88C42.42,42.4,42.33,42.43,42.22,42.43L42.22,42.43z"/>
		<path id="_485568928" class="st0" d="M30.5,54.34L30.5,54.34c-2.62,0-5.12-1.08-7.25-3.12c-2.25-2.16-3.97-5.34-4.97-9.17
			c-0.07-0.28,0.1-0.56,0.36-0.63c0.28-0.07,0.56,0.1,0.63,0.36c1.86,7.11,6.16,11.54,11.23,11.54s9.37-4.42,11.23-11.54
			c0.07-0.28,0.35-0.44,0.63-0.36c0.28,0.07,0.44,0.35,0.36,0.63c-1.01,3.85-2.73,7.01-4.97,9.17
			C35.61,53.26,33.11,54.34,30.5,54.34L30.5,54.34z"/>
		<path id="_485568200" class="st1" d="M21.88,37.35c-0.1,0-0.18-0.02-0.27-0.07c-0.25-0.15-0.32-0.47-0.17-0.71
			c0.96-1.55,2.05-1.61,3.21-1.68c0.82-0.04,1.75-0.1,2.9-0.72c0.25-0.14,0.57-0.04,0.7,0.2c0.14,0.25,0.04,0.56-0.2,0.7
			c-1.34,0.73-2.44,0.78-3.33,0.83c-1.07,0.06-1.72,0.1-2.4,1.2C22.21,37.27,22.05,37.35,21.88,37.35z"/>
		<path id="_485569320" class="st1" d="M39.12,37.35c-0.17,0-0.34-0.09-0.44-0.25c-0.67-1.1-1.33-1.13-2.4-1.2
			c-0.89-0.05-1.99-0.11-3.33-0.83c-0.25-0.14-0.34-0.45-0.21-0.7c0.14-0.25,0.45-0.34,0.7-0.2c1.13,0.61,2.07,0.66,2.9,0.72
			c1.15,0.06,2.26,0.13,3.21,1.68c0.15,0.25,0.07,0.56-0.17,0.71C39.3,37.33,39.2,37.35,39.12,37.35L39.12,37.35z"/>
		<path id="_485566632" class="st1" d="M26.1,40.85c-1.29,0-2.47-0.72-3.07-1.87c-0.13-0.26-0.03-0.57,0.22-0.7s0.57-0.03,0.7,0.22
			c0.42,0.81,1.24,1.32,2.15,1.32s1.73-0.5,2.15-1.32c0.13-0.26,0.44-0.35,0.7-0.22c0.26,0.13,0.35,0.44,0.22,0.7
			C28.58,40.13,27.4,40.85,26.1,40.85z"/>
		<path id="_485566408" class="st1" d="M34.88,40.85c-1.29,0-2.47-0.72-3.07-1.87c-0.13-0.26-0.03-0.57,0.22-0.7
			c0.26-0.13,0.57-0.03,0.7,0.22c0.42,0.81,1.24,1.32,2.15,1.32s1.73-0.5,2.15-1.32c0.13-0.26,0.44-0.35,0.7-0.22
			c0.26,0.13,0.35,0.44,0.22,0.7C37.35,40.13,36.18,40.85,34.88,40.85z"/>
		<path id="_485566856" class="st1" d="M30.5,48.41L30.5,48.41c-1.73,0-3.28-0.64-4.27-1.76c-0.18-0.21-0.16-0.53,0.05-0.73
			c0.21-0.18,0.53-0.16,0.73,0.05c0.77,0.89,2.07,1.41,3.5,1.41c1.41,0,2.73-0.52,3.5-1.41c0.18-0.21,0.51-0.24,0.73-0.05
			c0.21,0.18,0.24,0.51,0.05,0.73C33.78,47.77,32.23,48.41,30.5,48.41z"/>
		<path id="_485567136" class="st1" d="M44.14,12.7l1.56,0.71c0.12,0.05,0.2,0.14,0.26,0.26l0.71,1.56l0.71-1.56
			c0.05-0.12,0.14-0.2,0.26-0.26l1.56-0.71L47.63,12c-0.12-0.05-0.2-0.14-0.26-0.26l-0.71-1.55l-0.71,1.56
			c-0.05,0.12-0.14,0.2-0.26,0.26L44.14,12.7L44.14,12.7z M46.67,16.98c-0.2,0-0.38-0.12-0.47-0.3l-1.09-2.42l-2.42-1.09
			c-0.18-0.09-0.3-0.27-0.3-0.47c0-0.2,0.12-0.38,0.3-0.47l2.42-1.09l1.09-2.42c0.09-0.18,0.27-0.3,0.47-0.3s0.38,0.12,0.47,0.3
			l1.09,2.42l2.42,1.09c0.18,0.09,0.3,0.27,0.3,0.47c0,0.2-0.12,0.38-0.3,0.47l-2.42,1.09l-1.09,2.42
			C47.05,16.86,46.87,16.99,46.67,16.98L46.67,16.98z"/>
		<path id="_485567080" class="st1" d="M44.53,50.26l1.56,0.71c0.12,0.05,0.2,0.14,0.26,0.26l0.71,1.56l0.71-1.56
			c0.05-0.12,0.14-0.2,0.26-0.26l1.56-0.71l-1.56-0.71c-0.12-0.05-0.2-0.14-0.26-0.26l-0.71-1.56l-0.71,1.56
			c-0.05,0.12-0.14,0.2-0.26,0.26L44.53,50.26L44.53,50.26z M47.05,54.54c-0.2,0-0.38-0.12-0.47-0.3l-1.09-2.42l-2.42-1.09
			c-0.18-0.09-0.3-0.27-0.3-0.47c0-0.2,0.12-0.38,0.3-0.47l2.42-1.09l1.09-2.42c0.09-0.18,0.27-0.3,0.47-0.3
			c0.2,0,0.38,0.12,0.47,0.3l1.09,2.42l2.42,1.09c0.18,0.09,0.3,0.27,0.3,0.47c0,0.2-0.12,0.38-0.3,0.47l-2.42,1.09l-1.09,2.42
			C47.44,54.42,47.26,54.54,47.05,54.54L47.05,54.54z"/>
		<path id="_485567024" class="st1" d="M12.18,13.09l1.56,0.71c0.12,0.05,0.2,0.14,0.26,0.26l0.71,1.56l0.71-1.56
			c0.05-0.12,0.14-0.2,0.26-0.26l1.56-0.71l-1.56-0.71c-0.12-0.05-0.2-0.14-0.26-0.26l-0.71-1.56L14,12.13
			c-0.05,0.12-0.14,0.2-0.26,0.26L12.18,13.09z M14.71,17.37c-0.2,0-0.38-0.12-0.47-0.3l-1.09-2.41l-2.42-1.1
			c-0.18-0.09-0.3-0.27-0.3-0.47s0.12-0.38,0.3-0.47l2.42-1.09l1.09-2.42c0.09-0.18,0.27-0.3,0.47-0.3c0.2,0,0.38,0.12,0.47,0.3
			l1.09,2.42l2.42,1.09c0.18,0.09,0.3,0.27,0.3,0.47s-0.12,0.38-0.3,0.47l-2.42,1.09l-1.09,2.42
			C15.09,17.25,14.91,17.38,14.71,17.37L14.71,17.37z"/>
		<path id="_485567528" class="st1" d="M12.18,50.26l1.56,0.71c0.12,0.05,0.2,0.14,0.26,0.26l0.71,1.56l0.71-1.56
			c0.05-0.12,0.14-0.2,0.26-0.26l1.56-0.71l-1.56-0.71c-0.12-0.05-0.2-0.14-0.26-0.26l-0.71-1.56L14,49.3
			c-0.05,0.12-0.14,0.2-0.26,0.26L12.18,50.26L12.18,50.26z M14.71,54.54c-0.2,0-0.38-0.12-0.47-0.3l-1.09-2.42l-2.42-1.09
			c-0.18-0.09-0.3-0.27-0.3-0.47c0-0.2,0.12-0.38,0.3-0.47l2.42-1.09l1.09-2.42c0.09-0.18,0.27-0.3,0.47-0.3
			c0.2,0,0.38,0.12,0.47,0.3l1.09,2.42l2.42,1.09c0.18,0.09,0.3,0.27,0.3,0.47c0,0.2-0.12,0.38-0.3,0.47l-2.42,1.09l-1.09,2.42
			C15.09,54.42,14.91,54.54,14.71,54.54L14.71,54.54z"/>
	</g>
</g>
</svg>
