<?xml version="1.0" encoding="utf-8"?>
<!-- Generator: Adobe Illustrator 23.0.3, SVG Export Plug-In . SVG Version: 6.00 Build 0)  -->
<svg version="1.1" id="Layer_1" xmlns="http://www.w3.org/2000/svg" xmlns:xlink="http://www.w3.org/1999/xlink" x="0px" y="0px"
	 viewBox="0 0 60 60" style="enable-background:new 0 0 60 60;" xml:space="preserve">
<style type="text/css">
	.st0{fill:#17B188;}
	.st1{fill:#17B188;stroke:#17B188;stroke-width:0.25;stroke-miterlimit:10;}
	.st2{fill:#234091;stroke:#234091;stroke-width:0.25;stroke-miterlimit:10;}
	.st3{fill:#234091;}
</style>
<g>
	<g>
		<path class="st3" d="M18.78,8.91c-0.46,0.51-0.84,1.03-1.19,1.58c-0.75,1.2-1.4,2.44-1.71,3.84c-0.02,0.11-0.1,0.17-0.18,0.24
			c-3.32,2.79-5.53,6.3-6.67,10.47c-0.41,1.51-0.64,3.05-0.7,4.61c-0.18,5.24,1.44,9.89,4.61,14.03c0.65,0.84,1.36,1.63,2.16,2.33
			c0.08,0.07,0.16,0.16,0.29,0.2c0.19-0.68,0.51-1.28,0.96-1.83c0.19-0.23,0.41-0.43,0.64-0.61c0.14-0.11,0.17-0.17,0.05-0.33
			c-1.45-1.97-2.88-3.94-4.32-5.92c-0.77-1.06-1.53-2.13-2.28-3.19c-0.08-0.11-0.14-0.23-0.18-0.35c-0.09-0.31,0.06-0.67,0.33-0.82
			c0.28-0.16,0.74-0.11,0.95,0.15c0.3,0.38,0.59,0.79,0.87,1.19c0.9,1.28,1.8,2.56,2.69,3.84c0.28,0.4,0.51,0.47,0.97,0.25
			c2.08-1.01,4.16-1.98,6.26-2.94c0.54-0.25,1.07-0.5,1.61-0.74c0.55-0.24,1.08-0.12,1.44,0.36c0.84,1.12,1.67,2.25,2.51,3.37
			c0.1,0.14,0.13,0.2-0.05,0.31c-0.65,0.4-0.94,1.2-0.72,1.89c0.24,0.77,0.97,1.3,1.76,1.24c0.24-0.02,0.37,0.07,0.53,0.2
			c1.21,0.98,2.6,1.45,4.14,1.55c1.68,0.11,3.22-0.26,4.61-1.21c0.37-0.25,0.69-0.57,0.99-0.91c0.12-0.14,0.1-0.24,0-0.37
			c-0.97-1.26-2.21-2.09-3.77-2.44c-1.07-0.24-2.13-0.1-3.18,0.1c-0.37,0.07-0.74,0.14-1.11,0.21c-0.19,0.04-0.35,0.01-0.5-0.15
			c-0.38-0.43-0.87-0.66-1.44-0.74c-0.11-0.02-0.16-0.08-0.22-0.15c-0.64-0.76-1.2-1.58-1.8-2.37c-0.08-0.1-0.06-0.17,0-0.27
			c0.66-1.12,1.36-2.21,2.11-3.27c0.11-0.15,0.23-0.22,0.43-0.21c1.44,0.08,2.86-0.04,4.21-0.57c2.85-1.11,4.6-3.16,5.2-6.16
			c0.08-0.42,0.23-0.62,0.62-0.79c1.27-0.55,2.01-2.04,1.76-3.42c-0.27-1.44-1.16-2.33-2.6-2.45c-0.93-0.08-1.72,0.29-2.29,1.05
			c-0.59,0.78-0.69,1.63-0.32,2.54c0.07,0.16,0.15,0.31,0.24,0.48c-2.02,0.67-3.97,0.47-5.86-0.42c-1.91-0.89-3.22-2.37-4.05-4.33
			c-0.41,0.67-0.75,1.32-1.21,1.89c-1.27,1.59-2.81,2.75-4.84,3.16c-1.26,0.26-2.09-0.14-2.67-1.29c-0.46-0.92-0.69-1.89-0.78-2.91
			c-0.25-3.16,0.65-5.98,2.58-8.46c2.31-2.96,5.36-4.7,9.04-5.39c1-0.19,2-0.28,3.01-0.24c2.34,0.08,4.57,0.58,6.6,1.78
			c0.12,0.07,0.24,0.15,0.36,0.23c0.81,0.59,0.95,1.17,0.45,2.09c0.29-0.09,0.53-0.23,0.81-0.28c0.74-0.13,1.34,0.19,1.87,0.64
			c1.41,1.21,2.32,2.75,2.96,4.47c0.39,1.02,0.62,2.08,0.7,3.18c0.21,2.89-0.48,5.55-2.06,7.96c-0.94,1.43-2.11,2.65-3.59,3.55
			c-0.28,0.17-0.55,0.34-0.78,0.49c5.19,4.67,6.94,10.43,5.55,17.24c0.27-0.24,0.54-0.46,0.78-0.7c2.96-2.89,4.87-6.37,5.77-10.4
			c0.42-1.9,0.59-3.83,0.47-5.78c-0.26-4.24-1.67-8.07-4.27-11.44c-0.17-0.22-0.26-0.43-0.27-0.72c-0.02-1.88-0.45-3.66-1.38-5.3
			c-0.01-0.02-0.01-0.06-0.01-0.11c0.78,0.57,1.47,1.19,2.13,1.86c1.76,1.79,3.24,3.78,4.37,6.02c1.02,2.02,1.77,4.14,2.2,6.36
			c0.31,1.61,0.48,3.23,0.43,4.86c-0.14,4.49-1.28,8.69-3.72,12.5c-1.45,2.26-3.2,4.26-5.31,5.93c-2.1,1.68-4.4,3.04-6.87,4.1
			c-0.37,0.16-0.73,0.31-1.1,0.47c-0.02,0.01-0.03,0.02-0.1,0.08c0.42,0,0.79,0,1.15-0.01c0.86-0.02,1.72,0.03,2.57,0.14
			c0.15,0.02,0.3,0.07,0.44,0.11c0.07,0.02,0.15,0.04,0.15,0.13c-0.01,0.08-0.09,0.1-0.15,0.12c-0.49,0.19-1.02,0.21-1.53,0.23
			c-3.43,0.16-6.86,0.08-10.29,0.12c-3.06,0.03-6.11,0.02-9.17,0.02c-0.9,0-1.79,0.01-2.68-0.18c-0.16-0.03-0.44-0.01-0.43-0.23
			c0-0.2,0.26-0.17,0.42-0.21c0.51-0.13,1.03-0.14,1.55-0.18c0.22-0.02,0.32-0.04,0.36-0.31c0.12-0.7,0.63-1.09,1.25-1.35
			c0.27-0.11,0.56-0.18,0.87-0.22c-0.03-0.15-0.15-0.24-0.22-0.34c-0.46-0.68-0.72-1.42-0.71-2.24c0-0.3-0.08-0.52-0.27-0.76
			c-0.7-0.87-1.35-1.77-2.01-2.67c-0.24-0.33-0.5-0.65-0.72-0.99c-0.13-0.2-0.24-0.19-0.41-0.06c-0.66,0.51-1.02,1.19-1.14,1.99
			c-0.24,1.67,0.42,3.03,1.5,4.23c0.37,0.41,0.8,0.75,1.29,1.1c-0.45,0.05-0.85-0.02-1.23-0.12c-1.15-0.3-2.16-0.82-2.83-1.88
			c-0.21-0.33-0.62-0.48-0.93-0.73c-3.05-2.43-5.41-5.4-7.1-8.91c-1.04-2.16-1.68-4.44-2.02-6.8c-0.19-1.3-0.3-2.62-0.26-3.93
			c0.13-4.45,1.36-8.57,3.77-12.33c1.18-1.83,2.55-3.5,4.17-4.95c1.67-1.5,3.53-2.73,5.53-3.73C18.67,8.91,18.7,8.92,18.78,8.91z
			 M29.26,53.73c-0.94-0.49-1.78-1.08-2.51-1.84c-1.4-1.48-2.28-3.19-2.38-5.26c-0.01-0.25-0.1-0.22-0.24-0.12
			c-1.08,0.75-1.72,2-1.44,3.43c0.23,1.16,0.9,2.05,1.86,2.7C25.97,53.61,27.58,53.82,29.26,53.73z"/>
		<path class="st0" d="M16.04,36.92c0.05-0.47,0.12-0.88,0.15-1.29c0.09-1.3,0.07-2.59-0.41-3.83c-0.1-0.27-0.24-0.52-0.37-0.77
			c-0.1-0.19-0.21-0.37-0.32-0.55c-0.16-0.26-0.3-0.55-0.06-0.82c0.23-0.27,0.55-0.23,0.85-0.12c0.95,0.36,1.59,1.05,1.98,1.97
			c0.39,0.93,0.36,1.87-0.04,2.79C17.39,35.26,16.72,36.05,16.04,36.92z"/>
		<path class="st0" d="M16.62,37.21c0.8-1.29,1.8-2.37,3.06-3.21c0.89-0.59,1.84-1.05,2.91-1.21c0.35-0.05,0.69,0,1,0.19
			c0.19,0.12,0.32,0.28,0.39,0.49c0.12,0.37,0.04,0.49-0.34,0.55c-0.79,0.11-1.53,0.42-2.27,0.72c-1.43,0.57-2.81,1.26-4.13,2.05
			C17.03,36.93,16.83,37.07,16.62,37.21z"/>
		<path class="st0" d="M26.74,26.14c-0.01-0.8,0.57-1.24,1.34-1.03c0.82,0.22,1.48,1.02,1.54,1.86c0.06,0.91-0.7,1.43-1.59,1.07
			C27.33,27.75,26.75,26.89,26.74,26.14z"/>
		<path class="st0" d="M15.48,36.89c-0.33-0.8-0.7-1.58-1.11-2.34c-0.45-0.83-1.03-1.56-1.73-2.21c-0.39-0.36-0.47-0.65-0.28-0.92
			c0.19-0.27,0.63-0.31,1.03-0.1c0.49,0.26,0.85,0.66,1.15,1.12c0.6,0.92,0.83,1.96,0.92,3.03C15.51,35.93,15.48,36.4,15.48,36.89z"
			/>
		<path class="st0" d="M37.37,23.23c-0.1-0.71-0.2-1.33,0.07-1.94c0.18-0.4,0.62-0.7,1.04-0.68c0.44,0.02,0.77,0.23,0.96,0.64
			c0.2,0.44,0.04,0.96-0.36,1.2c-0.09,0.05-0.18,0.11-0.28,0.09C38.17,22.37,37.73,22.64,37.37,23.23z"/>
		<path class="st0" d="M24.04,28.37c0.01,0.42-0.23,0.6-0.61,0.41c-0.73-0.37-1.15-1-1.3-1.78c-0.09-0.45,0.19-0.65,0.6-0.49
			C23.36,26.74,24.03,27.71,24.04,28.37z"/>
	</g>
</g>
</svg>
