<?xml version="1.0" encoding="utf-8"?>
<!-- Generator: Adobe Illustrator 23.0.3, SVG Export Plug-In . SVG Version: 6.00 Build 0)  -->
<svg version="1.1" id="Layer_1" xmlns="http://www.w3.org/2000/svg" xmlns:xlink="http://www.w3.org/1999/xlink" x="0px" y="0px"
	 viewBox="0 0 60 60" style="enable-background:new 0 0 60 60;" xml:space="preserve">
<style type="text/css">
	.st0{fill:#29408F;}
	.st1{fill:#2CB288;}
</style>
<g>
	<path class="st0" d="M34.98,35.15l-2.21,4.8l-1.38,3.01l-0.56-6.18c0.47-0.28,0.78-0.79,0.78-1.37c0-0.03,0-0.06-0.01-0.09
		c-0.03-0.46-0.25-0.87-0.59-1.15c-0.28-0.22-0.63-0.36-1.01-0.36s-0.74,0.13-1.01,0.36c-0.34,0.28-0.56,0.69-0.59,1.15
		c-0.01,0.03-0.01,0.06-0.01,0.09c0,0.58,0.31,1.09,0.78,1.37l-0.56,6.18l-1.42-3.08l-2.17-4.73c-2.77,1.18-5.06,3.32-6.43,5.99
		c-0.89,1.75-1.4,3.72-1.4,5.81v5.37h25.6v-5.37c0-2.09-0.51-4.07-1.41-5.82C40.02,38.46,37.75,36.33,34.98,35.15z"/>
	<path class="st0" d="M23.13,23.57c0.42,1.85,1.28,3.86,2.42,5.45c0.5,0.7,1.05,1.31,1.64,1.79c0.13,0.1,0.25,0.2,0.38,0.29
		c0.75,0.52,1.55,0.83,2.4,0.83c0.85,0,1.67-0.31,2.42-0.85c0.12-0.09,0.25-0.18,0.37-0.28c0.59-0.48,1.14-1.1,1.64-1.79
		c1.14-1.59,2-3.61,2.42-5.46c0.01-0.04,0.02-0.08,0.03-0.12c0.17-0.79,0.27-1.54,0.27-2.21c0-1.1-0.25-2.14-0.7-3.07
		c-0.04-0.1-0.09-0.19-0.14-0.28c-0.77-1.44-2.01-2.58-3.51-3.22c-0.17-0.07-0.35-0.14-0.52-0.2c-0.71-0.24-1.47-0.37-2.27-0.37
		c-0.79,0-1.55,0.13-2.26,0.37c-0.18,0.06-0.35,0.12-0.52,0.19c-1.51,0.64-2.76,1.78-3.52,3.22c-0.05,0.09-0.1,0.18-0.14,0.28
		c-0.45,0.93-0.7,1.98-0.7,3.08c0,0.67,0.09,1.43,0.27,2.21C23.11,23.49,23.12,23.53,23.13,23.57z"/>
	<path class="st1" d="M21.42,16.04c1.17-1.44,2.77-2.58,4.62-3.26c0.37-0.14,0.76-0.26,1.16-0.35c0.89-0.22,1.83-0.34,2.8-0.34
		c0.96,0,1.89,0.12,2.77,0.34c0.4,0.1,0.79,0.21,1.17,0.35c1.85,0.67,3.45,1.81,4.63,3.25c0.47,0.57,0.87,1.19,1.2,1.85
		c0.49,0.98,0.8,2.05,0.91,3.17h-0.64c-0.2-1.15-1.23-2.01-2.44-1.96l0.17,4.37l0.02,0.41c0.46-0.02,0.89-0.17,1.25-0.41
		c0.55-0.37,0.93-0.96,1.03-1.65h0.63c-0.06,0.55-0.12,1.1-0.2,1.65c-0.15,1.05-0.36,2.1-0.67,3.09c-0.36,1.12-0.85,2.17-1.55,3.09
		c-0.34-0.22-0.8-0.23-1.15,0.02l-1.21,0.85l-0.18,0.13c-0.28,0.2-0.43,0.52-0.43,0.84c0,0.2,0.06,0.41,0.18,0.59
		c0.32,0.46,0.97,0.57,1.43,0.25l0.47-0.33l0.92-0.65c0.28-0.2,0.43-0.52,0.43-0.84c0-0.04,0-0.07-0.01-0.11v0
		c0.43-0.5,0.79-1.08,1.09-1.75c0.22-0.49,0.42-0.99,0.59-1.5c0.4-1.2,0.66-2.43,0.84-3.68c0.07-0.5,0.13-1,0.19-1.51h0.06
		c0-1.44-0.31-2.81-0.87-4.06c-0.39-0.86-0.89-1.66-1.5-2.39c-1.19-1.43-2.76-2.58-4.58-3.3c-0.56-0.22-1.15-0.41-1.75-0.55
		c-0.89-0.2-1.81-0.31-2.77-0.31c-0.97,0-1.9,0.11-2.8,0.32c-0.6,0.14-1.19,0.32-1.74,0.55c-1.81,0.73-3.38,1.87-4.57,3.31
		c-0.6,0.72-1.1,1.52-1.48,2.37c-0.56,1.25-0.87,2.62-0.87,4.06h0.76c0-0.05,0-0.09,0-0.14h0.68c0.13,0.71,0.56,1.3,1.16,1.65
		c0.38,0.22,0.82,0.33,1.28,0.32l-0.01-0.32l-0.17-4.46c-1.17,0.05-2.12,0.93-2.27,2.05h-0.62c0.11-1.12,0.42-2.19,0.91-3.17
		C20.57,17.22,20.96,16.61,21.42,16.04z"/>
</g>
</svg>
