<?xml version="1.0" encoding="utf-8"?>
<!-- Generator: Adobe Illustrator 23.0.3, SVG Export Plug-In . SVG Version: 6.00 Build 0)  -->
<svg version="1.1" id="Layer_1" xmlns="http://www.w3.org/2000/svg" xmlns:xlink="http://www.w3.org/1999/xlink" x="0px" y="0px"
	 viewBox="0 0 60 60" style="enable-background:new 0 0 60 60;" xml:space="preserve">
<style type="text/css">
	.st0{fill:#2CB288;}
	.st1{fill:#29408F;}
</style>
<g>
	<g id="C_-_70_x2C__graph_x2C__business_x2C__chart_x2C__efforts_x2C__success">
		<g>
			<polygon class="st0" points="43.09,22.46 43.09,33.77 46.12,33.77 46.12,19.75 43.09,19.75 			"/>
			<polygon class="st0" points="38.88,24.58 38.88,33.77 41.91,33.77 41.91,22.94 38.88,22.94 			"/>
			<path class="st0" d="M11.97,27.2c2.15,0,3.82-1.64,3.82-3.77c0-2.03-1.76-3.77-3.82-3.77c-2.15,0-3.82,1.64-3.82,3.77
				S9.92,27.2,11.97,27.2z"/>
			<path class="st0" d="M8.16,52.15h3.23v-6c0-0.29,0.29-0.58,0.59-0.58c0.29,0,0.59,0.29,0.59,0.58v5.9h3.23v-8.61H8.16V52.15z"/>
			<polygon class="st0" points="34.77,26.71 34.77,33.77 37.8,33.77 37.8,25.16 34.77,25.16 			"/>
			<polygon class="st0" points="47.29,19.17 47.29,33.77 50.33,33.77 50.33,16.46 47.29,16.46 			"/>
			<path class="st0" d="M19.12,33.97L19.12,33.97c0-0.1,0-0.19,0-0.19l0,0c0-0.1,0-0.1,0-0.19l0,0c-0.1-0.68-0.39-1.26-0.88-1.84
				l0,0c-0.68-0.77-1.76-1.26-2.84-1.26H8.84c-2.15,0-3.82,1.64-3.82,3.77v8.12h2.15v-5.9c0-0.29,0.29-0.58,0.59-0.58
				c0.29,0,0.59,0.29,0.59,0.58v5.9h7.63v-5.9c0-0.29,0.29-0.58,0.59-0.58c0.29,0,0.59,0.29,0.59,0.58v5.9h2.15v-3.77v-4.35
				C19.12,34.26,19.12,34.16,19.12,33.97C19.12,34.06,19.12,34.06,19.12,33.97z M13.05,36.48H10.9v-2.13h2.15
				C13.05,34.26,13.05,36.48,13.05,36.48z"/>
			<path class="st1" d="M19.12,12.11v19.05c0.49,0.68,0.88,1.35,0.98,2.22l0,0c0,0.1,0,0.1,0,0.19v0.1v0.1v0.1v0.1
				c0,0.1,0,0.19,0,0.19v3.77h36.2V12.11H19.12z M52.67,34.84h-1.76h-4.21H42.5h-4.21h-4.21h-4.21h-4.21h-1.76
				c-0.29,0-0.59-0.29-0.59-0.58s0.29-0.58,0.59-0.58h1.37v-4.84c0-0.29,0.29-0.58,0.59-0.58h3.62v-1.55c0-0.29,0.29-0.58,0.59-0.58
				h3.62v-1.64c0-0.29,0.29-0.58,0.59-0.58h3.62v-1.55c0-0.29,0.29-0.58,0.59-0.58h3.42v-2.71c0-0.29,0.29-0.58,0.59-0.58h3.62
				v-2.71c0-0.29,0.29-0.58,0.59-0.58h4.21c0.29,0,0.59,0.29,0.59,0.58v17.8h1.17c0.29,0,0.59,0.29,0.59,0.58
				C53.16,34.64,52.97,34.84,52.67,34.84z"/>
			<polygon class="st0" points="30.56,28.94 30.56,33.77 33.6,33.77 33.6,27.29 30.56,27.29 			"/>
			<rect x="26.36" y="29.42" class="st0" width="3.03" height="4.25"/>
		</g>
	</g>
</g>
</svg>
