<?xml version="1.0" encoding="utf-8"?>
<!-- Generator: Adobe Illustrator 24.0.0, SVG Export Plug-In . SVG Version: 6.00 Build 0)  -->
<svg version="1.1" id="Layer_1" xmlns="http://www.w3.org/2000/svg" xmlns:xlink="http://www.w3.org/1999/xlink" x="0px" y="0px"
	 viewBox="0 0 60 60" style="enable-background:new 0 0 60 60;" xml:space="preserve">
<style type="text/css">
	.st0{fill-rule:evenodd;clip-rule:evenodd;fill:#1EAA81;}
	.st1{fill:#1EAA81;}
</style>
<g>
	<g id="Layer_2_6_">
		<g id="Слой_1_5_">
			<path class="st1" d="M43.3,19.8c-0.1-0.8-0.4-1.5-0.7-2.2c-0.6-1.3-1.7-2.2-3.1-2.5c-2.4-0.5-5.5,0.3-7.8,1.1
				c-3.2,1.2-6.9-0.4-10.2-0.9c-2.7-0.5-5.7-0.5-7,2.4c-0.3,0.7-0.6,1.4-0.7,2.2C13,24,15.1,28.2,16.7,32c0.6,1.3,1.2,2.6,1.7,3.9
				c1.1,3.1,1.8,6.4,1.9,9.7c0.2,2.5,0.3,6.2,3.9,6.2c1.4,0-1.4-9.4,1.5-12.6c1-1.1,1.9-1.5,2.8-1.5s1.8,0.5,2.8,1.5
				c2.9,3.1,0.2,12.6,1.5,12.6c3.6,0,3.7-3.6,3.9-6.2c0.1-1.9,0.2-4,0.8-5.8c0.6-1.6,1.1-3.2,1.7-4.9C40.9,30.2,44.3,25.2,43.3,19.8
				z M39,28.4c0.6-2.1,1-4.2,0.5-6.5c-0.1-0.8-0.4-1.5-0.7-2.2c-0.6-1.3-1.8-2.3-3.2-2.5c-0.3-0.1-0.5-0.1-0.8-0.1
				c0.8-0.1,1.6-0.1,2.3,0.1c1.1,0.2,2,1,2.5,2c0.3,0.6,0.5,1.2,0.6,1.8C40.8,23.5,40,25.9,39,28.4z"/>
		</g>
	</g>
</g>
</svg>
