<?xml version="1.0" encoding="utf-8"?>
<!-- Generator: Adobe Illustrator 23.0.3, SVG Export Plug-In . SVG Version: 6.00 Build 0)  -->
<svg version="1.1" id="Layer_1" xmlns="http://www.w3.org/2000/svg" xmlns:xlink="http://www.w3.org/1999/xlink" x="0px" y="0px"
	 viewBox="0 0 60 60" style="enable-background:new 0 0 60 60;" xml:space="preserve">
<style type="text/css">
	.st0{fill:#17B188;}
	.st1{fill:#17B188;stroke:#17B188;stroke-width:0.25;stroke-miterlimit:10;}
	.st2{fill:#234091;stroke:#234091;stroke-width:0.25;stroke-miterlimit:10;}
	.st3{fill:#234091;}
</style>
<g>
	<g>
		<g>
			<path class="st1" d="M30,31.04c-4,0-7.25-3.87-7.25-8.63h0.96c0,4.23,2.82,7.67,6.29,7.67c3.47,0,6.29-3.44,6.29-7.67h0.96
				C37.25,27.17,34,31.04,30,31.04z"/>
		</g>
		<g>
			<polygon class="st2" points="32.11,13.25 31.16,13.25 31.16,9.66 28.84,9.66 28.84,13.25 27.89,13.25 27.89,8.7 32.11,8.7 			"/>
		</g>
		<g>
			<path class="st2" d="M40.05,21.58h-20.1V21.1c0-1.62,0.67-2.73,1.95-3.24c-0.01-0.14-0.01-0.28-0.01-0.42
				c0-2.94,1.89-5.74,4.82-7.14l0.41,0.86c-2.13,1.02-4.27,3.35-4.27,6.28c0,0.24,0.01,0.47,0.03,0.71l0.04,0.4l-0.38,0.11
				c-0.96,0.27-1.48,0.92-1.6,1.97h18.13c-0.12-1.05-0.64-1.7-1.6-1.97l-0.38-0.11l0.04-0.4c0.02-0.23,0.03-0.47,0.03-0.71
				c0-2.92-2.15-5.26-4.27-6.28l0.41-0.86c2.92,1.4,4.81,4.2,4.81,7.14c0,0.14,0,0.28-0.01,0.42c1.28,0.51,1.95,1.62,1.95,3.24
				V21.58z"/>
		</g>
		<g>
			<path class="st2" d="M17.76,31.54c-0.21,0-0.42-0.02-0.6-0.06l0.21-0.93c0.51,0.11,1.22-0.03,1.54-0.31
				c0.13-0.12,0.14-0.21,0.13-0.29l0.95-0.11c0.05,0.41-0.11,0.81-0.44,1.11C19.09,31.36,18.38,31.54,17.76,31.54z"/>
		</g>
		<g>
			<path class="st2" d="M20.51,32.89h-3.48c-0.48,0-1.77,0-2.22-1.19c-0.19-0.53-0.15-1.06,0.12-1.53c0.5-0.87,1.67-1.36,2.34-1.48
				c0.72-0.13,1.62-0.22,2.21,0.22c0.29,0.22,0.47,0.55,0.52,0.94L20.51,32.89z M18.29,29.53c-0.23,0-0.52,0.03-0.86,0.09
				c-0.49,0.09-1.36,0.47-1.68,1.02c-0.13,0.23-0.15,0.46-0.06,0.73c0.16,0.41,0.51,0.57,1.32,0.57h2.35l-0.33-1.96
				c-0.02-0.2-0.09-0.27-0.14-0.31C18.78,29.57,18.58,29.53,18.29,29.53z"/>
		</g>
		<g>
			<path class="st1" d="M19.7,43.96c-0.46,0-0.89-0.07-1.2-0.25c-1.21-0.69-2.39-4.73-1.81-6.18L16.91,37l0.48,0.31
				c0.79,0.5,1.17,0.57,2.04,0.36c0.45-0.11,2.73-0.58,3.23,0.65c0.64,1.55,0.68,4.29-0.92,5.21C21.35,43.75,20.49,43.96,19.7,43.96
				z M17.48,38.45c-0.04,1.41,0.86,4.07,1.49,4.43c0.49,0.28,1.89,0.05,2.3-0.19c1.01-0.58,1.01-2.8,0.51-4.02
				c-0.11-0.27-1.16-0.31-2.13-0.08C18.77,38.8,18.18,38.78,17.48,38.45z"/>
		</g>
		<g>
			<path class="st2" d="M42.24,31.54c-0.62,0-1.33-0.18-1.79-0.59c-0.33-0.3-0.49-0.69-0.44-1.11l0.95,0.11
				c-0.01,0.07,0,0.17,0.13,0.29c0.31,0.28,1.03,0.42,1.54,0.31l0.21,0.93C42.66,31.52,42.46,31.54,42.24,31.54z"/>
		</g>
		<g>
			<path class="st2" d="M42.97,32.89h-3.48l0.52-3.07c0.04-0.37,0.22-0.7,0.52-0.92c0.59-0.44,1.49-0.35,2.21-0.22
				c0.66,0.12,1.83,0.61,2.33,1.48c0.27,0.48,0.32,1,0.12,1.53C44.74,32.89,43.46,32.89,42.97,32.89z M40.62,31.93h2.35
				c0.81,0,1.17-0.16,1.32-0.57c0.09-0.26,0.08-0.49-0.06-0.72c-0.31-0.55-1.18-0.93-1.67-1.02c-0.76-0.13-1.25-0.12-1.47,0.04
				c-0.05,0.04-0.12,0.11-0.14,0.29L40.62,31.93z"/>
		</g>
		<g>
			<path class="st2" d="M39.9,46.39H20.1l-0.51-1.4l0.9-0.32l0.28,0.77h18.46l0.28-0.77l0.9,0.32L39.9,46.39z M16.48,36.35
				l-1.68-4.66l0.9-0.33c0.16,0.42,0.52,0.57,1.32,0.57h25.95c0.81,0,1.17-0.16,1.32-0.57l0.9,0.33l-1.68,4.66l-0.9-0.32l1.15-3.2
				c-0.31,0.06-0.6,0.06-0.8,0.06H17.03c-0.18,0-0.48,0-0.8-0.06l1.15,3.2L16.48,36.35z"/>
		</g>
		<g>
			<path class="st1" d="M40.3,43.96c-0.79,0-1.64-0.21-2.04-0.44c-1.53-0.88-1.57-3.63-0.92-5.21c0.51-1.23,2.78-0.75,3.23-0.65
				c0.87,0.21,1.25,0.14,2.04-0.36L43.09,37l0.21,0.53c0.58,1.45-0.6,5.49-1.81,6.18C41.19,43.89,40.75,43.96,40.3,43.96z
				 M39.11,38.45c-0.47,0-0.83,0.08-0.89,0.23c-0.5,1.21-0.51,3.43,0.51,4.02c0.41,0.24,1.81,0.47,2.3,0.19
				c0.63-0.36,1.53-3.02,1.49-4.43c-0.7,0.33-1.29,0.35-2.17,0.14C39.92,38.49,39.48,38.45,39.11,38.45z"/>
		</g>
	</g>
</g>
</svg>
