<svg id="Layer_1" data-name="Layer 1" xmlns="http://www.w3.org/2000/svg" viewBox="0 0 80.78 80.78"><defs><style>.cls-1{fill:#1ab48a;}.cls-2{fill:#224093;}.cls-3{fill:#0078a5;}</style></defs><title>ICONS</title><path class="cls-1" d="M19,33.54a25.79,25.79,0,0,0,5.28,6.55c.57.53,1.44,1.27,2.35,2h0c1.86,1.51,3.88,3.07,3.88,3.06h0l0,0S35.15,41.9,37,40.34A25.6,25.6,0,0,0,42.48,34c2.6-4.45.12-11.22-5.78-11.82-2.24-.23-5.08.93-5.79,2.85-.64-2-4.05-3.22-6.29-3.07C18.7,22.33,16.56,29,19,33.54Zm6.34-1.09a.26.26,0,0,1,.26-.26h3.84V28.37a.27.27,0,0,1,.26-.27h2.18a.27.27,0,0,1,.27.27c0,.42,0,.85,0,1.28v2.55H36a.28.28,0,0,1,.26.27v2.18a.26.26,0,0,1-.26.26H32.1v.33c0,1.17,0,2.34,0,3.5a.23.23,0,0,1-.08.19.22.22,0,0,1-.18.08H29.65a.27.27,0,0,1-.27-.26V37.46c0-.85,0-1.7,0-2.55H25.56a.3.3,0,0,1-.19-.08.29.29,0,0,1-.07-.19C25.3,33.9,25.3,33.18,25.31,32.45Z"/><path class="cls-2" d="M63.94,17.49a6.38,6.38,0,0,0-1.49,12.64L61.77,43.5a1,1,0,0,0-.75,1c0,.77-.1,1.53-.19,2.3s-.21,1.65-.36,2.48c0,.24-.08.48-.13.72v.09l-.09.42c-.11.52-.24,1.05-.37,1.57a29.25,29.25,0,0,1-2.58,6.65,3.37,3.37,0,0,1-.19.32s-.1.19-.14.25c-.17.28-.35.56-.53.83-.35.51-.73,1-1.13,1.5-.19.22-.39.45-.6.67l-.29.3c-.07.07-.13.14-.2.2l-.1.1A15.78,15.78,0,0,1,52.7,64l-.77.5-.38.23c.34-.21-.2.1-.29.15a12.43,12.43,0,0,1-1.87.77l-.19.07h0l-.46.12c-.37.09-.74.17-1.12.23s-.71.1-1.07.14h-.23c-.24,0-.48,0-.72,0a23.44,23.44,0,0,1-2.51-.13h0l-.24,0L42.28,66c-.41-.07-.82-.16-1.22-.27s-.63-.19-.94-.28h0l-.2-.08-.57-.23-.83-.4L38,64.51l-.37-.23a14.22,14.22,0,0,1-1.44-1.08c-.22-.18-.42-.37-.62-.56s-.33-.34-.22-.22l-.31-.34a16.69,16.69,0,0,1-2.06-3A.25.25,0,0,0,33,59l0-.09-.18-.36-.38-.86c-.24-.56-.44-1.11-.63-1.67l-.12-.39a14.37,14.37,0,0,0,7.59-2.92c6.62-5,9.4-13.8,9.43-21.83,0-4.47,0-8.94,0-13.41a1.58,1.58,0,0,0-1.58-1.62H43.81V15H39.53a.78.78,0,0,0-.78.77v1.59a.78.78,0,0,0,.77.77H43.8v-.73h1.49V29.73c0,6.44-1.33,13.21-5.77,18.16a12.3,12.3,0,0,1-7.77,4.38,11,11,0,0,1-8.22-2.85c-5.27-4.6-7.3-12-7.31-18.75V17.41h1.33v.73h4.28a.77.77,0,0,0,.77-.77V15.77a.78.78,0,0,0-.78-.77H17.54v.83H14.37a.46.46,0,0,0-.2.05,1.54,1.54,0,0,0-1.31,1.58v12.8c0,7.32,2,15,7.13,20.41a15.72,15.72,0,0,0,8.45,4.76,18,18,0,0,0,5.87,9.6C39,68.82,47,69.81,52.67,67c5.43-2.7,8.07-7.73,9.57-12.36a39.71,39.71,0,0,0,1.49-6.48,28.6,28.6,0,0,0,.35-3.45v-.16a1,1,0,0,0-.6-.95l.67-13.37a6.38,6.38,0,0,0-.21-12.73ZM68,24.08a4.39,4.39,0,0,1-3.74,4.12l.08-1.64-1.71-.09-.08,1.64a4.38,4.38,0,1,1,5.45-4Z"/><path class="cls-3" d="M63.65,22.52a1.5,1.5,0,1,0,1.43,1.57A1.5,1.5,0,0,0,63.65,22.52Z"/></svg>