<?xml version="1.0" encoding="utf-8"?>
<!-- Generator: Adobe Illustrator 23.0.3, SVG Export Plug-In . SVG Version: 6.00 Build 0)  -->
<svg version="1.1" id="Layer_1" xmlns="http://www.w3.org/2000/svg" xmlns:xlink="http://www.w3.org/1999/xlink" x="0px" y="0px"
	 viewBox="0 0 60 60" style="enable-background:new 0 0 60 60;" xml:space="preserve">
<style type="text/css">
	.st0{fill:#29408F;}
	.st1{fill:#2CB288;}
</style>
<g>
	<g id="C_-_74_x2C__speaker_x2C__Person_x2C__presentation_x2C__professional_x2C__pudlic_x2C__seminar_x2C__speech">
		<g>
			<rect x="26.56" y="35.53" class="st0" width="8.43" height="11.96"/>
			<path class="st1" d="M22.8,27.2h15.86v-4.12c0-1.73-1.42-3.14-3.25-3.14h-9.35c-1.84,0-3.25,1.4-3.25,3.22V27.2L22.8,27.2z
				 M29.81,21.17h1.84v1.82h-1.84V21.17L29.81,21.17z M29.81,23.98h1.84v1.81h-1.84V23.98L29.81,23.98z"/>
			<path class="st0" d="M40.99,30.82h4.17V28.1h-0.92v-8.66c0-0.17-0.08-0.33-0.25-0.41l-4.76-2.72c-0.25-0.16-0.5-0.08-0.67,0.17
				c-0.17,0.25-0.08,0.5,0.17,0.66l4.51,2.56v8.42h-4.17H22.3h-4.17v-8.42l4.51-2.56c0.25-0.16,0.33-0.41,0.17-0.66
				c-0.17-0.25-0.42-0.33-0.67-0.17l-4.76,2.72c-0.17,0.08-0.25,0.25-0.25,0.41v8.74h-0.92v2.72h4.01L40.99,30.82L40.99,30.82z"/>
			<path class="st1" d="M30.73,16.14c2.34,0,4.17-1.82,4.17-4.12c0-2.23-1.84-4.12-4.17-4.12c-2.34,0-4.17,1.81-4.17,4.12
				C26.56,14.24,28.48,16.14,30.73,16.14z"/>
			<path class="st0" d="M53.18,51.12h-12.6v-19.3H20.72v19.3H8.28c-0.25,0-0.5,0.25-0.5,0.5c0,0.25,0.25,0.49,0.5,0.49h44.98
				c0.25,0,0.5-0.25,0.5-0.49C53.76,51.37,53.51,51.12,53.18,51.12z M25.56,35.03c0-0.25,0.25-0.5,0.5-0.5h9.35
				c0.25,0,0.5,0.25,0.5,0.5V47.9c0,0.25-0.25,0.49-0.5,0.49h-9.35c-0.25,0-0.5-0.25-0.5-0.49V35.03z"/>
		</g>
	</g>
</g>
</svg>
