<?xml version="1.0" encoding="utf-8"?>
<!-- Generator: Adobe Illustrator 19.0.0, SVG Export Plug-In . SVG Version: 6.00 Build 0)  -->
<svg version="1.1" id="Capa_1" xmlns="http://www.w3.org/2000/svg" xmlns:xlink="http://www.w3.org/1999/xlink" x="0px" y="0px"
	 viewBox="-71 37.2 71.8 71.8" style="enable-background:new -71 37.2 71.8 71.8;" xml:space="preserve">
<style type="text/css">
	.st0{fill:#244092;}
</style>
<g>
	<g>
		<path class="st0" d="M-0.5,76.5h-6.1c2.5-5.7,2.2-10.3,1.3-13.5c-1.6-5.6-7.1-11.6-15.3-11.6c-2.2,0-4.4,0.4-6.6,1.2
			c-3.9,1.4-6.5,3-7.6,3.8c-1.2-0.8-3.7-2.4-7.6-3.8c-2.2-0.8-4.5-1.2-6.6-1.2c-8.2,0-13.7,6.1-15.3,11.6c-1,3.3-1.3,8.4,1.9,14.7
			h-7.3c-0.6,0-1.1,0.5-1.1,1.1s0.5,1.1,1.1,1.1h8.6c0.3,0.6,0.7,1.2,1.2,1.8c7.1,10.2,22.5,21.3,25.2,22v0.1c0,0,0.1,0,0.1-0.1
			c0.1,0,0.1,0,0.2,0v-0.1c2.4-1.2,17.1-10.7,24.9-22c0.7-1,1.4-2,1.9-3.1h7.1c0.6,0,1.1-0.5,1.1-1.1S0.1,76.5-0.5,76.5z
			 M-11.4,80.5c-7.2,10.5-20.5,19.1-23.3,20.9c-2.9-1.8-16.1-10.4-23.4-20.9c-0.1-0.2-0.3-0.4-0.4-0.6h10c0.4,0,0.8-0.2,1-0.6l4.6-9
			l7.1,18.3c0.1,0.4,0.6,0.7,1,0.7c0,0,0,0,0.1,0c0.5,0,0.9-0.3,1-0.8l6.3-21.4l3.3,10.8c0.1,0.4,0.5,0.7,0.9,0.7s0.8-0.1,1.1-0.5
			l2.7-3.9l2.2,3.8c0.2,0.3,0.5,0.5,1,0.5h6.1C-10.6,79.3-11,79.9-11.4,80.5z M-9,76.5h-6.7l-2.8-4.8c-0.2-0.3-0.5-0.5-1-0.5
			c-0.4,0-0.7,0.1-1,0.5l-2.3,3.4l-3.7-12.2c-0.1-0.5-0.6-0.7-1.1-0.8c-0.5,0-1,0.3-1.1,0.8L-35,84.7l-6.9-17.6
			c-0.1-0.4-0.5-0.7-1-0.7s-0.8,0.2-1,0.6l-5.4,10.5h-10.8c-2.7-5-3.5-9.7-2.2-14c1.4-4.8,6.1-10,13.2-10c1.9,0,3.9,0.4,5.9,1.1
			c5,1.8,7.6,3.9,7.7,3.9c0.4,0.3,1,0.3,1.4,0c0,0,2.7-2.1,7.7-3.9c2-0.7,3.9-1.1,5.9-1.1c7,0,11.8,5.2,13.2,10
			C-6.2,67.6-6.8,72-9,76.5z"/>
	</g>
</g>
</svg>
