<?xml version="1.0" encoding="utf-8"?>
<!-- Generator: Adobe Illustrator 22.0.1, SVG Export Plug-In . SVG Version: 6.00 Build 0)  -->
<svg version="1.1" id="Layer_1" xmlns="http://www.w3.org/2000/svg" xmlns:xlink="http://www.w3.org/1999/xlink" x="0px" y="0px"
	 viewBox="0 0 512 512" style="enable-background:new 0 0 512 512;" xml:space="preserve">
<style type="text/css">
	.st0{fill:#FFFFFF;}
</style>
<path class="st0" d="M166,151c34.7,0,66,17.8,84,42.3l42.6-42.9C267.1,117.3,218.1,91,166,91C74.8,91,0,164.8,0,256
	s74.8,165,166,165c75.6,0,139.2-50.7,158.7-120c4.2-14.4,6.3-29.4,6.3-45v-15H181v60h79.5c-16.5,35.4-52.8,60-94.5,60
	c-57.9,0-106-47.1-106-105S108.1,151,166,151z"/>
<path class="st0" d="M466,181h-60v45h-45v60h45v45h60v-45h46v-60h-46V181z"/>
</svg>
