<svg id="Layer_1" data-name="Layer 1" xmlns="http://www.w3.org/2000/svg" viewBox="0 0 80.78 80.78"><defs><style>.cls-1{fill:#224093;}.cls-2{fill:#1ab48a;}</style></defs><title>ICONS</title><path class="cls-1" d="M4,57.77,6.09,62a2.84,2.84,0,0,0,2.8,1.75H71.56A3.12,3.12,0,0,0,74.36,62l2.09-4.22Zm43.65,4.09H32.8v-2H47.65Z"/><path class="cls-1" d="M64.91,54.83H15.54A3.82,3.82,0,0,1,11.72,51V24.26a3.82,3.82,0,0,1,3.82-3.82H64.91a3.82,3.82,0,0,1,3.82,3.82V51A3.82,3.82,0,0,1,64.91,54.83ZM15.54,23a1.28,1.28,0,0,0-1.27,1.28V51a1.28,1.28,0,0,0,1.27,1.28H64.91A1.28,1.28,0,0,0,66.18,51V24.26A1.28,1.28,0,0,0,64.91,23Z"/><path class="cls-2" d="M49.94,37.76H48.13a8,8,0,0,1-7.62,7.62v2a9.65,9.65,0,0,0,1.07-.09l.49,1.32,2.35-.66-.29-1.41a10.16,10.16,0,0,0,2-1.23l1.11,1L49,44.53l-1-1.15a9.69,9.69,0,0,0,1.16-2l1.51.3.66-2.34-1.48-.55C49.91,38.43,49.93,38.09,49.94,37.76Z"/><path class="cls-2" d="M32.17,37.76H30.25a9.28,9.28,0,0,0,.08,1.05L29,39.32l.25.86H27.58a.74.74,0,0,0-.7-.54.73.73,0,1,0,0,1.46.74.74,0,0,0,.7-.53h1.73l.31,1.09,1.4-.28a9.23,9.23,0,0,0,.6,1.17H25.53a.71.71,0,0,0-.7-.53.73.73,0,0,0,0,1.46.72.72,0,0,0,.7-.54h6.33a5.88,5.88,0,0,0,.36.51l-.92,1.08L33,46.25l1.06-.9a10,10,0,0,0,2.08,1.23l-.28,1.36,2.35.66.48-1.31a9.83,9.83,0,0,0,1.08.09v-2A8,8,0,0,1,32.17,37.76Z"/><path class="cls-2" d="M25.54,37.58a.74.74,0,0,0,.7-.53h5.93a8,8,0,0,1,7.63-7.63V27.7c-.33,0-.65,0-1,.07l-.58-1.57-2.35.67.33,1.61a9.81,9.81,0,0,0-2,1.12L33,28.55,31.3,30.28l1,1.2a9.27,9.27,0,0,0-1.2,2l-1.51-.31L29,35.49l1.41.52c0,.21-.05.43-.07.65H26.24a.74.74,0,0,0-.7-.54.73.73,0,1,0,0,1.46Z"/><path class="cls-2" d="M55.62,31.55a.73.73,0,0,0-.7.53l-6.64,0c-.12-.17-.23-.34-.36-.5L49,30.28l-1.72-1.73L46,29.65a9.81,9.81,0,0,0-1.92-1.12l.33-1.66-2.34-.67-.59,1.58c-.32,0-.65-.07-1-.08v1.72a8,8,0,0,1,7.62,7.63H54a.74.74,0,0,0,.7.53.73.73,0,1,0,0-1.46.74.74,0,0,0-.7.54H49.9c0-.21,0-.41-.06-.61l1.51-.56-.3-1.08h1.58a.73.73,0,1,0,.7-.93.74.74,0,0,0-.7.53H50.94l-.25-.88-1.62.33a10.09,10.09,0,0,0-.54-1l6.39,0a.72.72,0,0,0,.69.54.73.73,0,1,0,0-1.46Z"/><path class="cls-2" d="M45.05,37.35a5,5,0,1,1-5-5A5,5,0,0,1,45.05,37.35Z"/></svg>