<svg id="Layer_1" data-name="Layer 1" xmlns="http://www.w3.org/2000/svg" viewBox="0 0 80.78 80.78"><defs><style>.cls-1{fill:#1ab48a;}.cls-2{fill:#224093;}</style></defs><title>ICONS</title><path class="cls-1" d="M70.4,41.71c0-.05,0-.1,0-.14l-6.1-18.06c-.2-.64-.41-1.27-.62-1.91a8.1,8.1,0,0,1-1.68.17,8.68,8.68,0,0,1-1.16.08h0a8.41,8.41,0,0,1-1.71.22c-.24.67-.49,1.34-.73,2l-5.91,17.5a.57.57,0,0,0,0,.14H48l.09,1.19a7.51,7.51,0,0,0,7.45,6.91H66.91a7.5,7.5,0,0,0,7.44-6.91l.1-1.19ZM60.67,23.19,62,23l6.31,18.69H54.42ZM66.91,47.6H55.57a5.32,5.32,0,0,1-5-3.68H71.92A5.33,5.33,0,0,1,66.91,47.6Z"/><path class="cls-2" d="M52.34,58.14H45.15v-33L64,22.78l1.45-.18a3.28,3.28,0,0,0-.81-6.51L44.48,18.6a3.93,3.93,0,0,0-6.95.87l-20.9,2.6A3.28,3.28,0,0,0,17,28.6a2.82,2.82,0,0,0,.41,0l.85-.11L12,47a.74.74,0,0,0,0,.14H7.65l.09,1.19a7.5,7.5,0,0,0,7.45,6.91H26.53A7.51,7.51,0,0,0,34,48.34l.09-1.19H30s0-.09,0-.14L23.5,27.82l13.79-1.71v32H30.1a3.93,3.93,0,0,0,0,7.86H52.34a3.93,3.93,0,1,0,0-7.86Zm-20.8-8.77a5.32,5.32,0,0,1-5,3.67H15.19a5.31,5.31,0,0,1-5-3.67ZM28,47.15H14l6.4-18.95,1.09-.13ZM17.2,26.63A1.32,1.32,0,0,1,16.87,24l20.42-2.54,1-.13,1-.12v-.42a1.81,1.81,0,0,1,.1-.58,2,2,0,0,1,.85-1.1,1.84,1.84,0,0,1,1.59-.19,2,2,0,0,1,1.1.85,1.92,1.92,0,0,1,.28.95l1-.12,1-.12L64.9,18h.16a1.33,1.33,0,0,1,1.31,1.15,1.32,1.32,0,0,1-1.15,1.47l-20.07,2.5-1,.12-1,.12V58.14H39.26V23.88l-1,.12-1,.13ZM52.34,64H30.1a2,2,0,0,1,0-3.93H52.34a2,2,0,1,1,0,3.93Z"/></svg>