<svg id="Layer_1" data-name="Layer 1" xmlns="http://www.w3.org/2000/svg" viewBox="0 0 1200 1200"><defs><style>.cls-1{fill:#224093;}.cls-2{fill:#1ab48a;}</style></defs><title>Icons</title><path class="cls-1" d="M343.52,855v-89c-2-.42-3.48-.8-5-1-18.65-2.72-31.61-17.4-31.64-36.34q-.12-91.17,0-182.35c0-21.32,15.75-37,37.14-37q136.62-.09,273.24,0c21.69,0,37.34,15.66,37.37,37.41q.12,90,0,180c0,23.29-15.21,38.59-38.55,38.62q-87.07.12-174.14-.07a15.62,15.62,0,0,0-12.27,5.09c-26.67,27-53.56,53.69-80.34,80.53a57.68,57.68,0,0,0-4,5Zm17.86-41.89c2.7-2.52,4.26-3.89,5.73-5.36,18.66-18.64,37.38-37.22,55.89-56a13.68,13.68,0,0,1,10.75-4.36q90.86.2,181.72.07c14.12,0,21.16-7.1,21.22-21.3.06-12.51,0-25,0-37.52q0-69.75,0-139.51c0-15.21-7-22.07-22.28-22.16H368.82c-8.21,0-16.42-.18-24.62.07-12,.36-19.37,7.72-19.4,19.69q-.17,90.57,0,181.13c0,12.24,7.7,19.46,20,19.6,5.39.07,10.79,0,16.58,0Z"/><path class="cls-2" d="M856.08,601v89.16L854,691.64c-1.12-1.83-1.92-4-3.39-5.44-27-27.15-54.19-54.17-81.16-81.38a14.24,14.24,0,0,0-11.27-4.58c-25.8.21-51.6.1-77.4.1H674V582.48h6.26c28.93,0,57.86-.12,86.79.17a14.43,14.43,0,0,1,9,3.79c19,18.59,37.71,37.48,56.51,56.27,1.47,1.46,3,2.83,5.61,5.25v-65.5c6.18,0,11.6.11,17,0,12.3-.29,19.7-7.53,19.72-19.89q.15-90.3,0-180.61c0-12.62-7.6-19.78-20.38-19.78q-135.45,0-270.92,0c-13.34,0-20.56,7.23-20.58,20.73q-.11,49.85,0,99.69v7.31h-18v-6.36q0-50.13,0-100.27c0-23.93,15.25-39.07,39.34-39.08H853.58c24.1,0,39.29,15.13,39.29,39.08,0,57.86-.51,115.72.28,173.57C893.44,577.8,884.63,597.37,856.08,601Z"/><path class="cls-2" d="M718.46,516.4l-44.08,34.43c-1-7.36-2.06-12.9-2.45-18.47-.1-1.4,1.55-3.28,2.86-4.36,8.91-7.31,17.94-14.46,26.92-21.68,1.79-1.45,3.51-3,5.4-4.62-13.77-17.31-24.63-35.14-30.18-56.74,5.79,0,10.85-.37,15.8.21,1.56.19,3.4,2.71,4.12,4.54,5.58,14.25,14.28,29.22,22.47,37.67,14.15-17.95,24.38-37.35,27.26-61.17h-86.1c-1.76,0-3.52.07-5.27-.05-5.8-.4-9.48-4.09-9.27-9.19.2-4.87,3.86-8.45,9.34-8.54,10.36-.17,20.72-.06,31.08-.06h23.82c0-3.43-.14-6.47,0-9.49.29-5.35,4-8.91,9-8.78,4.76.14,8.21,3.53,8.54,8.66.18,2.89,0,5.79,0,9.29,2.62.12,4.68.31,6.75.31,15.44,0,30.88,0,46.32,0,7.14,0,11.26,3.44,11.17,9.08-.09,5.46-4,8.55-10.92,8.75-5.25.15-11.83-1.49-15.34,1.07-3,2.21-2.58,9.2-3.71,14.08-4.65,20.16-14.09,38-26.54,54.33-1.3,1.7-2.6,3.39-5.43,6.9a51.46,51.46,0,0,1,5.56,3.2c13.73,10.3,27.31,20.8,41.14,31,5.74,4.21,7.7,8.92,4.64,13.68-2.92,4.56-8.3,5.59-13.85,1.66C751.06,540.36,734.78,528.29,718.46,516.4Z"/><path class="cls-1" d="M544.69,710.13c-.38,4.76-2.38,7.91-6.77,8.9-4.81,1.07-8.62-.66-10.47-5.3-3.38-8.53-6.67-17.1-9.62-25.79-1.34-4-3.31-5.36-7.58-5.31q-29.61.36-59.21,0c-4,0-5.94,1.21-7.22,5-2.84,8.31-6,16.51-9.21,24.7-2.31,6-6.67,8.3-11.82,6.58s-7.16-6.61-4.94-12.54q27.06-72.44,54.25-144.81c1.53-4.08,4.34-6.54,8.77-6.48s7.12,2.65,8.64,6.7q27.11,72.42,54.23,144.82A34,34,0,0,1,544.69,710.13Zm-92.11-45.52h56.36l-27.54-73.4-1.38.17C471,615.59,461.87,639.8,452.58,664.61Z"/></svg>