<svg id="Layer_1" data-name="Layer 1" xmlns="http://www.w3.org/2000/svg" viewBox="0 0 80.78 80.78"><defs><style>.cls-1{fill:#224093;}.cls-2{fill:#1ab48a;fill-rule:evenodd;}</style></defs><title>ICONS</title><path class="cls-1" d="M26.33,31.92a8.06,8.06,0,1,0,8.05,8A8,8,0,0,0,26.33,31.92Zm0,13.82A5.77,5.77,0,1,1,32.1,40,5.77,5.77,0,0,1,26.33,45.74Z"/><path class="cls-1" d="M40.06,35.81l1.12-2.43-1.59-2.75L37,30.38c-.28-.3-.56-.6-.86-.88l-.26-2.66-2.75-1.59-2.35,1.07c-.39-.12-.8-.24-1.2-.33l-1.54-2.18H24.86l-1.5,2.11c-.4.09-.8.19-1.2.31l-2.43-1.11L17,26.71l-.24,2.58a11.9,11.9,0,0,0-.88.86l-2.67.25L11.6,33.16l1.08,2.35c-.13.39-.24.79-.34,1.19l-2.17,1.55v3.18l2.11,1.5c.08.4.18.81.3,1.2l-1.11,2.43,1.59,2.75,2.58.25c.28.3.56.6.86.88l.26,2.66,2.75,1.59,2.35-1.07a11.78,11.78,0,0,0,1.2.33l1.54,2.18h3.19L29.28,54c.41-.09.81-.19,1.21-.31l2.42,1.11,2.76-1.59.24-2.58a11.9,11.9,0,0,0,.88-.86l2.67-.25,1.59-2.76L40,44.43c.13-.39.24-.79.34-1.19l2.17-1.55V38.51L40.37,37A11.72,11.72,0,0,0,40.06,35.81ZM26.33,50.26A10.29,10.29,0,1,1,36.61,40,10.29,10.29,0,0,1,26.33,50.26Z"/><path class="cls-1" d="M51,24.54a5.51,5.51,0,1,0,5.51,5.51A5.51,5.51,0,0,0,51,24.54ZM51,34A3.95,3.95,0,1,1,55,30.05,3.94,3.94,0,0,1,51,34Z"/><path class="cls-1" d="M62.05,31.22V29.05l-1.44-1c-.06-.27-.13-.55-.21-.82l.76-1.66-1.09-1.88-1.76-.17a8.35,8.35,0,0,0-.59-.6l-.17-1.82L55.66,20l-1.6.74a7.66,7.66,0,0,0-.82-.23L52.18,19H50l-1,1.44c-.28.06-.56.13-.83.21l-1.65-.76L44.62,21l-.16,1.76c-.21.19-.41.39-.61.6L42,23.5,41,25.39,41.68,27c-.09.26-.16.54-.23.81L40,28.87V31l1.45,1a5.8,5.8,0,0,0,.21.82l-.76,1.66,1.08,1.88,1.77.17a6.67,6.67,0,0,0,.59.6L44.47,39l1.88,1.09L48,39.37a7.66,7.66,0,0,0,.82.23l1,1.49H52l1-1.44c.28-.06.55-.13.82-.21l1.66.76,1.88-1.09.17-1.76c.21-.19.41-.39.61-.59L60,36.59l1.08-1.89-.73-1.6c.09-.27.16-.54.23-.82ZM51,37.08a7,7,0,1,1,7-7A7,7,0,0,1,51,37.08Z"/><path class="cls-2" d="M47.3,43.09c3.15-.65,5.91,1.33,7.45,3.52,1.54-2.19,4.29-4.17,7.49-3.52,5,1.2,6.54,5.74,4.17,11.06H58.69l-.08.28L57.23,59,54,48.45h-.87l-1.77,5.67H43.08c-2.32-5.29-.74-9.83,4.22-11ZM66.06,54.94C64.21,58.63,60.5,62.59,54.75,66,49,62.59,45.29,58.59,43.44,54.9H52l.08-.27L53.53,50,56.8,60.54h.86l1.74-5.6Z"/></svg>