<svg id="Layer_1" data-name="Layer 1" xmlns="http://www.w3.org/2000/svg" viewBox="0 0 80.78 80.78"><defs><style>.cls-1{fill:#224093;}.cls-2{fill:#1ab48a;}</style></defs><title>ICONS</title><path class="cls-1" d="M66.45,70.39a1.49,1.49,0,0,0-1.34-1.61H17.52V15.93a1.5,1.5,0,0,0-1.34-1.61,1.5,1.5,0,0,0-1.34,1.61h0V70.39a1.79,1.79,0,0,0,.39,1.14,1.25,1.25,0,0,0,.95.47H65.11A1.49,1.49,0,0,0,66.45,70.39Z"/><path class="cls-2" d="M22.42,37.08a1,1,0,0,0-1,.82A1,1,0,0,0,22.14,39a45.79,45.79,0,0,0,9.75,1.13c13.91,0,21.11-8,26.23-16.41l3.1,1.86a1,1,0,0,0,1,0,.94.94,0,0,0,.4-.95l-2-11.77a1,1,0,0,0-.48-.69,1,1,0,0,0-.84,0L48.81,16.54a1,1,0,0,0,0,1.75l3.17,1.55C43.47,38.5,23.29,37.14,22.42,37.08Z"/><path class="cls-2" d="M25.52,49.38c-1.86,0-3.32,1.82-3.32,4.14v7.25c0,2.32,1.46,4.14,3.32,4.14h4.54c1.86,0,3.32-1.82,3.32-4.14V53.52c0-2.32-1.46-4.14-3.32-4.14Zm5.93,4.14v7.25C31.45,62,30.8,63,30.06,63H25.52c-.74,0-1.39-1-1.39-2.21V53.52c0-1.18.65-2.21,1.39-2.21h4.54C30.8,51.31,31.45,52.34,31.45,53.52Z"/><path class="cls-2" d="M39.24,42.58c-1.86,0-3.32,1.82-3.32,4.14V60.77c0,2.32,1.46,4.14,3.32,4.14h4.54c1.86,0,3.32-1.82,3.32-4.14V46.72c0-2.32-1.46-4.14-3.32-4.14Zm5.93,4.14V60.77c0,1.18-.65,2.21-1.39,2.21H39.24c-.74,0-1.39-1-1.39-2.21V46.72c0-1.18.65-2.21,1.39-2.21h4.54C44.52,44.51,45.17,45.54,45.17,46.72Z"/><path class="cls-2" d="M58.86,34.42H54.32c-1.86,0-3.32,1.82-3.32,4.14V60.77c0,2.32,1.46,4.14,3.32,4.14h4.54c1.86,0,3.32-1.82,3.32-4.14V38.56C62.18,36.24,60.72,34.42,58.86,34.42Zm1.39,26.35C60.25,62,59.6,63,58.86,63H54.32c-.74,0-1.39-1-1.39-2.21V38.56c0-1.18.65-2.21,1.39-2.21h4.54c.74,0,1.39,1,1.39,2.21Z"/></svg>