<?xml version="1.0" encoding="utf-8"?>
<!-- Generator: Adobe Illustrator 23.0.3, SVG Export Plug-In . SVG Version: 6.00 Build 0)  -->
<svg version="1.1" id="Layer_1" xmlns="http://www.w3.org/2000/svg" xmlns:xlink="http://www.w3.org/1999/xlink" x="0px" y="0px"
	 viewBox="0 0 60 60" style="enable-background:new 0 0 60 60;" xml:space="preserve">
<style type="text/css">
	.st0{fill:#17B188;}
	.st1{fill:#17B188;stroke:#17B188;stroke-width:0.25;stroke-miterlimit:10;}
	.st2{fill:#234091;stroke:#234091;stroke-width:0.25;stroke-miterlimit:10;}
	.st3{fill:#234091;}
</style>
<rect x="23.81" y="9.35" class="st0" width="27.08" height="42.82"/>
<rect x="8.5" y="22.09" class="st0" width="10.97" height="17.35"/>
<g>
	<path class="st3" d="M7.88,21v31.85h12.39V21H7.88z M18.5,31.62H9.65v-1.77h8.85V31.62z M18.5,28.08H9.65v-1.77h8.85V28.08z"/>
	<path class="st3" d="M22.04,8.61v44.24h30.08V8.61H22.04z M32.65,17.46h3.54v-3.54h1.77v3.54h3.54v1.77h-3.54v3.54h-1.77v-3.54
		h-3.54V17.46z M40.62,51.08h-7.08v-7.96h7.08V51.08z M50.35,31.62H23.81v-1.77h26.54V31.62z M50.35,28.08H23.81v-1.77h26.54V28.08z
		"/>
</g>
</svg>
