<svg id="Layer_1" data-name="Layer 1" xmlns="http://www.w3.org/2000/svg" viewBox="0 0 80.78 80.78"><defs><style>.cls-1{fill:none;stroke:#224093;stroke-miterlimit:10;stroke-width:1.29px;}.cls-2{fill:#1ab48a;}.cls-3{fill:#606466;}.cls-4{fill:#dfdfdf;}.cls-5{fill:#224093;}</style></defs><title>ICONS</title><path class="cls-1" d="M45.76,75.85a.44.44,0,0,1-.45-.43,51.62,51.62,0,0,1,.88-7.55,16,16,0,0,1,1-3.56.44.44,0,0,1,.28-.25.5.5,0,0,1,.36,0l.08,0a17.8,17.8,0,0,0,3.89,1.17c2.47.58,4.85-.12,5.73-1.13a2.51,2.51,0,0,0,.1-2c0-.22-.1-.43-.15-.63a4.85,4.85,0,0,1-.24-1.5c.07-.77.74-1.18,1.34-1.54a6.55,6.55,0,0,0,.58-.4.94.94,0,0,0,.31-.34s.07-.16,0-.22-.31-.24-1-.3a.43.43,0,0,1-.41-.41.45.45,0,0,1,.34-.47A3.22,3.22,0,0,0,60,55.7a3.14,3.14,0,0,0,0-.55l0-.27a10.92,10.92,0,0,1-.15-1.2,4.19,4.19,0,0,1,0-.88,1.57,1.57,0,0,1,.06-.28.47.47,0,0,1,.38-.31,2.86,2.86,0,0,0,2.27-1.16c.22-.63-1.27-2.8-2.36-4.38-1.44-2.09-1.4-4.74-1.38-6.86,0-.26,0-.52,0-.76a24,24,0,0,0-2.88-9.75c-.48-.72-4.92-7-14.93-7-11.61,0-17.07,8.18-17.9,13.67-.66,4.3,1.81,10.87,3.14,14.39.32.86.58,1.56.74,2.06a7.57,7.57,0,0,1,.29,1.72,15.49,15.49,0,0,1,0,1.67,94.59,94.59,0,0,1-1.74,9.6.45.45,0,0,1-.88-.18c1.08-5.13,1.68-8.4,1.73-9.47a13.52,13.52,0,0,0,0-1.56,7,7,0,0,0-.25-1.51c-.16-.49-.42-1.18-.73-2-1.45-3.86-3.87-10.31-3.18-14.84C23.05,30,28.78,21.4,41,21.4c10.47,0,15.17,6.64,15.67,7.4a24.75,24.75,0,0,1,3,10.25c0,.25,0,.5,0,.77,0,2,0,4.49,1.23,6.34,1.77,2.57,2.81,4.2,2.46,5.19a3.4,3.4,0,0,1-2.68,1.7,2.71,2.71,0,0,0,0,.57c0,.38.09.78.14,1.12l0,.28a2,2,0,0,1,0,1,1.65,1.65,0,0,1-.79.69,1.06,1.06,0,0,1,.28.32,1.08,1.08,0,0,1,0,1.05,1.9,1.9,0,0,1-.56.66c-.2.16-.44.31-.67.46-.46.28-.89.54-.92.86a5.12,5.12,0,0,0,.22,1.21c0,.2.11.42.16.64a3.18,3.18,0,0,1-.31,2.82c-1,1.19-3.7,2.09-6.6,1.42a22.86,22.86,0,0,1-3.78-1.1A16.67,16.67,0,0,0,47.07,68a51,51,0,0,0-.87,7.38.43.43,0,0,1-.44.45Z"/><path class="cls-2" d="M49.17,28.26a9.6,9.6,0,1,0-15.81,0s.64.8.9,1.1c2.58,3.09,2.88,5.86,3.49,9h7c.61-3.11.91-5.88,3.5-9C48.53,29.06,49.18,28.26,49.17,28.26Z"/><polygon class="cls-3" points="42.57 44.16 39.96 44.16 38.24 43.05 44.29 43.05 42.57 44.16"/><polygon class="cls-3" points="44.29 39.26 38.24 39.26 37.75 38.33 44.78 38.33 44.29 39.26"/><rect class="cls-4" x="38.24" y="39.26" width="6.05" height="3.79"/><path class="cls-3" d="M38.13,40.09c1.06-.14,2.13-.22,3.2-.28s2.14-.09,3.21-.06c.14,0,.25.1.24.2a.21.21,0,0,1-.2.18c-1.06.16-2.13.23-3.2.29s-2.14.08-3.22,0a.21.21,0,0,1-.23-.2C37.93,40.18,38,40.11,38.13,40.09Z"/><path class="cls-3" d="M38,41.13c1.06-.15,2.13-.22,3.2-.29s2.14-.09,3.22-.05c.13,0,.24.1.23.21a.22.22,0,0,1-.2.17c-1.06.15-2.13.23-3.2.29s-2.14.08-3.21,0c-.14,0-.25-.09-.24-.2S37.93,41.15,38,41.13Z"/><path class="cls-3" d="M38,42.17c1.06-.15,2.13-.22,3.2-.29s2.14-.09,3.22-.05c.13,0,.24.1.23.21a.21.21,0,0,1-.2.17c-1.06.16-2.13.23-3.2.29s-2.14.08-3.21,0c-.14,0-.25-.09-.24-.2S37.84,42.19,38,42.17Z"/><path class="cls-2" d="M41.24,11.59a.89.89,0,0,1-.89-.89V5.89a.9.9,0,0,1,1.79,0V10.7A.89.89,0,0,1,41.24,11.59Z"/><path class="cls-2" d="M32.74,14.92a.93.93,0,0,1-.63-.26l-3.4-3.4a.89.89,0,0,1,0-1.26A.9.9,0,0,1,30,10l3.4,3.4a.91.91,0,0,1,0,1.26A.93.93,0,0,1,32.74,14.92Z"/><path class="cls-2" d="M29.09,23.28H24.28a.89.89,0,0,1,0-1.78h4.81a.89.89,0,1,1,0,1.78Z"/><path class="cls-2" d="M29,35.18a.89.89,0,0,1-.64-.26.91.91,0,0,1,0-1.26l3.4-3.4a.89.89,0,0,1,1.27,1.26l-3.4,3.4A.89.89,0,0,1,29,35.18Z"/><path class="cls-2" d="M52.68,35.51a.85.85,0,0,1-.63-.26l-3.4-3.4a.89.89,0,0,1,1.26-1.26l3.4,3.4a.89.89,0,0,1,0,1.26A.87.87,0,0,1,52.68,35.51Z"/><path class="cls-2" d="M52.94,23.75a.89.89,0,1,1,0-1.78h4.81a.9.9,0,1,1,0,1.79Z"/><path class="cls-2" d="M49.61,15.25A.89.89,0,0,1,49,13.73l3.39-3.4a.9.9,0,0,1,1.27,0,.89.89,0,0,1,0,1.26L50.24,15A.89.89,0,0,1,49.61,15.25Z"/><path class="cls-5" d="M25.77,76h-.18a.46.46,0,0,1-.44-.46.48.48,0,0,1,.46-.44h.16A4.63,4.63,0,0,0,28,74.55a.44.44,0,0,1,.6.18.44.44,0,0,1-.17.6A5.43,5.43,0,0,1,25.77,76Zm-2.7-.79a.44.44,0,0,1-.24-.07A5.52,5.52,0,0,1,20.9,73a.45.45,0,0,1,.2-.6.44.44,0,0,1,.6.2,4.58,4.58,0,0,0,1.62,1.79.45.45,0,0,1,.13.61A.44.44,0,0,1,23.07,75.21Zm7-1.66a.46.46,0,0,1-.23-.06.45.45,0,0,1-.16-.61,4.54,4.54,0,0,0,.64-2.33.45.45,0,0,1,.89,0,5.43,5.43,0,0,1-.76,2.78A.44.44,0,0,1,30.08,73.55Zm-9.29-2.9h0a.45.45,0,0,1-.42-.48,5.48,5.48,0,0,1,1-2.72A.45.45,0,0,1,22,68a4.54,4.54,0,0,0-.8,2.27A.44.44,0,0,1,20.79,70.65Zm9.6-1.57A.45.45,0,0,1,30,68.8a4.6,4.6,0,0,0-1.48-1.9.44.44,0,0,1,.53-.71,5.33,5.33,0,0,1,1.77,2.27.43.43,0,0,1-.24.58A.47.47,0,0,1,30.39,69.08Zm-6.7-2.63a.45.45,0,0,1-.41-.26.45.45,0,0,1,.22-.59,5.49,5.49,0,0,1,2.85-.46.43.43,0,0,1,.39.48.43.43,0,0,1-.48.4,4.63,4.63,0,0,0-2.38.39A.43.43,0,0,1,23.69,66.45Z"/><path class="cls-2" d="M26.18,73.06h0a.88.88,0,0,1-.64-.26L22.77,70a.91.91,0,0,1,1.28-1.28l2.13,2.13,3.74-3.75a.91.91,0,1,1,1.28,1.28L26.82,72.8A.9.9,0,0,1,26.18,73.06Z"/></svg>