<?xml version="1.0" encoding="utf-8"?>
<!-- Generator: Adobe Illustrator 23.0.3, SVG Export Plug-In . SVG Version: 6.00 Build 0)  -->
<svg version="1.1" id="Layer_1" xmlns="http://www.w3.org/2000/svg" xmlns:xlink="http://www.w3.org/1999/xlink" x="0px" y="0px"
	 viewBox="0 0 60 60" style="enable-background:new 0 0 60 60;" xml:space="preserve">
<style type="text/css">
	.st0{fill:#29408F;}
	.st1{fill:#2CB288;}
</style>
<g id="_x32_3622_-_Emotional_Intelligence">
	<g>
		<path class="st0" d="M48.37,29.56c-0.03-0.03-0.04-0.07-0.05-0.09l-1.11-2.6c-0.61-1.42-0.99-2.88-1.14-4.34
			c-0.19-1.92-0.64-3.65-1.31-5.14c-0.04-0.08-0.08-0.18-0.12-0.26c-2.3-4.81-7.6-6.44-10.55-6.98c-4.73-0.87-9.6,0.32-13.71,3.34
			c-1.34,0.99-2.56,2.12-3.61,3.37c-2.64,3.99-2.81,9.44-0.49,15.39c0.95,2.43,2.26,4.84,3.91,7.15c1.2,1.72,3.16,5.08,2.69,8.49
			v3.52l14.49-0.64v-0.45c0-2.54,1.99-4.62,4.53-4.75l0.39-0.01c0.87-0.04,1.68-0.37,2.28-0.89c0.24-0.22,0.46-0.46,0.64-0.74
			c0.39-0.59,0.61-1.31,0.61-2.07v-4.89c0-1.34,0.84-2.56,2.1-3.03l0.2-0.08c0,0,0,0,0.01,0c0.57-0.2,0.91-0.51,1.05-0.95
			C49.58,31.82,48.73,30.12,48.37,29.56z M43.72,25.14l-5.48,5.48c-0.14,0.14-0.31,0.2-0.49,0.2c-0.19,0-0.37-0.07-0.49-0.2
			l-1.19-1.19c-0.03,0.04-0.07,0.08-0.11,0.11l-3.77,3.77c-0.14,0.14-0.31,0.2-0.49,0.2c-0.19,0-0.37-0.07-0.49-0.2l-1.76-1.76v1.65
			c0,1.91-1.55,3.46-3.46,3.46c-1.77,0-3.24-1.34-3.45-3.07c-1.89-0.22-3.37-1.83-3.37-3.77c0-1.22,0.58-2.34,1.53-3.06
			c-0.15-0.34-0.22-0.7-0.22-1.07c0-1.31,0.95-2.42,2.19-2.66c0.05-0.53,0.24-1.03,0.54-1.46c-0.46-0.59-0.7-1.34-0.7-2.1
			c0-1.91,1.55-3.46,3.46-3.46s3.46,1.55,3.46,3.46v5.6c0.62,0.03,1.23,0.28,1.72,0.76l0.54,0.54l0.54-0.54
			c0.04-0.04,0.07-0.07,0.11-0.11l-0.58-0.58c-1.37-1.37-1.37-3.6,0-4.96l0,0c0.66-0.66,1.54-1.03,2.47-1.03s1.83,0.37,2.49,1.03
			l1,1l1-1c0.66-0.66,1.54-1.03,2.47-1.03s1.81,0.37,2.47,1.03l0,0c0.66,0.66,1.03,1.54,1.03,2.47S44.39,24.48,43.72,25.14z"/>
		<path class="st1" d="M41.25,20.53c-0.57,0-1.1,0.22-1.5,0.62l-1.49,1.5c-0.14,0.14-0.31,0.2-0.49,0.2c-0.19,0-0.37-0.07-0.49-0.2
			l-1.5-1.5c-0.41-0.41-0.93-0.62-1.5-0.62s-1.1,0.22-1.5,0.62c0,0,0,0-0.01,0c-0.82,0.82-0.82,2.18,0,3l0.93,0.93
			c0.8-0.14,1.65,0.12,2.27,0.73l0,0c0.62,0.62,0.87,1.47,0.73,2.27l1.04,1.04l4.99-4.99c0.41-0.41,0.62-0.93,0.62-1.5
			s-0.22-1.1-0.62-1.5C42.34,20.75,41.82,20.53,41.25,20.53z"/>
		<path class="st1" d="M27.47,25.82c0.19-0.19,0.39-0.34,0.62-0.46v-3.12c-0.12,0.08-0.23,0.16-0.37,0.24
			c-0.11,0.07-0.23,0.09-0.34,0.09c-0.24,0-0.47-0.12-0.61-0.35c-0.19-0.34-0.08-0.76,0.26-0.95c0.65-0.37,1.05-1.07,1.05-1.81
			c0-1.15-0.93-2.08-2.08-2.08c-1.15,0-2.08,0.93-2.08,2.08c0,0.61,0.26,1.18,0.72,1.57c0.15,0.14,0.24,0.32,0.24,0.53
			s-0.09,0.39-0.24,0.53c-0.35,0.3-0.55,0.73-0.55,1.19c0,0.09,0.01,0.18,0.03,0.26c0,0,0,0,0,0.01c0.11,0.65,0.62,1.15,1.27,1.27
			c0.38,0.07,0.64,0.42,0.57,0.8c-0.05,0.34-0.35,0.58-0.68,0.58c-0.04,0-0.08,0-0.12-0.01c-1.01-0.18-1.85-0.87-2.23-1.78
			c-0.58,0.15-1,0.68-1,1.3c0,0.16,0.03,0.31,0.08,0.46c0.34-0.09,0.68-0.14,1.03-0.14c0.7,0,1.39,0.19,1.99,0.55
			c0.32,0.2,0.43,0.62,0.23,0.95c-0.14,0.22-0.37,0.34-0.59,0.34c-0.12,0-0.24-0.03-0.37-0.11c-0.38-0.23-0.81-0.35-1.26-0.35
			c-0.37,0-0.7,0.08-1.03,0.23c-0.85,0.39-1.39,1.26-1.39,2.19c0,1.22,0.91,2.23,2.1,2.39c0.42-1.46,1.76-2.49,3.33-2.49
			c0.03,0,0.05,0,0.08,0c0.38,0.01,0.68,0.34,0.66,0.72c-0.01,0.38-0.34,0.68-0.72,0.66c-0.01,0-0.01,0-0.03,0
			c-1.08,0-1.97,0.81-2.07,1.88V33l0,0c0,0.07-0.01,0.12-0.01,0.19c0,1.15,0.93,2.08,2.08,2.08c1.15,0,2.08-0.93,2.08-2.08v-3.03
			l-0.62-0.62C26.45,28.51,26.45,26.84,27.47,25.82z"/>
		<path class="st1" d="M34.99,26.8c-0.49-0.49-1.27-0.49-1.76,0l-1.03,1.03c-0.27,0.27-0.7,0.27-0.97,0L30.2,26.8
			c-0.24-0.24-0.55-0.37-0.88-0.37c-0.12,0-0.24,0.01-0.35,0.05c-0.19,0.05-0.38,0.16-0.53,0.31c-0.49,0.49-0.49,1.27,0,1.76
			l0.8,0.8l0.05,0.05l2.43,2.42L35,28.56c0.14-0.14,0.23-0.3,0.3-0.47c0.04-0.14,0.07-0.27,0.07-0.41
			C35.36,27.36,35.25,27.05,34.99,26.8L34.99,26.8z"/>
	</g>
</g>
</svg>
