<?xml version="1.0" encoding="utf-8"?>
<!-- Generator: Adobe Illustrator 19.0.0, SVG Export Plug-In . SVG Version: 6.00 Build 0)  -->
<svg version="1.1" id="Capa_1" xmlns="http://www.w3.org/2000/svg" xmlns:xlink="http://www.w3.org/1999/xlink" x="0px" y="0px"
	 viewBox="148 -183 511 511" style="enable-background:new 148 -183 511 511;" xml:space="preserve">
<style type="text/css">
	.st0{fill:#244092;}
</style>
<g>
	<path class="st0" d="M615.8,295c-2.2-38.6-27.4-71.1-62.1-84c15.8-56,18.4-116.6,7.8-175.7c-8.6-47.6-23.2-79.9-26.8-86.3l36-36
		c4.7-4.7,7.2-11.1,6.9-17.7c-0.3-6.5-3.3-12.7-8.3-16.9C521.9-161.2,462-183,400.5-183s-121.4,21.8-168.7,61.3
		c-5,4.2-8,10.3-8.3,16.9s2.2,13.1,6.9,17.7l36.8,36.8c-4.2,8-18.1,39.7-26.4,85.5c-10.7,59-8,119.5,7.7,175.3
		c-35.2,12.6-60.9,45.4-63.2,84.4c-0.1,0.5-0.2,1-0.2,1.5v4c0,1.3,0.3,2.6,0.9,3.6c3.4,13.7,15.8,23.9,30.6,23.9h115.9h0.1h0.1H468
		h0.1h0.1h116.3c14.7,0,27.1-10.2,30.6-23.9c0.6-1.1,0.9-2.3,0.9-3.6v-4C616,296,615.9,295.4,615.8,295z M546.8,37.9
		c7.2,40,11.6,101.3-7.4,169c-5.8-1.2-11.9-1.8-18.1-1.9c-1.8-3.4-4.8-6.1-8.4-7.4l-39.2-14.3c-1.5-0.5-3-0.8-4.5-0.9
		c-4.6-9.3-4.6-21.3-4.6-32.1c0-0.6-0.1-1.1-0.2-1.6c5.6-5.3,11-11.1,16.2-17.5c24.8-30.5,39.6-67.4,39.6-98.8
		c0-24.1-10.3-37.3-36.9-47C468-20.1,450.7-21,432.4-22c-34.3-1.9-69.8-3.8-96-35.7C356.3-67,378.2-72,400.6-72
		c38.5,0,75.4,14.6,103.8,41.1c1.4,1.3,3.3,2,5.1,2c1.9,0,3.8-0.7,5.3-2.2l8.8-8.8C528.5-29.3,539.7-0.9,546.8,37.9z M439.5,313
		c11.4-43.2,23.2-91.4,28.3-115.2c0-0.1,0-0.2,0.2-0.3s0.3,0,0.4,0l39.2,14.3c0.2,0.1,0.3,0.2,0.3,0.3c0.1,0.2,0,0.2,0,0.3
		c-12.2,29.8-28.2,67.9-44.6,100.7h-23.8V313z M375.6,313c-8.2-30.9-16.7-64.7-22.8-90.5c12.7,10,29.6,16,47.7,16
		c17.3,0,33.5-5.5,45.9-14.7c-6.1,25.7-14.5,58.8-22.5,89.2H375.6z M337,313c-14.1-27.6-29.4-61.4-45.5-100.7c0,0-0.1-0.1,0-0.3
		c0-0.1,0.1-0.2,0.3-0.3l39.3-14.3c0.1,0,0.2-0.1,0.4,0c0.2,0.1,0.2,0.3,0.2,0.3c5.1,23.8,16.9,72,28.3,115.2h-23V313z M296-30.3
		c0.2-0.2,0.5-0.4,0.7-0.6c8.1-7.5,16.8-14.1,26.1-19.6C353.4-11.3,394.9-9,431.5-7c17.2,0.9,33.4,1.8,46.4,6.6
		c23,8.5,27.1,17.4,27.1,33c0,28-13.5,61.4-36.2,89.3c-21.7,26.7-47.9,43.2-68.3,43.2s-46.6-16.6-68.3-43.2
		c-22.7-28-36.2-61.4-36.2-89.4V-30.3L296-30.3z M400.5,180c15.4,0,32.5-6.8,49.1-19c0.3,8.9,1.5,18.4,5.5,26.9
		c-0.7,0.8-1.3,1.7-1.6,2.7c-6.5,19.3-28.2,32.8-53,32.8s-46.6-13.5-53-32.8c-0.3-0.9-0.8-1.7-1.3-2.4c4.1-8.6,5.3-18,5.7-26.9
		C368.3,173.3,385.3,180,400.5,180z M238.4-104.1c0.1-2.4,1.2-4.5,3-6C286-147.5,342.5-168,400.5-168s114.5,20.5,159.1,57.8
		c1.8,1.5,2.9,3.7,3,6c0.1,2.4-0.8,4.7-2.5,6.5l-50.9,50.9C478.7-72.8,440.4-87,400.5-87s-78.2,14.3-108.6,40.3l-50.9-51
		C239.2-99.4,238.3-101.7,238.4-104.1z M255.5,37.9c6.8-37.9,17.7-65.8,22.9-77l2.7,2.7v68.9c0,31.4,14.8,68.3,39.6,98.8
		c5.3,6.5,10.9,12.5,16.5,17.8c-0.1,0.4-0.1,0.8-0.1,1.3c0,10.8,0,22.8-4.7,32.1c-2.1-0.1-4.3,0.1-6.4,0.9l-39.3,14.3
		c-3.6,1.3-6.6,4-8.4,7.4c-5.3,0.1-10.4,0.7-15.4,1.6C243.8,139.1,248.2,77.8,255.5,37.9z M200.1,297.8
		c1.4-42.4,35.9-76.6,78.4-77.7c14.7,35.6,28.7,66.8,41.8,92.9H216.5C207.8,313,200.7,306.3,200.1,297.8z M584.5,313H480.2
		c15-30.9,29.5-65.2,40.9-93c43.2,0.3,78.4,34.8,79.9,77.7C600.3,306.3,593.2,313,584.5,313z"/>
</g>
</svg>
