<svg id="Layer_1" data-name="Layer 1" xmlns="http://www.w3.org/2000/svg" viewBox="0 0 80.78 80.78"><defs><style>.cls-1{fill:#224093;}.cls-1,.cls-2{fill-rule:evenodd;}.cls-2{fill:#1ab48a;}</style></defs><title>ICONS</title><path class="cls-1" d="M36.07,17.22c5.49-1.13,10.29,2.32,13,6.12,2.68-3.8,7.48-7.25,13.05-6.12,8.64,2.08,11.39,10,7.27,19.27H55.91l-.14.47-2.4,7.92-5.7-18.32H46.16l-3.09,9.87H28.72c-4-9.22-1.3-17.13,7.35-19.21ZM68.74,37.86C65.52,44.28,59.06,51.18,49,57.13c-9.95-6-16.47-12.91-19.7-19.33h15l.13-.48,2.47-8,5.7,18.32h1.51l3-9.75Z"/><path class="cls-2" d="M30.21,65.14c2.21,2.56,4.84,2.39,7.41,0,10.05-9,10.17-29.63-6.37-23.09.31-4.09,1.66-5.63,4.72-8.81l-1.72-1.6A19.52,19.52,0,0,0,30.09,37c-.49-.39-1-.74-1.47-1.13,1.22-8.93-14.58-7.63-20.4-6.2,5,2.56,17.83,16.49,20.15,7.22a7.72,7.72,0,0,1,1.35,1,12,12,0,0,0-.86,4.1c-16.23-6.14-16.1,14.22-6.12,23.2,2.57,2.34,5.21,2.51,7.47,0ZM11.1,30.44a30.18,30.18,0,0,1,10,2.22,37.86,37.86,0,0,1,6.5,3.58v.06c-.49,2.33-1.72,3-3.25,2.73-2.82-.51-6.92-3.7-10.35-6.43-1-.79-2-1.53-2.88-2.16Zm16.6,4.78a38.48,38.48,0,0,0-6.25-3.36,32.78,32.78,0,0,0-8.39-2.16,31.62,31.62,0,0,1,8.64.17,10.19,10.19,0,0,1,3.86,1.31,4.15,4.15,0,0,1,2,2.45,3.53,3.53,0,0,1,.18,1.59Z"/></svg>