<?xml version="1.0" encoding="iso-8859-1"?>
<!-- Generator: Adobe Illustrator 19.0.0, SVG Export Plug-In . SVG Version: 6.00 Build 0)  -->
<svg version="1.1" id="Capa_1" xmlns="http://www.w3.org/2000/svg" xmlns:xlink="http://www.w3.org/1999/xlink" x="0px" y="0px"
	 viewBox="0 0 512.002 512.002" style="enable-background:new 0 0 512.002 512.002;" xml:space="preserve">
<style type="text/css">
	.st0{fill:#244092;}
</style>
<g>
	<g>
		<path class="st0"  d="M460.47,212.866c-3.903-3.896-10.221-3.896-14.125-0.002L286.466,372.348c-3.91,3.9-3.917,10.231-0.018,14.141
			c3.901,3.909,10.232,3.918,14.142,0.017l25.821-25.758v56.315c0,5.522,4.477,9.999,9.999,9.999s9.999-4.477,9.999-9.999v-56.159
			l63.449,63.449c-31.161,26.004-74.057,33.657-112.616,19.622l-26.018-25.966c-0.183-0.217-0.371-0.43-0.573-0.632L94.736,241.824
			c-0.199-0.199-0.408-0.38-0.619-0.559l-7.828-7.812c0.205-0.594,0.359-1.215,0.45-1.861c3.726-26.216,13.708-51.509,28.873-73.297
			c9.968-0.92,20.249-2.732,30.562-5.768c50.147-14.763,84.003-53.353,94.693-66.949c2.95-0.26,5.899-0.444,8.837-0.554
			l10.399-0.075c68.646,1.672,130.809,45.262,155.544,109.537c1.529,3.974,5.318,6.411,9.334,6.41c1.194,0,2.409-0.215,3.589-0.669
			c5.154-1.984,7.724-7.769,5.741-12.923c-13.714-35.636-37.567-66.083-68.983-88.048c-22.822-15.957-48.492-26.567-75.548-31.385
			c-0.173-9.719,1.913-17.301,3.466-20.891c12.63-4.16,20.863-14.67,19.634-25.841c-1.492-13.566-15.804-22.748-32.569-20.903
			c-11.351,1.249-32.151,7.06-43.928,31.955c-2.977,6.293-5.102,12.939-6.373,19.767c-13.358-14.421-38.602-37.026-72.541-46.649
			c-50.648-14.362-99.994,6.047-102.07,6.924c-2.797,1.18-4.907,3.567-5.733,6.487c-0.828,2.921-0.284,6.059,1.479,8.53
			c0.79,1.109,16.568,22.94,43.532,40.821c-45.752,22.022-73.038,60.569-74.355,62.458c-1.736,2.489-2.248,5.631-1.39,8.543
			c0.857,2.911,2.99,5.275,5.797,6.427c1.698,0.696,29.864,12.022,66.734,13.418c-10.481,17.791-18.044,37.262-22.311,57.432
			l-3.493-3.486c-3.903-3.896-10.223-3.896-14.127,0C18.312,246.019,0.015,290.083,0.015,336.941
			c0,46.769,18.237,90.727,51.352,123.775c34.177,34.107,79.076,51.156,123.999,51.156c27.703,0,55.412-6.495,80.62-19.463
			c13.537,6.981,27.933,12.195,42.866,15.462c12.669,2.773,25.413,4.131,38.038,4.131c45.995,0,90.408-18.018,123.744-51.287
			c33.115-33.048,51.352-77.004,51.352-123.775C511.987,290.083,493.691,246.019,460.47,212.866z M254.46,40.744
			c7.236-15.297,19.24-19.661,28.036-20.628c0.705-0.078,1.378-0.113,2.021-0.113c5.258,0,8.378,2.368,8.483,3.325
			c0.09,0.821-2.232,4.044-8.016,5.182c-1.866,0.367-3.587,1.259-4.964,2.57c-5.191,4.945-9.826,18.314-10.214,33.802l-21.185,0.153
			C248.867,56.579,250.82,48.44,254.46,40.744z M76.406,26.285c16.509-4.594,46.164-10.085,75.608-1.736
			c22.689,6.433,41.233,20.03,53.882,31.689c-23.04-4.463-55.011-6.924-87.308,2.584c-0.064,0.019-0.127,0.039-0.192,0.058
			C99.572,49.125,85.047,35.6,76.406,26.285z M45.367,131.277c12.826-14.607,39.285-40.314,74.982-52.055
			c0.236-0.069,0.47-0.143,0.7-0.229c1.055-0.341,2.116-0.673,3.188-0.988c37.515-11.043,75.716-3.445,95.136,2.06
			c-13.34,15.15-41.329,42.235-78.844,53.279C102.995,144.392,64.773,136.781,45.367,131.277z M424.043,263.358
			c15.189,18.008,24.322,39.977,26.362,63.409h-89.928L424.043,263.358z M360.55,346.765h89.87
			c-2.011,23.484-11.151,45.49-26.373,63.497L360.55,346.765z M185.592,360.806l63.499,63.37
			c-18.49,15.489-40.752,24.227-63.499,26.224V360.806z M165.594,360.905v89.516c-22.736-1.946-44.986-10.632-63.457-26.058
			L165.594,360.905z M87.956,410.262c-15.223-18.007-24.363-40.013-26.373-63.497h89.87L87.956,410.262z M87.948,263.361
			l63.535,63.406H61.589C63.629,303.338,72.761,281.369,87.948,263.361z M175.366,491.888c-39.8-0.006-79.594-15.112-109.871-45.328
			c-29.329-29.269-45.481-68.199-45.481-109.619c0-38.171,13.707-74.252,38.803-102.651l14.932,14.902
			c-21.09,24.38-32.595,55.143-32.595,87.662c0,34.788,13.175,67.541,37.164,92.587c0.473,0.971,1.104,1.884,1.91,2.691
			c0.816,0.816,1.741,1.451,2.724,1.926c25.847,24.522,59.167,36.779,92.502,36.779c31.332,0,62.674-10.832,87.838-32.487
			l14.931,14.901C248.894,479.009,212.128,491.891,175.366,491.888z M446.508,446.56c-37.646,37.568-91.247,53.184-143.381,41.776
			c-9.111-1.995-17.996-4.806-26.564-8.375c6.592-4.638,12.933-9.781,18.969-15.43c13.434,4.289,27.246,6.39,40.961,6.389
			c35.002,0,69.348-13.643,95.023-39.264c25.365-25.313,39.332-58.981,39.332-94.804c0-32.522-11.507-63.287-32.6-87.667
			l14.935-14.898c25.096,28.399,38.804,64.481,38.804,102.653C491.989,378.361,475.837,417.291,446.508,446.56z"/>
	</g>
</g>
<g>
	<g>
		<path class="st0"  d="M256.812,104.894l-0.8-0.002c-5.522,0-9.999,4.477-9.999,9.999s4.477,9.999,9.999,9.999l0.68,0.002
			c0.021,0,0.041,0,0.061,0c5.493,0,9.965-4.438,9.998-9.939C266.784,109.431,262.334,104.928,256.812,104.894z"/>
	</g>
</g>
<g>
	<g>
		<path class="st0"  d="M395.112,196.792c-17.757-42.225-53.247-73.619-97.37-86.132c-5.316-1.509-10.842,1.58-12.348,6.891
			c-1.507,5.312,1.579,10.841,6.891,12.348c38.244,10.846,69.003,38.053,84.391,74.645c1.609,3.825,5.318,6.125,9.222,6.125
			c1.292,0,2.606-0.252,3.872-0.784C394.861,207.745,397.251,201.883,395.112,196.792z"/>
	</g>
</g>
<g>
</g>
<g>
</g>
<g>
</g>
<g>
</g>
<g>
</g>
<g>
</g>
<g>
</g>
<g>
</g>
<g>
</g>
<g>
</g>
<g>
</g>
<g>
</g>
<g>
</g>
<g>
</g>
<g>
</g>
</svg>
