<?xml version="1.0" encoding="utf-8"?>
<!-- Generator: Adobe Illustrator 24.0.0, SVG Export Plug-In . SVG Version: 6.00 Build 0)  -->
<svg version="1.1" id="Layer_1" xmlns="http://www.w3.org/2000/svg" xmlns:xlink="http://www.w3.org/1999/xlink" x="0px" y="0px"
	 viewBox="0 0 60 60" style="enable-background:new 0 0 60 60;" xml:space="preserve">
<style type="text/css">
	.st0{fill-rule:evenodd;clip-rule:evenodd;fill:#1EAA81;}
	.st1{fill:#1EAA81;}
</style>
<g>
	<g id="Layer_2_4_">
		<g id="Слой_1_3_">
			<path class="st1" d="M34.8,15.6h-9.3c-1.3,0-2.4,1.1-2.4,2.4v4.7c0,1.3,1.1,2.4,2.4,2.4c0,0,0,0,0,0h9.3c1.3,0,2.4-1.1,2.4-2.4
				c0,0,0,0,0,0V18C37.3,16.7,36.2,15.6,34.8,15.6C34.8,15.6,34.8,15.6,34.8,15.6z M35.6,22.7c0,0.4-0.4,0.8-0.8,0.8h-9.3
				c-0.4,0-0.8-0.4-0.8-0.8V18c0-0.4,0.4-0.8,0.8-0.8c0,0,0,0,0,0h9.3c0.4,0,0.8,0.4,0.8,0.8c0,0,0,0,0,0V22.7z"/>
			<path class="st1" d="M47.9,20.5H12.1c-1.3,0-2.4,1.1-2.4,2.4c0,0,0,0,0,0v20.8c0,1.3,1.1,2.4,2.4,2.4h35.8c1.3,0,2.4-1.1,2.4-2.4
				V22.9C50.3,21.6,49.2,20.5,47.9,20.5C47.9,20.5,47.9,20.5,47.9,20.5z M36,34.3h-4.2v4.2h-3.1v-4.2h-4.2v-3.1h4.2V27h3.1v4.2H36
				V34.3z"/>
		</g>
	</g>
</g>
</svg>
