<?xml version="1.0" encoding="utf-8"?>
<!-- Generator: Adobe Illustrator 23.0.3, SVG Export Plug-In . SVG Version: 6.00 Build 0)  -->
<svg version="1.1" id="Layer_1" xmlns="http://www.w3.org/2000/svg" xmlns:xlink="http://www.w3.org/1999/xlink" x="0px" y="0px"
	 viewBox="0 0 60 60" style="enable-background:new 0 0 60 60;" xml:space="preserve">
<style type="text/css">
	.st0{fill:#29408F;}
	.st1{fill:#2CB288;}
</style>
<path class="st1" d="M43.83,22.81v-9.02c0-4.11-3.34-7.45-7.45-7.45H25.08c-4.11,0-7.45,3.34-7.45,7.45v9.33
	c-1.64,1.28-2.7,3.28-2.7,5.5v18.05c0,3.84,3.15,6.99,6.99,6.99h18.05c3.84,0,6.99-3.14,6.99-6.99V28.63
	C46.95,26.21,45.71,24.07,43.83,22.81z M25.08,10.99h11.29c1.54,0,2.8,1.26,2.8,2.8v7.85H22.28v-7.85
	C22.28,12.25,23.54,10.99,25.08,10.99z M28.6,46.09l0.86-9.48l0.28-3.05c-0.57-0.35-0.99-0.92-1.1-1.6
	c-0.02-0.13-0.03-0.26-0.03-0.4c0-1.29,1.05-2.35,2.35-2.35c1.29,0,2.34,1.05,2.34,2.35c0,0.14-0.01,0.27-0.03,0.4
	c-0.12,0.68-0.53,1.26-1.1,1.6l0.28,3.05l0.86,9.48H28.6z"/>
</svg>
