<?xml version="1.0" encoding="utf-8"?>
<!-- Generator: Adobe Illustrator 24.3.0, SVG Export Plug-In . SVG Version: 6.00 Build 0)  -->
<svg version="1.1" id="Layer_1" xmlns="http://www.w3.org/2000/svg" xmlns:xlink="http://www.w3.org/1999/xlink" x="0px" y="0px"
	 viewBox="0 0 60 60" style="enable-background:new 0 0 60 60;" xml:space="preserve">
<style type="text/css">
	.st0{fill:#17B188;}
	.st1{fill:#234091;}
</style>
<g>
	<g>
		<path class="st0" d="M19.39,39.44h-4.25c-0.43,0-0.77-0.35-0.77-0.77V21.24c0-0.43,0.35-0.77,0.77-0.77h4.25
			c0.43,0,0.77,0.35,0.77,0.77v17.43C20.16,39.1,19.82,39.44,19.39,39.44z M15.91,37.9h2.71V22.01h-2.71V37.9z"/>
	</g>
	<g>
		<path class="st1" d="M15.14,37.36h-4.25c-0.43,0-0.77-0.35-0.77-0.77V23.32c0-0.43,0.35-0.77,0.77-0.77h4.25
			c0.43,0,0.77,0.35,0.77,0.77v13.27C15.91,37.01,15.56,37.36,15.14,37.36z M11.66,35.81h2.71V24.09h-2.71V35.81z"/>
	</g>
	<g>
		<path class="st0" d="M8.5,32.59c-0.43,0-0.77-0.35-0.77-0.77v-3.74c0-0.43,0.35-0.77,0.77-0.77c0.43,0,0.77,0.35,0.77,0.77v3.74
			C9.27,32.25,8.93,32.59,8.5,32.59z"/>
	</g>
	<g>
		<path class="st0" d="M8.5,30.72H5.8c-0.43,0-0.77-0.35-0.77-0.77c0-0.43,0.35-0.77,0.77-0.77H8.5c0.43,0,0.77,0.35,0.77,0.77
			C9.27,30.38,8.93,30.72,8.5,30.72z"/>
	</g>
	<g>
		<path class="st0" d="M45.8,39.44h-4.25c-0.43,0-0.77-0.35-0.77-0.77V21.24c0-0.43,0.35-0.77,0.77-0.77h4.25
			c0.43,0,0.77,0.35,0.77,0.77v17.43C46.57,39.1,46.23,39.44,45.8,39.44z M42.32,37.9h2.71V22.01h-2.71V37.9z"/>
	</g>
	<g>
		<path class="st1" d="M50.05,37.36H45.8c-0.43,0-0.77-0.35-0.77-0.77V23.32c0-0.43,0.35-0.77,0.77-0.77h4.25
			c0.43,0,0.77,0.35,0.77,0.77v13.27C50.83,37.01,50.48,37.36,50.05,37.36z M46.57,35.81h2.71V24.09h-2.71V35.81z"/>
	</g>
	<g>
		<path class="st0" d="M52.44,32.59c-0.43,0-0.77-0.35-0.77-0.77v-3.74c0-0.43,0.35-0.77,0.77-0.77c0.43,0,0.77,0.35,0.77,0.77v3.74
			C53.21,32.25,52.86,32.59,52.44,32.59z"/>
	</g>
	<g>
		<path class="st0" d="M55.14,30.72h-2.71c-0.43,0-0.77-0.35-0.77-0.77c0-0.43,0.35-0.77,0.77-0.77h2.71c0.43,0,0.77,0.35,0.77,0.77
			C55.92,30.38,55.57,30.72,55.14,30.72z"/>
	</g>
	<g>
		<path class="st0" d="M39.04,30.72H21.9c-0.43,0-0.77-0.35-0.77-0.77c0-0.43,0.35-0.77,0.77-0.77h17.14c0.43,0,0.77,0.35,0.77,0.77
			C39.81,30.38,39.46,30.72,39.04,30.72z"/>
	</g>
</g>
</svg>
