<?xml version="1.0" encoding="utf-8"?>
<!-- Generator: Adobe Illustrator 19.0.0, SVG Export Plug-In . SVG Version: 6.00 Build 0)  -->
<svg version="1.1" id="Capa_1" xmlns="http://www.w3.org/2000/svg" xmlns:xlink="http://www.w3.org/1999/xlink" x="0px" y="0px"
	 viewBox="148 -184 512 512" style="enable-background:new 148 -184 512 512;" xml:space="preserve">
<style type="text/css">
	.st0{fill:#216084;}
</style>
<g>
	<g>
		<g>
			<path class="st0" d="M553.3-141.3h-44.6c-4.4-12.4-16.1-21.3-30-21.3h-32.2C436.4-176,420.7-184,404-184s-32.4,8-42.4,21.3h-32.2
				c-13.9,0-25.6,8.9-30,21.3h-44.6c-23.5,0-42.7,19.1-42.7,42.7v384c0,23.5,19.1,42.7,42.7,42.7h298.7c23.5,0,42.7-19.1,42.7-42.7
				v-384C596-122.2,576.9-141.3,553.3-141.3z M318.7-130.7c0-5.9,4.8-10.7,10.7-10.7h37.9c3.8,0,7.3-2,9.2-5.3
				c5.9-10,16.1-16,27.5-16s21.7,6,27.5,16c1.9,3.3,5.4,5.3,9.2,5.3h37.9c5.9,0,10.7,4.8,10.7,10.7v10.7c0,11.8-9.6,21.3-21.3,21.3
				H340c-11.8,0-21.3-9.6-21.3-21.3V-130.7L318.7-130.7z M574.7,285.3c0,11.8-9.6,21.3-21.3,21.3H254.7c-11.8,0-21.3-9.6-21.3-21.3
				v-384c0-11.8,9.6-21.3,21.3-21.3h42.7c0,23.5,19.1,42.7,42.7,42.7h128c23.5,0,42.7-19.1,42.7-42.7h42.7
				c11.8,0,21.3,9.6,21.3,21.3L574.7,285.3L574.7,285.3z"/>
			<path class="st0" d="M521.3,242.7H286.7c-5.9,0-10.7,4.8-10.7,10.7s4.8,10.7,10.7,10.7h234.7c5.9,0,10.7-4.8,10.7-10.7
				C532,247.4,527.2,242.7,521.3,242.7z"/>
			<path class="st0" d="M521.3,178.7H286.7c-5.9,0-10.7,4.8-10.7,10.7s4.8,10.7,10.7,10.7h234.7c5.9,0,10.7-4.8,10.7-10.7
				C532,183.4,527.2,178.7,521.3,178.7z"/>
			<path class="st0" d="M521.3-2.7c-11.8,0-21.3,9.6-21.3,21.3c0,1.8,0.6,3.5,1.1,5.2l-81.2,81.2c-1.7-0.4-3.4-1.1-5.2-1.1
				c-1.8,0-3.5,0.6-5.2,1.1l-38.5-38.5c0.4-1.7,1.1-3.4,1.1-5.2c0-11.8-9.6-21.3-21.3-21.3c-11.8,0-21.3,9.6-21.3,21.3
				c0,1.8,0.6,3.5,1.1,5.2l-38.5,38.5c-1.7-0.4-3.4-1.1-5.2-1.1c-11.8,0-21.3,9.6-21.3,21.3s9.6,21.3,21.3,21.3
				c11.8,0,21.3-9.6,21.3-21.3c0-1.8-0.6-3.5-1.1-5.2l38.5-38.5c1.7,0.4,3.4,1.1,5.2,1.1c1.8,0,3.5-0.6,5.2-1.1l38.5,38.5
				c-0.4,1.7-1.1,3.4-1.1,5.2c0,11.8,9.6,21.3,21.3,21.3c11.8,0,21.3-9.6,21.3-21.3c0-1.8-0.6-3.5-1.1-5.2l81.2-81.2
				c1.7,0.4,3.4,1.1,5.2,1.1c11.8,0,21.3-9.6,21.3-21.3C542.7,6.9,533.1-2.7,521.3-2.7z"/>
		</g>
	</g>
</g>
</svg>
