<?xml version="1.0" encoding="utf-8"?>
<!-- Generator: Adobe Illustrator 24.0.0, SVG Export Plug-In . SVG Version: 6.00 Build 0)  -->
<svg version="1.1" id="Layer_1" xmlns="http://www.w3.org/2000/svg" xmlns:xlink="http://www.w3.org/1999/xlink" x="0px" y="0px"
	 viewBox="0 0 60 60" style="enable-background:new 0 0 60 60;" xml:space="preserve">
<style type="text/css">
	.st0{fill-rule:evenodd;clip-rule:evenodd;fill:#1EAA81;}
	.st1{fill:#1EAA81;}
</style>
<g>
	<g id="Layer_2_3_">
		<g id="Слой_1_2_">
			<path class="st1" d="M44.9,38.7V28.1c0-4.2-3.4-7.5-7.5-7.5c0,0,0,0,0,0H24l-2-5.5c-0.1-0.4-0.4-0.7-0.7-1
				c-0.3-0.2-0.7-0.4-1.1-0.4h-6.9c-0.5,0-0.9,0.4-0.9,0.9c0,0,0,0,0,0v0.8c0,0.2,0.1,0.5,0.3,0.6c0.2,0.2,0.4,0.3,0.6,0.3h5.4
				c0.3,0,0.6,0.1,0.9,0.3c0.3,0.2,0.5,0.4,0.6,0.8l2.6,6.9c-5.9,2.4-8.8,9.1-6.4,15s9.1,8.8,15,6.4c4.1-1.7,6.9-5.6,7.2-10h3.9v3
				c-2.1,0.7-3.1,3-2.4,5c0.7,2.1,3,3.1,5,2.4c2.1-0.7,3.1-3,2.4-5C47,40,46.1,39.1,44.9,38.7L44.9,38.7z M23.5,25.5l0.3-0.1
				c0.1,0,0.2-0.1,0.3-0.1c0.1,0,0.2-0.1,0.3-0.1c0.2-0.1,0.5-0.1,0.7-0.2c0.1,0,0.2,0,0.2,0s0.2,0,0.3,0c0.2,0,0.4-0.1,0.7-0.1
				c0.1,0,0.2,0,0.3,0c0.1,0,0.3,0,0.4,0c1.6,0,3.2,0.4,4.7,1.1l-1.5,2.2l-2.1,3.2l0,0l-0.5,0.8c-0.2,0-0.4-0.1-0.5-0.1
				c-0.3,0-0.6,0-0.8,0.1l-0.7-1L25,30.5l0,0l-1.8-4.9L23.5,25.5z M29.1,32.9l2.3-4.7l0.9-1.9c2.9,1.8,4.8,4.9,4.9,8.4l-7.4-0.5
				C29.7,33.7,29.4,33.3,29.1,32.9z M21.5,26.5l3.3,6.7c-0.3,0.3-0.5,0.7-0.6,1.1l-7.4,0.5C17,31.3,18.7,28.3,21.5,26.5z M16.9,35.3
				l7.4,0.5c0.1,0.5,0.4,0.9,0.7,1.2l-3.3,6.6C18.8,41.9,17,38.8,16.9,35.3z M27,45.2c-1.7,0-3.3-0.4-4.7-1.2l4.1-6.1
				c0.2,0,0.4,0.1,0.6,0.1c0.2,0,0.5,0,0.7-0.1l4.1,6.1C30.4,44.8,28.7,45.2,27,45.2z M37.1,36.3c0,0.1,0,0.2,0,0.3c0,0,0,0.1,0,0.1
				c0,0.1,0,0.1,0,0.2c0,0.1,0,0.1,0,0.1c0,0,0,0.1,0,0.2l0,0.1c0,0.1,0,0.2-0.1,0.3c0,0,0,0.1,0,0.1l0,0.1c0,0,0,0.1,0,0.1
				c0,0.1-0.1,0.3-0.1,0.4s-0.1,0.3-0.1,0.4c0,0.1-0.1,0.2-0.1,0.2c0,0,0,0,0,0c0,0.1-0.1,0.2-0.1,0.3c0,0,0,0.1-0.1,0.1
				c0,0,0,0.1-0.1,0.1c0,0,0,0,0,0c0,0.1-0.1,0.1-0.1,0.2L36,39.9c0,0.1-0.1,0.1-0.1,0.2c0,0.1-0.1,0.1-0.1,0.2
				c-0.1,0.1-0.1,0.2-0.2,0.4c-0.1,0.1-0.1,0.2-0.2,0.3l-0.1,0.1l0,0c0,0.1-0.1,0.1-0.1,0.2c0,0,0,0,0,0c-0.1,0.1-0.2,0.3-0.3,0.4
				c-0.1,0.1-0.1,0.1-0.2,0.2c-0.1,0.2-0.3,0.3-0.5,0.5c-0.1,0.1-0.1,0.1-0.2,0.2c-0.1,0.1-0.2,0.2-0.3,0.2
				c-0.1,0.1-0.1,0.1-0.2,0.2c-0.1,0.1-0.2,0.1-0.2,0.2c-0.3,0.2-0.5,0.4-0.8,0.5L29.2,37c0.3-0.3,0.6-0.7,0.7-1.2l2-0.1h5.3
				C37.2,35.9,37.2,36.1,37.1,36.3z M36.3,28.2c-2.6-3.5-6.8-5.2-11.1-4.5L25,23.1h12.1c2.8,0,5.1,2.2,5.3,5L36.3,28.2z M43.7,45.3
				c-1.5,0-2.8-1.2-2.8-2.8c0-1,0.6-2,1.5-2.5c0.8-0.4,1.7-0.4,2.5,0c1.4,0.7,1.9,2.4,1.3,3.7C45.7,44.7,44.8,45.3,43.7,45.3
				L43.7,45.3z"/>
			<path class="st1" d="M45,42.2c0,0,0-0.1,0-0.1l0-0.1c0-0.1,0-0.1-0.1-0.2c0,0,0,0,0,0c0-0.1-0.1-0.1-0.1-0.2c0,0,0-0.1-0.1-0.1
				c0,0,0,0,0,0l-0.1-0.1c-0.1-0.1-0.1-0.1-0.2-0.1c0,0-0.1,0-0.1-0.1c0,0-0.1,0-0.1,0l0,0c0,0-0.1,0-0.1,0c0,0-0.1,0-0.1,0
				c0,0-0.1,0-0.1,0c0,0-0.1,0-0.1,0c0,0-0.1,0-0.1,0c0,0-0.1,0-0.1,0l0,0l-0.1,0c-0.1,0-0.2,0.1-0.2,0.1c0,0-0.1,0-0.1,0.1
				l-0.1,0.1c0,0,0,0.1-0.1,0.1c0,0,0,0,0,0.1c0,0,0,0,0,0.1c0,0,0,0,0,0.1c0,0,0,0,0,0c0,0,0,0,0,0.1c0,0.1-0.1,0.1-0.1,0.2
				c0,0,0,0.1,0,0.1c0,0,0,0,0,0.1l0,0l0,0c0,0.1,0,0.2,0,0.2c0,0.7,0.6,1.3,1.3,1.2c0.7,0,1.2-0.6,1.2-1.2c0,0,0-0.1,0-0.1
				C45,42.3,45,42.2,45,42.2z"/>
		</g>
	</g>
</g>
</svg>
