<?xml version="1.0" encoding="utf-8"?>
<!-- Generator: Adobe Illustrator 23.0.3, SVG Export Plug-In . SVG Version: 6.00 Build 0)  -->
<svg version="1.1" id="Layer_1" xmlns="http://www.w3.org/2000/svg" xmlns:xlink="http://www.w3.org/1999/xlink" x="0px" y="0px"
	 viewBox="0 0 60 60" style="enable-background:new 0 0 60 60;" xml:space="preserve">
<style type="text/css">
	.st0{fill:#17B188;}
	.st1{fill:#234091;}
	.st2{fill:none;stroke:#17B188;stroke-width:2;stroke-miterlimit:10;}
</style>
<g>
	<g>
		<g>
			<circle class="st0" cx="40.85" cy="26.73" r="4.52"/>
			<g>
				<path class="st0" d="M14.33,27.52c0.15,0.45-0.09,0.93-0.54,1.08c-0.45,0.15-0.93-0.09-1.08-0.54s0.09-0.93,0.54-1.08
					C13.7,26.83,14.18,27.07,14.33,27.52z"/>
				<path class="st0" d="M15.08,24.96c0.13,0.38-0.08,0.8-0.46,0.92c-0.38,0.13-0.8-0.08-0.92-0.46c-0.13-0.38,0.08-0.8,0.46-0.92
					C14.54,24.37,14.95,24.58,15.08,24.96z"/>
				<path class="st0" d="M14.21,30.15c0.13,0.38-0.08,0.8-0.46,0.92c-0.38,0.13-0.8-0.08-0.92-0.46s0.08-0.8,0.46-0.92
					C13.67,29.56,14.08,29.77,14.21,30.15z"/>
				<path class="st0" d="M16.24,22.4c0.11,0.33-0.07,0.68-0.39,0.79c-0.33,0.11-0.68-0.07-0.79-0.39c-0.11-0.33,0.07-0.68,0.39-0.79
					C15.78,21.89,16.13,22.07,16.24,22.4z"/>
				<path class="st0" d="M14.11,32.79c0.11,0.33-0.07,0.68-0.39,0.79c-0.33,0.11-0.68-0.07-0.79-0.39
					c-0.11-0.33,0.07-0.68,0.39-0.79C13.65,32.28,14,32.46,14.11,32.79z"/>
				<path class="st0" d="M17.44,20.42c0,0.24-0.19,0.43-0.43,0.43s-0.43-0.19-0.43-0.43S16.78,20,17.01,20S17.44,20.19,17.44,20.42z
					"/>
				<path class="st0" d="M13.95,35.15c0,0.24-0.19,0.43-0.43,0.43c-0.24,0-0.43-0.19-0.43-0.43s0.19-0.43,0.43-0.43
					C13.75,34.72,13.95,34.92,13.95,35.15z"/>
			</g>
			<path class="st1" d="M52.02,38.99c-0.19,0.03-0.75,0.52-1.52,0.61c-0.77,0.08-3.9,0.72-4.64,0.83c-0.75,0.11-2.93,0.22-5.69,0.19
				c-2.76-0.03-6.24-0.99-8.01-1.69c-1.77-0.69-3.09-0.47-4.64-0.69c-1.55-0.22-6.19-1.57-6.19-1.57s-0.7-0.02-1.37,0.14l1.31-0.49
				c-0.12-0.78-0.4-2.66-0.25-3.36c0.19-0.88,1.33-2.6,1.57-3.29c0.18-0.49-0.05-1.63-0.2-2.24c-1.09-0.31-2.44-1.03-2.44-1.03
				c0.66,0.21,2.33,0.62,2.33,0.62l5.33,1.02c0,0,1.55,0.5,2.62,0.69c1.08,0.19,5.66,0.14,6.63,0.19c0.97,0.06,3.98,0.41,4.61,0.41
				c0.64,0,1.69-0.03,1.69-0.28c0-0.25-1.22-0.36-1.22-0.36c0.19-0.03,0.55-0.17,1.24-0.3c0.69-0.14,0.41-0.72,0.41-0.72
				c0.52-0.06,0.58-0.72,0.22-0.64c-0.36,0.08-2.49,0-2.49,0s1.08-0.3,1.57-0.44c0.5-0.14,0.64-0.69,0-0.52
				c-0.64,0.17-3.81,0.33-3.81,0.33s0.61-0.55,1.13-0.66c0.52-0.11,0.8-0.72,0.5-0.66c-0.3,0.06-0.97,0.03-1.74,0.28
				c-0.77,0.25-1.35,0.8-2.04,1.44c-0.64,0.14-2.76-0.64-4.12-0.97c-1.35-0.33-3.92-0.55-4.86-0.64c-0.94-0.08-2.46-0.91-3.59-1.52
				c-1.13-0.61-2.43-1.16-2.43-1.16s-1.09-0.37-2,0c0,0,0.87-0.56,2.19-0.4l0.78-1.7c0,0,1.6,0.75,2.04,0.83
				c0.44,0.08,1.19-2.27,1.19-2.27l0.52,0.17c0,0,0.22-0.41,0.39-3.07c0.17-2.65-2.6-4.06-4.39-2.96c-2.52,1.54-1.82,4.59-1.82,4.59
				c-0.28,1.38-1.96,2.18-3.01,3.43c-0.92,1.09-2.24,3.7-2.74,5.58c-0.5,1.88-0.58,6.82-0.58,7.87c0,1.05-0.8,2.13-0.99,4.64
				c-0.19,2.51,1.52,4.53,3.01,4.61c1.49,0.08,8.23-0.97,9.26-1.05c1.02-0.08,4.12,0.03,4.12,0.03s1.52,0.44,4.34,0.63
				c2.82,0.19,6.66-0.27,7.21-0.41c0.55-0.14,2.57-0.19,3.87,0.25c1.3,0.44,2.29-0.17,2.46-0.36c0.17-0.19,1.33-1.41,2.32-1.71
				c0.99-0.3,1.6-0.94,1.6-0.94s0.61-0.28,0.75-0.66C52.6,39.24,52.21,38.96,52.02,38.99z"/>
		</g>
	</g>
</g>
<g>
	<path class="st1" d="M52.99,42.98c-3.52,0.15-7.04,0.21-10.56,0.26c-3.52,0.05-7.04,0.04-10.56,0.06
		c-3.52-0.04-7.04-0.04-10.56-0.11c-3.52-0.07-7.04-0.15-10.56-0.31c3.52-0.15,7.04-0.21,10.56-0.26c3.52-0.05,7.04-0.04,10.56-0.06
		c3.52,0.04,7.04,0.04,10.56,0.11C45.95,42.73,49.47,42.81,52.99,42.98z"/>
</g>
<circle class="st2" cx="31.24" cy="29.58" r="25.76"/>
</svg>
