<?xml version="1.0" encoding="utf-8"?>
<!-- Generator: Adobe Illustrator 24.0.0, SVG Export Plug-In . SVG Version: 6.00 Build 0)  -->
<svg version="1.1" id="Layer_1" xmlns="http://www.w3.org/2000/svg" xmlns:xlink="http://www.w3.org/1999/xlink" x="0px" y="0px"
	 viewBox="0 0 60 60" style="enable-background:new 0 0 60 60;" xml:space="preserve">
<style type="text/css">
	.st0{fill-rule:evenodd;clip-rule:evenodd;fill:#1EAA81;}
	.st1{fill:#1EAA81;}
</style>
<g id="Layer_2_1_">
	<g id="Слой_1">
		<path class="st0" d="M20.8,20.3c0.5,3.2,2.7,5.5,4.9,5.2s3.5-3.3,2.9-6.5c-0.5-3.2-2.7-5.5-4.9-5.2S20.3,17.1,20.8,20.3z
			 M26.9,28.5c-3.7,2-7.4,6.5-8.3,10c-0.9,3.6-0.2,7.5,4.3,7.6c2.4,0.1,5.5-1.3,7.2-1.3c1.6,0,4.8,1.4,7.2,1.3
			c4.5-0.1,5.2-4,4.3-7.6c-0.9-3.5-4.6-8-8.3-10C30.7,27.2,29.3,27.2,26.9,28.5z M46.6,28.7c-0.9,2.9-3.3,4.7-5.2,4.1
			s-2.7-3.5-1.8-6.4c1-2.9,3.3-4.7,5.2-4.1C46.7,22.9,47.5,25.8,46.6,28.7L46.6,28.7z M13.4,28.7c0.9,2.9,3.3,4.7,5.2,4.1
			s2.7-3.5,1.8-6.4s-3.3-4.7-5.2-4.1C13.3,22.9,12.5,25.8,13.4,28.7L13.4,28.7z M29,42.3h2c0.6,0,1-0.5,1-1v-2.1h2.1
			c0.6,0,1-0.5,1-1v-2c0-0.6-0.5-1-1-1H32v-2.1c0-0.6-0.5-1-1-1h-2c-0.6,0-1,0.5-1,1v2.1h-2.1c-0.6,0-1,0.5-1,1v2c0,0.6,0.5,1,1,1
			H28v2.1C28,41.8,28.5,42.3,29,42.3L29,42.3z M39.2,20.3c-0.5,3.2-2.7,5.5-4.9,5.2s-3.5-3.3-2.9-6.5s2.7-5.5,4.9-5.2
			C38.4,14.2,39.7,17.1,39.2,20.3L39.2,20.3z"/>
	</g>
</g>
</svg>
