<?xml version="1.0" encoding="UTF-8"?>
<svg width="71px" height="77px" viewBox="0 0 71 77" version="1.1" xmlns="http://www.w3.org/2000/svg" xmlns:xlink="http://www.w3.org/1999/xlink">
    <!-- Generator: Sketch 52.4 (67378) - http://www.bohemiancoding.com/sketch -->
    <title>brain</title>
    <desc>Created with Sketch.</desc>
    <defs>
        <polygon id="path-1" points="0 0.0359593909 70.9726313 0.0359593909 70.9726313 76.9765482 0 76.9765482"></polygon>
    </defs>
    <g id="Page-1" stroke="none" stroke-width="1" fill="none" fill-rule="evenodd">
        <g id="About-us" transform="translate(-1135.000000, -1974.000000)">
            <g id="Group-4" transform="translate(1035.000000, 1950.000000)">
                <g id="brain" transform="translate(100.000000, 24.000000)">
                    <g id="Group-3">
                        <mask id="mask-2" fill="white">
                            <use xlink:href="#path-1"></use>
                        </mask>
                        <g id="Clip-2"></g>
                        <path d="M20.4253911,6.26748731 C19.1596872,6.26748731 16.7246648,6.80062437 15.2094693,10.5321929 C15.0040056,11.0383604 14.5062123,11.3705939 13.9524916,11.3705939 C13.8354804,11.3721574 10.8499106,11.4401675 8.38315642,14.0843553 C5.81763687,16.8348579 4.74073743,21.3129746 5.1822067,27.3959746 C5.20322905,27.6906853 5.12429609,27.9850051 4.95810056,28.2308579 C4.68163687,28.6424365 -1.72224581,38.4460609 8.378,45.0813503 C8.85397765,45.3940406 9.07927374,45.9678274 8.94044693,46.5146447 C8.85120112,46.8750203 6.81837989,55.4407817 14.4851899,58.6790812 C15.1333128,58.9522944 15.4585642,59.6687462 15.236838,60.3273503 C15.2285084,60.3519746 14.3051117,63.2115279 15.5529665,65.2381523 C16.2225084,66.325533 17.4612402,67.0251777 19.2346536,67.3167614 C19.630905,67.3816447 19.9779721,67.6177259 20.1810559,67.9593401 C21.2460559,69.7502741 24.7964525,74.3878629 28.3032179,74.3323604 C30.4106089,74.3003096 32.4184413,72.5875482 34.2703911,69.2405888 C34.5079832,68.8118122 34.9637318,68.5456345 35.4591453,68.5456345 C35.9545587,68.5456345 36.4618715,68.812203 36.6994637,69.2405888 C38.5522067,72.5875482 40.5600391,74.3003096 42.6666369,74.3323604 C42.6868659,74.3323604 42.707095,74.3323604 42.7269274,74.3323604 C46.2293296,74.3323604 49.7297486,69.7397208 50.7884022,67.9593401 C50.991486,67.6177259 51.3381564,67.3816447 51.7348045,67.3167614 C53.5137709,67.0247868 54.755676,66.3216244 55.4236313,65.227599 C56.6556201,63.2115279 55.7433296,60.3558832 55.7338101,60.3273503 C55.5108939,59.6687462 55.8373352,58.9522944 56.4850615,58.6790812 C64.1927263,55.4243655 62.1226201,46.8777563 62.0305978,46.5146447 C61.8917709,45.9678274 62.1174637,45.3940406 62.5930447,45.0813503 C66.8530447,42.2827716 68.7291899,38.6219492 68.1683296,34.2012893 C67.7387598,30.8132893 66.0307933,28.256264 66.0129441,28.2308579 C65.846352,27.9850051 65.7682123,27.6906853 65.788838,27.3959746 C66.229514,21.3133655 65.1526145,16.8348579 62.5878883,14.0843553 C60.1211341,11.4401675 57.1355642,11.3729391 57.0098268,11.3705939 C56.4628492,11.3639492 55.9646592,11.0324975 55.7615754,10.5321929 C53.7585028,5.59793909 50.147419,6.25615228 49.7432346,6.34761421 C49.2870894,6.44923858 48.7996089,6.31829949 48.4707877,5.99349239 C45.6815587,3.24533503 42.8149832,2.21111168 39.9511844,2.91622843 C37.8441899,3.43529442 36.4821006,4.73413198 36.4686145,4.74742132 C36.2147598,4.9975736 35.8700726,5.13828426 35.5111061,5.13828426 L35.4599385,5.13828426 C35.1009721,5.13828426 34.7562849,4.9975736 34.5024302,4.74742132 C34.4933073,4.73804061 33.0832235,3.39386294 30.9175251,2.89238579 C28.0870447,2.23729949 25.2553743,3.27973096 22.500257,5.99427411 C22.1638994,6.32572589 21.676419,6.45861929 21.2147207,6.34487817 C21.1199218,6.32298985 20.8331453,6.26748731 20.4253911,6.26748731 Z M28.2437207,77 C23.2939497,77 19.3274693,71.5802944 18.1767933,69.830401 C15.897257,69.3347868 14.2341117,68.2509239 13.227419,66.602264 C11.9474358,64.5072386 12.1207709,62.0557462 12.382162,60.6419949 C6.08497765,57.3532741 5.45272067,50.6652183 6.12107263,46.7804315 C0.357379888,42.6243858 -0.344687151,37.5021269 0.115821229,33.8698376 C0.522782123,30.6643706 1.88130168,28.1108629 2.45207821,27.1544213 C2.0391676,20.4851269 3.37983799,15.4633198 6.44196089,12.2234569 C8.82819553,9.69770051 11.615838,8.98320305 13.0310782,8.78190863 C15.1892402,4.28463959 18.857838,3.41379695 21.0909665,3.62603553 C25.2676704,-0.208329949 29.1310223,-0.299791878 31.6771061,0.327543147 C33.3557207,0.741076142 34.6710056,1.51537563 35.4861173,2.10049746 C36.3020223,1.51615736 37.616514,0.741076142 39.2955251,0.327543147 C41.8412123,-0.298228426 45.7045642,-0.206766497 49.8812682,3.62603553 C52.1120168,3.41457868 55.7822011,4.28424873 57.9411564,8.78190863 C59.3567933,8.98320305 62.1444358,9.69770051 64.5306704,12.2234569 C67.5916034,15.4633198 68.9334637,20.4851269 68.5205531,27.1544213 C69.0913296,28.1116447 70.4506425,30.6643706 70.8568101,33.8698376 C71.3177151,37.5025178 70.6148547,42.6243858 64.8515587,46.7804315 C65.519514,50.6652183 64.887257,57.3532741 58.589676,60.6419949 C58.851067,62.0549645 59.0247989,64.5072386 57.7440223,66.602264 C56.7377263,68.250533 55.0741844,69.3347868 52.7950447,69.830401 C51.6368324,71.5916294 47.6191844,77.0715279 42.6325251,76.9992183 C39.979743,76.9620863 37.5820056,75.4158325 35.4857207,72.3987614 C33.3898324,75.4166142 30.992095,76.9620863 28.3385196,76.9992183 C28.3071844,77 28.2746592,77 28.2437207,77 Z" id="Fill-1" fill="#386874" mask="url(#mask-2)"></path>
                    </g>
                    <path d="M49.3144581,20 C49.3117622,20 49.3086811,20 49.3052149,20 C48.583091,19.9950587 48,19.3716353 48,18.5991503 C48,18.2899092 48.0939724,10.9854784 56.2691855,8.07218865 C56.9562624,7.82759584 57.7022645,8.22454444 57.9321888,8.96079351 C58.1617279,9.69745435 57.7896897,10.4929986 57.1006872,10.7388268 C50.7744964,12.9932807 50.6323824,18.3809109 50.6289162,18.6090328 C50.6192879,19.3774001 50.0327307,20 49.3144581,20" id="Fill-4" fill="#71D6D7"></path>
                    <path d="M57.2934332,50 C56.631021,50 55.9798427,49.9132152 55.3410604,49.7392825 C51.0578489,48.5715003 49.1608708,43.8691435 49.0822336,43.6694295 C48.8292773,43.0274398 49.1794648,42.3142792 49.8643448,42.0775274 C50.5469005,41.8396862 51.3077061,42.1675802 51.5614371,42.8081175 C51.5761574,42.8458816 53.0880842,46.5511209 56.0890826,47.3612334 C57.7733915,47.8162182 59.7218905,47.2675494 61.8764733,45.7290254 C62.4583114,45.3136203 63.2865203,45.4189241 63.729678,45.9632355 C64.1716735,46.5071838 64.0601093,47.2857052 63.4794334,47.7003841 C61.3384087,49.2309196 59.2647873,50 57.2934332,50" id="Fill-5" fill="#71D6D7"></path>
                    <path d="M44.4260893,59 C44.3115809,59 44.1949829,58.9873855 44.0796387,58.9621565 C43.3186175,58.7929739 42.8543152,58.1103072 43.039869,57.4343188 C43.0887649,57.2462145 44.0495489,53.2733913 39.4178094,49.1614377 C38.8607302,48.6668754 38.8607302,47.865113 39.4178094,47.3709217 C39.9740528,46.8763594 40.8784184,46.8763594 41.4350797,47.3709217 C47.2708291,52.5517681 45.8720713,57.8186899 45.8093842,58.0401855 C45.6472336,58.615629 45.0654975,59 44.4260893,59" id="Fill-6" fill="#71D6D7"></path>
                    <path d="M57.348963,37 C54.6925347,37 51.4708097,36.1951013 49.1614798,32.990082 C47.1910949,30.2551268 46.3330553,27.8825381 45.7060264,26.1500624 C44.979993,24.1422692 44.7711127,23.80622 44.2162989,23.759254 C43.4867712,23.6964979 42.9443815,23.028853 43.0045607,22.2688958 C43.0643517,21.5081288 43.7107933,20.9412988 44.4337207,21.0048647 C46.7504275,21.204065 47.447342,23.1333117 48.1861878,25.1751146 C48.7883685,26.8395707 49.5373089,28.9113347 51.2805657,31.3304845 C54.6366262,35.9886132 60.9554469,33.6848537 61.2237298,33.5844438 C61.910938,33.326941 62.6711377,33.6970001 62.920008,34.4128255 C63.1692665,35.1294607 62.8167327,35.9205936 62.130301,36.1821452 C61.9621874,36.2449013 59.9203639,37 57.348963,37" id="Fill-7" fill="#71D6D7"></path>
                    <path d="M35.4997803,71 C34.671891,71 34,70.4001296 34,69.6609826 L34,3.33901736 C34,2.59987036 34.671891,2 35.4997803,2 C36.328109,2 37,2.59987036 37,3.33901736 L37,69.6617673 C37,70.4009143 36.328109,71 35.4997803,71" id="Fill-8" fill="#71D6D7"></path>
                    <path d="M39.5149381,30 C39.1858863,30 38.8555023,29.9076238 38.577518,29.7163007 C37.9194143,29.2652421 37.8075101,28.4361754 38.3257334,27.8633656 C43.0519119,22.6470094 42.9693159,14.4212763 42.9675397,14.3389494 C42.9555499,13.6103757 43.623867,13.0108967 44.4613727,13.0004609 C45.323746,12.9811353 45.9871784,13.572111 45.9991681,14.3006848 C46.005385,14.6759873 46.0906454,23.5541514 40.7054751,29.4975353 C40.4066197,29.8280025 39.9625552,30 39.5149381,30" id="Fill-9" fill="#71D6D7"></path>
                    <path d="M40.3147322,65 C40.1764734,65 40.035904,64.9780465 39.8980303,64.9314435 C39.2098176,64.7007395 38.8385601,63.9581729 39.0677076,63.2699122 C39.1801632,62.9317517 41.8906508,55 47.685194,55 C48.4107636,55 49,55.5888923 49,56.3145124 C49,57.0405176 48.4107636,57.62941 47.685194,57.62941 C44.4474747,57.62941 42.1667831,62.3020336 41.5613716,64.1026036 C41.3768982,64.6525959 40.8639159,65 40.3147322,65" id="Fill-10" fill="#71D6D7"></path>
                    <path d="M45.3625974,10 C45.0788719,10 44.7939476,9.91402413 44.5497838,9.73461331 C43.9455684,9.2921713 43.8200898,8.45282701 44.2696549,7.86002538 L47.5416892,3.54042517 C47.9920534,2.9460532 48.8472261,2.82356704 49.449843,3.2648313 C50.0544581,3.70727331 50.1799367,4.5466176 49.7303716,5.13941923 L46.4579377,9.45901944 C46.1905963,9.81352267 45.7793942,10 45.3625974,10" id="Fill-11" fill="#71D6D7"></path>
                    <path d="M22.5,13.7497986 C20.9833004,13.7497986 19.7497986,14.9833004 19.7497986,16.5 C19.7497986,18.0166996 20.9833004,19.2502014 22.5,19.2502014 C24.0166996,19.2502014 25.2502014,18.0166996 25.2502014,16.5 C25.2502014,14.9833004 24.0166996,13.7497986 22.5,13.7497986 Z M22.5,22 C19.4674064,22 17,19.5325936 17,16.5 C17,13.4674064 19.4674064,11 22.5,11 C25.5325936,11 28,13.4674064 28,16.5 C28,19.5325936 25.5325936,22 22.5,22 Z" id="Fill-12" fill="#71D6D7"></path>
                    <path d="M12.5002014,31.7501007 C10.9835573,31.7501007 9.75010071,32.9831545 9.75010071,34.4997986 C9.75010071,36.0164427 10.9835573,37.2498993 12.5002014,37.2498993 C14.0164427,37.2498993 15.2498993,36.0164427 15.2498993,34.4997986 C15.2498993,32.9831545 14.0164427,31.7501007 12.5002014,31.7501007 Z M12.5002014,40 C9.46731607,40 7,37.5322811 7,34.4997986 C7,31.4673161 9.46731607,29 12.5002014,29 C15.5326839,29 18,31.4673161 18,34.4997986 C18,37.5322811 15.5326839,40 12.5002014,40 Z" id="Fill-13" fill="#71D6D7"></path>
                    <path d="M26.5,43.7501007 C24.9833004,43.7501007 23.7497986,44.9831545 23.7497986,46.4997986 C23.7497986,48.0164427 24.9833004,49.2498993 26.5,49.2498993 C28.0166996,49.2498993 29.2502014,48.0164427 29.2502014,46.4997986 C29.2502014,44.9831545 28.0166996,43.7501007 26.5,43.7501007 Z M26.5,52 C23.4674064,52 21,49.5322811 21,46.4997986 C21,43.4673161 23.4674064,41 26.5,41 C29.5325936,41 32,43.4673161 32,46.4997986 C32,49.5322811 29.5325936,52 26.5,52 Z" id="Fill-14" fill="#71D6D7"></path>
                    <path d="M26.5,58.7497986 C24.9833004,58.7497986 23.7497986,59.9833004 23.7497986,61.5 C23.7497986,63.0166996 24.9833004,64.2502014 26.5,64.2502014 C28.0166996,64.2502014 29.2502014,63.0166996 29.2502014,61.5 C29.2502014,59.9833004 28.0166996,58.7497986 26.5,58.7497986 Z M26.5,67 C23.4674064,67 21,64.5325936 21,61.5 C21,58.4674064 23.4674064,56 26.5,56 C29.5325936,56 32,58.4674064 32,61.5 C32,64.5325936 29.5325936,67 26.5,67 Z" id="Fill-15" fill="#71D6D7"></path>
                    <path d="M22.5,36 C21.6719895,36 21,35.4023438 21,34.6664063 L21,21.3332031 C21,20.5972656 21.6719895,20 22.5,20 C23.3280105,20 24,20.5972656 24,21.3332031 L24,34.6664063 C24,35.403125 23.3288895,36 22.5,36" id="Fill-16" fill="#71D6D7"></path>
                    <path d="M26.5556966,35 L16.4447266,35 C15.6470378,35 15,34.5517797 15,33.9998535 C15,33.4479273 15.6470378,33 16.4447266,33 L26.5556966,33 C27.3529622,33 28,33.4479273 28,33.9998535 C28,34.5517797 27.3538086,35 26.5556966,35" id="Fill-17" fill="#71D6D7"></path>
                    <path d="M26.5,44 C25.6719895,44 25,43.3840773 25,42.6247482 L25,34.3748489 C25,33.6159227 25.6719895,33 26.5,33 C27.3280105,33 28,33.6159227 28,34.3748489 L28,42.6247482 C28,43.3844802 27.3288895,44 26.5,44" id="Fill-18" fill="#71D6D7"></path>
                    <path d="M26.5,59 C25.6719895,59 25,58.4240573 25,57.7143933 L25,51.2856067 C25,50.5759427 25.6719895,50 26.5,50 C27.3280105,50 28,50.5759427 28,51.2856067 L28,57.7143933 C28,58.4248106 27.3288895,59 26.5,59" id="Fill-19" fill="#71D6D7"></path>
                </g>
            </g>
        </g>
    </g>
</svg>