<svg id="Layer_1" data-name="Layer 1" xmlns="http://www.w3.org/2000/svg" viewBox="0 0 1200 1200"><defs><style>.cls-1{fill:#fff;}</style></defs><title>Download </title><path class="cls-1" d="M830.25,433.31c-24.39-27.49-48.71-55.07-72.56-83-8.24-9.63-17.76-13.8-30.3-13.77-85.68.2-171.36.09-257,.13-23.28,0-33.12,9.89-33.12,33q0,115.38,0,230.78,0,25,0,50v0a88.56,88.56,0,0,0,0,175.49v6.94c0,20.09,10.34,30.64,30.09,30.64q171,.06,341.9,0c19.61,0,30-10.25,30-29.66q.1-188.36.11-376.7A34.06,34.06,0,0,0,830.25,433.31Zm-96.52-69.48c26.22,29.93,51,58.19,76.83,87.69H733.73ZM376.49,738.14a72.84,72.84,0,0,1,60.73-71.74,72.09,72.09,0,0,1,12-1,72.73,72.73,0,1,1-72.74,72.74Zm436.38,89.92c0,2.49-.29,5-.47,8.17H463.78V825.5a88.57,88.57,0,0,0,0-174.74q0-138.76-.18-277.52c0-8.24,2.38-10.32,10.43-10.3,74.08.3,148.15.19,222.21.19h10.5c0,26.31,0,51.15,0,76,0,3.69-.07,7.36,0,11,.31,17.27,10.86,28.17,28,28.38,22.9.27,45.8.38,68.69-.09,7.47-.14,9.6,2.05,9.57,9.52Q812.72,658,812.87,828.06Z"/><path class="cls-1" d="M512.71,657.48V631.59H759.82v25.89Z"/><path class="cls-1" d="M759.93,512.25v26h-247v-26Z"/><path class="cls-1" d="M759.91,571.94v25.82h-247V571.94Z"/><path class="cls-1" d="M442.92,732.86v-9.09q0-20.06,0-40.11a6.94,6.94,0,0,1,9.66-6.62,6.61,6.61,0,0,1,4.23,5.73,17.63,17.63,0,0,1,.05,1.78v48.31c.49-.42.81-.68,1.11-1,4.36-4.11,8.7-8.24,13.07-12.33A6.7,6.7,0,0,1,478.2,718a6.63,6.63,0,0,1,4.61,5.56,6.82,6.82,0,0,1-2.34,6.3L458.05,751c-1.09,1-2.18,2.08-3.29,3.1a6.9,6.9,0,0,1-9.77,0q-12.92-12.15-25.8-24.34a7,7,0,1,1,9.5-10.17c4.42,4.11,8.78,8.27,13.17,12.41C442.14,732.2,442.44,732.44,442.92,732.86Z"/><path class="cls-1" d="M415.63,769.43h68.53v-1.34c0-3.3,0-6.59,0-9.88a7,7,0,1,1,14,0q.06,9.17,0,18.33a7,7,0,0,1-6.74,7H409.13c-3.64,0-6.36-2-7.21-5.21a7.87,7.87,0,0,1-.23-2q0-8.92,0-17.85a7,7,0,1,1,13.94-.09c0,3.25,0,6.51,0,9.76Z"/></svg>