<?xml version="1.0" encoding="utf-8"?>
<!-- Generator: Adobe Illustrator 19.0.0, SVG Export Plug-In . SVG Version: 6.00 Build 0)  -->
<svg version="1.1" id="Layer_1" xmlns="http://www.w3.org/2000/svg" xmlns:xlink="http://www.w3.org/1999/xlink" x="0px" y="0px"
	 viewBox="126 -126 512 512" style="enable-background:new 126 -126 512 512;" xml:space="preserve">
<style type="text/css">
	.st0{fill:#FF4181;}
	.st1{fill:#AD396B;}
	.st2{fill:#174461;}
	.st3{fill:#FFF5D9;}
	.st4{fill:#45A2E0;}
	.st5{fill:#4EB9FF;}
	.st6{fill:#FFCE47;}
	.st7{fill:#FFD86C;}
	.st8{fill:#FFE290;}
</style>
<circle class="st0" cx="382" cy="130" r="256"/>
<path class="st1" d="M638,132.4L496.6-9v19.5L481.7,17L455.8-9L269.5,60L243,106.4l12,10v1L243,269l116,116c7.6,0.7,15.3,1,23,1
	C522.6,386,636.7,272.7,638,132.4z"/>
<polygon class="st2" points="496.6,18.4 507.7,10.5 496.6,-9 485.4,10.5 "/>
<polygon class="st3" points="496.6,42.9 521,33.8 507.7,10.5 485.4,10.5 472.1,33.8 "/>
<polygon class="st4" points="521,33.8 496.6,33.8 481.9,50 481.9,225 521,208.7 "/>
<polygon class="st5" points="472.1,33.8 472.1,208.7 496.6,225 496.6,33.8 "/>
<rect x="472.1" y="208.7" class="st2" width="48.9" height="60.3"/>
<g>
	<polygon class="st6" points="398.6,98.2 423.1,73.5 455.8,106.4 455.8,-9 349.4,-9 325,44.6 349.4,98.2 374,73.5 	"/>
	<polygon class="st6" points="390.7,269 407,220.1 455.8,203.8 455.8,129.4 423.1,96.6 398.6,121.3 374,96.6 349.4,121.3 
		316.8,195.1 349.4,269 	"/>
</g>
<g>
	<polygon class="st7" points="243,-9 243,106.4 275.7,73.5 300.3,98.2 324.9,73.5 349.4,98.2 349.4,-9 	"/>
	<polygon class="st7" points="300.3,121.3 275.7,96.6 243,129.4 243,269 349.4,269 349.4,121.3 324.9,96.6 	"/>
</g>
<polygon class="st8" points="390.7,203.8 390.7,269 455.8,203.8 "/>
</svg>
