<?xml version="1.0" encoding="UTF-8"?>
<svg width="78px" height="77px" viewBox="0 0 78 77" version="1.1" xmlns="http://www.w3.org/2000/svg" xmlns:xlink="http://www.w3.org/1999/xlink">
    <!-- Generator: Sketch 52.4 (67378) - http://www.bohemiancoding.com/sketch -->
    <title>innovation</title>
    <desc>Created with Sketch.</desc>
    <defs>
        <polygon id="path-1" points="0 0 55.8423765 0 55.8423765 76.990375 0 76.990375"></polygon>
        <polygon id="path-3" points="0.01 0.126882353 8 0.126882353 8 2.95041176 0.01 2.95041176"></polygon>
    </defs>
    <g id="Page-1" stroke="none" stroke-width="1" fill="none" fill-rule="evenodd">
        <g id="About-us" transform="translate(-534.000000, -1976.000000)">
            <g id="Group-6" transform="translate(439.000000, 1950.000000)">
                <g id="innovation" transform="translate(95.000000, 26.000000)">
                    <g id="Group-3" transform="translate(11.000000, 0.000000)">
                        <mask id="mask-2" fill="white">
                            <use xlink:href="#path-1"></use>
                        </mask>
                        <g id="Clip-2"></g>
                        <path d="M52.0339943,35.8882563 C51.3331218,35.8882563 50.7648725,35.3136438 50.7648725,34.6049229 C50.7648725,33.8962021 51.3331218,33.3215896 52.0339943,33.3215896 C52.7348669,33.3215896 53.3031161,33.8962021 53.3031161,34.6049229 C53.3024816,35.3133229 52.7345496,35.8876146 52.0339943,35.8882563 Z M29.1898017,37.1715896 L38.0736544,37.1715896 L38.0736544,24.3382563 L29.1898017,24.3382563 L29.1898017,37.1715896 Z M35.5354108,10.2215896 C36.2362833,10.2215896 36.8045326,10.7962021 36.8045326,11.5049229 C36.8045326,12.2136438 36.2362833,12.7882563 35.5354108,12.7882563 C34.8345382,12.7882563 34.266289,12.2136438 34.266289,11.5049229 C34.2669235,10.7963625 34.8348555,10.2222313 35.5354108,10.2215896 Z M38.0736544,48.7215896 C38.7745269,48.7215896 39.3427762,49.2962021 39.3427762,50.0049229 C39.3427762,50.7136438 38.7745269,51.2882563 38.0736544,51.2882563 C37.3727819,51.2882563 36.8045326,50.7136438 36.8045326,50.0049229 C36.8051671,49.2965229 37.3730992,48.7222313 38.0736544,48.7215896 Z M38.3834788,66.7333333 C39.0229575,66.6738188 39.5889858,67.1496146 39.648,67.7960938 C39.6518074,67.8394063 39.6533938,67.8830396 39.6526006,67.9265125 C39.651966,68.6349125 39.0841926,69.2090438 38.3834788,69.2098458 L17.457881,69.2098458 C16.7441586,69.1976542 16.1752748,68.6026688 16.1871728,67.8809542 C16.1874901,67.8660354 16.187966,67.8511167 16.1887592,67.8361979 C16.2158867,67.1964563 16.7508215,66.7001271 17.3834788,66.7277188 C17.4082266,66.7288417 17.4331331,66.7306063 17.457881,66.7333333 L38.3834788,66.7333333 Z M38.7082153,74.4333333 L17.1331445,74.4333333 C16.4194221,74.4213021 15.8505382,73.8263167 15.8625949,73.1044417 C15.8627535,73.0895229 15.8632295,73.0747646 15.8640227,73.0598458 C15.8646572,72.3512854 16.4325892,71.7771542 17.1331445,71.7765125 L38.7082153,71.7765125 C39.4219377,71.7885438 39.9908215,72.3835292 39.9787649,73.1054042 C39.9786062,73.1203229 39.9781303,73.1350813 39.9773371,73.15 C39.9767025,73.8585604 39.4087705,74.4326917 38.7082153,74.4333333 Z M26.6515581,21.8740958 L26.6515581,39.63575 C21.8011331,38.9336062 18.431932,34.3882 19.1263003,29.4834604 C19.6848725,25.5383333 22.750119,22.4387625 26.6515581,21.8740958 Z M16.4985836,30.7549229 C16.5066742,36.6332313 20.8749915,41.5700542 26.6515581,42.2292063 L26.6515581,46.6424292 L26.4415184,45.6322854 C26.3355467,45.1207167 25.9332351,44.7251292 25.4246346,44.6322479 C24.672204,44.4938083 23.9326232,44.2921646 23.2135071,44.0294021 C23.0756487,43.9798333 22.9304929,43.9544875 22.784068,43.9541667 C22.4233201,43.9541667 22.0795467,44.1096104 21.8390482,44.3815167 L20.6455977,45.7275729 C19.9842266,45.393425 19.346017,45.0143604 18.7350935,44.5934271 L19.2858924,42.8976625 C19.4472295,42.4008521 19.2946176,41.8546333 18.8999207,41.5166354 C18.3146969,41.0156542 17.7713541,40.4665479 17.2756034,39.8749313 C16.9405552,39.4783813 16.402289,39.3250229 15.9117734,39.4864021 L14.2354221,40.0440104 C13.8189915,39.4260854 13.443966,38.7804083 13.1132011,38.1114708 L14.4456204,36.9046563 C14.8296884,36.55575 14.9670708,36.0064833 14.7932011,35.5148063 C14.5336657,34.7874771 14.334255,34.0396146 14.1970312,33.2790792 C14.1043853,32.7602917 13.7074674,32.3517104 13.1963286,32.2488833 L11.4220963,31.8903521 L11.4220963,29.6194938 L13.1963286,29.2611229 C13.7074674,29.1581354 14.1045439,28.7495542 14.1971898,28.2309271 C14.3344136,27.46975 14.5338244,26.7215667 14.7932011,25.9937563 C14.9675467,25.5019188 14.829847,24.9524917 14.4449858,24.6039063 L13.1138357,23.398375 C13.4449178,22.7297583 13.8196261,22.0840813 14.2354221,21.4658354 L15.9124079,22.0234438 C16.4029235,22.1846625 16.9410312,22.0313042 17.276238,21.6349146 C17.7730992,21.0429771 18.3167592,20.4925875 18.9016657,19.9895208 C19.2947762,19.6520042 19.4467535,19.10755 19.2858924,18.6121833 L18.735728,16.9164188 C19.3464929,16.4956458 19.9845439,16.1167417 20.6455977,15.7822729 L21.8390482,17.1283292 C22.1844079,17.5163771 22.7271161,17.6554583 23.2135071,17.4804438 C23.9326232,17.2175208 24.672204,17.0158771 25.4246346,16.8775979 C25.9330765,16.7851979 26.3353881,16.3900917 26.4415184,15.8788438 L26.6515581,14.8687 L26.6515581,19.2806396 C20.8749915,19.9397917 16.5066742,24.8766146 16.4985836,30.7549229 Z M12.1074221,53.1017667 C11.0538924,51.5827812 10.0593768,50.1489771 9.33121813,48.8455917 C5.2048272,41.4601687 2.53824363,32.5294521 2.53824363,26.0940167 C2.53824363,13.2958146 13.0302323,3.18699792 26.6515581,2.59425833 L26.6515581,11.559625 C26.3146062,11.5851312 25.9708329,11.6160917 25.6031048,11.66165 C25.064204,11.7279021 24.6268329,12.1334354 24.5148329,12.6705104 L24.1282266,14.5303812 C23.8096771,14.6067396 23.4919207,14.6932042 23.1751161,14.789775 L21.9102776,13.3635104 C21.548102,12.9536458 20.9676374,12.8230667 20.4676034,13.0389875 C19.0472975,13.6583562 17.7066289,14.4498521 16.4749462,15.3963104 C16.0415411,15.7269292 15.863864,16.2996167 16.0331331,16.8212917 L16.6156601,18.6158729 C16.375796,18.8439854 16.1422776,19.0809208 15.9160567,19.3228292 L14.1430935,18.7337792 C13.6273541,18.5648604 13.0622776,18.743725 12.7338924,19.1798979 C11.7968045,20.4255333 11.0132805,21.7818562 10.4007705,23.2191896 C10.1877167,23.7246625 10.3166912,24.3114667 10.7218584,24.6778583 L12.1328045,25.9562187 C12.0379377,26.2733625 11.9530652,26.5913083 11.878187,26.9100562 L9.90438527,27.3085312 C9.31107082,27.4282021 8.88385269,27.95485 8.88385269,28.5666792 L8.88385269,32.9431667 C8.88385269,33.5549958 9.31107082,34.0816437 9.90454391,34.2013146 L11.878187,34.59995 C11.9532238,34.9182167 12.0380963,35.2361625 12.1328045,35.5536271 L10.7212238,36.8319875 C10.3166912,37.1987 10.1877167,37.7850229 10.4002946,38.2908167 C11.0128045,39.7279896 11.7963286,41.0843125 12.7334164,42.3299479 C13.0614844,42.7666021 13.6267195,42.9456271 14.1424589,42.7762271 L15.9154221,42.1871771 C16.1422776,42.428925 16.3753201,42.6658604 16.6151841,42.8939729 L16.0326572,44.6861479 C15.8633881,45.2076625 16.0407479,45.7801896 16.4738357,46.1111292 C17.7053598,47.0587104 19.0465042,47.8513292 20.467762,48.4708583 C20.967796,48.6854958 21.5474674,48.5550771 21.9104363,48.1463354 L23.1751161,46.7200708 C23.491762,46.8166417 23.8095184,46.9031062 24.1282266,46.979625 L24.5143569,48.8380521 C24.6257224,49.3756083 25.0632521,49.7817833 25.6024703,49.8481958 C25.9706742,49.8937542 26.3146062,49.9247146 26.6515581,49.9502208 L26.6515581,64.1666667 L17.6582436,64.1666667 C17.1396487,60.3846833 14.4903569,56.53725 12.1074221,53.1017667 Z M45.6883853,16.6382563 C46.3892578,16.6382563 46.9575071,17.2128688 46.9575071,17.9215896 C46.9575071,18.6303104 46.3892578,19.2049229 45.6883853,19.2049229 C44.9875127,19.2049229 44.4192635,18.6303104 44.4192635,17.9215896 C44.419898,17.2131896 44.98783,16.6388979 45.6883853,16.6382563 Z M52.0339943,30.7549229 C50.4258584,30.7598958 48.9947649,31.7878458 48.4604646,33.3215896 L40.611898,33.3215896 L40.611898,28.1882562 L45.6883853,28.1882562 C46.3890992,28.1884167 46.9573484,27.614125 46.9575071,26.9055646 C46.9575071,26.9054042 46.9575071,26.9050833 46.9575071,26.9049229 L46.9575071,21.5351354 C48.940034,20.8264146 49.9791275,18.6266208 49.278255,16.6218937 C48.5773824,14.6171667 46.4021076,13.5664375 44.4194221,14.2751583 C42.4368952,14.9838792 41.3978017,17.1835125 42.0986742,19.1884 C42.481949,20.2848479 43.3349575,21.1474083 44.4192635,21.534975 L44.4192635,25.6215896 L40.611898,25.6215896 L40.611898,23.0549229 C40.6120567,22.3463625 40.0441246,21.77175 39.3434108,21.7715896 C39.3432521,21.7715896 39.3429348,21.7715896 39.3427762,21.7715896 L36.8045326,21.7715896 L36.8045326,15.1184687 C38.7870595,14.4097479 39.826153,12.2099542 39.1252805,10.2052271 C38.4244079,8.2005 36.2491331,7.14977083 34.2664476,7.85849167 C32.2839207,8.5672125 31.2448272,10.7668458 31.9456997,12.7717333 C32.3289745,13.8681812 33.181983,14.7307417 34.266289,15.1183083 L34.266289,21.7715896 L29.1898017,21.7715896 L29.1898017,1.28333333 C29.1899603,0.574772917 28.6220283,0.000160416667 27.9213144,0 C27.9211558,0 27.9208385,0 27.9206799,0 C12.2643173,0 0,11.4622521 0,26.0940167 C0,33.04455 2.72845326,42.2473333 7.12151841,50.1088729 C7.91027762,51.5200583 8.93969405,53.0039125 10.0290765,54.5755146 C12.3325326,57.8959792 14.8961586,61.6299979 15.1750482,64.8803604 C14.1992521,65.5778521 13.6284646,66.7184146 13.6505156,67.9265125 C13.6541643,68.7942062 13.9505042,69.6346292 14.4905156,70.3090208 C13.7391955,71.0584875 13.3192748,72.0829083 13.325779,73.15 C13.328,75.2753604 15.0313201,76.9977542 17.1331445,77 L38.7082153,77 C40.8243173,76.9868458 42.5292238,75.2413521 42.5160567,73.1015542 C42.515898,73.0877583 42.5157394,73.0738021 42.5155807,73.0598458 C42.5147875,72.0160146 42.0929632,71.0175812 41.3475127,70.2955458 C41.8945042,69.5951667 42.1916374,68.7285958 42.1908442,67.8361979 C42.1870368,65.8035583 40.5544703,64.1589667 38.5443399,64.1628167 C38.4907195,64.1629771 38.4370992,64.1642604 38.3834788,64.1666667 L29.1898017,64.1666667 L29.1898017,39.7382562 L31.7280453,39.7382562 L31.7280453,43.5882562 C31.7278867,44.2968167 32.2958187,44.8714292 32.9965326,44.8715896 C32.9966912,44.8715896 32.9970085,44.8715896 32.9971671,44.8715896 L36.8045326,44.8715896 L36.8045326,46.3913771 C34.8220057,47.1000979 33.7830708,49.2998917 34.484102,51.3046187 C35.1849745,53.3091854 37.3602493,54.3597542 39.3427762,53.6510333 C41.3253031,52.9423125 42.364238,50.7425187 41.6632068,48.7379521 C41.279932,47.6415042 40.4270822,46.7791042 39.3427762,46.3913771 L39.3427762,43.5882562 C39.3429348,42.8796958 38.7750028,42.3050833 38.074289,42.3049229 C38.0741303,42.3049229 38.073813,42.3049229 38.0736544,42.3049229 L34.266289,42.3049229 L34.266289,39.7382562 L39.3427762,39.7382562 C40.0434901,39.7384167 40.6117394,39.164125 40.611898,38.4555646 C40.611898,38.4554042 40.611898,38.4550833 40.611898,38.4549229 L40.611898,35.8882562 L48.4606232,35.8882562 C49.1651445,37.8876896 51.3393088,38.9308792 53.3166006,38.2183083 C55.2937337,37.5058979 56.3253711,35.3073875 55.6208499,33.3079542 C55.0805212,31.7748521 53.6435581,30.7520354 52.0339943,30.7549229 Z" id="Fill-1" fill="#71D6D7" mask="url(#mask-2)"></path>
                    </g>
                    <path d="M50,61.1787125 L52.077514,62 C52.3437151,61.3405996 52.6518156,60.6987683 53,60.0784104 L51.0435754,59 C50.649581,59.7031838 50.3009777,60.4309087 50,61.1787125" id="Fill-4" fill="#386874"></path>
                    <path d="M55,55.2221678 L53.2422147,54 C52.8214063,54.6037971 52.4015348,55.2178893 52,55.8383991 L53.7975373,57 C54.1864906,56.4003476 54.5927099,55.8071129 55,55.2221678" id="Fill-5" fill="#386874"></path>
                    <path d="M58,51.141402 L56.1866601,50 C55.8250368,50.5737837 55.4222956,51.1675379 55,51.7769736 L56.7600339,53 C57.2021519,52.3633561 57.6227064,51.7423938 58,51.141402" id="Fill-6" fill="#386874"></path>
                    <path d="M62,46.9494351 L59.9974109,46 C59.6793657,46.6609259 59.3468954,47.3142739 59,47.9601819 L60.9569559,49 C61.3200795,48.3250207 61.6676684,47.641499 62,46.9494351" id="Fill-7" fill="#386874"></path>
                    <path d="M63,40.8005978 L60.8512195,40 C60.584505,40.7038144 60.3002869,41.4087674 60,42.1081697 L62.112769,43 C62.425538,42.2694278 62.7212339,41.5362938 63,40.8005978" id="Fill-8" fill="#386874"></path>
                    <path d="M65.8779857,28 C65.9590277,27.0620041 66,26.1472818 66,25.2808698 L65.998556,25 L63.1106432,25.0220394 L63.1120871,25.2808698 C63.1120871,26.0674111 63.0747247,26.9034969 63,27.7630326 L65.8779857,28" id="Fill-9" fill="#386874"></path>
                    <path d="M63,21.5808562 C63.1890158,22.3786759 63.3327584,23.1862271 63.4307427,24 L66,23.6983249 C65.890374,22.7907471 65.729654,21.8900292 65.51881,21 L63,21.5808562" id="Fill-10" fill="#386874"></path>
                    <path d="M62,15.9904259 C62.3206901,16.6442485 62.6048767,17.3150498 62.8511336,18 L65,17.2416168 C64.7259375,16.4775739 64.4090974,15.7290949 64.0509055,15 L62,15.9904259" id="Fill-11" fill="#386874"></path>
                    <path d="M60,12.3252408 C60.4275224,12.8621011 60.826205,13.4210643 61.1943122,14 L63,12.861968 C62.5910365,12.2183214 62.1481597,11.5967778 61.6731052,11 L60,12.3252408" id="Fill-12" fill="#386874"></path>
                    <path d="M55,9.62288824 C55.523083,10.0559919 56.0236749,10.5156874 56.4998027,11 L58,9.52310325 C57.4732342,8.98745009 56.9195055,8.47904691 56.3410496,8 L55,9.62288824" id="Fill-13" fill="#386874"></path>
                    <path d="M55,5.19788321 C54.3687337,4.77167669 53.7053371,4.36894477 53.0272253,4 L52,5.91026279 C52.6169562,6.24528473 53.2208172,6.61205844 53.7945729,7 L55,5.19788321" id="Fill-14" fill="#386874"></path>
                    <path d="M50,1.85988465 C49.2582069,1.54073571 48.4831542,1.25226579 47.6974467,1 L47,3.21732177 C47.7176041,3.44676004 48.4235458,3.71036689 49.0989633,4 L50,1.85988465" id="Fill-15" fill="#386874"></path>
                    <path d="M45,1.47372676 C44.1246744,1.27793048 43.2249455,1.11883589 42.3264926,1 L42,3.56669361 C42.8230103,3.67405012 43.6466585,3.81940178 44.447977,4 L45,1.47372676" id="Fill-16" fill="#386874"></path>
                    <polygon id="Fill-17" fill="#386874" points="2 73 5 73 5 70 2 70"></polygon>
                    <polygon id="Fill-18" fill="#386874" points="2 77 5 77 5 74 2 74"></polygon>
                    <g id="Group-22" transform="translate(0.000000, 72.000000)">
                        <mask id="mask-4" fill="white">
                            <use xlink:href="#path-3"></use>
                        </mask>
                        <g id="Clip-20"></g>
                        <polygon id="Fill-19" fill="#386874" mask="url(#mask-4)" points="5.33333333 2.95041176 8 2.95041176 8 0.126882353 5.33333333 0.126882353"></polygon>
                        <polygon id="Fill-21" fill="#386874" mask="url(#mask-4)" points="0.01 2.95041176 2.66666667 2.95041176 2.66666667 0.126882353 0.01 0.126882353"></polygon>
                    </g>
                    <polygon id="Fill-23" fill="#386874" points="73 3 76 3 76 0 73 0"></polygon>
                    <polygon id="Fill-24" fill="#386874" points="73 9 76 9 76 6 73 6"></polygon>
                    <polygon id="Fill-25" fill="#386874" points="75 5 78 5 78 2 75 2"></polygon>
                    <polygon id="Fill-26" fill="#386874" points="71 5 74 5 74 2 71 2"></polygon>
                </g>
            </g>
        </g>
    </g>
</svg>