<?xml version="1.0" encoding="UTF-8"?>
<svg width="77px" height="77px" viewBox="0 0 77 77" version="1.1" xmlns="http://www.w3.org/2000/svg" xmlns:xlink="http://www.w3.org/1999/xlink">
    <!-- Generator: Sketch 52.4 (67378) - http://www.bohemiancoding.com/sketch -->
    <title>laboratory</title>
    <desc>Created with Sketch.</desc>
    <defs>
        <polygon id="path-1" points="0.0090234375 0.0505822785 76.9995488 0.0505822785 76.9995488 60 0.0090234375 60"></polygon>
        <polygon id="path-3" points="0.00897321429 0.100825581 67 0.100825581 67 13 0.00897321429 13"></polygon>
    </defs>
    <g id="Page-1" stroke="none" stroke-width="1" fill="none" fill-rule="evenodd">
        <g id="About-us" transform="translate(-834.000000, -1976.000000)">
            <g id="Group-2" transform="translate(737.000000, 1950.000000)">
                <g id="laboratory" transform="translate(97.000000, 26.000000)">
                    <g id="Group-5" transform="translate(0.000000, 17.000000)">
                        <mask id="mask-2" fill="white">
                            <use xlink:href="#path-1"></use>
                        </mask>
                        <g id="Clip-2"></g>
                        <path d="M19.25,3.29118987 L19.25,22.7342278 C19.25,23.0229873 19.1736016,23.3065823 19.028625,23.5556962 L3.85,49.6045063 C2.53348047,51.8641519 3.27986914,54.7739241 5.51708008,56.1036456 C6.2418125,56.5344304 7.06760742,56.7609114 7.9085918,56.7595443 L37.1204668,56.7595443 C39.654248,56.7586329 41.7076816,54.6832405 41.7067793,52.1240506 C41.7064785,51.231038 41.4508145,50.3573165 40.9704668,49.6076962 L24.3192168,23.6140253 C24.1515313,23.3518481 24.0623496,23.0462278 24.0625,22.7342278 L24.0625,3.29118987 L19.25,3.29118987 Z M37.1204668,60 L7.9085918,60 C3.54079688,59.9998481 0.000150390625,56.4235443 0.000150390625,52.0119494 C0.000150390625,50.5875949 0.377330078,49.1892152 1.0924375,47.9615696 L16.0417168,22.2934177 L16.0417168,1.67088608 C16.0417168,0.776050633 16.759832,0.0505822785 17.6457832,0.0505822785 L25.6667168,0.0505822785 C26.552668,0.0505822785 27.2707832,0.776050633 27.2707832,1.67088608 L27.2707832,22.2481519 L43.6669707,47.8481013 C46.0050938,51.5011139 44.9684512,56.3767595 41.351707,58.7383291 C40.0909824,59.5614684 38.621666,59.9995443 37.1204668,60 Z" id="Fill-1" fill="#386874" mask="url(#mask-2)"></path>
                        <path d="M19.25,53.5189367 L8.1059043,53.5189367 C7.21995313,53.52 6.50093555,52.7952911 6.5000332,51.9004557 C6.49973242,51.6109367 6.57613086,51.3267342 6.7214082,51.0773165 L20.3424375,27.6922025 L23.1079707,29.3334684 L10.9082832,50.278481 L19.25,50.278481 L19.25,53.5189367" id="Fill-3" fill="#386874" mask="url(#mask-2)"></path>
                        <path d="M48.125,22.7342278 C46.3530977,22.7342278 44.9167168,24.1850127 44.9167168,25.9746835 L44.9167168,51.8987848 C44.9167168,54.5832911 47.0713633,56.7595443 49.7292168,56.7595443 L64.1667168,56.7595443 C66.8245703,56.7595443 68.9792168,54.5832911 68.9792168,51.8987848 L68.9792168,29.2151392 C68.9792168,28.7855696 69.1482559,28.3734684 69.4491875,28.0696709 L73.5975625,23.8796962 C73.8571367,23.6179747 73.8575879,23.1932658 73.5984648,22.9310886 C73.4736406,22.8048608 73.3041504,22.7339241 73.1275918,22.7342278 L48.125,22.7342278 Z M64.1667168,60 L49.7292168,60 C45.3015664,59.9946835 41.7136973,56.3706835 41.7082832,51.8987848 L41.7082832,25.9746835 C41.7082832,22.3953418 44.5811953,19.4936203 48.125,19.4936203 L73.1275918,19.4936203 C75.2671992,19.4948354 77.0006016,21.2477468 76.9995488,23.4086582 C76.9989473,24.4444557 76.5918398,25.4377215 75.8674082,26.1707848 L72.1875,29.8859241 L72.1875,51.8987848 C72.1822363,56.3706835 68.5942168,59.9946835 64.1667168,60 Z" id="Fill-4" fill="#386874" mask="url(#mask-2)"></path>
                    </g>
                    <path d="M64.40009,70 L58,70 L58,66.80005 L62.80003,66.80005 L62.80003,46 L66,46 L66,68.4001 C66,69.28375 65.2837455,70 64.40009,70" id="Fill-6" fill="#386874"></path>
                    <path d="M57.4214163,35 C53.7268263,30.4929403 48.5119745,27.4215245 42.7120606,26.3366742 C41.9320813,26.1913195 41.367643,25.5241745 41.3673329,24.7473307 L41.3673329,3.23679864 L33.0972261,3.23679864 L33.0972261,25.124373 C33.0978463,25.8628298 32.5873708,26.5081261 31.8567023,26.6926265 C29.6839249,27.2411207 27.5973639,28.0757726 25.6540834,29.1736714 L24,26.3721784 C25.828532,25.3380051 27.770572,24.5089671 29.7892143,23.900844 L29.7892143,1.61847518 C29.7892143,0.724649618 30.529652,0 31.4431427,0 L43.0214163,0 C43.934907,0 44.6754997,0.724649618 44.6754997,1.61847518 L44.6754997,23.441262 C50.7193315,24.8758437 56.1078567,28.2276517 60,32.9738335 L57.4214163,35" id="Fill-7" fill="#386874"></path>
                    <path d="M67.9999196,25.4286633 C66.5798546,25.4286633 65.4285026,26.5798546 65.4285026,28.0000804 C65.4285026,29.4201454 66.5798546,30.5714974 67.9999196,30.5714974 C69.4201454,30.5714974 70.5713367,29.4201454 70.5713367,28.0000804 C70.5713367,26.5798546 69.4201454,25.4286633 67.9999196,25.4286633 Z M67.9999196,34 C64.6863273,34 62,31.3136727 62,28.0000804 C62,24.6863273 64.6863273,22 67.9999196,22 C71.3136727,22 74,24.6863273 74,28.0000804 C74,31.3136727 71.3136727,34 67.9999196,34 Z" id="Fill-8" fill="#386874"></path>
                    <g id="Group-12" transform="translate(0.000000, 11.000000)">
                        <mask id="mask-4" fill="white">
                            <use xlink:href="#path-3"></use>
                        </mask>
                        <g id="Clip-10"></g>
                        <path d="M62.2142857,3.3255814 C61.3332656,3.3255814 60.6189978,4.04753488 60.6189978,4.93803488 C60.6189978,5.82853488 61.3332656,6.55033721 62.2142857,6.55033721 C63.0953058,6.55033721 63.8095737,5.82853488 63.8095737,4.93803488 C63.8095737,4.04753488 63.0953058,3.3255814 62.2142857,3.3255814 Z M62.2142857,9.77524419 C59.5712254,9.77524419 57.4285714,7.60953488 57.4285714,4.93803488 C57.4285714,2.26653488 59.5712254,0.100825581 62.2142857,0.100825581 C64.857346,0.100825581 67,2.26653488 67,4.93803488 C67,7.60953488 64.857346,9.77524419 62.2142857,9.77524419 Z" id="Fill-9" fill="#71D6D7" mask="url(#mask-4)"></path>
                        <path d="M5.58328348,4.93803488 C4.26182812,4.93803488 3.19042634,6.02081395 3.19042634,7.35663953 C3.19042634,8.69231395 4.26182812,9.77524419 5.58328348,9.77524419 C6.90488839,9.77524419 7.97614062,8.69231395 7.97614062,7.35663953 C7.97614062,6.02081395 6.90488839,4.93803488 5.58328348,4.93803488 Z M5.58328348,13 C2.49978795,13 0,10.473314 0,7.35663953 C0,4.23981395 2.49978795,1.71312791 5.58328348,1.71312791 C8.66692857,1.71312791 11.1667165,4.23981395 11.1667165,7.35663953 C11.1667165,10.473314 8.66692857,13 5.58328348,13 Z" id="Fill-11" fill="#71D6D7" mask="url(#mask-4)"></path>
                    </g>
                    <path d="M13,5.33328125 C12.0795313,5.33328125 11.3334375,6.07953125 11.3334375,7 C11.3334375,7.92046875 12.0795313,8.6665625 13,8.6665625 C13.9204688,8.6665625 14.6667188,7.92046875 14.6667188,7 C14.6667188,6.07953125 13.9204688,5.33328125 13,5.33328125 Z M13,12 C10.2385937,12 8,9.76140625 8,7 C8,4.23859375 10.2385937,2 13,2 C15.7614062,2 18,4.23859375 18,7 C18,9.76140625 15.7614062,12 13,12 Z" id="Fill-13" fill="#386874"></path>
                    <polygon id="Fill-14" fill="#71D6D7" points="48 50 53 50 53 47 48 47"></polygon>
                    <polygon id="Fill-15" fill="#71D6D7" points="48 57 51 57 51 54 48 54"></polygon>
                    <polygon id="Fill-16" fill="#71D6D7" points="48 62 53 62 53 59 48 59"></polygon>
                    <polygon id="Fill-17" fill="#71D6D7" points="48 68 51 68 51 65 48 65"></polygon>
                    <polygon id="Fill-18" fill="#71D6D7" points="4 32 7 32 7 29 4 29"></polygon>
                    <polygon id="Fill-19" fill="#71D6D7" points="9 40 12 40 12 37 9 37"></polygon>
                    <polygon id="Fill-20" fill="#71D6D7" points="36 46 39 46 39 43 36 43"></polygon>
                    <polygon id="Fill-21" fill="#71D6D7" points="32 40 35 40 35 37 32 37"></polygon>
                    <polygon id="Fill-22" fill="#71D6D7" points="31 34 34 34 34 31 31 31"></polygon>
                    <polygon id="Fill-23" fill="#71D6D7" points="32 68 35 68 35 65 32 65"></polygon>
                    <polygon id="Fill-24" fill="#71D6D7" points="27 62 30 62 30 59 27 59"></polygon>
                </g>
            </g>
        </g>
    </g>
</svg>