<?xml version="1.0" encoding="UTF-8"?>
<svg width="100px" height="91px" viewBox="0 0 100 91" version="1.1" xmlns="http://www.w3.org/2000/svg" xmlns:xlink="http://www.w3.org/1999/xlink">
    <!-- Generator: Sketch 52.4 (67378) - http://www.bohemiancoding.com/sketch -->
    <title>money</title>
    <desc>Created with Sketch.</desc>
    <g id="Page-1" stroke="none" stroke-width="1" fill="none" fill-rule="evenodd">
        <g id="Affiliate-Member" transform="translate(-270.000000, -623.000000)">
            <g id="money" transform="translate(270.000000, 623.000000)">
                <path d="M95.2684211,59.0288499 L4.53664717,59.0288499 C2.04152047,59.0288499 0,56.9873294 0,54.4922027 L0,4.58966862 C0,2.09454191 2.04152047,0.0530214425 4.53664717,0.0530214425 L95.268616,0.0530214425 C97.7637427,0.0530214425 99.8052632,2.09454191 99.8052632,4.58966862 L99.8052632,54.4922027 C99.8050682,56.9873294 97.7635478,59.0288499 95.2684211,59.0288499 Z" id="Path" fill="#1B3F48"></path>
                <path d="M83.9269006,40.8824561 C78.7097466,40.8824561 73.9463938,43.3775828 71.2243665,47.4604288 C68.9561404,46.3265107 66.4610136,45.4191033 63.5122807,45.4191033 C55.5732943,45.4191033 48.9951267,51.3167641 47.8610136,59.0288499 L95.2684211,59.0288499 C97.5366472,59.0288499 99.3512671,57.4411306 99.8050682,55.1727096 C98.8976608,47.2337232 92.0927875,40.8824561 83.9269006,40.8824561 Z" id="Path" fill="#386874"></path>
                <path d="M86.1953216,54.4922027 L13.6097466,54.4922027 C13.6097466,49.5019493 9.52690058,45.4191033 4.53664717,45.4191033 L4.53664717,13.662963 C9.52690058,13.662963 13.6097466,9.58011696 13.6097466,4.58986355 L86.1953216,4.58986355 C86.1953216,9.58011696 90.2781676,13.662963 95.2684211,13.662963 L95.2684211,45.4191033 C90.2781676,45.4191033 86.1953216,49.5019493 86.1953216,54.4922027 Z" id="Path" fill="#386874"></path>
                <g id="Group" transform="translate(18.128655, 8.966862)" fill="#71D6D7">
                    <path d="M65.7982456,31.9155945 C60.5810916,31.9155945 55.8177388,34.4107212 53.0957115,38.4935673 C50.8274854,37.3596491 48.3323587,36.4522417 45.3836257,36.4522417 C39.0323587,36.4522417 33.588499,40.0814815 31.0933723,45.5253411 L68.0666667,45.5253411 C68.0666667,40.5350877 71.922807,36.6789474 76.9130604,36.4522417 C73.9641326,33.7302144 70.1081871,31.9155945 65.7982456,31.9155945 Z" id="Path"></path>
                    <ellipse id="Oval" cx="31.7738791" cy="20.5740741" rx="18.1463938" ry="20.4146199"></ellipse>
                    <circle id="Oval" cx="4.55438596" cy="20.5740741" r="4.53664717"></circle>
                    <circle id="Oval" cx="58.9933723" cy="20.5740741" r="4.53664717"></circle>
                </g>
                <path d="M52.1707602,27.2727096 L47.6341131,27.2727096 C46.2730994,27.2727096 45.3658869,26.3653021 45.3658869,25.0044834 C45.3658869,23.6434698 46.2732943,22.7362573 47.6341131,22.7362573 L54.4389864,22.7362573 C55.8,22.7362573 56.7072125,21.8288499 56.7072125,20.4680312 C56.7072125,19.1070175 55.7998051,18.1998051 54.4389864,18.1998051 L52.1707602,18.1998051 C52.1707602,16.8387914 51.2633528,15.9315789 49.9025341,15.9315789 C48.5415205,15.9315789 47.634308,16.8389864 47.634308,18.1998051 C43.7781676,18.1998051 40.8294347,21.148538 40.8294347,25.0046784 C40.8294347,28.8608187 43.7781676,31.8095517 47.634308,31.8095517 L52.1709552,31.8095517 C53.5319688,31.8095517 54.4391813,32.7169591 54.4391813,34.0777778 C54.4391813,35.4387914 53.5317739,36.3460039 52.1709552,36.3460039 L45.3660819,36.3460039 C44.0050682,36.3460039 43.0978558,37.2534113 43.0978558,38.61423 C43.0978558,39.9752437 44.0052632,40.8824561 45.3660819,40.8824561 L47.634308,40.8824561 C47.634308,42.2434698 48.5417154,43.1506823 49.9025341,43.1506823 C51.2635478,43.1506823 52.1707602,42.2432749 52.1707602,40.8824561 C56.0269006,40.8824561 58.9756335,37.9337232 58.9756335,34.0775828 C58.9756335,30.2214425 56.0269006,27.2727096 52.1707602,27.2727096 Z" id="Path" fill="#89C763"></path>
                <circle id="Oval" fill="#FFCA5D" cx="58.9756335" cy="61.297271" r="15.8781676"></circle>
                <circle id="Oval" fill="#F6B545" cx="79.3904483" cy="56.7606238" r="15.8781676"></circle>
                <path d="M79.3904483,40.8824561 C70.5440546,40.8824561 63.5122807,47.91423 63.5122807,56.7606238 C63.5122807,65.6070175 70.5440546,72.6387914 79.3904483,72.6387914 C88.2368421,72.6387914 95.268616,65.6070175 95.268616,56.7606238 C95.268616,47.91423 88.2368421,40.8824561 79.3904483,40.8824561 Z M79.3904483,68.1021442 C73.0391813,68.1021442 68.0489279,63.1118908 68.0489279,56.7606238 C68.0489279,50.4093567 73.0391813,45.4191033 79.3904483,45.4191033 C85.7417154,45.4191033 90.7319688,50.4093567 90.7319688,56.7606238 C90.7319688,63.1118908 85.7417154,68.1021442 79.3904483,68.1021442 Z" id="Shape" fill="#FFCB5B" fill-rule="nonzero"></path>
                <path d="M79.3904483,72.4118908 C88.2368421,72.6387914 95.268616,65.380117 95.268616,56.7606238 L95.0417154,56.7606238 C93.9076023,56.7606238 93.0001949,57.6680312 92.7734893,58.8021442 C92.319883,61.9777778 90.7319688,64.9265107 88.4637427,66.9680312 C86.6491228,68.7826511 84.1539961,69.9167641 81.4319688,70.3703704 C80.2976608,70.3703704 79.3904483,71.2777778 79.3904483,72.4118908 Z" id="Path" fill="#F6B545"></path>
                <path d="M79.3904483,41.1093567 C70.5440546,40.8824561 63.5122807,48.1411306 63.5122807,56.7606238 L63.7391813,56.7606238 C64.8732943,56.7606238 65.7807018,55.8532164 66.0074074,54.7191033 C66.4610136,51.5434698 68.0489279,48.5947368 70.317154,46.5532164 C72.1317739,44.7385965 74.6269006,43.6044834 77.3489279,43.1506823 C78.4830409,43.1508772 79.3904483,42.2434698 79.3904483,41.1093567 Z" id="Path" fill="#FFE27A"></path>
                <path d="M69.6366472,58.3483431 C69.6366472,51.997076 74.6269006,47.0068226 80.9781676,47.0068226 C83.7001949,47.0068226 86.1953216,47.91423 88.2366472,49.7288499 C85.9684211,47.0068226 83.0196881,45.4191033 79.3904483,45.4191033 C73.0391813,45.4191033 68.0489279,50.4093567 68.0489279,56.7606238 C68.0489279,60.3898635 69.6366472,63.3385965 72.1317739,65.380117 C70.5440546,63.5654971 69.6366472,61.0703704 69.6366472,58.3483431 Z" id="Path" fill="#F19920"></path>
                <path d="M86.1953216,63.7923977 C85.9684211,63.7923977 85.7417154,63.7923977 85.5148148,63.5654971 C85.0612086,63.1118908 85.0612086,62.431384 85.5148148,61.9777778 C86.8758285,60.6167641 87.5563353,58.5752437 87.5563353,56.7606238 C87.5563353,56.080117 88.0099415,55.6265107 88.6904483,55.6265107 C89.3709552,55.6265107 89.8245614,56.080117 89.8245614,56.7606238 C89.8245614,59.2557505 88.917154,61.7508772 87.3294347,63.5654971 C86.8758285,63.7923977 86.4220273,63.7923977 86.1953216,63.7923977 Z" id="Path" fill="#FFCB5B"></path>
                <g id="Group" transform="translate(63.547758, 45.419103)" fill="#F19920">
                    <path d="M15.8426901,18.1463938 C14.4816764,18.1463938 13.5744639,17.2389864 13.5744639,15.8781676 L13.5744639,6.80506823 C13.5744639,5.44405458 14.4818713,4.53684211 15.8426901,4.53684211 C17.2035088,4.53684211 18.1109162,5.44424951 18.1109162,6.80506823 L18.1109162,15.8781676 C18.1109162,17.2389864 17.2037037,18.1463938 15.8426901,18.1463938 Z" id="Path"></path>
                    <path d="M24.2352827,24.7243665 C22.6475634,19.0536062 18.5645224,14.5169591 13.3473684,12.4756335 C12.439961,7.25847953 9.03762183,2.72202729 4.72787524,0 C2.00584795,2.94873294 0.19122807,6.80487329 0.19122807,11.1146199 C0.19122807,19.9610136 7.22300195,26.9927875 16.0693957,26.9927875 C19.0183236,27.2194932 21.7401559,26.3122807 24.2352827,24.7243665 Z" id="Path"></path>
                </g>
                <g id="Group" transform="translate(68.031189, 48.343080)" fill="#E78825">
                    <path d="M4.1005848,17.037037 C2.5128655,14.9955166 1.3785575,12.5003899 1.3785575,9.7785575 C1.3785575,6.60292398 2.73957115,3.65419103 5.00779727,1.61267057 C4.55419103,0.932163743 4.10038986,0.478557505 3.64678363,0.0249512671 C1.3785575,2.06647173 0.0175438596,5.01520468 0.0175438596,8.41773879 C0.0177387914,12.0467836 1.60545809,14.9955166 4.1005848,17.037037 Z" id="Path"></path>
                    <path d="M9.09083821,9.7785575 L9.09083821,12.954191 C9.09083821,14.3152047 9.99824561,15.2224172 11.3590643,15.2224172 C12.719883,15.2224172 13.6272904,14.3150097 13.6272904,12.954191 L13.6272904,12.5005848 C12.2664717,11.3662768 10.6787524,10.4590643 9.09083821,9.7785575 Z" id="Path"></path>
                </g>
                <path d="M87.7830409,70.1434698 C87.3294347,68.5557505 86.8756335,67.1947368 85.9684211,65.8337232 C84.1538012,67.1947368 81.885575,68.1019493 79.3904483,68.1019493 C73.0391813,68.1019493 68.0489279,63.1116959 68.0489279,56.7604288 C68.0489279,53.3578947 69.4099415,50.4091618 71.6781676,48.3676413 C70.5440546,47.2335283 69.4099415,46.3261209 68.0489279,45.645614 C65.3269006,48.594347 63.5122807,52.4504873 63.5122807,56.7602339 C63.5122807,65.6066277 70.5440546,72.6384016 79.3904483,72.6384016 C82.5660819,72.6385965 85.2879142,71.731384 87.7830409,70.1434698 Z" id="Path" fill="#F6B545"></path>
                <path d="M87.1025341,68.1021442 C85.5148148,69.2362573 83.4732943,69.9167641 81.4317739,70.3703704 C80.2976608,70.597271 79.3902534,71.5044834 79.3902534,72.6385965 C82.5658869,72.6385965 85.2879142,71.7311891 87.7830409,70.1434698 C87.5563353,69.462963 87.3294347,68.7826511 87.1025341,68.1021442 Z" id="Path" fill="#F19920"></path>
                <path d="M68.0489279,45.6460039 C65.3269006,48.5947368 63.5122807,52.4508772 63.5122807,56.7606238 L63.7391813,56.7606238 C64.8732943,56.7606238 65.7807018,55.8532164 66.0074074,54.7191033 C66.4610136,51.5434698 68.0489279,48.8214425 70.0902534,46.780117 C69.4099415,46.5532164 68.7294347,46.0996101 68.0489279,45.6460039 Z" id="Path" fill="#FFCB5B"></path>
                <circle id="Oval" fill="#F6B545" cx="58.9756335" cy="61.297271" r="15.8781676"></circle>
                <path d="M56.7074074,72.6385965 C56.7074074,74.2263158 56.934308,75.5873294 57.3879142,77.1752437 C57.8415205,77.1752437 58.5220273,77.1752437 58.9756335,77.1752437 C67.8220273,77.1752437 74.8538012,70.1434698 74.8538012,61.297076 C74.8538012,59.7093567 74.6269006,58.3483431 74.1732943,56.7604288 C73.7196881,56.7604288 73.0391813,56.7604288 72.585575,56.7604288 C63.7391813,56.7606238 56.7074074,63.7923977 56.7074074,72.6385965 Z" id="Path" fill="#F19920"></path>
                <path d="M58.9756335,45.4191033 C50.1292398,45.4191033 43.0974659,52.4508772 43.0974659,61.297271 C43.0974659,70.1436647 50.1292398,77.1754386 58.9756335,77.1754386 C67.8220273,77.1754386 74.8538012,70.1434698 74.8538012,61.297271 C74.8538012,52.4510721 67.8220273,45.4191033 58.9756335,45.4191033 Z M58.9756335,72.6385965 C52.6243665,72.6385965 47.6341131,67.6483431 47.6341131,61.297076 C47.6341131,54.945809 52.6243665,49.9555556 58.9756335,49.9555556 C65.3269006,49.9555556 70.317154,54.945809 70.317154,61.297076 C70.317154,67.6483431 65.3269006,72.6385965 58.9756335,72.6385965 Z" id="Shape" fill="#FFCB5B" fill-rule="nonzero"></path>
                <path d="M58.9756335,76.9483431 C67.8220273,77.1752437 74.8538012,69.9167641 74.8538012,61.297271 L74.6269006,61.297271 C73.4927875,61.297271 72.5853801,62.2046784 72.3586745,63.3387914 C71.9050682,66.514425 70.317154,69.4631579 68.0489279,71.5046784 C66.234308,73.3192982 63.7391813,74.4534113 61.017154,74.9072125 C59.8830409,74.9070175 58.9756335,75.81423 58.9756335,76.9483431 Z" id="Path" fill="#F6B545"></path>
                <path d="M58.9756335,45.6460039 C50.1292398,45.4191033 43.0974659,52.6777778 43.0974659,61.297271 L43.3243665,61.297271 C44.4584795,61.297271 45.3658869,60.3898635 45.5925926,59.2557505 C46.0461988,56.080117 47.6341131,53.131384 49.9023392,51.0898635 C51.7169591,49.2752437 54.2120858,48.1411306 56.9341131,47.6873294 C58.0684211,47.6873294 58.9756335,46.780117 58.9756335,45.6460039 Z" id="Path" fill="#FFE27A"></path>
                <path d="M49.2220273,62.8849903 C49.2220273,56.5337232 54.2122807,51.5434698 60.5635478,51.5434698 C63.285575,51.5434698 65.7807018,52.4508772 67.8220273,54.2654971 C65.5538012,51.5434698 62.6048733,49.9557505 58.9756335,49.9557505 C52.6243665,49.9557505 47.6341131,54.9460039 47.6341131,61.297271 C47.6341131,64.9265107 49.2218324,67.8752437 51.7169591,69.9167641 C50.1294347,68.1021442 49.2220273,65.6070175 49.2220273,62.8849903 Z" id="Path" fill="#F19920"></path>
                <path d="M65.7807018,68.3288499 C65.5538012,68.3288499 65.3270955,68.3288499 65.1001949,68.1019493 C64.6465887,67.6483431 64.6465887,66.9678363 65.1001949,66.51423 C66.4612086,65.1532164 67.1417154,63.1116959 67.1417154,61.297076 C67.1417154,60.6165692 67.5953216,60.162963 68.2758285,60.162963 C68.9563353,60.162963 69.4099415,60.6165692 69.4099415,61.297076 C69.4099415,63.7922027 68.5025341,66.2873294 66.9148148,68.1019493 C66.4610136,68.3288499 66.0074074,68.3288499 65.7807018,68.3288499 Z" id="Path" fill="#FFCB5B"></path>
                <path d="M58.9756335,68.1021442 C57.6146199,68.1021442 56.7074074,67.1947368 56.7074074,65.8339181 L56.7074074,56.7608187 C56.7074074,55.3998051 57.6148148,54.4925926 58.9756335,54.4925926 C60.3366472,54.4925926 61.2438596,55.4 61.2438596,56.7608187 L61.2438596,65.8339181 C61.2440546,67.1947368 60.3366472,68.1021442 58.9756335,68.1021442 Z" id="Path" fill="#F19920"></path>
                <g id="Group" transform="translate(54.385965, 56.725146)" fill="#F6B545">
                    <path d="M15.0239766,0.262183236 C15.4775828,1.62319688 15.931384,2.98421053 15.931384,4.57192982 C15.931384,10.9231969 10.9411306,15.9134503 4.58986355,15.9134503 C3.90935673,15.9134503 3.00214425,15.9134503 2.32163743,15.6865497 L2.32163743,15.9134503 C2.32163743,17.5011696 2.54853801,18.8621832 3.00214425,20.4500975 C3.45575049,20.4500975 4.13625731,20.4500975 4.58986355,20.4500975 C13.4362573,20.4500975 20.4680312,13.4183236 20.4680312,4.57192982 C20.4680312,2.98421053 20.2411306,1.62319688 19.7875244,0.0352826511 C19.3339181,0.0352826511 18.6534113,0.0352826511 18.1998051,0.0352826511 C17.0653021,0.0354775828 16.1580897,0.0354775828 15.0239766,0.262183236 Z" id="Path"></path>
                    <circle id="Oval" cx="15.9311891" cy="18.1818713" r="15.8781676"></circle>
                </g>
                <path d="M70.317154,90.5582846 C79.1635478,90.7851852 86.1953216,83.5265107 86.1953216,74.9070175 L85.9684211,74.9070175 C84.834308,74.9070175 83.9269006,75.814425 83.7001949,76.948538 C83.2465887,80.1241715 81.6586745,83.0729045 79.3904483,85.114425 C77.5758285,86.9290448 75.0807018,88.0631579 72.3586745,88.5169591 C71.2245614,88.5167641 70.317154,89.4239766 70.317154,90.5582846 Z" id="Path" fill="#F6B545"></path>
                <path d="M70.317154,59.2557505 C61.4707602,59.0288499 54.4389864,66.2875244 54.4389864,74.9070175 L54.6658869,74.9070175 C55.8,74.9070175 56.7074074,73.9996101 56.9341131,72.8654971 C57.3877193,69.6898635 58.9756335,66.7411306 61.2438596,64.6996101 C63.0584795,62.8849903 65.5536062,61.7508772 68.2756335,61.297076 C69.4099415,61.297271 70.317154,60.3898635 70.317154,59.2557505 Z" id="Path" fill="#FFE27A"></path>
                <path d="M60.5635478,76.4947368 C60.5635478,70.1434698 65.5538012,65.1532164 71.9050682,65.1532164 C74.6270955,65.1532164 77.1222222,66.0606238 79.1635478,67.8752437 C76.8953216,65.1532164 73.9463938,63.5654971 70.317154,63.5654971 C63.9658869,63.5654971 58.9756335,68.5557505 58.9756335,74.9070175 C58.9756335,78.5362573 60.5633528,81.4849903 63.0584795,83.5265107 C61.4707602,81.7118908 60.5635478,79.2167641 60.5635478,76.4947368 Z" id="Path" fill="#F19920"></path>
                <path d="M77.1220273,81.9385965 C76.8951267,81.9385965 76.6684211,81.9385965 76.4415205,81.7116959 C75.9879142,81.2580897 75.9879142,80.5775828 76.4415205,80.1239766 C77.8025341,78.762963 78.4830409,76.7214425 78.4830409,74.9068226 C78.4830409,74.2263158 78.9366472,73.7727096 79.617154,73.7727096 C80.2976608,73.7727096 80.7512671,74.2263158 80.7512671,74.9068226 C80.7512671,77.4019493 79.8438596,79.897076 78.2561404,81.7116959 C77.8025341,81.9385965 77.3489279,81.9385965 77.1220273,81.9385965 Z" id="Path" fill="#FFCB5B"></path>
                <path d="M70.317154,81.7118908 C68.9561404,81.7118908 68.0489279,80.8044834 68.0489279,79.4436647 L68.0489279,70.3703704 C68.0489279,69.0093567 68.9563353,68.1021442 70.317154,68.1021442 C71.6781676,68.1021442 72.5853801,69.0095517 72.5853801,70.3703704 L72.5853801,79.4434698 C72.585575,80.8044834 71.6781676,81.7118908 70.317154,81.7118908 Z" id="Path" fill="#F19920"></path>
            </g>
        </g>
    </g>
</svg>