<?xml version="1.0" encoding="UTF-8"?>
<svg width="100px" height="81px" viewBox="0 0 100 81" version="1.1" xmlns="http://www.w3.org/2000/svg" xmlns:xlink="http://www.w3.org/1999/xlink">
    <!-- Generator: Sketch 52.4 (67378) - http://www.bohemiancoding.com/sketch -->
    <title>network</title>
    <desc>Created with Sketch.</desc>
    <g id="Page-1" stroke="none" stroke-width="1" fill="none" fill-rule="evenodd">
        <g id="Affiliate-Member" transform="translate(-670.000000, -623.000000)">
            <g id="network" transform="translate(670.000000, 623.000000)">
                <g id="Group" transform="translate(10.849057, 1.886792)" fill="#71D6D7">
                    <path d="M22.9433962,32.8867925 L23.2641509,30.6603774 C24.7358491,20.6603774 35.7924528,19.8679245 39.1509434,19.8679245 C42.509434,19.8679245 53.5660377,20.6415094 55.0377358,30.6603774 L55.3584906,32.8301887 L22.9433962,32.8867925 Z" id="Path"></path>
                    <circle id="Oval" cx="39.1509434" cy="7.20754717" r="7.0754717"></circle>
                    <circle id="Oval" cx="7.0754717" cy="50.6037736" r="7.0754717"></circle>
                    <circle id="Oval" cx="71.2264151" cy="50.6037736" r="7.0754717"></circle>
                </g>
                <g id="Group" transform="translate(1.650943, 65.094340)" fill="#71D6D7">
                    <path d="M0.0660377358,13.0754717 L0.386792453,10.8490566 C1.85849057,0.849056604 12.9150943,0.0566037736 16.2735849,0.0566037736 C19.6320755,0.0566037736 30.6886792,0.830188679 32.1603774,10.8490566 L32.4811321,13.0188679 L0.0660377358,13.0754717 Z" id="Path"></path>
                    <path d="M64.2169811,13.0754717 L64.5377358,10.8490566 C66.009434,0.849056604 77.0660377,0.0566037736 80.4245283,0.0566037736 C83.7830189,0.0566037736 94.8396226,0.830188679 96.3113208,10.8490566 L96.6320755,13.0188679 L64.2169811,13.0754717 Z" id="Path"></path>
                </g>
                <g id="Group">
                    <path d="M33.9622642,36.6603774 L66.0377358,36.6603774 C67.079717,36.6603774 67.9245283,35.815566 67.9245283,34.7735849 C67.9245283,25.6226415 61.0566038,19.9433962 50,19.9433962 C38.9433962,19.9433962 32.0754717,25.6037736 32.0754717,34.7735849 C32.0754717,35.815566 32.920283,36.6603774 33.9622642,36.6603774 Z M50,23.7169811 C53.0943396,23.7169811 62.7735849,24.4150943 64.0188679,32.8867925 L35.9811321,32.8867925 C37.2264151,24.4150943 46.9056604,23.7169811 50,23.7169811 Z" id="Shape" fill="#386874" fill-rule="nonzero"></path>
                    <path d="M50,18.0566038 C54.9497642,18.0566038 58.9622642,14.0441038 58.9622642,9.09433962 C58.9622642,4.14457547 54.9497642,0.132075472 50,0.132075472 C45.0502358,0.132075472 41.0377358,4.14457547 41.0377358,9.09433962 C41.0481132,14.0398585 45.0544811,18.0462264 50,18.0566038 Z M50,3.90566038 C52.865566,3.90566038 55.1886792,6.22877358 55.1886792,9.09433962 C55.1886792,11.9599057 52.865566,14.2830189 50,14.2830189 C47.134434,14.2830189 44.8113208,11.9599057 44.8113208,9.09433962 C44.8113208,6.22877358 47.134434,3.90566038 50,3.90566038 Z" id="Shape" fill="#386874" fill-rule="nonzero"></path>
                    <path d="M17.9245283,63.3396226 C6.86792453,63.3396226 0,69 0,78.1698113 C0,79.2117925 0.844811321,80.0566038 1.88679245,80.0566038 L33.9622642,80.0566038 C35.0042453,80.0566038 35.8490566,79.2117925 35.8490566,78.1698113 C35.8490566,69.0188679 28.9811321,63.3396226 17.9245283,63.3396226 Z M3.90566038,76.2830189 C5.1509434,67.8113208 14.8113208,67.1132075 17.9245283,67.1132075 C21.0377358,67.1132075 30.6981132,67.8113208 31.9433962,76.2830189 L3.90566038,76.2830189 Z" id="Shape" fill="#386874" fill-rule="nonzero"></path>
                    <path d="M17.9245283,61.4528302 C22.8742925,61.4528302 26.8867925,57.4403302 26.8867925,52.490566 C26.8867925,47.5408019 22.8742925,43.5283019 17.9245283,43.5283019 C12.9747642,43.5283019 8.96226415,47.5408019 8.96226415,52.490566 C8.97264151,57.4360849 12.9790094,61.4424528 17.9245283,61.4528302 Z M17.9245283,47.3018868 C20.7900943,47.3018868 23.1132075,49.625 23.1132075,52.490566 C23.1132075,55.3561321 20.7900943,57.6792453 17.9245283,57.6792453 C15.0589623,57.6792453 12.7358491,55.3561321 12.7358491,52.490566 C12.7358491,49.625 15.0589623,47.3018868 17.9245283,47.3018868 Z" id="Shape" fill="#386874" fill-rule="nonzero"></path>
                    <path d="M82.0754717,63.3396226 C71.0188679,63.3396226 64.1509434,69 64.1509434,78.1698113 C64.1509434,79.2117925 64.9957547,80.0566038 66.0377358,80.0566038 L98.1132075,80.0566038 C99.1551887,80.0566038 100,79.2117925 100,78.1698113 C100,69.0188679 93.1320755,63.3396226 82.0754717,63.3396226 Z M68.0566038,76.2830189 C69.3018868,67.8113208 78.9622642,67.1132075 82.0754717,67.1132075 C85.1886792,67.1132075 94.8490566,67.8113208 96.0943396,76.2830189 L68.0566038,76.2830189 Z" id="Shape" fill="#386874" fill-rule="nonzero"></path>
                    <path d="M82.0754717,61.4528302 C87.0252358,61.4528302 91.0377358,57.4403302 91.0377358,52.490566 C91.0377358,47.5408019 87.0252358,43.5283019 82.0754717,43.5283019 C77.1257075,43.5283019 73.1132075,47.5408019 73.1132075,52.490566 C73.1235849,57.4360849 77.1299528,61.4424528 82.0754717,61.4528302 Z M82.0754717,47.3018868 C84.9410377,47.3018868 87.2641509,49.625 87.2641509,52.490566 C87.2641509,55.3561321 84.9410377,57.6792453 82.0754717,57.6792453 C79.2099057,57.6792453 76.8867925,55.3561321 76.8867925,52.490566 C76.8867925,49.625 79.2099057,47.3018868 82.0754717,47.3018868 Z" id="Shape" fill="#386874" fill-rule="nonzero"></path>
                    <path d="M51.8867925,52.1698113 L51.8867925,41.0377358 C51.8867925,39.9957547 51.0419811,39.1509434 50,39.1509434 C48.9580189,39.1509434 48.1132075,39.9957547 48.1132075,41.0377358 L48.1132075,52.1698113 L40.245283,60.0377358 C39.5002358,60.7724057 39.4917453,61.971934 40.2264151,62.7169811 C40.9610849,63.4620283 42.1606132,63.4705189 42.9056604,62.7358491 L50,55.6226415 L57.0943396,62.7358491 C57.8858491,63.4136792 59.0768868,63.3214623 59.754717,62.5299528 C60.3596698,61.8235849 60.3596698,60.7818396 59.754717,60.0754717 L51.8867925,52.1698113 Z" id="Path" fill="#285763"></path>
                </g>
            </g>
        </g>
    </g>
</svg>