<?xml version="1.0" encoding="UTF-8"?>
<svg width="20px" height="23px" viewBox="0 0 20 23" version="1.1" xmlns="http://www.w3.org/2000/svg" xmlns:xlink="http://www.w3.org/1999/xlink">
    <!-- Generator: Sketch 52.4 (67378) - http://www.bohemiancoding.com/sketch -->
    <title>notification-bell</title>
    <desc>Created with Sketch.</desc>
    <g id="Symbols" stroke="none" stroke-width="1" fill="none" fill-rule="evenodd">
        <g id="Header-Signed-in" transform="translate(-257.000000, -77.000000)" fill="#000000">
            <g id="Header">
                <g id="middle-header" transform="translate(69.000000, 60.000000)">
                    <g id="Left-Group" transform="translate(0.000000, 11.000000)">
                        <g id="notification-bell" transform="translate(188.000000, 6.000000)">
                            <path d="M19.6297224,18.0998245 C17.2584913,17.0371801 17.168249,12.4758504 17.1664259,12.3606583 L17.1664259,9.30062594 C17.1664259,6.35542395 15.352783,3.82273387 12.7755897,2.74435061 C12.7698926,1.23016376 11.5271919,0 10,0 C8.47299041,0 7.23015301,1.23029944 7.2246382,2.74435061 C4.64739933,3.82273387 2.83375641,6.35524305 2.83375641,9.30044503 L2.83375641,12.3606583 C2.83197891,12.4756695 2.74169101,17.0369992 0.37027757,18.0998245 C0.100188661,18.2208509 -0.0483009885,18.5126982 0.0141849875,18.8003394 C0.0765342328,19.0877545 0.332904485,19.293219 0.629336861,19.293219 L6.64102557,19.293219 C6.76422002,19.9659648 7.08485375,20.5919011 7.5751704,21.0987557 C8.2264192,21.7720442 9.08759536,22.1428571 10,22.1428571 C10.9124502,22.1428571 11.7735808,21.7720442 12.4246473,21.0987557 C12.9151463,20.5919011 13.2355977,19.9659648 13.3587921,19.293219 L19.3705264,19.293219 C19.6671411,19.293219 19.923329,19.0879354 19.985815,18.8003394 C20.048301,18.5126982 19.8998113,18.2208509 19.6297224,18.0998245 Z M16.505925,15.9146556 C16.7553675,16.6646033 17.1082242,17.4177168 17.6088412,18.0445575 L2.39115881,18.0445575 C2.89159354,17.4178977 3.24463247,16.6647842 3.49389272,15.9146556 L16.505925,15.9146556 Z M10,1.24888757 C10.690764,1.24888757 11.2749236,1.70943013 11.4575959,2.33713023 C10.9868318,2.24034529 10.4993865,2.18928445 10,2.18928445 C9.50079585,2.18928445 9.01335054,2.24034529 8.54244966,2.33713023 C8.72525874,1.70943013 9.30923599,1.24888757 10,1.24888757 Z M4.09208997,12.3645478 L4.09208997,9.30044503 C4.09208997,6.06796363 6.74234309,3.43812679 10,3.43812679 C13.2577025,3.43812679 15.90791,6.06796363 15.90791,9.30044503 L15.90791,12.3694775 C15.9088216,12.4634584 15.9235885,13.45071 16.1742616,14.6658133 L3.82573837,14.6658133 C4.07659382,13.4494437 4.09140632,12.4606543 4.09208997,12.3645478 Z M10,20.8941957 C9.03969401,20.8941957 8.20130631,20.2069322 7.93231125,19.293219 L12.0676887,19.293219 C11.7986937,20.2069322 10.9604883,20.8941957 10,20.8941957 Z" id="Fill-1"></path>
                            <path d="M10.0650195,4.28571429 C7.27226725,4.28571429 5,6.55786825 5,9.35075942 C5,9.70928052 5.29070991,10 5.64921921,10 C6.00772852,10 6.29829737,9.70928052 6.29829737,9.35075942 C6.29829737,7.27382902 7.98815744,5.58405439 10.0650195,5.58405439 C10.4235288,5.58405439 10.7142857,5.29352299 10.7142857,4.93500189 C10.7142857,4.5762927 10.4235288,4.28571429 10.0650195,4.28571429 Z" id="Fill-3"></path>
                        </g>
                    </g>
                </g>
            </g>
        </g>
    </g>
</svg>