<?xml version="1.0" encoding="UTF-8"?>
<svg width="100px" height="100px" viewBox="0 0 100 100" version="1.1" xmlns="http://www.w3.org/2000/svg" xmlns:xlink="http://www.w3.org/1999/xlink">
    <!-- Generator: Sketch 52.4 (67378) - http://www.bohemiancoding.com/sketch -->
    <title>payment</title>
    <desc>Created with Sketch.</desc>
    <g id="Page-1" stroke="none" stroke-width="1" fill="none" fill-rule="evenodd">
        <g id="Affiliate-Member" transform="translate(-1070.000000, -623.000000)">
            <g id="payment" transform="translate(1070.000000, 623.000000)">
                <polyline id="Path" fill="#FFFFFF" points="2.01721191 22.956848 2.01721191 67.2439574 98.096466 67.2439574 98.096466 22.956848"></polyline>
                <polyline id="Path" fill="#F5F0EB" points="90.4060363 23.0369568 98.0392457 23.0369568 98.0392457 1.9607543 1.9607543 1.9607543 1.9607543 23.0369568 74.9679566 23.0369568"></polyline>
                <path d="M16.2605285,12.4168396 C16.2605285,14.5072937 14.56604,16.2010193 12.4763488,16.2010193 C10.3866578,16.2010193 8.69216914,14.5072937 8.69216914,12.4168396 C8.69216914,10.3271484 10.3866578,8.63342285 12.4763488,8.63342285 C14.56604,8.63342285 16.2605285,10.3271484 16.2605285,12.4168396 Z" id="Path" fill="#00EE8A"></path>
                <path d="M30.0445557,12.4168396 C30.0445557,14.5072937 28.3508301,16.2010193 26.2611389,16.2010193 C24.1706848,16.2010193 22.4769592,14.5072937 22.4769592,12.4168396 C22.4769592,10.3271484 24.1706848,8.63342285 26.2611389,8.63342285 C28.3508301,8.63342285 30.0445557,10.3271484 30.0445557,12.4168396 Z" id="Path" fill="#FF415B"></path>
                <path d="M43.7881469,12.4168396 C43.7881469,14.5072937 42.0944215,16.2010193 40.0039672,16.2010193 C37.9142762,16.2010193 36.2197875,14.5072937 36.2197875,12.4168396 C36.2197875,10.3271484 37.9142762,8.63342285 40.0039672,8.63342285 C42.0944215,8.63342285 43.7881469,10.3271484 43.7881469,12.4168396 Z" id="Path" fill="#FF9F22"></path>
                <polyline id="Path" fill="#71D6D7" points="37.0018006 51.6029357 14.8216248 51.6029357 14.8216248 32.3059082 85.1783752 32.3059082 85.1783752 51.6029357 42.5109863 51.6029357"></polyline>
                <path d="M56.8206787,91.7121887 L56.8206787,86.8522645 C56.8206787,86.1320496 57.0480348,85.4293824 57.471466,84.8464965 L57.9734803,84.1545105 C58.6662293,83.1977844 59.0400695,82.0472717 59.0400695,80.8654785 L59.0400695,65.7684326 C59.0400695,64.9917602 58.708191,64.251709 58.1291199,63.735199 C57.536316,63.206482 56.7726135,62.9829406 56.036377,63.0584717 C55.2536012,63.1385803 54.5593262,63.5963439 54.1107178,64.2425537 C53.6827088,64.8582459 53.453827,65.5899047 53.453827,66.3398742 L53.453827,68.6798096 L53.453827,61.3616943 C53.453827,60.4873656 53.0036926,59.6748352 52.2621154,59.210968 C51.4854432,58.7257385 50.5073547,58.6967469 49.7039795,59.1354371 C48.6602783,59.7572326 48.0209352,60.8818055 48.0209352,62.0964051 L48.0209352,67.301941 L48.0209352,58.8058473 C48.0209352,58.0711365 47.7348328,57.3661805 47.2229004,56.8389893 C46.2020875,55.7884217 44.5480348,55.6930543 43.4135438,56.6184998 C42.842102,57.0846559 42.5109863,57.7819824 42.5109863,58.518982 L42.5109863,66.5367127 L42.5109863,49.5292664 C42.5109863,48.7617492 42.1897889,48.0293273 41.6252137,47.5090027 C40.5090332,46.4813232 38.7702941,46.5530395 37.7433777,47.6707459 L37.7258301,47.6898193 C37.259674,48.1964111 37.0018006,48.8594055 37.0018006,49.5483398 L37.0018006,71.0517883 L36.7599488,69.7631836 C36.4639281,68.1831359 35.925293,66.6580199 35.1646424,65.2412414 L34.6839904,64.3478395 C33.9630127,63.0058289 32.7384949,62.0056152 31.2797547,61.5676879 C30.3649902,61.2937928 29.3792725,61.6615295 28.8681031,62.4687195 C28.4980773,63.0523682 28.4347535,63.7794494 28.6972047,64.4187928 L30.8700563,69.7006227 C31.7359924,71.8055725 32.1807861,74.0592957 32.1807861,76.3351441 L32.1807861,77.683258 C32.1807861,79.3167113 32.8300477,80.8830262 33.9851379,82.0381164 L36.3967895,84.4505311 C37.2253418,85.2783203 37.6907348,86.4013672 37.6907348,87.5732422 L37.6907348,91.7121887 L56.8206787,91.7121887 Z" id="Path" fill="#71D6D7"></path>
                <polygon id="Path" fill="#71D6D7" points="58.5357666 97.9278564 58.5258484 91.7419434 35.610199 91.7488098 35.6201172 97.93396"></polygon>
                <path d="M98.0392457,0 L1.9607543,0 C0.878143359,0 0,0.878143359 0,1.9607543 L0,67.3233031 C0,68.4059143 0.878143359,69.2840576 1.9607543,69.2840576 L28.5781859,69.2840576 L29.056549,70.4460145 C29.8248291,72.3144531 30.2200316,74.3148805 30.2200316,76.3351441 L30.2200316,77.683258 C30.2200316,79.8362732 31.0760498,81.9015504 32.5981141,83.4243773 L35.0105285,85.836792 C35.4713439,86.2976074 35.7299805,86.9224549 35.7299805,87.5740051 L35.7299805,89.7880555 L35.6346131,89.7888184 C35.3988648,89.7888184 35.1631164,89.8200988 34.942627,89.9024963 C34.1339111,90.2046203 33.6479188,90.953827 33.6494445,91.7518615 L33.6593629,97.9370117 C33.6608887,99.0180969 34.5382691,99.8947145 35.6201172,99.8947145 L58.5365295,99.8878479 C59.3353271,99.8878479 60.0845336,99.3988037 60.3843689,98.5870361 C60.4652404,98.3665467 60.4965211,98.1300354 60.495758,97.89505 L60.4858398,91.7388916 C60.4843141,90.7440186 59.7419738,89.9253846 58.7814332,89.8002625 L58.7806701,86.8522645 C58.7806701,86.5447998 58.8775635,86.2457275 59.0583801,85.9970094 L59.5596313,85.3050232 C60.495758,84.0141297 61.0000609,82.4600219 61.0000609,80.8654785 L61.0000609,69.2840576 L98.0392457,69.2840576 C99.1218566,69.2840576 100,68.4059143 100,67.3225402 L100,1.9607543 C100,0.878143359 99.1218566,3.46944695e-16 98.0392457,0 Z M35.3706359,80.6526184 C34.5779418,79.8591613 34.1407775,78.8047791 34.1407775,77.683258 L34.1407775,76.3351441 C34.1407775,73.802948 33.6456299,71.2959289 32.6828004,68.9544678 L31.7977906,66.8037414 C31.755066,66.646576 31.6932678,66.4978027 31.615448,66.3597107 L30.5107117,63.6734008 C30.4893494,63.622284 30.4946898,63.5635375 30.5236816,63.5177613 C30.5648805,63.4536742 30.6434631,63.4239197 30.7159424,63.4460449 C31.6833496,63.7359619 32.4790955,64.3859863 32.9574586,65.2755738 L33.4388732,66.1712646 C34.1041564,67.4095154 34.5741271,68.7431336 34.8335266,70.1248168 L35.0746154,71.4134217 C35.2615355,72.4082947 36.1763,73.0987549 37.1833801,73.0041504 C38.191223,72.9103088 38.9625549,72.064209 38.9625549,71.0517883 L38.9625549,49.5483398 C38.9625549,49.3507385 39.0357971,49.1615295 39.1723633,49.0135193 L39.1868592,48.9974977 C39.3791199,48.7884521 39.6110535,48.7487793 39.7331238,48.7442016 C39.8658752,48.7373352 40.133667,48.7632752 40.3549195,49.0089416 C40.4884338,49.156952 40.5509949,49.3553162 40.5509949,49.5536805 L40.5509949,66.4749145 C40.5509949,67.4583436 41.2483215,68.3364867 42.2210693,68.4761047 C43.4333801,68.6500549 44.4717406,67.7146912 44.4717406,66.5367127 L44.4717406,58.5174561 C44.4717406,58.3885193 44.5175172,58.2595824 44.6121215,58.1726074 C45.0019836,57.8140258 45.614624,57.8773498 45.9213258,58.3335877 C46.0197449,58.480835 46.0609436,58.6593629 46.0609436,58.8371277 L46.0609436,67.2409059 C46.0609436,68.2235719 46.7575074,69.1024781 47.731018,69.2420959 C48.942566,69.4152832 49.9816895,68.4799195 49.9816895,67.301941 L49.9816895,62.097168 C49.9816895,61.5905762 50.1197814,61.087799 50.5455018,60.8161926 C50.7225037,60.7322693 51.0566711,60.7696533 51.222992,60.8734131 C51.3931273,60.9794617 51.4938355,61.1618043 51.4938355,61.3616943 L51.4938355,68.6180115 C51.4938355,69.6014404 52.1911621,70.4795838 53.16391,70.6192016 C54.3754578,70.793152 55.4145812,69.8577881 55.4145812,68.6798096 L55.4145812,66.3398742 C55.4145812,65.9881592 55.5206299,65.6494141 55.721283,65.361023 C55.859375,65.1618957 56.0569764,65.0268555 56.2370301,65.007782 C56.3720703,64.994049 56.6429139,65.0039672 56.8733215,65.2450563 C57.0129395,65.3915406 57.0800781,65.5929566 57.0800781,65.7951355 L57.0800781,80.8654785 C57.0800781,81.6337586 56.8374633,82.3822021 56.3865662,83.0039979 L55.884552,83.695984 C55.2192688,84.6138 54.8606873,85.7185363 54.8606873,86.8522645 L54.8606873,89.7514344 L39.6514893,89.7521973 L39.6507264,87.5732422 C39.6507264,85.8818055 38.9793396,84.2597961 37.7830506,83.0642699 L35.3706359,80.6526184 Z M43.2800293,46.3981629 C42.3210145,45.3292848 40.9820557,44.771576 39.5690918,44.8265076 C38.3125305,44.8791504 37.1513367,45.4177855 36.2968445,46.3478088 L36.278534,46.3676453 C35.4827881,47.2358703 35.0410461,48.3703613 35.0410461,49.5483398 L35.0410461,49.6421814 L16.7831422,49.6421814 C16.7823791,49.6421814 16.7823791,49.6421814 16.7823791,49.6421814 L16.7823791,34.2666625 C16.7823791,34.2666625 16.7823791,34.2658996 16.7831422,34.2658996 L83.2168578,34.2658996 C83.2176209,34.2658996 83.2176209,34.2666625 83.2176209,34.2666625 L83.2176209,49.6421814 C83.2176209,49.6421814 83.2176209,49.6421814 83.2168578,49.6421814 L44.4717406,49.6421814 L44.4717406,49.6185303 C44.4717406,48.4375 44.0689086,47.277832 43.2800293,46.3981629 Z M37.5770568,95.9724426 L37.5732422,93.7095643 C37.5732422,93.7088012 37.5740051,93.7088012 37.5740051,93.7088012 L56.5681457,93.7034607 C56.5681457,93.7034607 56.5689086,93.7034607 56.5689086,93.7042236 L56.5727234,95.967102 C56.5727234,95.967865 56.5719605,95.967865 56.5719605,95.967865 L37.5778199,95.9732055 C37.5770568,95.9732055 37.5770568,95.9724426 37.5770568,95.9724426 Z M60.9817504,65.3633117 C60.9809875,65.3633117 60.9809875,65.3633117 60.9809875,65.3625488 C60.8779906,64.1784668 60.3279113,63.0691527 59.4337463,62.2718811 C58.4533691,61.3983154 57.1434021,60.9741211 55.8364867,61.1076355 C55.6930543,61.1221313 55.5511475,61.1442566 55.4107666,61.1724854 C55.4100037,61.1724854 55.4100037,61.1724854 55.4100037,61.1717225 C55.3489686,59.6862793 54.5700074,58.3419801 53.3004762,57.548523 C52.2003174,56.8611145 50.8674621,56.690216 49.6490479,57.0487977 C49.6490479,57.0487977 49.648285,57.0487977 49.648285,57.0480348 C49.4194031,56.4674377 49.0753174,55.9326172 48.6289979,55.4725646 C47.5051879,54.3159484 45.9526062,53.8391113 44.4725037,54.0687561 C44.4717406,54.0687561 44.4717406,54.0687561 44.4717406,54.0679932 L44.4717406,53.5629273 L44.4725037,53.5629273 L85.1776123,53.5629273 C86.2602234,53.5629273 87.1383668,52.684784 87.1383668,51.60141 L87.1383668,32.3059082 C87.1383668,31.2225342 86.2609863,30.3451539 85.1776123,30.3451539 L14.8223877,30.3451539 C13.7397766,30.3451539 12.8616332,31.2225342 12.8616332,32.3059082 L12.8616332,51.60141 C12.8616332,52.684784 13.7397766,53.5629273 14.8223877,53.5629273 L35.0410461,53.5629273 L35.0410461,61.580658 C35.0410461,61.5814209 35.0410461,61.5814209 35.0402832,61.5814209 C34.1567992,60.7070922 33.0673219,60.057068 31.842041,59.6893311 C29.7767639,59.07135 27.4963379,60.1730348 26.7791748,62.3336793 C26.4640809,63.2827758 26.5365602,64.3180848 26.9165039,65.2427674 L26.965332,65.3617859 C26.9660949,65.3625488 26.965332,65.3625488 26.9645691,65.3625488 L3.92150879,65.3625488 C3.9207459,65.3625488 3.9207459,65.3625488 3.9207459,65.3617859 L3.9207459,24.9977111 C3.9207459,24.9977111 3.9207459,24.9969482 3.92150879,24.9969482 L74.9061584,24.9969482 C75.8888244,24.9969482 76.7677307,24.3003846 76.9073486,23.3276367 C77.0812988,22.1160889 76.1459352,21.0762023 74.9679566,21.0762023 L3.92150879,21.0762023 C3.9207459,21.0762023 3.9207459,21.0762023 3.9207459,21.0762023 L3.9207459,3.92150879 C3.9207459,3.9207459 3.9207459,3.9207459 3.9207459,3.9207459 L96.0792541,3.9207459 C96.0792541,3.9207459 96.0792541,3.9207459 96.0792541,3.92150879 L96.0792541,21.0762023 C96.0792541,21.0762023 96.0792541,21.0762023 96.0784912,21.0762023 L90.4670715,21.0762023 C89.4844055,21.0762023 88.6062621,21.7735291 88.4658812,22.746277 C88.2919312,23.9578246 89.2272949,24.9969482 90.4052734,24.9969482 L96.0784912,24.9969482 C96.0784912,24.9969482 96.0792541,24.9977111 96.0792541,24.9977111 L96.0792541,65.3625488 C96.0792541,65.3633117 96.0792541,65.3633117 96.0792541,65.3633117 L60.9817504,65.3633117 Z" id="Shape" fill="#386874" fill-rule="nonzero"></path>
                <path d="M12.4763488,6.67266836 C9.30862422,6.67266836 6.73217773,9.24987793 6.73217773,12.4168396 C6.73217773,15.5845643 9.30938711,18.1617736 12.4763488,18.1617736 C15.6440734,18.1617736 18.2205199,15.5845643 18.2205199,12.4168396 C18.2205199,9.24987793 15.6440734,6.67266836 12.4763488,6.67266836 Z M12.4763488,14.2410277 C11.4707947,14.2410277 10.6529236,13.4231566 10.6529236,12.4168396 C10.6529236,11.4112854 11.4707947,10.5934143 12.4763488,10.5934143 C13.4819031,10.5934143 14.2997742,11.4112854 14.2997742,12.4168396 C14.2997742,13.4231566 13.4819031,14.2410277 12.4763488,14.2410277 Z" id="Shape" fill="#016737" fill-rule="nonzero"></path>
                <path d="M26.2611389,6.67266836 C23.0934143,6.67266836 20.5162049,9.24987793 20.5162049,12.4168396 C20.5162049,15.5845643 23.0934143,18.1617736 26.2611389,18.1617736 C29.4281006,18.1617736 32.0053102,15.5845643 32.0053102,12.4168396 C32.0053102,9.24987793 29.4281006,6.67266836 26.2611389,6.67266836 Z M26.2611389,14.2410277 C25.2548219,14.2410277 24.4369508,13.4231566 24.4369508,12.4168396 C24.4369508,11.4112854 25.2548219,10.5934143 26.2611389,10.5934143 C27.2666932,10.5934143 28.0845643,11.4112854 28.0845643,12.4168396 C28.0845643,13.4231566 27.2666932,14.2410277 26.2611389,14.2410277 Z" id="Shape" fill="#016737" fill-rule="nonzero"></path>
                <path d="M40.0039672,6.67266836 C36.8362426,6.67266836 34.2597961,9.24987793 34.2597961,12.4168396 C34.2597961,15.5845643 36.8370057,18.1617736 40.0039672,18.1617736 C43.1716918,18.1617736 45.7489014,15.5845643 45.7489014,12.4168396 C45.7489014,9.24987793 43.1716918,6.67266836 40.0039672,6.67266836 Z M40.0039672,14.2410277 C38.9984131,14.2410277 38.180542,13.4231566 38.180542,12.4168396 C38.180542,11.4112854 38.9984131,10.5934143 40.0039672,10.5934143 C41.0095215,10.5934143 41.8281555,11.4112854 41.8281555,12.4168396 C41.8281555,13.4231566 41.0095215,14.2410277 40.0039672,14.2410277 Z" id="Shape" fill="#016737" fill-rule="nonzero"></path>
                <path d="M46.7124939,44.5304871 L48.0819703,42.6231385 C48.713684,41.7434691 48.5130311,40.5189514 47.6333617,39.8872375 C46.7536926,39.2555236 45.5291748,39.4569396 44.8974609,40.3358459 L43.5279846,42.2431945 C42.8962707,43.1228637 43.0976867,44.3473816 43.976593,44.9790955 C44.3229676,45.2278137 44.7227479,45.3475953 45.1187133,45.3475953 C45.7290648,45.3475953 46.3302613,45.0630188 46.7124939,44.5304871 Z" id="Path" fill="#FFFFFF"></path>
                <path d="M39.8414611,37.9699707 C38.75885,37.9699707 37.8807068,38.8473512 37.8807068,39.9299621 L37.8807068,42.2782898 C37.8807068,43.3609008 38.75885,44.2382812 39.8414611,44.2382812 C40.9240723,44.2382812 41.8014527,43.3609008 41.8014527,42.2782898 L41.8014527,39.9299621 C41.8014527,38.8473512 40.9240723,37.9699707 39.8414611,37.9699707 Z" id="Path" fill="#FFFFFF"></path>
                <path d="M35.11734,40.3358459 C34.4856262,39.4569396 33.2603455,39.2555236 32.3814393,39.8872375 C31.5017699,40.5189514 31.301117,41.7434691 31.9328309,42.6231385 L33.302307,44.5304871 C33.6845398,45.0637816 34.286499,45.3475953 34.8960877,45.3475953 C35.2920531,45.3475953 35.6918336,45.2278137 36.038208,44.9790955 C36.9171143,44.3473816 37.1185303,43.1228637 36.4868164,42.2431945 L35.11734,40.3358459 Z" id="Path" fill="#FFFFFF"></path>
                <path d="M71.7170715,40.9965516 L78.5125732,40.9965516 C79.5951844,40.9965516 80.4733277,40.1191711 80.4733277,39.0365602 C80.4733277,37.953949 79.5951844,37.0758057 78.5125732,37.0758057 L71.7170715,37.0758057 C70.6336975,37.0758057 69.7563172,37.953949 69.7563172,39.0365602 C69.7563172,40.1191711 70.6336975,40.9965516 71.7170715,40.9965516 Z" id="Path" fill="#016737"></path>
                <path d="M84.0438844,21.4973449 L83.9866639,21.4538574 C83.1245422,20.7992555 81.8946838,20.967102 81.2393187,21.8292236 C80.5847168,22.6913453 80.7525635,23.9212035 81.6146852,24.5765686 L81.6726684,24.6200562 C82.0266723,24.8893738 82.4432373,25.0198363 82.8567504,25.0198363 C83.4487914,25.0198363 84.0332031,24.7528076 84.4192504,24.2446898 C85.0738525,23.3825684 84.9060059,22.15271 84.0438844,21.4973449 Z" id="Path" fill="#016737"></path>
            </g>
        </g>
    </g>
</svg>