<svg version="1.2" xmlns="http://www.w3.org/2000/svg" viewBox="0 0 1005 581" width="1005" height="581"><style>.a{fill:#005c4b}.b{fill:#c1996c}</style><path class="a" d="m255.4 76.7c9.7-15.8 19.8-31.5 29.3-47.4 0.3 4.6-1.1 9.2-0.3 13.8 0.7 12.6 6.1 24.4 12.5 35.1 14.6 22.6 35.9 39.8 58.1 54.6 10.3 6.8 21 13 31.9 18.7 21 11.5 41.3 24.3 59.4 40 4.4 4.6 9.6 8.3 13.5 13.4 7.5 7.7 13.7 16.5 19.1 25.8 1.6 3.3 3.4 6.5 4.5 9.9 0.3-1.4 0.7-2.8 1.1-4.2q0.9-2.8 1.8-5.7c4.8-14.3 12.5-27.5 22.4-38.9 10.3-12 23.1-21.5 36.5-29.7 11.9-7 24.5-12.9 37.2-18.4 10.2-4.1 20.5-8 30.8-11.8 6.6-2.1 13-4.9 19.5-7.2 3.8-1.5 7.7-2.7 11.3-4.6 7.5-2.8 14.5-6.6 21.3-10.9 7.3-4.9 14.3-11.8 15.5-20.9 5.9 4.1 12 7.8 18.3 11 0 0.6 0.2 1.7 0.2 2.3 0.4-0.4 0.7-0.9 1.1-1.3 17.9 10.7 36.2 20.6 54.3 31 4 2.2 7.9 4.3 11.8 6.6-1 3.1-2 6.1-3.1 9.1-1.6 3.8-3.6 7.5-5.6 11.1-2.7 3.8-5.1 7.8-8.6 11-3.2 3-6 6.6-9.8 8.8-21.5 15.8-47.8 22.9-73.5 28.3-35.8 7.6-72.5 11.6-107.2 23.7-21.5 7.4-42.4 19.3-56.2 37.9-9 11.7-14.2 25.8-17 40.2-0.8-10.6-3.4-21.1-8.4-30.6-5.5-11-13.6-20.6-22.5-29-20.6-18.9-45.1-32.7-69.5-45.9-22.5-12.2-45.5-23.6-67.2-37.2-9.4-5.3-18.1-11.9-26.6-18.6-13-10.8-24.8-23.7-31.6-39.3-3.1-7.2-4.9-14.9-5.7-22.6 0.6-2.6-0.4-5.7 1.4-8.1z"/><path class="a" d="m167.3 220.2c9.4-7.2 18.6-14.6 27.9-21.9 5.2 0.4 10.3 2 15.4 2.9 38.8 7.2 78.3 9.6 117.2 16.4 30.2 5.4 60.6 13.6 86.6 30.4 23.8 15.1 42.4 37.5 54.6 62.8-14.3 2.4-28 8.8-38.8 18.5-0.3-2.5-0.8-4.9-1.3-7.4-3.7-12.2-16-18.8-27.4-22.3-6.7-1.9-13.6-3.5-20.5-4.7l0.3 0.7c-5.5-2.6-11.9-1.7-17.7-3.1-5.2-0.5-10.5-1-15.7-1.5-3.9-1-8-0.2-11.9-1-4-0.8-8.2-0.1-12.2-0.8-5-0.4-9.9-1.3-14.9-1.2-6.1-0.3-12.1-1.7-18.2-1.6-3.4-0.2-6.6-0.9-10-1.1-3.1-0.7-6.4-0.3-9.5-0.9-5.8-1.1-11.6-1.2-17.4-2.2-3.7-0.7-7.4-0.8-11.1-1.6-10-1.2-19.9-2.8-29.7-5-17-3.1-33.7-7.5-50.2-12.3-9.1-3-18.2-5.9-27.1-9.4-2.3-1-4.7-1.9-7.1-2.9 12.9-10.4 25.9-20.5 38.7-30.8z"/><path class="a" d="m759.4 223.6c12.5-2.8 24.5-7.2 36.9-10.5 2.2 4.5 4 9.2 6.1 13.8-26.5 10.4-54.7 15.8-82.8 20.3-35 5.6-70.3 9.4-105.2 16-19.2 3.7-38.5 8.2-56.4 16.3-10.8 5-21.4 11.6-28.1 21.8-4.2 5.8-6.6 12.8-6.9 19.9-0.4-0.2-1.1-0.5-1.4-0.7-1.3-0.6-2.5-1.3-3.7-2 0.5-5.9 1.5-11.9 3.9-17.4 4.8-11.2 13.5-20.3 23.4-27.1 10.9-7.4 23-12.9 35.6-16.6 26.3-8.9 53.9-13.3 81.2-17.5 32.6-4.8 65.3-8.7 97.4-16.3z"/><path class="a" d="m409.9 361.7c6.3-5.1 16.7-4.8 22.3 1.2 2 1.9 3.1 4.5 4.2 7 0.3 3.2 0.2 6.4 0 9.5-2 5.2-6.1 9.8-11.6 11.2-2.9 0.4-5.9 0.4-8.8 0-6.6-1.7-11.6-7.7-12.1-14.4v-3.1c0.7-4.3 2.4-8.8 6-11.4z"/><path class="a" d="m224.5 373c3-1.1 5.8-2.6 8.8-3.6 0 23.5 0 47 0 70.4 0.1 3.6-0.5 7.5 1 10.9-5.2 0-10.5 0.1-15.7 0-1.7 0-3.7-1.2-3.7-3.1 0-23.5 0-46.9 0-70.4 3.2-1.3 6.3-2.9 9.6-4.2z"/><path class="a" d="m294.8 373c2.1-0.4 4.3-0.2 6.4-0.2 3.4 1.7 6.7 4.3 7 8.4 0.2-2.7 2-4.8 3.8-6.6 3-1.7 6.3-2.2 9.7-1.8 4 1.7 7.7 5.5 7.3 10.1 0.4 4.2-2.4 8.4-6.2 10.1-2.1 1.2-4.6 0.5-6.9 0.7-3.6-1.2-6.8-3.7-7.6-7.6-1.3 2.6-2.8 5.3-5.6 6.6-2.2 1.4-5 0.8-7.5 1-1.3-0.6-2.5-1.2-3.8-1.9-1.7-1.5-2.9-3.4-3.9-5.4-0.2-2.7-0.4-5.6 0.6-8.2 1.7-2.3 3.9-4.3 6.7-5.2z"/><path class="a" d="m380.9 379.4c1.5-0.6 3-1.2 4.4-1.8 1.8 0 3.7 0 5.5 0.1 2.8 0.3 5 2.2 7.2 3.7 1.7 2.4 3.4 4.9 3.6 7.9 0.5 3.2-0.6 6.3-1.7 9.3-2.2 2.2-4.2 5-7.5 5.6-3.6 1.3-7.5 0.7-10.9-0.8-3.7-2-6-5.8-7.1-9.7q0-2.4 0-4.8c0.9-3.9 3.2-7.4 6.5-9.5z"/><path class="a" d="m671.7 385.6c6-2.9 12.2-5.2 18.1-8.1 0.5 3.6 0.2 7.3 0.3 10.9 0 17.4-0.1 34.8 0.1 52.1 13.3 0 26.5 0 39.8 0 5.9 0 11.7 0.2 17.6-0.4-4.3-0.7-8.4-2.3-12.5-3.8-11.4-5.4-21.4-13.6-29.3-23.4-1.2-1.6-2.8-2.9-3.3-4.9 3.8-5.2 7.6-10.4 11.1-15.8 3.1 5.2 6.8 10.1 10.8 14.6 13.5 15.5 31.5 27.4 51.5 32.5 3.3 0.9 6.6 1.5 10 1.5 0 3.3 0 6.7 0 10-36.5 0-73.1 0-109.6 0-2.1 0.3-3.6-1.2-4.7-2.8 0.3-20.9 0-41.6 0.1-62.4z"/><path class="a" d="m476.5 392c3.4-1.4 7.1-1.5 10.6-0.2 2.9 1.6 5 4.3 6.4 7.2 0 3.3 0.9 7.1-1.2 10-2.9 5.1-9.6 6.9-14.9 5.1-2.4-1.4-4.7-3.2-6.1-5.6-1.8-2.6-1-5.9-1.1-8.8 1.2-3.1 3.2-6 6.3-7.7z"/><path class="a" d="m416.3 402.3c7-3.2 14.1-6.5 21.3-9.3 0 19.2 0 38.4 0 57.7-55.5 0.1-111.1 0-166.6 0.1-0.7 8-3 16.3-9 22-4.5 4.6-10.8 6.6-16.9 7.8-8.5 0.8-17.1-0.1-25.4-1.6-1.7-0.9-3-2.2-3.9-3.8q0-7.8 0-15.6c2.6 1.3 5.3 2.2 8.1 2.9 2.9 0.8 5.9 1.4 8.9 1.7 7 0.5 14.6-3 17.2-9.8 0.7-1.8 1.3-3.6 1.6-5.5 0.2-1.2 0.5-2.3 0.4-3.5q0-16.8 0-33.6c-0.2-0.3-0.6-0.9-0.8-1.2 2.9-2.1 6.5-2.9 9.7-4.6 3.2-1.6 6.6-2.9 9.9-4.3 0.4 12.9 0 25.9 0.2 38.8 4.1 0 8.2 0 12.2 0-0.3-0.8-0.7-1.7-1-2.5 0.1-3.8-0.5-7.6 0.5-11.3-0.1-0.2-0.2-0.5-0.3-0.7 1.7-6.2 4.8-12.2 10.2-16.1 4.3-3.4 9.2-6 14.6-7 5.7-0.1 12-1.2 17.1 2 6.2 3.5 10 10 11.5 16.8 1.4 6.2 2.4 12.6 2.4 18.9q4.8 0 9.6 0c0-3.3 0-6.5 0.1-9.8 4.1-1.3 8-3.2 12-4.8 1.9-0.7 3.7-1.5 5.5-2.4 1.1-0.4 2.3-0.8 3.4-1.1 0.1 5.7-0.1 11.5 0.1 17.2 0.3 0.2 0.8 0.6 1.1 0.8q5.7 0.3 11.4 0c0.3-0.3 0.8-0.8 1.1-1 0.3-7.7-0.2-15.5 0.2-23.2 6.8-3.2 13.7-6.1 20.5-9.4 0.5 2.8 0.3 5.6 0.3 8.4q0 12.6 0 25.2c4 0.1 8 0 11.9 0 0.3-0.3 0.9-1 1.2-1.3-0.4-12.3-0.3-24.6-0.3-36.9zm-116.1 24.5c-1.1 2.7 0.7 5.3 2.3 7.4 4.1 3.8 9.6 6.1 15.1 6.1-0.4-3.2 0.4-6.5-0.5-9.6-0.7-2.7-1.7-5.4-3.3-7.8-1.5-1.8-3.7-2.6-5.9-3.1-3.7 0.4-6.9 3.3-7.7 7z"/><path class="a" d="m350.8 399c4.4-1.7 9.9-1.8 13.4 1.8 0.5 0.7 1.1 1.4 1.7 2.1 2.3 4.7 1.5 11.3-3.1 14.3-5.2 3.5-13 1.9-16-3.8-1.4-3.5-1.5-7.6 0.6-10.8 1.1-1.3 2.3-2.4 3.4-3.6z"/><path class="a" d="m508.2 402.8c6.4-0.1 12.9 0 19.3 0 0 12.3 0.1 24.7-0.1 37 1.7 1.2 3.9 0.8 5.8 0.9 7.3-0.1 14.5 0.1 21.8-0.1-4.6-6.1-9.4-11.9-14.1-17.9-1.4-1.6-2.7-3.2-3.5-5.2 0.1-4.8 0-9.7 0-14.5 19.3 0 38.5 0 57.8 0 0 5.1-0.1 10.3 0.1 15.4-6 7.3-11.9 14.7-18.1 21.9 2.9 0.8 5.9 0.4 8.9 0.5 6.7-0.1 13.5 0.2 20.2 0.1-0.5-1.9-1.2-3.7-1.1-5.7 0.2-3.4-0.5-6.9 0.8-10.2 2.2-10.2 11.2-17.6 20.6-21.1 5-1.6 10.2-1 15.4-1 6.6 1.5 11.8 6.5 14.3 12.6 4.6 10.8 4.8 22.8 4.5 34.4-0.2 0.2-0.6 0.6-0.8 0.8-28.6 0.1-57.3 0-85.9 0.1-3.5 0.4-7.2-0.3-9.1-3.6-2.2 1.3-3.9 3.6-6.7 3.5-28.2 0.1-56.4 0-84.6 0-1.1 0-2.2-0.1-3.2-0.5-0.5-2.5-0.3-5.1-0.2-7.6 0.7-2.6 3.3-4 5-6 10.9-11.4 21.9-22.6 32.9-33.8zm115.8 28.7c0.6 0.8 1.3 1.7 1.9 2.6 2.4 2.1 5.2 3.8 8.2 4.9 2.3 0.5 4.5 1 6.8 1.2 0.2-4.6 0.3-9.5-1.6-13.8-1.3-3.7-4.8-6.9-8.9-6.5-5 1.2-7.9 6.8-6.4 11.6zm-72.4-12.2c5.1 5.9 9.4 12.5 14.9 18 4.8-6.1 9.9-11.9 14.6-18-9.8 0-19.7 0-29.5 0zm-56.2 21.1c4 0.3 8 0.1 12 0.2 0.4-0.2 1.1-0.5 1.4-0.7 0.1-4.8 0-9.6 0-14.4-4.2 5.1-9.1 9.7-13.4 14.9z"/><path class="a" d="m455.9 418.1c1.6-4.5 6.2-7.4 10.9-6.7 8-0.6 12.7 9.9 8.3 16.2-3.5 5.9-12.8 6.7-17.1 1.3-3-2.8-2.3-7.2-2.1-10.8z"/><path class="a" d="m179.3 426.7c1.7-4 4.9-7.7 9.3-8.6 4.1-0.5 8.3-0.2 12.4-0.3 0 4.6 0.1 9.3 0 13.9-1.5 0-3 0-4.5-0.1-1.1 1.4-2.7 3-1.7 4.8 1 2.5 3.9 2.7 6.3 2.6-0.1 3.8 0 7.6-0.1 11.4-8 0-16 0-23.9 0q0-5 0-9.9c1.6-0.1 3.1-0.1 4.7-0.1-3.1-3.8-3-8.9-2.5-13.7z"/><path class="a" d="m747.1 456.1c1.7-0.6 3.6-0.8 5.4-1 1.3 0.4 2.7 0.7 4.1 1 1.7 1.4 3.2 2.9 4.6 4.5 1 2.9 1.8 6.1 0.4 9-2.4 7.1-13.3 9.2-17.9 3.1-0.6-0.7-1.2-1.6-1.8-2.3-1-2.6-1-5.4-0.6-8.1 1.5-2.4 3.3-4.7 5.8-6.2z"/><path class="a" d="m542.3 493.3c3.7-0.6 7.5 2.7 7.1 6.5-0.6 3.8-5 6.9-8.8 5.2-3.7-1-5.4-6.2-3-9.2 1-1.6 3-2.2 4.7-2.5z"/><path class="a" d="m702 493.2c2.8-0.3 6.2 0.8 7.2 3.7 0.2 1.7 0.1 3.5 0.1 5.2-1.9 2.1-4.7 4.4-7.7 3.1-3.5-0.7-5.3-4.8-4.2-8.1 1-1.8 2.5-3.4 4.6-3.9z"/><path class="a" d="m220.9 493.8c3.7 0 7.3 0 11 0 0 6.5-0.1 13 0 19.5 3.8-3.4 9.2-5.8 14.3-3.8 4.8 1.2 7.5 6 8.3 10.7 0.3 8.4 0.2 16.9 0.1 25.3-3.6-0.1-7.2 0-10.9 0-0.1-6.5 0-13-0.1-19.5 0-2.4-0.8-4.6-2-6.6-1.6-0.6-3.2-1.6-5-1.1-3.1 0.7-5.1 3.9-4.9 7 0 6.7 0 13.4 0 20.2-3.7 0-7.3 0-11 0 0.1-17.3 0.2-34.5 0.2-51.7z"/><path class="a" d="m191.2 496.3c5.2-1.6 10.7-1.2 16 0 1.4 0.5 2.7 1.1 4.1 1.7-0.4 1-0.7 2-1 3.1-0.6 1.9-1.1 3.9-1.7 5.9-1.4-0.6-2.7-1.1-4.1-1.6-3.9-0.6-8.5-1.6-11.8 1.1-1.8 1.6-1.4 4.1-0.1 5.9 5.3 3.5 12.1 4.3 16.7 8.9 4.9 4.4 4.9 12.4 1.7 17.7-1.4 2.7-4.3 4-6.8 5.5-3.3 0.8-6.5 1.9-10 1.9-5.2 0.1-10.3-1.3-15.1-3.1 1-3.1 1.8-6.3 2.4-9.5 5.2 2.7 11.1 3.6 16.9 2.6 1-0.8 2.1-1.6 2.9-2.6 0.2-1.4 0.1-2.8 0.2-4.2-4.7-5.1-12.8-4.8-17.4-10.2-5.6-4.6-5.4-13.9-0.3-18.8 1.8-2.2 4.7-3.3 7.4-4.3z"/><path class="a" d="m443.3 496.2c3.7-0.1 7.5 0 11.2 0q0 14.1 0 28.2c0.1 4.3 1 9.2 4.6 12 3.3 1.2 6.8 0.9 9.8-1 0.6-1 1.3-1.9 1.9-2.8 2.1-6.7 1.1-13.9 1.4-20.8-0.2-5.2 0.5-10.5-0.4-15.6 3.8 0 7.6 0.1 11.4 0 0.1 10.5 0.1 20.9 0 31.4 0 2.1-0.5 4.1-1 6-1.2 2.8-2.4 5.8-4.7 7.9-2 1.9-4.6 2.9-7.2 3.9-6.4 1.7-13.6 1.3-19.3-2.2-3-1.8-4.7-5-6.2-8-0.7-2.4-0.9-4.8-1.5-7.2-0.1-10.6 0.1-21.2 0-31.8z"/><path class="a" d="m720.3 502.9c3.8-1 7.5-2.1 11.3-3.1 0 3.3 0 6.6 0 9.8 2.5 0 5 0 7.6 0 0 2.8 0 5.5 0 8.3-2.5 0.1-5 0.1-7.6 0.1-0.1 5.1 0.2 10.1-0.3 15.2 0.6 3.4 4.3 4.4 7.3 3.5 0 2.9 0 5.8 0.1 8.7-4.9 1.4-10.4 1.4-14.7-1.6-1.8-1.3-2.5-3.5-3.2-5.6-1.3-6.6-0.5-13.4-0.7-20.2q-2.1 0-4.2 0 0-4.2 0-8.4 2.1 0 4.2 0c0-2.2-0.1-4.4 0.2-6.7z"/><path class="a" d="m313.9 508.2c0.6 0.1 1.1 0.2 1.6 0.5 4.7-0.3 9.8 0.8 12.6 4.9 0-1.3 0-2.6 0.1-3.8 3.7 0 7.5-0.1 11.2 0-0.7 16.6-0.2 33.3-0.3 49.9-3.7 0-7.5 0-11.2 0 0-6 0.1-12 0-18-2.2 1.3-3.8 3.5-6.4 4-4.9 1.7-10.4 0-14-3.5-3.2-3.2-4.7-7.8-4.9-12.2-0.3-4.8 0.1-9.8 2.8-13.9 2.5-3.3 5.8-6.5 10.2-6.8zm0.6 14.2c-1 3.3-1.3 7 0.1 10.3 1.1 2.9 4.3 5 7.4 4.6 2.2-0.4 3.7-2.2 5.2-3.7 0.9-3 0.8-6.1 0.6-9.2-0.3-3.6-3.4-7-7.2-6.7-2.8 0.1-4.9 2.3-6.1 4.7z"/><path class="a" d="m270.3 509.8c6-1.2 12.7-1.9 18.3 1.4 2.9 1.8 4.5 4.9 5.5 8 0.6 8.7-0.6 17.5 1.1 26.2-3.4 0-6.7 0-10.1 0-0.3-1.2-0.6-2.4-0.9-3.5-5.1 6.1-16.4 6.1-20.4-1.1-2.2-3.2-1.4-7.1-0.7-10.6 3.8-6.8 12.5-9.3 19.8-8.6 0.1-0.5 0.2-1.4 0.3-1.8q-1.3-1.3-2.7-2.7c-4.6-0.4-9.4-0.1-13.5 2.3-0.7-2.4-1.3-4.8-2.3-7.1 1.8-1.1 3.7-1.9 5.6-2.5zm5.5 20.4c-1.8 0.6-2.1 2.6-2.7 4.2 0.7 1.3 1.6 2.5 2.6 3.6q2 0 3.9 0c0.8-0.6 1.5-1.1 2.3-1.7 0.5-0.8 1.1-1.5 1.6-2.2 0.1-1.8 0.1-3.6 0.1-5.4-2.6 0.2-5.4 0.1-7.8 1.5z"/><path class="a" d="m358.3 515.9c2.2-4.6 7.1-8.1 12.4-7.1 0 3.6 0 7.1 0 10.7-2.5-0.2-5 0-7.4 0.8-1.6 1.6-3.5 3.2-3.5 5.7-0.1 6.5 0 12.9 0 19.4-3.8 0-7.5 0-11.3 0-0.2-11.9 0.3-23.8-0.3-35.7 3.4 0 6.7 0 10.1 0 0.1 2.1 0.1 4.1 0 6.2z"/><path class="a" d="m381.5 510.1c5.3-1.3 10.9-1.8 16.2-0.3 3.6 1.4 6.4 4.3 7.9 7.9 0.7 2.7 1 5.5 0.9 8.3-0.1 6.5 0.1 13 0.1 19.4-3.2-0.1-6.5 0.2-9.7-0.3-0.3-1.1-0.5-2.1-0.9-3.2-3.8 4.3-10.4 5.7-15.6 3.1-2.1-0.9-3.4-2.8-4.9-4.4-1.2-2.8-1.1-5.9-0.9-8.9 0.9-3 3.2-5.1 5.5-7.1 1.1-0.5 2.2-1.1 3.3-1.6 3.9-1 7.9-2.2 12.1-1.7-0.2-1.8-1.2-3.6-3-4.2-2.6-0.7-5.4-0.3-8-0.2-1.8 0.8-3.7 1.5-5.7 1.9-0.6-2.4-1.2-4.8-1.9-7.2 1.5-0.3 3.1-0.9 4.6-1.5zm6.6 19.5c-0.8 1-2 1.8-2.4 3-1.2 2.4 0.9 5.9 3.7 5.4 2.5 0.5 4.2-1.5 5.8-3 0.6-2.1 0.7-4.3 0.7-6.4-2.7 0.3-5.3 0.4-7.8 1z"/><path class="a" d="m503.6 514.7c3.3-5.8 10.8-7 16.7-5 1.7 1.1 3.2 2.5 4.6 3.9 1.2 2.7 2.7 5.4 2.6 8.5-0.2 7.8 0 15.5-0.1 23.3-3.7 0-7.5 0-11.2 0 0-6.5 0-12.9 0-19.4-0.1-2.5 0-5.5-2.3-7.1-1.2-0.5-2.5-0.7-3.7-1-2.7 0.6-5.1 2.6-5.3 5.6-0.4 7.3 0.1 14.6-0.2 21.9-3.6 0-7.3 0-10.9 0-0.1-9.6 0-19.3 0-28.9 0-2.3-0.3-4.6-0.6-6.8 3.3 0 6.5 0 9.8 0 0.2 1.6 0.5 3.3 0.6 5z"/><path class="a" d="m605.7 510c5.4-2.2 11.6-1.6 16.5 1.3 5.6 4.8 7.4 12.8 6.2 19.8-7.7 0-15.4 0-23.2 0 0.3 3.8 4 5.5 7.3 6.3 2.3 0.7 4.8 0.5 7.2 0 1.8-0.4 3.7-0.9 5.6-1.2 0.4 2.6 0.9 5.2 1.1 7.8-1.4 0.5-2.9 0.9-4.3 1.3-5.8 1.2-11.9 1.5-17.4-0.8-6.5-2.4-10.5-9.4-9.8-16.2-0.7-7.5 3.5-15.6 10.8-18.3zm4.5 6.7c-3 0.7-4.5 3.7-4.8 6.5 4.3 0 8.6-0.1 12.9 0-0.2-2.4-1.4-4.5-3-6.2-1.6-0.3-3.4-1.1-5.1-0.3z"/><path class="a" d="m650 510.8c2.2-1.8 5.2-2.1 7.9-2.1 0.2 3.6 0.1 7.2 0.1 10.8-4-0.9-9 0.6-10.3 4.9-0.2 7-0.1 13.9-0.1 20.9-3.9 0-7.8 0-11.6 0-0.1-11.9-0.4-23.8 0.3-35.7 3.2 0 6.3 0 9.5 0 0.1 1.9 0.3 3.8 0.7 5.6-0.1 0.4-0.4 1.1-0.5 1.4 1-2 1.9-4.4 4-5.8z"/><path class="a" d="m671.8 509.8c4.4-1.2 9.1-1.3 13.6 0 1.1 0.4 2.1 0.8 3.2 1.2-0.9 2.5-1.4 5.2-2 7.8-3.2-1.7-6.8-2-10.3-1.7q-1 1.3-2.1 2.7c2.9 4.1 8.8 3.6 12.3 7 5.6 4.4 4.2 13.9-1.8 17.2-6.7 3.7-15.1 2.8-21.9-0.3 0.9-2.6 1.5-5.3 2.1-8 3.9 1.8 8.2 3 12.5 2.4 0.5-0.5 1.1-1 1.6-1.4 0-1.6-0.6-3.5-2.2-4.1-3.6-1.5-7.6-2.6-10.5-5.3-1.2-1.3-1.7-3.1-2.5-4.7 0-1.1 0.1-2.2 0.1-3.2 0.5-4.6 3.9-8 7.9-9.6z"/><path class="a" d="m697.9 509.9c1.1-0.2 2.3-0.8 3.4-0.8 2.5 0.8 5.2 0.6 7.8 0.6q0 17.8 0 35.7c-3.7 0-7.5 0-11.2 0-0.1-11.8 0-23.7 0-35.5z"/><path class="a" d="m537.4 509.7c3.7 0 7.5 0 11.2 0q0 17.8 0 35.7c-3.7 0-7.5 0-11.2 0q0-17.9 0-35.7z"/><path class="a" d="m554.5 509.7c4.1 0 8.2 0 12.3-0.1 2.3 8.3 5 16.5 6.8 24.9 1.5-8.5 4.3-16.7 6.6-24.9 3.9 0 7.9 0.1 11.8 0-1.8 5.1-4 10-5.6 15.2-1.7 4.1-3.2 8.4-4.7 12.7-1.1 2.6-1.9 5.4-3.1 7.9q-5.6-0.1-11.1 0c-4.3-11.9-8.6-23.8-13-35.7z"/><path class="a" d="m743 509.6c4.2 0.1 8.4 0 12.6 0 2.1 8 5.1 15.7 6.7 23.8l0.1 0.7c2.1-7.9 3.9-15.9 5.9-23.8 0.2-0.1 0.5-0.4 0.6-0.6 3.8-0.3 7.7 0 11.6-0.1-1.2 3.4-2.3 6.9-3.5 10.3-2.5 6.6-4.7 13.2-7.1 19.8-2.5 5.6-4.8 11.6-9.3 16-2.7 2.8-6.3 4.1-9.7 5.7-0.9-0.3-2.3-0.2-2.3-1.4-0.6-2.7-1.3-5.4-2-8.2 4.2-1.3 8.6-3.7 10.2-8.1-2.7-6-4.8-12.2-7.5-18.2-1.9-5.3-4.3-10.5-6.3-15.9z"/><path class="b" d="m588.4 46.1c6.4-7.7 16.2-12.3 26.2-12.7 8.2 0.2 16.6 2.8 22.9 8.2 8.4 6.8 13.2 17.6 13 28.4-0.5 8.6-3.7 17.3-10 23.4-6.1 6.7-15.2 10.9-24.3 10.5-3.2-0.1-6.4 0.3-9.5-0.7-8.4-2.2-16.4-7.2-20.9-14.8-3.3-4.7-4.7-10.3-5.7-15.8-0.5-9.5 1.8-19.4 8.3-26.5z"/><path class="b" d="m529.1 79.9c12.2-8 30.4-4.5 38.7 7.6 5.3 6.8 6.5 16.1 4.7 24.3-2.2 9.4-9.5 17.4-18.7 20.4-4.4 1.7-9.2 1.4-13.9 1.4-8.6-1.4-16.3-6.6-20.8-14 0.4 0 1.1-0.1 1.4-0.2-0.4-0.1-1.1-0.2-1.5-0.3-7.7-12.8-3.3-31.8 10.1-39.2z"/><path class="b" d="m489.3 124.9c5.6-0.7 11.7-1 16.7 2.1 7.3 3.9 12.3 12 11.9 20.3 0.1 8.4-5.1 16.4-12.5 20.3-4.2 1.6-8.7 3.1-13.2 2.2-3.4-0.7-6.8-1.6-9.6-3.7-7.7-4.7-11.4-14.5-9.8-23.2 1.4-8.5 8.2-15.7 16.5-18z"/><path class="b" d="m207.1 188.8c17-13.2 33.3-27.2 50.3-40.4 2.4 0.2 4.5 1.7 6.7 2.4 15.1 5.5 30.9 8.5 46.6 11.6 2.7 0.3 5.2 1.6 7.5 3 21.7 13.6 44.7 25 67.2 37.2 24.4 13.2 49 27 69.5 45.9 8.9 8.4 17 18 22.5 29 4.9 9.5 7.6 20 8.4 30.6 2.9-14.4 8.1-28.5 17-40.2 13.8-18.6 34.7-30.4 56.2-37.9 34.7-12.1 71.4-16.1 107.2-23.7 25.7-5.4 52-12.5 73.5-28.3l1.2 0.2c18.4 11.7 37 23.3 55.4 35-12.3 3.3-24.4 7.6-36.9 10.5-32.1 7.6-64.9 11.5-97.4 16.4-27.4 4.2-54.9 8.6-81.2 17.5-12.6 3.7-24.7 9.2-35.6 16.6-9.9 6.8-18.6 15.9-23.4 27.1-2.4 5.5-3.4 11.5-3.9 17.4-9.5-4.8-19.8-8.1-30.4-8.6-6.1 0.1-12.3-0.5-18.4 0.8-12.2-25.2-30.8-47.7-54.6-62.8-26-16.8-56.4-25-86.6-30.4-38.9-6.8-78.4-9.3-117.2-16.4-5.2-0.9-10.2-2.5-15.4-2.9h-0.3c4.5-2.5 8.1-6.4 12.1-9.6z"/><path class="b" d="m802.4 226.9l0.2-0.1c4.3 10.2 9.2 20.2 13.6 30.4 1.2 2.5 2.6 5 3.2 7.7-17 6.2-35 9.1-53 11-9.5 0.2-18.9 2.2-28.5 1.6-18.2 0.2-36.4 0.4-54.5 0.1-19 0-38-0.5-56.9 0.7-7.6 0.8-15.3 0.7-22.9 1.6-11.2 1.6-22.4 3.4-33 7.4-2.6 1-5.1 2.4-7.8 3.1l-0.9-0.6c0.1 0.3 0.3 0.9 0.5 1.2-11.6 5.4-20.3 16.3-23.6 28.6-0.8 2.8-1.3 5.7-0.8 8.7 0.1 1.3 0.7 3.1-0.8 3.8-2.7-1.6-4.8-4.1-7.3-6-2.7-2-5.4-3.9-8.2-5.6 0.4 0.2 1.1 0.5 1.4 0.7 0.3-7.1 2.6-14.1 6.9-19.9 6.6-10.2 17.2-16.8 28.1-21.8 17.9-8.1 37.2-12.6 56.4-16.3 34.9-6.7 70.2-10.4 105.2-16 27.9-4.5 56.1-9.9 82.7-20.3z"/><path class="b" d="m626.1 292.6c8.9-1.8 18.5 1 25 7.2 5.5 4.8 8.8 11.8 9.4 19 1.7 15.3-10.8 30.4-26.1 31.4-14.2 1.8-28.7-8.6-31.3-22.7-0.3-6-1-12.3 1.7-17.9 1.9-5 5.9-8.7 9.8-12.2 3.4-2.2 7.4-3.8 11.5-4.8z"/></svg>