<?xml version="1.0" encoding="UTF-8"?>
<svg width="23px" height="20px" viewBox="0 0 23 20" version="1.1" xmlns="http://www.w3.org/2000/svg" xmlns:xlink="http://www.w3.org/1999/xlink">
    <!-- Generator: Sketch 52.4 (67378) - http://www.bohemiancoding.com/sketch -->
    <title>shopping-cart (1)</title>
    <desc>Created with Sketch.</desc>
    <defs>
        <polygon id="path-1" points="0 0 22.7906977 0 22.7906977 20 0 20"></polygon>
    </defs>
    <g id="Symbols" stroke="none" stroke-width="1" fill="none" fill-rule="evenodd">
        <g id="Header-Signed-in" transform="translate(-214.000000, -78.000000)">
            <g id="Header">
                <g id="middle-header" transform="translate(69.000000, 60.000000)">
                    <g id="Left-Group" transform="translate(0.000000, 11.000000)">
                        <g id="shopping-cart-(1)" transform="translate(145.000000, 7.000000)">
                            <mask id="mask-2" fill="white">
                                <use xlink:href="#path-1"></use>
                            </mask>
                            <g id="Clip-2"></g>
                            <path d="M7.34293185,13.307671 L7.34395566,13.307671 C7.34484592,13.307671 7.34569167,13.3074935 7.34658193,13.3074935 L19.4522416,13.3074935 C19.750257,13.3074935 20.0123059,13.1104983 20.09421,12.8249195 L22.7649984,3.50967399 C22.8225538,3.30886391 22.7822249,3.09297201 22.6561637,2.92627347 C22.5299245,2.75957494 22.3325532,2.66149871 22.1230299,2.66149871 L5.80304434,2.66149871 L5.32577447,0.52103273 C5.25775839,0.216601637 4.98685143,0 4.67387955,0 L0.667697079,0 C0.298905726,0 0,0.297866064 0,0.665374677 C0,1.03288329 0.298905726,1.33074935 0.667697079,1.33074935 L4.13834198,1.33074935 C4.22282792,1.71005728 6.42240015,11.573882 6.54899551,12.1413579 C5.83941157,12.448761 5.34157663,13.153792 5.34157663,13.9728682 C5.34157663,15.0734866 6.24020787,15.9689922 7.34466787,15.9689922 L19.4522416,15.9689922 C19.8210329,15.9689922 20.1199386,15.6711262 20.1199386,15.3036176 C20.1199386,14.936109 19.8210329,14.6382429 19.4522416,14.6382429 L7.34466787,14.6382429 C6.97654421,14.6382429 6.67697079,14.3397115 6.67697079,13.9728682 C6.67697079,13.6065573 6.97552041,13.3085138 7.34293185,13.307671 Z M21.2377971,3.99224806 L18.9485309,11.9767442 L7.88020544,11.9767442 L6.09967989,3.99224806 L21.2377971,3.99224806 Z" id="Fill-1" fill="#000000" mask="url(#mask-2)"></path>
                            <path d="M6.66666667,17.9844961 C6.66666667,19.0958002 7.57086649,20 8.68217054,20 C9.79347459,20 10.6976744,19.0958002 10.6976744,17.9844961 C10.6976744,16.8731921 9.79347459,15.9689922 8.68217054,15.9689922 C7.57086649,15.9689922 6.66666667,16.8731921 6.66666667,17.9844961 Z M8.68217054,17.3126615 C9.05257537,17.3126615 9.35400517,17.6140913 9.35400517,17.9844961 C9.35400517,18.3549009 9.05257537,18.6563307 8.68217054,18.6563307 C8.31176572,18.6563307 8.01033592,18.3549009 8.01033592,17.9844961 C8.01033592,17.6140913 8.31176572,17.3126615 8.68217054,17.3126615 Z" id="Fill-3" fill="#000000" mask="url(#mask-2)"></path>
                            <path d="M16.124031,17.9844961 C16.124031,19.0958002 17.0282308,20 18.1395349,20 C19.2508389,20 20.1550388,19.0958002 20.1550388,17.9844961 C20.1550388,16.8731921 19.2508389,15.9689922 18.1395349,15.9689922 C17.0282308,15.9689922 16.124031,16.8731921 16.124031,17.9844961 Z M18.1395349,17.3126615 C18.5099397,17.3126615 18.8113695,17.6140913 18.8113695,17.9844961 C18.8113695,18.3549009 18.5099397,18.6563307 18.1395349,18.6563307 C17.7691301,18.6563307 17.4677003,18.3549009 17.4677003,17.9844961 C17.4677003,17.6140913 17.7691301,17.3126615 18.1395349,17.3126615 Z" id="Fill-4" fill="#000000" mask="url(#mask-2)"></path>
                        </g>
                    </g>
                </g>
            </g>
        </g>
    </g>
</svg>