<?xml version="1.0" encoding="utf-8"?>
<!-- Generator: Adobe Illustrator 19.0.0, SVG Export Plug-In . SVG Version: 6.00 Build 0)  -->
<svg version="1.1" id="Layer_1" xmlns="http://www.w3.org/2000/svg" xmlns:xlink="http://www.w3.org/1999/xlink" x="0px" y="0px"
	 viewBox="126 -126 512 512" style="enable-background:new 126 -126 512 512;" xml:space="preserve">
<style type="text/css">
	.st0{fill:#FFCA4F;}
	.st1{fill:#20D0C2;}
	.st2{fill:#1A91A1;}
	.st3{fill:#FFFFFF;}
	.st4{fill:#ECF0F1;}
	.st5{fill:#FF5B61;}
	.st6{fill:#FFBA1B;}
	.st7{fill:#F5A209;}
	.st8{fill:#666666;}
	.st9{fill:#807D7D;}
</style>
<path class="st0" d="M382,386c141,0,256-115,256-256S523-126,382-126c-141,0-256,115-256,256S241,386,382,386z"/>
<path class="st1" d="M301.2,19.7h223.5l50.7,223.9l-18.6,0.1l-0.4,79l19.1,0.1l-0.1,13.2H273.3c-28.6-2.2-26-53-27.6-66.6
	l25.5-227.6C271.3,31.6,281.8,19.7,301.2,19.7L301.2,19.7z"/>
<path class="st2" d="M301.2,19.7h21.4L303.2,336h-29.8c-35-4-36.4-59.7-25-89.6l22.9-204.6C271.3,31.6,281.8,19.7,301.2,19.7
	L301.2,19.7z"/>
<path class="st3" d="M277.2,243.5h292.4c-13.3,27.1-12.9,53.8,0,80.2H277.2C245.8,323.7,245.9,243.5,277.2,243.5z"/>
<path class="st4" d="M256,265.6h305.9c-0.2,0.8-0.3,1.6-0.5,2.4h-306C255.6,267.2,255.7,266.4,256,265.6z M560.4,274L560.4,274
	c-0.1,0.8-0.2,1.6-0.2,2.4H254c0.1-0.8,0.2-1.6,0.3-2.4H560.4z M559.8,282.5L559.8,282.5c0,0.8,0,1.6,0,2.4H253.7c0-0.8,0-1.6,0-2.4
	H559.8z M560.2,290.9L560.2,290.9c0.1,0.8,0.2,1.6,0.2,2.4H254.3c-0.1-0.8-0.2-1.6-0.3-2.4H560.2z M561.3,299.3L561.3,299.3
	c0.2,0.8,0.3,1.6,0.5,2.4H256c-0.2-0.8-0.4-1.6-0.6-2.4H561.3L561.3,299.3z M563.4,307.8L563.4,307.8c0.2,0.8,0.5,1.6,0.7,2.4H259.1
	c-0.4-0.8-0.7-1.6-1.1-2.4H563.4L563.4,307.8z M566.3,316.2L566.3,316.2c0.3,0.8,0.6,1.6,1,2.4H265c-0.8-0.7-1.5-1.5-2.2-2.4H566.3
	L566.3,316.2z"/>
<path class="st5" d="M366.2,284.6h45.7V386l-23-33.1L366.2,386L366.2,284.6L366.2,284.6z"/>
<path class="st3" d="M225,161.5L534.8,50.7c34.7-2.9,45.1,67.7,22.3,74.4L254.4,238.7c-17.2,6.5-34-21.2-35.5-48.3
	c-0.8-14.4,3.1-14,19.5-20.4L225,161.5L225,161.5L225,161.5z"/>
<path class="st4" d="M566.8,114.5c-2,5.3-5.2,9.2-9.7,10.6L254.4,238.7c-5.3,2-10.5,0.8-15.3-2.7c8.6,0.9,13.3-0.3,21.5-8
	L566.8,114.5z"/>
<path class="st6" d="M428.3,88.8c23,3.3,39.4,57.9,27.9,74.1l-41.8,15.7c7.6-25.6-8.9-68.3-31.9-73.4L428.3,88.8z"/>
<path class="st7" d="M502.4,199.4l-46.2-36.4l-41.8,15.7l34.9,40.6l16.1-24.1L502.4,199.4z"/>
<g>
	<path class="st4" d="M236.4,170.9l2-0.8c12.7,2.6,34.8,47.9,10.5,58c-17.3,7.2-25.3-30.4-24.7-42.8c7.4-5.3,15.4,17.1,12.9,17.6
		l-5.1,1c0,0,0.2,9.8,5.1,10.5l19.9-6.4C256.9,207.9,255.3,179,236.4,170.9L236.4,170.9z"/>
	<path class="st4" d="M307.8,260.3h235.5h13.4h6.4c1.6-5.6,3.7-11.2,6.5-16.8c0,0,0,0,0-0.1h-20.9H308.8h-31.6
		c-29,0-31.2,68.7-6.5,79c-8.4-23.7-1.7-62.1,20-62.1L307.8,260.3L307.8,260.3L307.8,260.3z"/>
</g>
<path class="st8" d="M405.2,10.2l2.5,43.9c-14.3,24.2-59.9,42.2-104.8,41.7c-42.8-0.4-85-18.2-96.6-40.6l-0.2-43.1l95.6,26.4
	L405.2,10.2L405.2,10.2L405.2,10.2z"/>
<path class="st9" d="M147.1-5.1l154.6-52.2L456.3-5.1L301.7,47.1L147.1-5.1z"/>
<path class="st5" d="M202,101.8l-7.1,45.3c-0.1,0.7,2.4,1.7,3.6,0.3c1.6,1.9,3.6,1.1,4.2-0.2c0.8,1.3,2.6,2,4,0.1
	c1.2,1.5,3.8,0.4,3.6-0.8l-7-44.7C203.2,101.1,202.1,101.2,202,101.8L202,101.8z"/>
<g>
	<path class="st3" d="M302.7-18.3c0.9-0.3,1.9,0.3,2.2,1.2c0.3,0.9-0.3,1.9-1.2,2.2l-99.4,29.9v86.7c0,1-0.8,1.8-1.8,1.8
		s-1.8-0.8-1.8-1.8v-88l0,0c0-0.8,0.5-1.5,1.3-1.7L302.7-18.3L302.7-18.3L302.7-18.3z"/>
	<path class="st3" d="M202.7,107.6c3.9,0,7-3.2,7-7s-3.2-7-7-7c-3.9,0-7,3.2-7,7C195.7,104.4,198.8,107.6,202.7,107.6z"/>
</g>
<path class="st4" d="M208.4,98.8c0,2.9-1.9,5.4-4.5,6.4c-0.7,0.3-1.5,0.4-2.3,0.4c0,0-0.1,0-0.1,0c-2.3,0-4.3-1.2-5.5-3
	c0.7,2.5,2.7,4.4,5.2,4.9c0.5,0.1,1,0.2,1.5,0.2c0.5,0,1.1-0.1,1.6-0.2c3.1-0.7,5.5-3.5,5.5-6.8c0-2-0.8-3.8-2.2-5.1
	C208,96.4,208.4,97.6,208.4,98.8L208.4,98.8z"/>
</svg>
