<?xml version="1.0" encoding="UTF-8"?>
<svg width="78px" height="79px" viewBox="0 0 78 79" version="1.1" xmlns="http://www.w3.org/2000/svg" xmlns:xlink="http://www.w3.org/1999/xlink">
    <!-- Generator: Sketch 52.4 (67378) - http://www.bohemiancoding.com/sketch -->
    <title>team</title>
    <desc>Created with Sketch.</desc>
    <defs>
        <polygon id="path-1" points="0.00943548387 0.00635814889 78 0.00635814889 78 78.8410463 0.00943548387 78.8410463"></polygon>
    </defs>
    <g id="Page-1" stroke="none" stroke-width="1" fill="none" fill-rule="evenodd">
        <g id="About-us" transform="translate(-234.000000, -1976.000000)">
            <g id="Group-7" transform="translate(141.000000, 1950.000000)">
                <g id="team" transform="translate(93.000000, 26.000000)">
                    <g id="Group-3">
                        <mask id="mask-2" fill="white">
                            <use xlink:href="#path-1"></use>
                        </mask>
                        <g id="Clip-2"></g>
                        <path d="M70.9265323,64.4247384 C72.1728024,63.2629457 72.968371,61.6125292 72.968371,59.7672354 L72.968371,57.2239759 C72.968371,53.7182515 70.146375,50.865827 66.6780484,50.865827 C63.6409234,50.865827 61.0996331,53.0544608 60.5143185,55.9523461 L56.3818911,55.9523461 C55.8610524,54.4758249 54.4770242,53.4090865 52.8393387,53.4090865 C51.2016532,53.4090865 49.817625,54.4758249 49.2967863,55.9523461 L45.1643589,55.9523461 C44.6625484,53.4648793 42.7194677,51.5016419 40.2593226,50.9942616 L40.2593226,48.141837 C42.4239798,47.5737364 44.0335161,45.5998491 44.0335161,43.2360483 L45.2915806,43.2360483 C45.9869758,43.2360483 46.5496452,42.6679477 46.5496452,41.9644185 L46.5496452,38.150165 L49.0657742,38.150165 L49.0657742,35.6069054 L46.5496452,35.6069054 L46.5496452,35.5932354 C46.5496452,33.1604487 47.6903952,30.7693078 49.6793952,29.037666 C53.2859516,25.8927666 55.3554677,21.3352455 55.3554677,16.5324588 C55.3554677,11.9911509 53.5696452,7.75646479 50.3287137,4.60902213 C47.0890403,1.46157948 42.806746,-0.181366197 38.3267782,0.0162132797 C29.8348427,0.361937626 22.8011613,7.63661368 22.6494073,16.2312414 C22.5622863,21.0961791 24.5918589,25.729998 28.2168145,28.9451549 C30.2119476,30.7122435 31.3717258,33.1300885 31.4399758,35.6069054 L28.9367419,35.6069054 L28.9367419,38.150165 L31.452871,38.150165 L31.452871,41.9644185 C31.452871,42.6679477 32.0149113,43.2360483 32.7109355,43.2360483 L33.969,43.2360483 C33.969,45.5998491 35.57775,47.5737364 37.7431935,48.141837 L37.7431935,50.9942616 C35.2822621,51.5016419 33.3399677,53.4648793 32.837371,55.9523461 L28.7051008,55.9523461 C28.1842621,54.4758249 26.8002339,53.4090865 25.1631774,53.4090865 C23.5248629,53.4090865 22.1408347,54.4758249 21.6198387,55.9523461 L17.4875685,55.9523461 C16.9020968,53.0544608 14.3620645,50.865827 11.3244677,50.865827 C7.8555121,50.865827 5.03414516,53.7182515 5.03414516,57.2239759 L5.03414516,59.7672354 C5.03414516,61.6125292 5.82892742,63.2629457 7.07535484,64.4247384 C2.93254839,66.1272918 0.00251612903,70.234497 0.00251612903,75.0261569 L0.00251612903,77.5694165 C0.00251612903,78.2729457 0.564556452,78.8410463 1.25995161,78.8410463 L21.3889839,78.8410463 C22.084379,78.8410463 22.6470484,78.2729457 22.6470484,77.5694165 L22.6470484,75.0261569 C22.6470484,70.234497 19.7156008,66.1272918 15.5727944,64.4247384 C16.8192218,63.2629457 17.6147903,61.6125292 17.6147903,59.7672354 L17.6147903,58.4956056 L21.6198387,58.4956056 C22.1408347,59.9721268 23.5248629,61.0388652 25.1631774,61.0388652 C26.8002339,61.0388652 28.1842621,59.9721268 28.7051008,58.4956056 L32.7109355,58.4956056 L32.7109355,59.7672354 C32.7109355,61.6125292 33.5057177,63.2629457 34.7521452,64.4247384 C30.609496,66.1272918 27.6786774,70.234497 27.6786774,75.0261569 L27.6786774,77.5694165 C27.6786774,78.2729457 28.2407177,78.8410463 28.9367419,78.8410463 L49.0657742,78.8410463 C49.7611694,78.8410463 50.3238387,78.2729457 50.3238387,77.5694165 L50.3238387,75.0261569 C50.3238387,70.234497 47.3923911,66.1272918 43.2495847,64.4247384 C44.4960121,63.2629457 45.2915806,61.6125292 45.2915806,59.7672354 L45.2915806,58.4956056 L49.2967863,58.4956056 C49.817625,59.9721268 51.2016532,61.0388652 52.8393387,61.0388652 C54.4770242,61.0388652 55.8610524,59.9721268 56.3818911,58.4956056 L60.3877258,58.4956056 L60.3877258,59.7672354 C60.3877258,61.6125292 61.1826653,63.2629457 62.4289355,64.4247384 C58.2862863,66.1272918 55.3554677,70.234497 55.3554677,75.0261569 L55.3554677,77.5694165 C55.3554677,78.2729457 55.9175081,78.8410463 56.6135323,78.8410463 L76.7425645,78.8410463 C77.4373306,78.8410463 78,78.2729457 78,77.5694165 L78,75.0261569 C78,70.234497 75.0691815,66.1272918 70.9265323,64.4247384 Z M20.1309194,75.0261569 L20.1309194,76.2977867 L17.6147903,76.2977867 L17.6147903,73.7545272 L15.0986613,73.7545272 L15.0986613,76.2977867 L7.55027419,76.2977867 L7.55027419,73.7545272 L5.03414516,73.7545272 L5.03414516,76.2977867 L2.51801613,76.2977867 L2.51801613,75.0261569 C2.51801613,70.1190966 6.469125,66.1247485 11.3244677,66.1247485 C16.1791815,66.1247485 20.1309194,70.1190966 20.1309194,75.0261569 Z M7.55027419,59.7672354 L7.55027419,57.2239759 C7.55027419,55.1208592 9.24315726,53.4090865 11.3244677,53.4090865 C13.4049919,53.4090865 15.0986613,55.1208592 15.0986613,57.2239759 L15.0986613,59.7672354 C15.0986613,61.8701932 13.4049919,63.5821247 11.3244677,63.5821247 C9.24315726,63.5821247 7.55027419,61.8701932 7.55027419,59.7672354 Z M25.1631774,58.4956056 C24.4684113,58.4956056 23.9051129,57.9262334 23.9051129,57.2239759 C23.9051129,56.5223541 24.4684113,55.9523461 25.1631774,55.9523461 C25.8573145,55.9523461 26.4206129,56.5223541 26.4206129,57.2239759 C26.4206129,57.9262334 25.8573145,58.4956056 25.1631774,58.4956056 Z M29.8747863,27.0319879 C26.807625,24.3124487 25.0913105,20.3920141 25.1655363,16.2754306 C25.2952742,9.0039336 31.2440323,2.84940443 38.4274234,2.55629376 C42.265621,2.41530181 45.8449718,3.78262173 48.5847218,6.44382495 C51.3287177,9.10566398 52.8393387,12.6902294 52.8393387,16.5324588 C52.8393387,20.594998 51.0885847,24.4508974 48.0362056,27.1097163 C45.4923992,29.3275976 44.0335161,32.4190885 44.0335161,35.5932354 L44.0335161,35.6069054 L33.9561048,35.6069054 C33.8878548,32.3985835 32.4160766,29.2829316 29.8747863,27.0319879 Z M33.969,40.6927887 L44.0335161,40.6927887 L44.0335161,38.150165 L33.969,38.150165 L33.969,40.6927887 Z M36.485129,43.2360483 L41.5173871,43.2360483 C41.5173871,44.6386559 40.3882742,45.7793078 39.0012581,45.7793078 C37.6136129,45.7793078 36.485129,44.6386559 36.485129,43.2360483 Z M47.8077097,75.0261569 L47.8077097,76.2977867 L45.2915806,76.2977867 L45.2915806,73.7545272 L42.7754516,73.7545272 L42.7754516,76.2977867 L35.2270645,76.2977867 L35.2270645,73.7545272 L32.7109355,73.7545272 L32.7109355,76.2977867 L30.1948065,76.2977867 L30.1948065,75.0261569 C30.1948065,70.1190966 34.1459153,66.1247485 39.0012581,66.1247485 C43.8559718,66.1247485 47.8077097,70.1190966 47.8077097,75.0261569 Z M35.2270645,59.7672354 L35.2270645,57.2239759 C35.2270645,55.1208592 36.9199476,53.4090865 39.0012581,53.4090865 C41.0817823,53.4090865 42.7754516,55.1208592 42.7754516,57.2239759 L42.7754516,59.7672354 C42.7754516,61.8701932 41.0817823,63.5821247 39.0012581,63.5821247 C36.9199476,63.5821247 35.2270645,61.8701932 35.2270645,59.7672354 Z M52.8393387,58.4956056 C52.1445726,58.4956056 51.5819032,57.9262334 51.5819032,57.2239759 C51.5819032,56.5223541 52.1445726,55.9523461 52.8393387,55.9523461 C53.5334758,55.9523461 54.0974032,56.5223541 54.0974032,57.2239759 C54.0974032,57.9262334 53.5334758,58.4956056 52.8393387,58.4956056 Z M62.9038548,59.7672354 L62.9038548,57.2239759 C62.9038548,55.1208592 64.5968952,53.4090865 66.6780484,53.4090865 C68.7585726,53.4090865 70.4522419,55.1208592 70.4522419,57.2239759 L70.4522419,59.7672354 C70.4522419,61.8701932 68.7585726,63.5821247 66.6780484,63.5821247 C64.5968952,63.5821247 62.9038548,61.8701932 62.9038548,59.7672354 Z M75.4845,76.2977867 L72.968371,76.2977867 L72.968371,73.7545272 L70.4522419,73.7545272 L70.4522419,76.2977867 L62.9038548,76.2977867 L62.9038548,73.7545272 L60.3877258,73.7545272 L60.3877258,76.2977867 L57.8715968,76.2977867 L57.8715968,75.0261569 C57.8715968,70.1190966 61.8227056,66.1247485 66.6780484,66.1247485 C71.5327621,66.1247485 75.4845,70.1190966 75.4845,75.0261569 L75.4845,76.2977867 Z" id="Fill-1" fill="#386874" mask="url(#mask-2)"></path>
                    </g>
                    <polygon id="Fill-4" fill="#71D6D7" points="37 33 42 33 42 30 37 30"></polygon>
                    <path d="M37.7142857,23.2984571 L37.7142857,26 L40.2857143,26 L40.2857143,23.2984571 C41.1043929,23.131469 41.8658571,22.8050466 42.5394107,22.3574413 L44.5195714,24.3375121 L46.3369286,22.5194471 L44.3575714,20.5392157 C44.8045179,19.8656381 45.1309286,19.1046287 45.2985536,18.2854388 L48,18.2854388 L48,15.7139184 L45.2985536,15.7139184 C45.1309286,14.8945677 44.8045179,14.1337191 44.3575714,13.4599807 L46.3369286,11.4805529 L44.5195714,9.66232723 L42.5394107,11.6425587 C41.8658571,11.1949534 41.1043929,10.8683703 40.2857143,10.7013822 L40.2857143,8 L37.7142857,8 L37.7142857,10.7013822 C36.8949643,10.8683703 36.1341429,11.1949534 35.4597857,11.6425587 L33.4797857,9.66232723 L31.6624286,11.4805529 L33.6424286,13.4599807 C33.1948393,14.1337191 32.8682679,14.8945677 32.7006429,15.7139184 L30,15.7139184 L30,18.2854388 L32.7006429,18.2854388 C32.8682679,19.1046287 33.1948393,19.8656381 33.6424286,20.5392157 L31.6624286,22.5194471 L33.4797857,24.3375121 L35.4597857,22.3574413 C36.1341429,22.8050466 36.8949643,23.131469 37.7142857,23.2984571 Z M39,13.1430408 C41.12625,13.1430408 42.8571429,14.8731919 42.8571429,16.9996786 C42.8571429,19.1260045 41.12625,20.8569592 39,20.8569592 C36.8729464,20.8569592 35.1428571,19.1260045 35.1428571,16.9996786 C35.1428571,14.8731919 36.8729464,13.1430408 39,13.1430408 Z" id="Fill-5" fill="#71D6D7"></path>
                </g>
            </g>
        </g>
    </g>
</svg>